<?xml version="1.0" encoding="UTF-8" standalone="no"?>
<!DOCTYPE svg PUBLIC "-//W3C//DTD SVG 1.1//EN"
 "http://www.w3.org/Graphics/SVG/1.1/DTD/svg11.dtd">
<!-- Generated by graphviz version 2.47.0 (20210316.0004)
 -->
<!-- Title: dependencies Pages: 1 -->
<svg width="1868pt" height="211pt"
 viewBox="0.00 0.00 1868.00 211.00" xmlns="http://www.w3.org/2000/svg" xmlns:xlink="http://www.w3.org/1999/xlink">
<g id="graph0" class="graph" transform="scale(1 1) rotate(0) translate(4 207)">
<title>dependencies</title>
<polygon fill="white" stroke="transparent" points="-4,4 -4,-207 1864,-207 1864,4 -4,4"/>
<text text-anchor="start" x="909.01" y="-42.4" font-family="Times-12" font-weight="bold" font-size="14.00">Legend</text>
<polygon fill="#ffffb3" stroke="transparent" points="696,-10 696,-30 716,-30 716,-10 696,-10"/>
<text text-anchor="start" x="719.63" y="-15.4" font-family="Times-12" font-size="14.00"> &#160;Declarations</text>
<polygon fill="#8dd3c7" stroke="transparent" points="809,-10 809,-30 829,-30 829,-10 809,-10"/>
<text text-anchor="start" x="832.73" y="-15.4" font-family="Times-12" font-size="14.00"> &#160;Module</text>
<polygon fill="#80b1d3" stroke="transparent" points="895,-10 895,-30 915,-30 915,-10 895,-10"/>
<text text-anchor="start" x="918.78" y="-15.4" font-family="Times-12" font-size="14.00"> &#160;Bootstrap</text>
<polygon fill="#fdb462" stroke="transparent" points="992,-10 992,-30 1012,-30 1012,-10 992,-10"/>
<text text-anchor="start" x="1015.67" y="-15.4" font-family="Times-12" font-size="14.00"> &#160;Providers</text>
<polygon fill="#fb8072" stroke="transparent" points="1088,-10 1088,-30 1108,-30 1108,-10 1088,-10"/>
<text text-anchor="start" x="1111.73" y="-15.4" font-family="Times-12" font-size="14.00"> &#160;Exports</text>
<g id="clust1" class="cluster">
<title>cluster_MetadataModule</title>
<polygon fill="none" stroke="black" stroke-dasharray="1,5" points="8,-70 8,-195 1852,-195 1852,-70 8,-70"/>
</g>
<g id="clust2" class="cluster">
<title>cluster_MetadataModule_declarations</title>
<polygon fill="none" stroke="black" points="744,-78 744,-130 1844,-130 1844,-78 744,-78"/>
</g>
<g id="clust13" class="cluster">
<title>cluster_MetadataModule_providers</title>
<polygon fill="none" stroke="black" points="178,-78 178,-130 736,-130 736,-78 178,-78"/>
</g>
<g id="clust10" class="cluster">
<title>cluster_MetadataModule_imports</title>
<polygon fill="none" stroke="black" points="16,-78 16,-130 170,-130 170,-78 16,-78"/>
</g>
<!-- ActorComponent -->
<g id="node1" class="node">
<title>ActorComponent</title>
<polygon fill="#ffffb3" stroke="black" points="1835.7,-122 1722.3,-122 1722.3,-86 1835.7,-86 1835.7,-122"/>
<text text-anchor="middle" x="1779" y="-99.8" font-family="Times,serif" font-size="14.00">ActorComponent</text>
</g>
<!-- MetadataModule -->
<g id="node8" class="node">
<title>MetadataModule</title>
<polygon fill="#8dd3c7" stroke="black" points="1067.63,-187 1064.63,-191 1043.63,-191 1040.63,-187 956.37,-187 956.37,-151 1067.63,-151 1067.63,-187"/>
<text text-anchor="middle" x="1012" y="-164.8" font-family="Times,serif" font-size="14.00">MetadataModule</text>
</g>
<!-- ActorComponent&#45;&gt;MetadataModule -->
<g id="edge1" class="edge">
<title>ActorComponent&#45;&gt;MetadataModule</title>
<path fill="none" stroke="black" d="M1779,-122.09C1779,-145.13 1779,-182 1779,-182 1779,-182 1077.78,-182 1077.78,-182"/>
<polygon fill="black" stroke="black" points="1077.78,-178.5 1067.78,-182 1077.78,-185.5 1077.78,-178.5"/>
</g>
<!-- AfCardComponent -->
<g id="node2" class="node">
<title>AfCardComponent</title>
<polygon fill="#ffffb3" stroke="black" points="1704.81,-122 1581.19,-122 1581.19,-86 1704.81,-86 1704.81,-122"/>
<text text-anchor="middle" x="1643" y="-99.8" font-family="Times,serif" font-size="14.00">AfCardComponent</text>
</g>
<!-- AfCardComponent&#45;&gt;MetadataModule -->
<g id="edge2" class="edge">
<title>AfCardComponent&#45;&gt;MetadataModule</title>
<path fill="none" stroke="black" d="M1643,-122.28C1643,-143.32 1643,-175 1643,-175 1643,-175 1077.72,-175 1077.72,-175"/>
<polygon fill="black" stroke="black" points="1077.72,-171.5 1067.72,-175 1077.72,-178.5 1077.72,-171.5"/>
</g>
<!-- AfFormComponent -->
<g id="node3" class="node">
<title>AfFormComponent</title>
<polygon fill="#ffffb3" stroke="black" points="1563.43,-122 1436.57,-122 1436.57,-86 1563.43,-86 1563.43,-122"/>
<text text-anchor="middle" x="1500" y="-99.8" font-family="Times,serif" font-size="14.00">AfFormComponent</text>
</g>
<!-- AfFormComponent&#45;&gt;MetadataModule -->
<g id="edge3" class="edge">
<title>AfFormComponent&#45;&gt;MetadataModule</title>
<path fill="none" stroke="black" d="M1500,-122.11C1500,-141.34 1500,-169 1500,-169 1500,-169 1077.98,-169 1077.98,-169"/>
<polygon fill="black" stroke="black" points="1077.98,-165.5 1067.98,-169 1077.98,-172.5 1077.98,-165.5"/>
</g>
<!-- DatasetCardComponent -->
<g id="node4" class="node">
<title>DatasetCardComponent</title>
<polygon fill="#ffffb3" stroke="black" points="1419.02,-122 1268.98,-122 1268.98,-86 1419.02,-86 1419.02,-122"/>
<text text-anchor="middle" x="1344" y="-99.8" font-family="Times,serif" font-size="14.00">DatasetCardComponent</text>
</g>
<!-- DatasetCardComponent&#45;&gt;MetadataModule -->
<g id="edge4" class="edge">
<title>DatasetCardComponent&#45;&gt;MetadataModule</title>
<path fill="none" stroke="black" d="M1344,-122.02C1344,-139.37 1344,-163 1344,-163 1344,-163 1077.94,-163 1077.94,-163"/>
<polygon fill="black" stroke="black" points="1077.94,-159.5 1067.94,-163 1077.94,-166.5 1077.94,-159.5"/>
</g>
<!-- DatasetFormComponent -->
<g id="node5" class="node">
<title>DatasetFormComponent</title>
<polygon fill="#ffffb3" stroke="black" points="1250.64,-122 1097.36,-122 1097.36,-86 1250.64,-86 1250.64,-122"/>
<text text-anchor="middle" x="1174" y="-99.8" font-family="Times,serif" font-size="14.00">DatasetFormComponent</text>
</g>
<!-- DatasetFormComponent&#45;&gt;MetadataModule -->
<g id="edge5" class="edge">
<title>DatasetFormComponent&#45;&gt;MetadataModule</title>
<path fill="none" stroke="black" d="M1174,-122.24C1174,-137.57 1174,-157 1174,-157 1174,-157 1077.75,-157 1077.75,-157"/>
<polygon fill="black" stroke="black" points="1077.75,-153.5 1067.75,-157 1077.75,-160.5 1077.75,-153.5"/>
</g>
<!-- MetadataComponent -->
<g id="node6" class="node">
<title>MetadataComponent</title>
<polygon fill="#ffffb3" stroke="black" points="1078.92,-122 945.08,-122 945.08,-86 1078.92,-86 1078.92,-122"/>
<text text-anchor="middle" x="1012" y="-99.8" font-family="Times,serif" font-size="14.00">MetadataComponent</text>
</g>
<!-- MetadataComponent&#45;&gt;MetadataModule -->
<g id="edge6" class="edge">
<title>MetadataComponent&#45;&gt;MetadataModule</title>
<path fill="none" stroke="black" d="M1012,-122.11C1012,-122.11 1012,-140.99 1012,-140.99"/>
<polygon fill="black" stroke="black" points="1008.5,-140.99 1012,-150.99 1015.5,-140.99 1008.5,-140.99"/>
</g>
<!-- MetadataDatasetComponent -->
<g id="node7" class="node">
<title>MetadataDatasetComponent</title>
<polygon fill="#ffffb3" stroke="black" points="927.89,-122 752.11,-122 752.11,-86 927.89,-86 927.89,-122"/>
<text text-anchor="middle" x="840" y="-99.8" font-family="Times,serif" font-size="14.00">MetadataDatasetComponent</text>
</g>
<!-- MetadataDatasetComponent&#45;&gt;MetadataModule -->
<g id="edge7" class="edge">
<title>MetadataDatasetComponent&#45;&gt;MetadataModule</title>
<path fill="none" stroke="black" d="M840,-122.24C840,-137.57 840,-157 840,-157 840,-157 946.16,-157 946.16,-157"/>
<polygon fill="black" stroke="black" points="946.16,-160.5 956.16,-157 946.16,-153.5 946.16,-160.5"/>
</g>
<!-- GN2CommonModule -->
<g id="node9" class="node">
<title>GN2CommonModule</title>
<polygon fill="#8dd3c7" stroke="black" points="162.38,-122 159.38,-126 138.38,-126 135.38,-122 23.62,-122 23.62,-86 162.38,-86 162.38,-122"/>
<text text-anchor="middle" x="93" y="-99.8" font-family="Times,serif" font-size="14.00">GN2CommonModule</text>
</g>
<!-- GN2CommonModule&#45;&gt;MetadataModule -->
<g id="edge8" class="edge">
<title>GN2CommonModule&#45;&gt;MetadataModule</title>
<path fill="none" stroke="black" d="M93,-122.09C93,-145.13 93,-182 93,-182 93,-182 946.24,-182 946.24,-182"/>
<polygon fill="black" stroke="black" points="946.24,-185.5 956.24,-182 946.24,-178.5 946.24,-185.5"/>
</g>
<!-- ActorFormService -->
<g id="node10" class="node">
<title>ActorFormService</title>
<ellipse fill="#fdb462" stroke="black" cx="645" cy="-104" rx="82.8" ry="18"/>
<text text-anchor="middle" x="645" y="-99.8" font-family="Times,serif" font-size="14.00">ActorFormService</text>
</g>
<!-- ActorFormService&#45;&gt;MetadataModule -->
<g id="edge9" class="edge">
<title>ActorFormService&#45;&gt;MetadataModule</title>
<path fill="none" stroke="black" d="M645,-122.02C645,-139.37 645,-163 645,-163 645,-163 946.26,-163 946.26,-163"/>
<polygon fill="black" stroke="black" points="946.26,-166.5 956.26,-163 946.26,-159.5 946.26,-166.5"/>
</g>
<!-- MetadataDataService -->
<g id="node11" class="node">
<title>MetadataDataService</title>
<ellipse fill="#fdb462" stroke="black" cx="450" cy="-104" rx="94.29" ry="18"/>
<text text-anchor="middle" x="450" y="-99.8" font-family="Times,serif" font-size="14.00">MetadataDataService</text>
</g>
<!-- MetadataDataService&#45;&gt;MetadataModule -->
<g id="edge10" class="edge">
<title>MetadataDataService&#45;&gt;MetadataModule</title>
<path fill="none" stroke="black" d="M450,-122.11C450,-141.34 450,-169 450,-169 450,-169 946.32,-169 946.32,-169"/>
<polygon fill="black" stroke="black" points="946.32,-172.5 956.32,-169 946.32,-165.5 946.32,-172.5"/>
</g>
<!-- MetadataService -->
<g id="node12" class="node">
<title>MetadataService</title>
<ellipse fill="#fdb462" stroke="black" cx="262" cy="-104" rx="75.84" ry="18"/>
<text text-anchor="middle" x="262" y="-99.8" font-family="Times,serif" font-size="14.00">MetadataService</text>
</g>
<!-- MetadataService&#45;&gt;MetadataModule -->
<g id="edge11" class="edge">
<title>MetadataService&#45;&gt;MetadataModule</title>
<path fill="none" stroke="black" d="M262,-122.28C262,-143.32 262,-175 262,-175 262,-175 946.24,-175 946.24,-175"/>
<polygon fill="black" stroke="black" points="946.24,-178.5 956.24,-175 946.24,-171.5 946.24,-178.5"/>
</g>
</g>
</svg>
