<?xml version="1.0" encoding="UTF-8" standalone="no"?>
<!DOCTYPE svg PUBLIC "-//W3C//DTD SVG 1.1//EN"
 "http://www.w3.org/Graphics/SVG/1.1/DTD/svg11.dtd">
<!-- Generated by graphviz version 2.47.0 (20210316.0004)
 -->
<!-- Title: dependencies Pages: 1 -->
<svg width="736pt" height="284pt"
 viewBox="0.00 0.00 736.00 284.00" xmlns="http://www.w3.org/2000/svg" xmlns:xlink="http://www.w3.org/1999/xlink">
<g id="graph0" class="graph" transform="scale(1 1) rotate(0) translate(4 280)">
<title>dependencies</title>
<polygon fill="white" stroke="transparent" points="-4,4 -4,-280 732,-280 732,4 -4,4"/>
<text text-anchor="start" x="343.01" y="-42.4" font-family="Times-12" font-weight="bold" font-size="14.00">Legend</text>
<polygon fill="#ffffb3" stroke="transparent" points="130,-10 130,-30 150,-30 150,-10 130,-10"/>
<text text-anchor="start" x="153.63" y="-15.4" font-family="Times-12" font-size="14.00"> &#160;Declarations</text>
<polygon fill="#8dd3c7" stroke="transparent" points="243,-10 243,-30 263,-30 263,-10 243,-10"/>
<text text-anchor="start" x="266.73" y="-15.4" font-family="Times-12" font-size="14.00"> &#160;Module</text>
<polygon fill="#80b1d3" stroke="transparent" points="329,-10 329,-30 349,-30 349,-10 329,-10"/>
<text text-anchor="start" x="352.78" y="-15.4" font-family="Times-12" font-size="14.00"> &#160;Bootstrap</text>
<polygon fill="#fdb462" stroke="transparent" points="426,-10 426,-30 446,-30 446,-10 426,-10"/>
<text text-anchor="start" x="449.67" y="-15.4" font-family="Times-12" font-size="14.00"> &#160;Providers</text>
<polygon fill="#fb8072" stroke="transparent" points="522,-10 522,-30 542,-30 542,-10 522,-10"/>
<text text-anchor="start" x="545.73" y="-15.4" font-family="Times-12" font-size="14.00"> &#160;Exports</text>
<g id="clust1" class="cluster">
<title>cluster_SharedSyntheseModule</title>
<polygon fill="none" stroke="black" stroke-dasharray="1,5" points="8,-70 8,-268 720,-268 720,-70 8,-70"/>
</g>
<g id="clust2" class="cluster">
<title>cluster_SharedSyntheseModule_declarations</title>
<polygon fill="none" stroke="black" points="178,-78 178,-130 712,-130 712,-78 178,-78"/>
</g>
<g id="clust6" class="cluster">
<title>cluster_SharedSyntheseModule_imports</title>
<polygon fill="none" stroke="black" points="16,-78 16,-130 170,-130 170,-78 16,-78"/>
</g>
<g id="clust7" class="cluster">
<title>cluster_SharedSyntheseModule_exports</title>
<polygon fill="none" stroke="black" points="92,-208 92,-260 635,-260 635,-208 92,-208"/>
</g>
<!-- AlertInfoComponent -->
<g id="node1" class="node">
<title>AlertInfoComponent</title>
<polygon fill="#ffffb3" stroke="black" points="703.92,-122 570.08,-122 570.08,-86 703.92,-86 703.92,-122"/>
<text text-anchor="middle" x="637" y="-99.8" font-family="Times,serif" font-size="14.00">AlertInfoComponent</text>
</g>
<!-- SharedSyntheseModule -->
<g id="node4" class="node">
<title>SharedSyntheseModule</title>
<polygon fill="#8dd3c7" stroke="black" points="460.47,-187 457.47,-191 436.47,-191 433.47,-187 311.53,-187 311.53,-151 460.47,-151 460.47,-187"/>
<text text-anchor="middle" x="386" y="-164.8" font-family="Times,serif" font-size="14.00">SharedSyntheseModule</text>
</g>
<!-- AlertInfoComponent&#45;&gt;SharedSyntheseModule -->
<g id="edge1" class="edge">
<title>AlertInfoComponent&#45;&gt;SharedSyntheseModule</title>
<path fill="none" stroke="black" d="M598.88,-122.02C598.88,-139.37 598.88,-163 598.88,-163 598.88,-163 470.75,-163 470.75,-163"/>
<polygon fill="black" stroke="black" points="470.75,-159.5 460.75,-163 470.75,-166.5 470.75,-159.5"/>
</g>
<!-- DiscussionCardComponent -->
<g id="node2" class="node">
<title>DiscussionCardComponent</title>
<polygon fill="#ffffb3" stroke="black" points="551.98,-122 382.02,-122 382.02,-86 551.98,-86 551.98,-122"/>
<text text-anchor="middle" x="467" y="-99.8" font-family="Times,serif" font-size="14.00">DiscussionCardComponent</text>
</g>
<!-- DiscussionCardComponent&#45;&gt;SharedSyntheseModule -->
<g id="edge2" class="edge">
<title>DiscussionCardComponent&#45;&gt;SharedSyntheseModule</title>
<path fill="none" stroke="black" d="M421.25,-122.11C421.25,-122.11 421.25,-140.99 421.25,-140.99"/>
<polygon fill="black" stroke="black" points="417.75,-140.99 421.25,-150.99 424.75,-140.99 417.75,-140.99"/>
</g>
<!-- SyntheseInfoObsComponent -->
<g id="node3" class="node">
<title>SyntheseInfoObsComponent</title>
<polygon fill="#ffffb3" stroke="black" points="363.75,-122 186.25,-122 186.25,-86 363.75,-86 363.75,-122"/>
<text text-anchor="middle" x="275" y="-99.8" font-family="Times,serif" font-size="14.00">SyntheseInfoObsComponent</text>
</g>
<!-- SyntheseInfoObsComponent&#45;&gt;SharedSyntheseModule -->
<g id="edge3" class="edge">
<title>SyntheseInfoObsComponent&#45;&gt;SharedSyntheseModule</title>
<path fill="none" stroke="black" d="M337.7,-122.11C337.7,-122.11 337.7,-140.99 337.7,-140.99"/>
<polygon fill="black" stroke="black" points="334.2,-140.99 337.7,-150.99 341.2,-140.99 334.2,-140.99"/>
</g>
<!-- AlertInfoComponent  -->
<g id="node6" class="node">
<title>AlertInfoComponent </title>
<polygon fill="#fb8072" stroke="black" points="627.42,-252 490.58,-252 490.58,-216 627.42,-216 627.42,-252"/>
<text text-anchor="middle" x="559" y="-229.8" font-family="Times,serif" font-size="14.00">AlertInfoComponent </text>
</g>
<!-- SharedSyntheseModule&#45;&gt;AlertInfoComponent  -->
<g id="edge5" class="edge">
<title>SharedSyntheseModule&#45;&gt;AlertInfoComponent </title>
<path fill="none" stroke="black" stroke-dasharray="5,2" d="M460.75,-175C492.04,-175 521.27,-175 521.27,-175 521.27,-175 521.27,-205.98 521.27,-205.98"/>
<polygon fill="black" stroke="black" points="517.77,-205.98 521.27,-215.98 524.77,-205.98 517.77,-205.98"/>
</g>
<!-- DiscussionCardComponent  -->
<g id="node7" class="node">
<title>DiscussionCardComponent </title>
<polygon fill="#fb8072" stroke="black" points="472.98,-252 299.02,-252 299.02,-216 472.98,-216 472.98,-252"/>
<text text-anchor="middle" x="386" y="-229.8" font-family="Times,serif" font-size="14.00">DiscussionCardComponent </text>
</g>
<!-- SharedSyntheseModule&#45;&gt;DiscussionCardComponent  -->
<g id="edge6" class="edge">
<title>SharedSyntheseModule&#45;&gt;DiscussionCardComponent </title>
<path fill="none" stroke="black" stroke-dasharray="5,2" d="M386,-187.11C386,-187.11 386,-205.99 386,-205.99"/>
<polygon fill="black" stroke="black" points="382.5,-205.99 386,-215.99 389.5,-205.99 382.5,-205.99"/>
</g>
<!-- SyntheseInfoObsComponent  -->
<g id="node8" class="node">
<title>SyntheseInfoObsComponent </title>
<polygon fill="#fb8072" stroke="black" points="281.75,-252 100.25,-252 100.25,-216 281.75,-216 281.75,-252"/>
<text text-anchor="middle" x="191" y="-229.8" font-family="Times,serif" font-size="14.00">SyntheseInfoObsComponent </text>
</g>
<!-- SharedSyntheseModule&#45;&gt;SyntheseInfoObsComponent  -->
<g id="edge7" class="edge">
<title>SharedSyntheseModule&#45;&gt;SyntheseInfoObsComponent </title>
<path fill="none" stroke="black" stroke-dasharray="5,2" d="M311.27,-175C272.8,-175 233.88,-175 233.88,-175 233.88,-175 233.88,-205.98 233.88,-205.98"/>
<polygon fill="black" stroke="black" points="230.38,-205.98 233.88,-215.98 237.38,-205.98 230.38,-205.98"/>
</g>
<!-- GN2CommonModule -->
<g id="node5" class="node">
<title>GN2CommonModule</title>
<polygon fill="#8dd3c7" stroke="black" points="162.38,-122 159.38,-126 138.38,-126 135.38,-122 23.62,-122 23.62,-86 162.38,-86 162.38,-122"/>
<text text-anchor="middle" x="93" y="-99.8" font-family="Times,serif" font-size="14.00">GN2CommonModule</text>
</g>
<!-- GN2CommonModule&#45;&gt;SharedSyntheseModule -->
<g id="edge4" class="edge">
<title>GN2CommonModule&#45;&gt;SharedSyntheseModule</title>
<path fill="none" stroke="black" d="M131.41,-122.02C131.41,-139.37 131.41,-163 131.41,-163 131.41,-163 301.33,-163 301.33,-163"/>
<polygon fill="black" stroke="black" points="301.33,-166.5 311.33,-163 301.33,-159.5 301.33,-166.5"/>
</g>
</g>
</svg>
