<?xml version="1.0" encoding="UTF-8" standalone="no"?>
<!DOCTYPE svg PUBLIC "-//W3C//DTD SVG 1.1//EN"
 "http://www.w3.org/Graphics/SVG/1.1/DTD/svg11.dtd">
<!-- Generated by graphviz version 2.47.0 (20210316.0004)
 -->
<!-- Title: dependencies Pages: 1 -->
<svg width="1247pt" height="349pt"
 viewBox="0.00 0.00 1247.00 349.00" xmlns="http://www.w3.org/2000/svg" xmlns:xlink="http://www.w3.org/1999/xlink">
<g id="graph0" class="graph" transform="scale(1 1) rotate(0) translate(4 345)">
<title>dependencies</title>
<polygon fill="white" stroke="transparent" points="-4,4 -4,-345 1243,-345 1243,4 -4,4"/>
<text text-anchor="start" x="598.51" y="-42.4" font-family="Times-12" font-weight="bold" font-size="14.00">Legend</text>
<polygon fill="#ffffb3" stroke="transparent" points="385.5,-10 385.5,-30 405.5,-30 405.5,-10 385.5,-10"/>
<text text-anchor="start" x="409.13" y="-15.4" font-family="Times-12" font-size="14.00"> &#160;Declarations</text>
<polygon fill="#8dd3c7" stroke="transparent" points="498.5,-10 498.5,-30 518.5,-30 518.5,-10 498.5,-10"/>
<text text-anchor="start" x="522.23" y="-15.4" font-family="Times-12" font-size="14.00"> &#160;Module</text>
<polygon fill="#80b1d3" stroke="transparent" points="584.5,-10 584.5,-30 604.5,-30 604.5,-10 584.5,-10"/>
<text text-anchor="start" x="608.28" y="-15.4" font-family="Times-12" font-size="14.00"> &#160;Bootstrap</text>
<polygon fill="#fdb462" stroke="transparent" points="681.5,-10 681.5,-30 701.5,-30 701.5,-10 681.5,-10"/>
<text text-anchor="start" x="705.17" y="-15.4" font-family="Times-12" font-size="14.00"> &#160;Providers</text>
<polygon fill="#fb8072" stroke="transparent" points="777.5,-10 777.5,-30 797.5,-30 797.5,-10 777.5,-10"/>
<text text-anchor="start" x="801.23" y="-15.4" font-family="Times-12" font-size="14.00"> &#160;Exports</text>
<g id="clust1" class="cluster">
<title>cluster_SharedSyntheseModule</title>
<polygon fill="none" stroke="black" stroke-dasharray="1,5" points="8,-70 8,-333 1231,-333 1231,-70 8,-70"/>
</g>
<g id="clust2" class="cluster">
<title>cluster_SharedSyntheseModule_declarations</title>
<polygon fill="none" stroke="black" points="689,-143 689,-195 1223,-195 1223,-143 689,-143"/>
</g>
<g id="clust3" class="cluster">
<title>cluster_SharedSyntheseModule_SyntheseInfoObsComponent_providers</title>
<polygon fill="none" stroke="black" points="1060,-78 1060,-130 1192,-130 1192,-78 1060,-78"/>
</g>
<g id="clust7" class="cluster">
<title>cluster_SharedSyntheseModule_exports</title>
<polygon fill="none" stroke="black" points="296,-273 296,-325 839,-325 839,-273 296,-273"/>
</g>
<g id="clust6" class="cluster">
<title>cluster_SharedSyntheseModule_imports</title>
<polygon fill="none" stroke="black" points="16,-143 16,-195 681,-195 681,-143 16,-143"/>
</g>
<!-- SyntheseInfoObsComponent -->
<g id="node1" class="node">
<title>SyntheseInfoObsComponent</title>
<polygon fill="#ffffb3" stroke="black" points="1214.75,-187 1037.25,-187 1037.25,-151 1214.75,-151 1214.75,-187"/>
<text text-anchor="middle" x="1126" y="-164.8" font-family="Times,serif" font-size="14.00">SyntheseInfoObsComponent</text>
</g>
<!-- SharedSyntheseModule -->
<g id="node4" class="node">
<title>SharedSyntheseModule</title>
<polygon fill="#8dd3c7" stroke="black" points="619.47,-252 616.47,-256 595.47,-256 592.47,-252 470.53,-252 470.53,-216 619.47,-216 619.47,-252"/>
<text text-anchor="middle" x="545" y="-229.8" font-family="Times,serif" font-size="14.00">SharedSyntheseModule</text>
</g>
<!-- SyntheseInfoObsComponent&#45;&gt;SharedSyntheseModule -->
<g id="edge1" class="edge">
<title>SyntheseInfoObsComponent&#45;&gt;SharedSyntheseModule</title>
<path fill="none" stroke="black" d="M1126,-187.13C1126,-207.57 1126,-238 1126,-238 1126,-238 629.47,-238 629.47,-238"/>
<polygon fill="black" stroke="black" points="629.47,-234.5 619.47,-238 629.47,-241.5 629.47,-234.5"/>
</g>
<!-- DiscussionCardComponent -->
<g id="node2" class="node">
<title>DiscussionCardComponent</title>
<polygon fill="#ffffb3" stroke="black" points="1018.98,-187 849.02,-187 849.02,-151 1018.98,-151 1018.98,-187"/>
<text text-anchor="middle" x="934" y="-164.8" font-family="Times,serif" font-size="14.00">DiscussionCardComponent</text>
</g>
<!-- DiscussionCardComponent&#45;&gt;SharedSyntheseModule -->
<g id="edge3" class="edge">
<title>DiscussionCardComponent&#45;&gt;SharedSyntheseModule</title>
<path fill="none" stroke="black" d="M934,-187.27C934,-205.56 934,-231 934,-231 934,-231 629.54,-231 629.54,-231"/>
<polygon fill="black" stroke="black" points="629.54,-227.5 619.54,-231 629.54,-234.5 629.54,-227.5"/>
</g>
<!-- AlertInfoComponent -->
<g id="node3" class="node">
<title>AlertInfoComponent</title>
<polygon fill="#ffffb3" stroke="black" points="830.92,-187 697.08,-187 697.08,-151 830.92,-151 830.92,-187"/>
<text text-anchor="middle" x="764" y="-164.8" font-family="Times,serif" font-size="14.00">AlertInfoComponent</text>
</g>
<!-- AlertInfoComponent&#45;&gt;SharedSyntheseModule -->
<g id="edge4" class="edge">
<title>AlertInfoComponent&#45;&gt;SharedSyntheseModule</title>
<path fill="none" stroke="black" d="M763.96,-187.01C763.96,-203.05 763.96,-224 763.96,-224 763.96,-224 629.74,-224 629.74,-224"/>
<polygon fill="black" stroke="black" points="629.74,-220.5 619.74,-224 629.74,-227.5 629.74,-220.5"/>
</g>
<!-- SyntheseInfoObsComponent  -->
<g id="node11" class="node">
<title>SyntheseInfoObsComponent </title>
<polygon fill="#fb8072" stroke="black" points="830.75,-317 649.25,-317 649.25,-281 830.75,-281 830.75,-317"/>
<text text-anchor="middle" x="740" y="-294.8" font-family="Times,serif" font-size="14.00">SyntheseInfoObsComponent </text>
</g>
<!-- SharedSyntheseModule&#45;&gt;SyntheseInfoObsComponent  -->
<g id="edge10" class="edge">
<title>SharedSyntheseModule&#45;&gt;SyntheseInfoObsComponent </title>
<path fill="none" stroke="black" stroke-dasharray="5,2" d="M619.52,-245C642.13,-245 661.1,-245 661.1,-245 661.1,-245 661.1,-270.72 661.1,-270.72"/>
<polygon fill="black" stroke="black" points="657.6,-270.72 661.1,-280.72 664.6,-270.72 657.6,-270.72"/>
</g>
<!-- DiscussionCardComponent  -->
<g id="node12" class="node">
<title>DiscussionCardComponent </title>
<polygon fill="#fb8072" stroke="black" points="631.98,-317 458.02,-317 458.02,-281 631.98,-281 631.98,-317"/>
<text text-anchor="middle" x="545" y="-294.8" font-family="Times,serif" font-size="14.00">DiscussionCardComponent </text>
</g>
<!-- SharedSyntheseModule&#45;&gt;DiscussionCardComponent  -->
<g id="edge11" class="edge">
<title>SharedSyntheseModule&#45;&gt;DiscussionCardComponent </title>
<path fill="none" stroke="black" stroke-dasharray="5,2" d="M545,-252.11C545,-252.11 545,-270.99 545,-270.99"/>
<polygon fill="black" stroke="black" points="541.5,-270.99 545,-280.99 548.5,-270.99 541.5,-270.99"/>
</g>
<!-- AlertInfoComponent  -->
<g id="node13" class="node">
<title>AlertInfoComponent </title>
<polygon fill="#fb8072" stroke="black" points="440.42,-317 303.58,-317 303.58,-281 440.42,-281 440.42,-317"/>
<text text-anchor="middle" x="372" y="-294.8" font-family="Times,serif" font-size="14.00">AlertInfoComponent </text>
</g>
<!-- SharedSyntheseModule&#45;&gt;AlertInfoComponent  -->
<g id="edge12" class="edge">
<title>SharedSyntheseModule&#45;&gt;AlertInfoComponent </title>
<path fill="none" stroke="black" stroke-dasharray="5,2" d="M470.22,-245C444.72,-245 422.51,-245 422.51,-245 422.51,-245 422.51,-270.72 422.51,-270.72"/>
<polygon fill="black" stroke="black" points="419.01,-270.72 422.51,-280.72 426.01,-270.72 419.01,-270.72"/>
</g>
<!-- MapService -->
<g id="node5" class="node">
<title>MapService</title>
<ellipse fill="#fdb462" stroke="black" cx="1126" cy="-104" rx="57.88" ry="18"/>
<text text-anchor="middle" x="1126" y="-99.8" font-family="Times,serif" font-size="14.00">MapService</text>
</g>
<!-- MapService&#45;&gt;SyntheseInfoObsComponent -->
<g id="edge2" class="edge">
<title>MapService&#45;&gt;SyntheseInfoObsComponent</title>
<path fill="none" stroke="black" d="M1126,-122.11C1126,-122.11 1126,-140.99 1126,-140.99"/>
<polygon fill="black" stroke="black" points="1122.5,-140.99 1126,-150.99 1129.5,-140.99 1122.5,-140.99"/>
</g>
<!-- CommonModule -->
<g id="node6" class="node">
<title>CommonModule</title>
<polygon fill="#8dd3c7" stroke="black" points="672.67,-187 669.67,-191 648.67,-191 645.67,-187 561.33,-187 561.33,-151 672.67,-151 672.67,-187"/>
<text text-anchor="middle" x="617" y="-164.8" font-family="Times,serif" font-size="14.00">CommonModule</text>
</g>
<!-- CommonModule&#45;&gt;SharedSyntheseModule -->
<g id="edge5" class="edge">
<title>CommonModule&#45;&gt;SharedSyntheseModule</title>
<path fill="none" stroke="black" d="M590.33,-187.11C590.33,-187.11 590.33,-205.99 590.33,-205.99"/>
<polygon fill="black" stroke="black" points="586.83,-205.99 590.33,-215.99 593.83,-205.99 586.83,-205.99"/>
</g>
<!-- GN2CommonModule -->
<g id="node7" class="node">
<title>GN2CommonModule</title>
<polygon fill="#8dd3c7" stroke="black" points="543.38,-187 540.38,-191 519.38,-191 516.38,-187 404.62,-187 404.62,-151 543.38,-151 543.38,-187"/>
<text text-anchor="middle" x="474" y="-164.8" font-family="Times,serif" font-size="14.00">GN2CommonModule</text>
</g>
<!-- GN2CommonModule&#45;&gt;SharedSyntheseModule -->
<g id="edge6" class="edge">
<title>GN2CommonModule&#45;&gt;SharedSyntheseModule</title>
<path fill="none" stroke="black" d="M506.98,-187.11C506.98,-187.11 506.98,-205.99 506.98,-205.99"/>
<polygon fill="black" stroke="black" points="503.48,-205.99 506.98,-215.99 510.48,-205.99 503.48,-205.99"/>
</g>
<!-- NgChartsModule -->
<g id="node8" class="node">
<title>NgChartsModule</title>
<polygon fill="#8dd3c7" stroke="black" points="386.7,-187 383.7,-191 362.7,-191 359.7,-187 273.3,-187 273.3,-151 386.7,-151 386.7,-187"/>
<text text-anchor="middle" x="330" y="-164.8" font-family="Times,serif" font-size="14.00">NgChartsModule</text>
</g>
<!-- NgChartsModule&#45;&gt;SharedSyntheseModule -->
<g id="edge7" class="edge">
<title>NgChartsModule&#45;&gt;SharedSyntheseModule</title>
<path fill="none" stroke="black" d="M345.07,-187.01C345.07,-203.05 345.07,-224 345.07,-224 345.07,-224 460.27,-224 460.27,-224"/>
<polygon fill="black" stroke="black" points="460.27,-227.5 470.27,-224 460.27,-220.5 460.27,-227.5"/>
</g>
<!-- RouterModule -->
<g id="node9" class="node">
<title>RouterModule</title>
<polygon fill="#8dd3c7" stroke="black" points="255.65,-187 252.65,-191 231.65,-191 228.65,-187 158.35,-187 158.35,-151 255.65,-151 255.65,-187"/>
<text text-anchor="middle" x="207" y="-164.8" font-family="Times,serif" font-size="14.00">RouterModule</text>
</g>
<!-- RouterModule&#45;&gt;SharedSyntheseModule -->
<g id="edge8" class="edge">
<title>RouterModule&#45;&gt;SharedSyntheseModule</title>
<path fill="none" stroke="black" d="M207,-187.27C207,-205.56 207,-231 207,-231 207,-231 460.41,-231 460.41,-231"/>
<polygon fill="black" stroke="black" points="460.41,-234.5 470.41,-231 460.41,-227.5 460.41,-234.5"/>
</g>
<!-- ClipboardModule -->
<g id="node10" class="node">
<title>ClipboardModule</title>
<polygon fill="#8dd3c7" stroke="black" points="139.54,-187 136.54,-191 115.54,-191 112.54,-187 24.46,-187 24.46,-151 139.54,-151 139.54,-187"/>
<text text-anchor="middle" x="82" y="-164.8" font-family="Times,serif" font-size="14.00">ClipboardModule</text>
</g>
<!-- ClipboardModule&#45;&gt;SharedSyntheseModule -->
<g id="edge9" class="edge">
<title>ClipboardModule&#45;&gt;SharedSyntheseModule</title>
<path fill="none" stroke="black" d="M82,-187.13C82,-207.57 82,-238 82,-238 82,-238 460.35,-238 460.35,-238"/>
<polygon fill="black" stroke="black" points="460.35,-241.5 470.35,-238 460.35,-234.5 460.35,-241.5"/>
</g>
</g>
</svg>
