<?xml version="1.0" encoding="UTF-8" standalone="no"?>
<svg
   xmlns:dc="http://purl.org/dc/elements/1.1/"
   xmlns:cc="http://creativecommons.org/ns#"
   xmlns:rdf="http://www.w3.org/1999/02/22-rdf-syntax-ns#"
   xmlns:svg="http://www.w3.org/2000/svg"
   xmlns="http://www.w3.org/2000/svg"
   xmlns:sodipodi="http://sodipodi.sourceforge.net/DTD/sodipodi-0.dtd"
   xmlns:inkscape="http://www.inkscape.org/namespaces/inkscape"
   viewBox="0 0 512 512"
   version="1.1"
   id="svg11"
   sodipodi:docname="Actif_On.svg"
   inkscape:version="0.92.4 (5da689c313, 2019-01-14)">
  <metadata
     id="metadata17">
    <rdf:RDF>
      <cc:Work
         rdf:about="">
        <dc:format>image/svg+xml</dc:format>
        <dc:type
           rdf:resource="http://purl.org/dc/dcmitype/StillImage" />
        <dc:title></dc:title>
      </cc:Work>
    </rdf:RDF>
  </metadata>
  <defs
     id="defs15" />
  <sodipodi:namedview
     pagecolor="#ffffff"
     bordercolor="#666666"
     borderopacity="1"
     objecttolerance="10"
     gridtolerance="10"
     guidetolerance="10"
     inkscape:pageopacity="0"
     inkscape:pageshadow="2"
     inkscape:window-width="1263"
     inkscape:window-height="936"
     id="namedview13"
     showgrid="false"
     inkscape:zoom="0.4609375"
     inkscape:cx="-96.542373"
     inkscape:cy="256"
     inkscape:window-x="391"
     inkscape:window-y="25"
     inkscape:window-maximized="0"
     inkscape:current-layer="svg11" />
  <g
     data-name="1"
     id="_1"
     style="fill:#2c7be5;fill-opacity:1">
    <path
       d="M257,461.46c-114,0-206.73-92.74-206.73-206.73S143,48,257,48s206.73,92.74,206.73,206.73S371,461.46,257,461.46ZM257,78C159.55,78,80.27,157.28,80.27,254.73S159.55,431.46,257,431.46s176.73-79.28,176.73-176.73S354.45,78,257,78Z"
       id="path4"
       style="fill:#2c7be5;fill-opacity:1" />
    <path
       d="M342.92,358a15,15,0,0,1-10.61-4.39L160.47,181.76a15,15,0,1,1,21.21-21.21L353.53,332.4A15,15,0,0,1,342.92,358Z"
       id="path6"
       style="fill:#2c7be5;fill-opacity:1" />
    <path
       d="M171.07,358a15,15,0,0,1-10.6-25.6L332.31,160.55a15,15,0,0,1,21.22,21.21L181.68,353.61A15,15,0,0,1,171.07,358Z"
       id="path8"
       style="fill:#2c7be5;fill-opacity:1" />
  </g>
</svg>
