<svg xmlns="http://www.w3.org/2000/svg" viewBox="36 36 440 440"><g data-name="1" style="fill:#c8c8c8;fill-opacity:1"><path d="M257 461.46c-114 0-206.73-92.74-206.73-206.73S143 48 257 48s206.73 92.74 206.73 206.73S371 461.46 257 461.46zM257 78c-97.45 0-176.73 79.28-176.73 176.73S159.55 431.46 257 431.46s176.73-79.28 176.73-176.73S354.45 78 257 78z" style="fill:#c8c8c8;fill-opacity:1"/><path d="M342.92 358a15 15 0 0 1-10.61-4.39L160.47 181.76a15 15 0 1 1 21.21-21.21L353.53 332.4a15 15 0 0 1-10.61 25.6z" style="fill:#c8c8c8;fill-opacity:1"/><path d="M171.07 358a15 15 0 0 1-10.6-25.6l171.84-171.85a15 15 0 0 1 21.22 21.21L181.68 353.61a15 15 0 0 1-10.61 4.39z" style="fill:#c8c8c8;fill-opacity:1"/></g></svg>