<?xml version="1.0" encoding="UTF-8" standalone="no"?>
<!-- Created with Inkscape (http://www.inkscape.org/) -->

<svg
   xmlns:dc="http://purl.org/dc/elements/1.1/"
   xmlns:cc="http://creativecommons.org/ns#"
   xmlns:rdf="http://www.w3.org/1999/02/22-rdf-syntax-ns#"
   xmlns:svg="http://www.w3.org/2000/svg"
   xmlns="http://www.w3.org/2000/svg"
   xmlns:sodipodi="http://sodipodi.sourceforge.net/DTD/sodipodi-0.dtd"
   xmlns:inkscape="http://www.inkscape.org/namespaces/inkscape"
   width="121.44379mm"
   height="107.13177mm"
   viewBox="0 0 121.44381 107.13177"
   version="1.1"
   id="svg2669"
   inkscape:version="0.92.4 (5da689c313, 2019-01-14)"
   sodipodi:docname="Donnees_map2_icon.svg">
  <defs
     id="defs2663" />
  <sodipodi:namedview
     id="base"
     pagecolor="#ffffff"
     bordercolor="#666666"
     borderopacity="1.0"
     inkscape:pageopacity="0.0"
     inkscape:pageshadow="2"
     inkscape:zoom="0.98994949"
     inkscape:cx="1.1312941"
     inkscape:cy="269.07088"
     inkscape:document-units="mm"
     inkscape:current-layer="layer1"
     showgrid="false"
     inkscape:window-width="1920"
     inkscape:window-height="1027"
     inkscape:window-x="-8"
     inkscape:window-y="-8"
     inkscape:window-maximized="1"
     fit-margin-top="0"
     fit-margin-left="0"
     fit-margin-right="0"
     fit-margin-bottom="0"
     showguides="true"
     inkscape:guide-bbox="true">
    <sodipodi:guide
       position="1.3229167,107.15626"
       orientation="0,1"
       id="guide7670"
       inkscape:locked="false" />
    <sodipodi:guide
       position="-23.245539,6.9378593e-06"
       orientation="0,1"
       id="guide7672"
       inkscape:locked="false" />
  </sodipodi:namedview>
  <metadata
     id="metadata2666">
    <rdf:RDF>
      <cc:Work
         rdf:about="">
        <dc:format>image/svg+xml</dc:format>
        <dc:type
           rdf:resource="http://purl.org/dc/dcmitype/StillImage" />
        <dc:title></dc:title>
      </cc:Work>
    </rdf:RDF>
  </metadata>
  <g
     inkscape:label="Calque 1"
     inkscape:groupmode="layer"
     id="layer1"
     transform="translate(-49.042413,-59.766509)">
    <path
       inkscape:connector-curvature="0"
       style="fill:#2c7be5;fill-opacity:1;stroke-width:0.26458332"
       d="m 141.43576,85.802044 18.93014,0.133635 c 3.03601,0.02143 5.06015,2.529946 5.06015,5.060156 v 65.782035 c 0,3.03609 -2.02406,5.06548 -5.06015,5.06016 l -73.372307,-0.12868 -27.83086,0.12868 c -3.03585,0.0386 -5.06016,-2.52995 -5.06016,-5.06016 V 90.995835 c 0,-3.036093 2.024065,-5.065885 5.06016,-5.060156 l 22.318952,-0.35975 1.264092,-4.75576 -23.583044,0.05535 c -5.566295,0.01306 -10.12032,4.554009 -10.12032,10.120312 v 65.782039 c 0,5.56604 4.55404,10.13802 10.12032,10.12031 l 40.43835,-0.12867 60.764817,0.12867 c 5.56598,0.0256 10.12031,-4.55427 10.12031,-10.12031 V 90.995835 c 0,-5.566303 -2.92406,-9.882024 -11.72393,-9.853043 l -18.60284,-0.133638"
       id="path885"
       sodipodi:nodetypes="ssscccsssccssssccssscc" />
    <path
       inkscape:connector-curvature="0"
       id="path7062"
       d="m 134.93499,157.77843 c -8.29188,-12.19709 -10.33581,-15.38458 -10.31527,-16.08658 0.0125,-0.42737 0.25481,-1.4759 0.53848,-2.33005 l 0.51575,-1.55298 9.25645,-0.082 9.25646,-0.082 0.87712,1.63496 c 1.05082,1.95876 1.71656,2.64114 3.9854,4.08507 2.59744,1.65307 8.86662,3.60661 11.57406,3.60661 0.47099,0 0.98731,0.17472 1.1474,0.38826 0.36158,0.48231 1.64895,11.28803 1.39639,11.72082 -0.11989,0.20547 -4.86755,0.31495 -13.65834,0.31495 h -13.47454 z"
       style="fill:#2c7be5;fill-opacity:0.23979594;stroke-width:0.30182141" />
    <path
       sodipodi:nodetypes="cscccssccscccccsccccccsccccccccccccccc"
       inkscape:connector-curvature="0"
       id="path3235"
       d="m 83.278968,159.53895 c 0.245578,-0.26006 18.742222,-10.56012 19.121682,-10.56012 0.21081,0 3.79565,3.55109 4.50153,3.96456 3.53374,2.06989 5.77846,-2.06649 9.06736,-3.78118 1.06204,-0.5537 5.25957,-7.05141 5.40108,-7.04781 0.23982,0.007 5.28558,16.92324 5.28558,17.36054 0,0.1094 -9.78856,0.19903 -21.75237,0.19903 -11.963808,0 -21.694996,-0.0607 -21.624862,-0.13502 z m -25.77397,-22.67642 c 0.101994,-0.98228 -1.293578,-4.5154 -1.022318,-7.50494 0.422702,-4.65857 -0.0048,-8.64283 0.408409,-8.60993 0.265197,0.0212 6.091633,3.19869 7.634963,4.17398 l 3.226377,6.53023 -0.176539,4.42422 c -0.841288,0.57328 -0.719069,0.76871 -1.576279,1.5892 -1.369895,1.31123 -4.584152,3.26206 -5.374659,3.26206 -0.168676,0 -3.986958,1.17407 -3.875906,0.10393 z m 86.357972,-23.93651 -3.31628,-4.96319 2.92376,-9.465013 -0.0352,-4.596054 1.04769,-3.914414 c 0.75571,-2.823494 9.17033,-2.804263 11.38141,-1.814324 l 3.20214,1.379191 2.31845,5.678858 c 0.72979,9.264016 0.0115,14.960706 -0.20198,14.675246 -0.0383,-0.0511 -2.53627,5.42543 -2.59605,5.48043 -0.10882,0.10007 -9.50717,1.42525 -10.1046,1.42466 -0.17454,-1.6e-4 -2.25324,-1.74857 -4.61933,-3.88539 z m -65.534195,-19.475099 0.215606,3.10617 -14.68394,-1.502093 -7.480153,-6.635304 19.696568,-0.652139 1.742023,1.978634 z"
       style="fill:#2c7be5;fill-opacity:0.23979594;stroke-width:0.30182141" />
    <path
       style="fill:#000000;stroke-width:0.24095981"
       d=""
       id="path3231"
       inkscape:connector-curvature="0" />
    <path
       id="path7013-5"
       style="fill:#2c7be5;fill-opacity:0.23979594;stroke-width:0.32402489"
       d="m 158.46557,142.9595 c 0,0 -4.49608,-2.26363 -6.25087,-3.34322 -3.81048,-2.3443 -6.67201,-6.11504 -11.08838,-6.32168 -7.29384,-0.34126 -17.90699,3.36209 -17.90699,3.36209 l 7.48518,-13.01577 c 5.16015,-2.88047 9.4745,-2.59975 13.37445,-2.46229 5.10211,0.24267 15.15812,-0.73443 15.15812,-0.73443 l 4.06616,19.13181 c 0,0 -2.28168,5.66327 -4.83767,3.38349 z m -75.470475,-32.06471 -26.637333,4.03005 0.0088,-18.495802 c 0,0 22.206903,3.526476 22.339533,3.658222 z m -7.025541,19.39023 -6.883716,0.79323 -2.981935,-7.9706 -6.460849,-5.6314 11.217962,-2.00556 c 2.8915,-1.25273 11.123973,-1.6084 13.51251,-0.55254 l 5.256371,10.07077 z m 59.152416,-13.91057 4.52269,-7.24232 1.69864,2.02946 1.8645,4.96269 -4.70501,1.18546 c -0.1822,0 -4.95708,4.1916 -4.83711,3.04989 z M 56.267567,159.9534 c 0.265288,-0.27745 -0.0044,-13.11075 0.405588,-13.11075 0.227722,0 17.111969,-8.6917 17.8745,-8.25056 l 17.305201,-6.48581 c 1.19747,-0.46934 8.192244,13.70027 8.192244,13.70027 -9.68072,-0.51293 -5.931828,-2.52165 -16.578524,1.59563 -11.30659,4.37246 -13.049059,4.82234 -19.908739,12.44275 z"
       inkscape:connector-curvature="0"
       sodipodi:nodetypes="ccccccccccccccccccccccccccccccscccccc" />
    <path
       style="fill:#ffffff;fill-opacity:1;stroke:#2c7be5;stroke-width:4.03789806;stroke-miterlimit:4;stroke-dasharray:none;stroke-opacity:1"
       d="m 108.41866,147.54969 c -1.49765,-0.77914 -3.33991,-3.46596 -7.9071,-11.53196 -3.551264,-6.27184 -6.2689,-11.39949 -8.892754,-16.77888 -6.216799,-12.7456 -9.222266,-21.73688 -9.224097,-27.595065 -0.001,-4.275143 1.119136,-9.148672 3.000911,-13.052652 2.392169,-4.962852 5.965512,-9.029596 10.609673,-12.07462 1.183532,-0.776002 3.71152,-2.072773 5.028557,-2.579483 5.39052,-2.073903 11.16059,-2.471901 16.67083,-1.149889 8.30528,1.992598 15.32411,7.679998 19.20966,15.565701 2.08566,4.232847 3.18924,9.143182 3.07798,13.695408 -0.057,2.334808 -0.38937,4.077088 -1.35953,7.12801 -2.16089,6.79552 -6.50757,15.35886 -13.61878,26.83021 -0.91477,1.47565 -2.24921,3.65611 -2.96542,4.84545 -0.7162,1.18933 -1.92876,3.13552 -2.69459,4.32486 -6.52248,10.12954 -6.60497,10.25108 -7.67584,11.31011 -0.65219,0.64499 -1.03928,0.90084 -1.72161,1.13789 -0.65646,0.22806 -0.98609,0.21198 -1.53789,-0.075 z m 4.11561,-42.53113 c 5.49704,-0.62103 9.98742,-4.76011 11.1613,-10.288102 1.56171,-7.354422 -3.03935,-14.526005 -10.2081,-15.91117 -1.06638,-0.206048 -3.13726,-0.244991 -4.12954,-0.07766 -7.37943,1.244417 -12.166527,8.366106 -10.654929,15.851118 1.329429,6.582974 7.392479,11.153224 13.831269,10.425814 z"
       id="path7652"
       inkscape:connector-curvature="0"
       sodipodi:nodetypes="csscsscsccccsccsccccscsc" />
  </g>
</svg>
