<svg xmlns="http://www.w3.org/2000/svg" width="459" height="404.907" viewBox="0 0 121.444 107.132"><path style="fill:#c8c8c8;fill-opacity:1;stroke-width:.26458332" d="M92.393 26.036l18.93.133c3.036.022 5.06 2.53 5.06 5.06v65.782c0 3.036-2.023 5.066-5.06 5.06l-73.372-.128-27.83.129c-3.037.038-5.06-2.53-5.06-5.06V31.228c0-3.036 2.023-5.066 5.06-5.06l22.318-.36 1.264-4.755-23.583.055C4.554 21.122 0 25.663 0 31.229v65.782c0 5.566 4.554 10.138 10.12 10.12l40.439-.128 60.764.129c5.566.025 10.12-4.555 10.12-10.12V31.228c0-5.566-2.923-9.882-11.723-9.853l-18.603-.133"/><path d="M85.893 98.012C77.6 85.815 75.557 82.627 75.577 81.925c.013-.427.255-1.476.539-2.33l.516-1.553 9.256-.082 9.256-.082.878 1.635c1.05 1.959 1.716 2.641 3.985 4.085 2.597 1.653 8.867 3.607 11.574 3.607.471 0 .987.175 1.147.388.362.483 1.65 11.288 1.397 11.721-.12.206-4.868.315-13.659.315H86.992zM34.237 99.772c.245-.26 18.742-10.56 19.121-10.56.211 0 3.796 3.551 4.502 3.965 3.534 2.07 5.778-2.067 9.067-3.781 1.062-.554 5.26-7.052 5.401-7.048.24.007 5.286 16.923 5.286 17.36 0 .11-9.789.2-21.753.2-11.963 0-21.695-.061-21.624-.136zM8.463 77.096c.102-.982-1.294-4.515-1.023-7.505.423-4.658-.005-8.643.409-8.61.265.021 6.091 3.199 7.635 4.174l3.226 6.53-.177 4.425c-.84.573-.719.768-1.576 1.589-1.37 1.311-4.584 3.262-5.374 3.262-.17 0-3.987 1.174-3.876.104zM94.82 53.16l-3.317-4.964 2.924-9.465-.035-4.596 1.048-3.914c.755-2.824 9.17-2.804 11.38-1.814l3.203 1.379 2.319 5.679c.73 9.264.011 14.96-.202 14.675-.039-.051-2.537 5.425-2.597 5.48-.108.1-9.507 1.425-10.104 1.425-.175 0-2.253-1.749-4.62-3.885zM29.286 33.684l.216 3.107-14.684-1.503-7.48-6.635 19.696-.652 1.742 1.979z" style="fill:#c8c8c8;fill-opacity:.23076923;stroke-width:.30182141;stroke:#c8c8c8;stroke-opacity:.19711539"/><path style="fill:#c8c8c8;fill-opacity:.23076923;stroke-width:.32402489;stroke:#c8c8c8;stroke-opacity:.19711539" d="M109.423 83.193s-4.496-2.264-6.25-3.343c-3.811-2.345-6.673-6.115-11.09-6.322-7.293-.341-17.906 3.362-17.906 3.362l7.485-13.016c5.16-2.88 9.475-2.6 13.375-2.462 5.102.243 15.158-.734 15.158-.734l4.066 19.132s-2.282 5.663-4.838 3.383zm-75.47-32.065l-26.638 4.03.01-18.495s22.206 3.526 22.339 3.658zm-7.026 19.39l-6.884.794-2.982-7.97-6.46-5.632 11.218-2.006c2.891-1.253 11.124-1.608 13.512-.552l5.256 10.07zm59.153-13.91l4.522-7.242 1.699 2.03 1.864 4.962-4.705 1.185c-.182 0-4.957 4.192-4.837 3.05zM7.225 100.187c.265-.278-.004-13.11.406-13.11.227 0 17.112-8.693 17.874-8.251L42.81 72.34c1.198-.47 8.193 13.7 8.193 13.7-9.681-.513-5.932-2.522-16.579 1.596-11.306 4.372-13.049 4.822-19.909 12.442z"/><path style="fill:#fff;fill-opacity:1;stroke:#c8c8c8;stroke-width:4.03789806;stroke-miterlimit:4;stroke-dasharray:none;stroke-opacity:1" d="M59.376 87.783c-1.497-.779-3.34-3.466-7.907-11.532-3.551-6.272-6.269-11.4-8.893-16.779-6.216-12.745-9.222-21.737-9.224-27.595 0-4.275 1.12-9.148 3.001-13.052 2.392-4.963 5.966-9.03 10.61-12.075 1.183-.776 3.711-2.073 5.028-2.58C57.382 2.098 63.152 1.7 68.662 3.02c8.306 1.993 15.324 7.68 19.21 15.566 2.086 4.233 3.19 9.144 3.078 13.696-.057 2.335-.39 4.077-1.36 7.128-2.16 6.795-6.507 15.359-13.618 26.83a539.272 539.272 0 0 0-2.966 4.845 205.502 205.502 0 0 1-2.694 4.325c-6.523 10.13-6.605 10.251-7.676 11.31-.652.645-1.04.901-1.722 1.138-.656.228-.986.212-1.538-.075zm4.116-42.53c5.497-.622 9.987-4.761 11.161-10.29 1.562-7.353-3.04-14.525-10.208-15.91-1.066-.206-3.137-.245-4.13-.078-7.379 1.245-12.166 8.366-10.654 15.851 1.329 6.583 7.392 11.153 13.83 10.426z"/></svg>