<?xml version="1.0" encoding="UTF-8" standalone="no"?>
<!-- Created with Inkscape (http://www.inkscape.org/) -->

<svg
   xmlns:dc="http://purl.org/dc/elements/1.1/"
   xmlns:cc="http://creativecommons.org/ns#"
   xmlns:rdf="http://www.w3.org/1999/02/22-rdf-syntax-ns#"
   xmlns:svg="http://www.w3.org/2000/svg"
   xmlns="http://www.w3.org/2000/svg"
   xmlns:sodipodi="http://sodipodi.sourceforge.net/DTD/sodipodi-0.dtd"
   xmlns:inkscape="http://www.inkscape.org/namespaces/inkscape"
   width="342.46182mm"
   height="342.60602mm"
   viewBox="0 0 342.46182 342.60602"
   version="1.1"
   id="svg4653"
   inkscape:version="0.92.4 (5da689c313, 2019-01-14)"
   sodipodi:docname="Donnee_icon.svg">
  <defs
     id="defs4647" />
  <sodipodi:namedview
     id="base"
     pagecolor="#ffffff"
     bordercolor="#666666"
     borderopacity="1.0"
     inkscape:pageopacity="0.0"
     inkscape:pageshadow="2"
     inkscape:zoom="0.35"
     inkscape:cx="701.27983"
     inkscape:cy="640.23735"
     inkscape:document-units="mm"
     inkscape:current-layer="layer1"
     showgrid="false"
     fit-margin-top="0"
     fit-margin-left="0"
     fit-margin-right="0"
     fit-margin-bottom="0"
     inkscape:window-width="1920"
     inkscape:window-height="1027"
     inkscape:window-x="-8"
     inkscape:window-y="-8"
     inkscape:window-maximized="1" />
  <metadata
     id="metadata4650">
    <rdf:RDF>
      <cc:Work
         rdf:about="">
        <dc:format>image/svg+xml</dc:format>
        <dc:type
           rdf:resource="http://purl.org/dc/dcmitype/StillImage" />
        <dc:title></dc:title>
      </cc:Work>
    </rdf:RDF>
  </metadata>
  <g
     inkscape:label="Calque 1"
     inkscape:groupmode="layer"
     id="layer1"
     transform="translate(79.713621,24.376562)">
    <path
       style="fill:#000000;stroke-width:0.43413207"
       d="m 81.098125,318.10432 c -37.133265,-2.67655 -71.19025,-16.20367 -99.276099,-39.43154 -6.02996,-4.98698 -17.098203,-16.05522 -22.085162,-22.08518 -18.828475,-22.76631 -31.527855,-49.95808 -36.835575,-78.87189 -2.09172,-11.39461 -2.61491,-17.56186 -2.61491,-30.82338 0,-13.2615 0.52319,-19.42875 2.61491,-30.82337 5.30772,-28.913819 18.0071,-56.105569 36.835575,-78.871891 4.986959,-6.029964 16.055202,-17.098201 22.085162,-22.08517 26.001276,-21.5038786 56.487489,-34.458589 91.027579,-38.680964 8.807382,-1.076663 28.527995,-1.076663 37.335355,0 34.54011,4.222375 65.02631,17.1770854 91.0276,38.680964 6.02996,4.986969 17.0982,16.055206 22.08516,22.08517 18.82847,22.766322 31.52785,49.958072 36.83557,78.871891 2.09171,11.39462 2.61492,17.56187 2.61492,30.82337 0,13.26152 -0.52321,19.42877 -2.61492,30.82338 -5.30772,28.91381 -18.0071,56.10558 -36.83557,78.87189 -4.98696,6.02996 -16.0552,17.0982 -22.08516,22.08518 -25.87267,21.3975 -56.72577,34.54741 -90.59345,38.61187 -5.61423,0.67375 -24.334164,1.19353 -29.520985,0.81967 z m 31.474565,-36.39474 c 31.64473,-3.30875 54.9275,-12.41543 60.88135,-23.81276 1.68515,-3.22584 1.68515,-7.79493 0,-11.02079 -4.85524,-9.29424 -21.54345,-17.27713 -45.17296,-21.60865 -8.47994,-1.55446 -8.17333,-1.59952 -10.28573,1.51114 -1.20547,1.77513 -1.59273,2.66435 -1.21005,2.77839 0.30957,0.0922 3.27269,0.5776 6.5847,1.07861 20.93202,3.16632 36.374,9.4913 40.8508,16.73238 1.85271,2.99667 1.85271,6.17213 0,9.1688 -4.97083,8.04016 -23.18679,14.80443 -47.74092,17.72803 -43.607222,5.19221 -92.238854,-3.33211 -101.139155,-17.72803 -1.852709,-2.99667 -1.852709,-6.17213 0,-9.1688 4.456747,-7.20862 19.486605,-13.39078 40.742269,-16.75833 3.252324,-0.51526 5.913314,-1.11928 5.913314,-1.34225 0,-0.22297 -0.631713,-1.46157 -1.403815,-2.75243 -1.018748,-1.70323 -1.665787,-2.34704 -2.358834,-2.34704 -1.820582,0 -12.978758,2.20622 -18.59515,3.67667 -17.601555,4.60836 -29.534639,11.38133 -33.531006,19.03151 -1.685165,3.22586 -1.685165,7.79495 0,11.02079 5.98633,11.45953 30.065869,20.82359 61.09839,23.75999 10.807699,1.02267 10.957538,1.02784 25.396729,0.87557 8.114528,-0.0855 16.043688,-0.41225 19.970068,-0.8228 z m -7.80696,-16.74431 c 24.71265,-1.58532 42.42069,-6.55249 43.86425,-12.30409 1.38373,-5.51322 -10.31048,-10.34811 -31.62967,-13.07704 -7.16056,-0.91658 -6.94244,-0.94765 -8.34564,1.18926 -0.66635,1.01478 -3.48023,4.11966 -6.25307,6.89974 -4.427183,4.43873 -5.32776,5.13967 -7.390509,5.75225 -2.68726,0.79803 -9.766159,0.94014 -12.264686,0.2462 -2.152059,-0.59768 -7.844076,-5.989 -11.519631,-10.91103 -1.573968,-2.10773 -3.014865,-3.83222 -3.202,-3.83222 -1.169753,0 -11.365115,1.45519 -15.362303,2.19267 -28.554958,5.26839 -29.152345,15.58018 -1.215613,20.98293 15.058424,2.91218 35.459743,4.00701 53.318872,2.86133 z M 91.734352,244.41831 c 1.318312,-0.61554 3.197701,-2.11329 4.786189,-3.81427 2.543197,-2.72331 19.176299,-26.98392 26.894849,-39.22813 2.10726,-3.34281 6.89418,-10.86416 10.63758,-16.71409 22.24959,-34.77006 34.56641,-59.28942 39.36303,-78.36084 1.36299,-5.41928 1.83043,-14.969719 1.04477,-21.346919 -1.43389,-11.63906 -5.02304,-22.28958 -10.6548,-31.61719 C 143.97809,20.496915 104.66454,5.9483324 68.291226,17.990175 44.319637,25.92627 25.172484,44.958151 17.266664,68.707561 c -3.356105,10.08184 -4.815577,21.19701 -3.933819,29.95936 2.146759,21.332929 16.460204,55.218329 42.92657,101.623659 13.694809,24.01207 22.800343,38.30303 26.868397,42.16948 3.318294,3.15384 5.152282,3.57112 8.60654,1.95825 z M 86.48122,129.31599 c -7.154222,-1.55644 -13.368347,-5.15638 -18.792911,-10.88708 -2.798409,-2.95632 -3.950687,-4.60453 -5.687046,-8.13479 -3.1522,-6.40886 -3.695162,-8.83019 -3.669779,-16.365889 0.01985,-5.88199 0.111575,-6.56631 1.398614,-10.43204 3.020722,-9.07284 9.078378,-16.27109 17.460839,-20.74856 13.582324,-7.25498 30.148623,-5.05544 41.323763,5.48662 5.18442,4.89071 8.19594,9.75952 10.09941,16.32806 5.59359,19.302259 -6.04054,39.364709 -25.72268,44.357489 -4.736982,1.20165 -11.911754,1.37486 -16.41021,0.39619 z"
       id="path4666"
       inkscape:connector-curvature="0" />
  </g>
</svg>
