<svg xmlns="http://www.w3.org/2000/svg" height="128" style="enable-background:new 0 0 128 128" width="128" xml:space="preserve"><path style="fill:#2c7be5;fill-opacity:1" d="M6.536 125.716H96.1V56.511l-12 13.247v42.71H18.536V20.842H84.1v5.804l12-13.247V7.594H6.536z"/><path style="fill:#fff;fill-opacity:1;stroke:none;stroke-width:0;stroke-linecap:round;stroke-linejoin:round;stroke-miterlimit:4;stroke-dasharray:none;stroke-dashoffset:0;stroke-opacity:1" d="M13.036 14.094H89.6v105.122H13.036z"/><g style="fill:#2c7be5;fill-opacity:1"><path style="fill:#2c7be5;fill-opacity:1" d="M68.232 75.635l46.455-46.456-12.256-12.255-46.455 46.457a1.51 1.51 0 0 0-.529.805l-3.611 13.721c-.008.025-.008.055-.013.08a1.439 1.439 0 0 0 0 .618c.005.027.005.055.013.08.004.02.014.035.02.055.016.051.035.102.058.152.019.045.037.088.06.129.023.043.051.084.079.125.026.041.056.084.086.121.031.039.065.072.101.107.036.035.068.068.107.1a.934.934 0 0 0 .12.086 1.031 1.031 0 0 0 .255.139c.051.023.1.043.152.059.019.006.035.016.055.02.026.006.054.006.08.014a1.707 1.707 0 0 0 .456.025l.162-.025c.025-.008.054-.008.08-.014l13.721-3.611c.332-.087.605-.28.804-.532zm-10.855-1.401a1.52 1.52 0 0 0-1.295-.428l2.099-7.977 7.602 7.602-7.977 2.098a1.518 1.518 0 0 0-.429-1.295zM116.77 27.096l-12.254-12.255 4.693-4.694s8.348 2.978 12.256 12.256z"/></g></svg>