<?xml version="1.0" encoding="UTF-8" standalone="no"?>
<svg
   xmlns:dc="http://purl.org/dc/elements/1.1/"
   xmlns:cc="http://creativecommons.org/ns#"
   xmlns:rdf="http://www.w3.org/1999/02/22-rdf-syntax-ns#"
   xmlns:svg="http://www.w3.org/2000/svg"
   xmlns="http://www.w3.org/2000/svg"
   xmlns:sodipodi="http://sodipodi.sourceforge.net/DTD/sodipodi-0.dtd"
   xmlns:inkscape="http://www.inkscape.org/namespaces/inkscape"
   height="128px"
   id="Layer_1"
   style="enable-background:new 0 0 128 128;"
   version="1.1"
   viewBox="0 0 128 128"
   width="128px"
   xml:space="preserve"
   sodipodi:docname="Editer.svg"
   inkscape:version="0.92.4 (5da689c313, 2019-01-14)"><metadata
     id="metadata17"><rdf:RDF><cc:Work
         rdf:about=""><dc:format>image/svg+xml</dc:format><dc:type
           rdf:resource="http://purl.org/dc/dcmitype/StillImage" /><dc:title></dc:title></cc:Work></rdf:RDF></metadata><defs
     id="defs15" /><sodipodi:namedview
     pagecolor="#ffffff"
     bordercolor="#666666"
     borderopacity="1"
     objecttolerance="10"
     gridtolerance="10"
     guidetolerance="10"
     inkscape:pageopacity="0"
     inkscape:pageshadow="2"
     inkscape:window-width="1484"
     inkscape:window-height="883"
     id="namedview13"
     showgrid="false"
     inkscape:zoom="2.6304372"
     inkscape:cx="62.59595"
     inkscape:cy="34.370348"
     inkscape:window-x="325"
     inkscape:window-y="36"
     inkscape:window-maximized="0"
     inkscape:current-layer="Layer_1" /><polygon
     id="polygon2"
     style="fill:#2c7be5;fill-opacity:1"
     points="6.536,117.854 96.1,117.854 96.1,111.854 96.1,55.165 84.1,67.165 84.1,105.854 18.536,105.854 18.536,22.854 84.1,22.854 84.1,28.111 96.1,16.111 96.1,10.854 6.536,10.854 "
     transform="matrix(1,0,0,1.1039435,6.6757202e-7,-4.3880958)" /><rect
     style="fill:#ffffff;fill-opacity:1;stroke:none;stroke-width:0;stroke-linecap:round;stroke-linejoin:round;stroke-miterlimit:4;stroke-dasharray:none;stroke-dashoffset:0;stroke-opacity:1"
     id="rect824"
     width="76.564003"
     height="105.122"
     x="13.035999"
     y="14.094084" /><g
     style="fill:#2c7be5;fill-opacity:1"
     id="g8"><path
       inkscape:connector-curvature="0"
       id="path4"
       style="fill:#2c7be5;fill-opacity:1"
       d="M 68.232,75.635 114.687,29.179 102.431,16.924 55.976,63.381 c -0.25,0.199 -0.442,0.471 -0.529,0.805 l -3.611,13.721 c -0.008,0.025 -0.008,0.055 -0.013,0.08 -0.012,0.053 -0.02,0.107 -0.026,0.162 -0.004,0.051 -0.006,0.098 -0.006,0.146 0,0.051 0.002,0.098 0.006,0.148 0.007,0.055 0.015,0.109 0.026,0.162 0.005,0.027 0.005,0.055 0.013,0.08 0.004,0.02 0.014,0.035 0.02,0.055 0.016,0.051 0.035,0.102 0.058,0.152 0.019,0.045 0.037,0.088 0.06,0.129 0.023,0.043 0.051,0.084 0.079,0.125 0.026,0.041 0.056,0.084 0.086,0.121 0.031,0.039 0.065,0.072 0.101,0.107 0.036,0.035 0.068,0.068 0.107,0.1 0.037,0.031 0.078,0.061 0.12,0.086 0.041,0.029 0.081,0.057 0.126,0.08 0.041,0.021 0.085,0.041 0.129,0.059 0.051,0.023 0.1,0.043 0.152,0.059 0.019,0.006 0.035,0.016 0.055,0.02 0.026,0.006 0.054,0.006 0.08,0.014 0.053,0.01 0.107,0.018 0.162,0.023 0.051,0.006 0.098,0.008 0.147,0.008 0.049,0 0.097,-0.002 0.147,-0.006 0.055,-0.008 0.109,-0.016 0.162,-0.025 0.025,-0.008 0.054,-0.008 0.08,-0.014 l 13.721,-3.611 c 0.332,-0.087 0.605,-0.28 0.804,-0.532 z M 57.377,74.234 C 57.024,73.88 56.542,73.742 56.082,73.806 l 2.099,-7.977 7.602,7.602 -7.977,2.098 c 0.065,-0.459 -0.074,-0.941 -0.429,-1.295 z" /><path
       inkscape:connector-curvature="0"
       id="path6"
       style="fill:#2c7be5;fill-opacity:1"
       d="m 116.77,27.096 -12.254,-12.255 4.693,-4.694 c 0,0 8.348,2.978 12.256,12.256 z" /></g></svg>