<svg xmlns="http://www.w3.org/2000/svg" width="450.583" height="450.584" style="enable-background:new 0 0 450.583 450.584" xml:space="preserve"><g fill="#303b5a"><path d="M448.21 188.658a9.992 9.992 0 0 0-7.629-3.535H9.999a10.002 10.002 0 0 0-9.863 11.641l29.547 177.704a22.913 22.913 0 0 0 22.688 19.256h345.842c11.31 0 20.851-8.098 22.687-19.24l29.549-177.72c.48-2.9-.338-5.865-2.239-8.106zM413.984 104.678c0-7.661-6.211-13.874-13.875-13.874H194.212V70.735c0-7.664-6.211-13.875-13.873-13.875H50.472c-7.662 0-13.873 6.211-13.873 13.875v82.418h377.386l-.001-48.475z"/></g></svg>