<svg xmlns="http://www.w3.org/2000/svg" viewBox="0 0 261.019 261.019"><path d="M123.549 163.572c1.74 1.74 5.22 1.74 6.96 1.74 1.74 0 5.22 0 3.48-1.74l52.204-52.204c3.48-3.48 3.48-8.701 0-12.181s-8.701-3.48-12.181 0L139.21 133.99V8.701c0-5.22-3.48-8.701-8.701-8.701-5.22 0-8.701 3.48-8.701 8.701V137.47L83.526 99.187c-3.48-3.48-8.701-3.48-12.181 0s-3.48 8.701 0 12.181l52.204 52.204zM252.318 174.013c-5.22 0-8.701 3.48-8.701 8.701v34.802c0 13.921-12.181 26.102-26.102 26.102H43.503c-13.921 0-26.102-12.181-26.102-26.102v-34.802c0-5.22-3.48-8.701-8.701-8.701s-8.7 3.48-8.7 8.7v34.802c0 24.362 19.141 43.503 43.503 43.503h174.012c24.362 0 43.503-19.141 43.503-43.503v-34.802c0-5.22-3.48-8.7-8.7-8.7z" style="fill:#2c7be5;fill-opacity:1"/></svg>