<?xml version="1.0" encoding="UTF-8" standalone="no"?>
<svg
   xmlns:dc="http://purl.org/dc/elements/1.1/"
   xmlns:cc="http://creativecommons.org/ns#"
   xmlns:rdf="http://www.w3.org/1999/02/22-rdf-syntax-ns#"
   xmlns:svg="http://www.w3.org/2000/svg"
   xmlns="http://www.w3.org/2000/svg"
   xmlns:sodipodi="http://sodipodi.sourceforge.net/DTD/sodipodi-0.dtd"
   xmlns:inkscape="http://www.inkscape.org/namespaces/inkscape"
   version="1.1"
   viewBox="0 0 261.019 261.019"
   enable-background="new 0 0 261.019 261.019"
   id="svg10"
   sodipodi:docname="Import_icon_off.svg"
   inkscape:version="0.92.4 (5da689c313, 2019-01-14)">
  <metadata
     id="metadata16">
    <rdf:RDF>
      <cc:Work
         rdf:about="">
        <dc:format>image/svg+xml</dc:format>
        <dc:type
           rdf:resource="http://purl.org/dc/dcmitype/StillImage" />
        <dc:title></dc:title>
      </cc:Work>
    </rdf:RDF>
  </metadata>
  <defs
     id="defs14" />
  <sodipodi:namedview
     pagecolor="#ffffff"
     bordercolor="#666666"
     borderopacity="1"
     objecttolerance="10"
     gridtolerance="10"
     guidetolerance="10"
     inkscape:pageopacity="0"
     inkscape:pageshadow="2"
     inkscape:window-width="1312"
     inkscape:window-height="1009"
     id="namedview12"
     showgrid="false"
     inkscape:zoom="0.9041487"
     inkscape:cx="-49.217568"
     inkscape:cy="130.50951"
     inkscape:window-x="0"
     inkscape:window-y="0"
     inkscape:window-maximized="0"
     inkscape:current-layer="svg10" />
  <g
     id="g8">
    <g
       id="g6">
      <path
         d="m123.549,163.572c1.74,1.74 5.22,1.74 6.96,1.74 1.74,0 5.22,0 3.48-1.74l52.204-52.204c3.48-3.48 3.48-8.701 0-12.181s-8.701-3.48-12.181,0l-34.802,34.803v-125.289c0-5.22-3.48-8.701-8.701-8.701-5.22,0-8.701,3.48-8.701,8.701v128.769l-38.282-38.283c-3.48-3.48-8.701-3.48-12.181,0s-3.48,8.701 0,12.181l52.204,52.204z"
         id="path2"
         style="fill:#c8c8c8;fill-opacity:1" />
      <path
         d="m252.318,174.013c-5.22,0-8.701,3.48-8.701,8.701v34.802c0,13.921-12.181,26.102-26.102,26.102h-174.012c-13.921,0-26.102-12.181-26.102-26.102v-34.802c0-5.22-3.48-8.701-8.701-8.701s-8.7,3.48-8.7,8.7v34.802c0,24.362 19.141,43.503 43.503,43.503h174.012c24.362,0 43.503-19.141 43.503-43.503v-34.802c0-5.22-3.48-8.7-8.7-8.7z"
         id="path4"
         style="fill:#c8c8c8;fill-opacity:1" />
    </g>
  </g>
</svg>
