<?xml version="1.0" encoding="UTF-8" standalone="no"?>
<svg
   xmlns:dc="http://purl.org/dc/elements/1.1/"
   xmlns:cc="http://creativecommons.org/ns#"
   xmlns:rdf="http://www.w3.org/1999/02/22-rdf-syntax-ns#"
   xmlns:svg="http://www.w3.org/2000/svg"
   xmlns="http://www.w3.org/2000/svg"
   xmlns:sodipodi="http://sodipodi.sourceforge.net/DTD/sodipodi-0.dtd"
   xmlns:inkscape="http://www.inkscape.org/namespaces/inkscape"
   version="1.1"
   viewBox="0 16 92 108"
   xml:space="preserve"
   id="svg9"
   sodipodi:docname="Poubelle_icon_On.svg"
   inkscape:version="0.92.4 (5da689c313, 2019-01-14)"><metadata
     id="metadata13"><rdf:RDF><cc:Work
         rdf:about=""><dc:format>image/svg+xml</dc:format><dc:type
           rdf:resource="http://purl.org/dc/dcmitype/StillImage" /><dc:title></dc:title></cc:Work></rdf:RDF></metadata><sodipodi:namedview
     pagecolor="#ffffff"
     bordercolor="#666666"
     borderopacity="1"
     objecttolerance="10"
     gridtolerance="10"
     guidetolerance="10"
     inkscape:pageopacity="0"
     inkscape:pageshadow="2"
     inkscape:window-width="1920"
     inkscape:window-height="1027"
     id="namedview11"
     showgrid="false"
     inkscape:zoom="1.7226277"
     inkscape:cx="-45.332627"
     inkscape:cy="68.5"
     inkscape:window-x="-8"
     inkscape:window-y="-8"
     inkscape:window-maximized="1"
     inkscape:current-layer="svg9" /><style
     type="text/css"
     id="style2">
<![CDATA[
	.st0{fill:#EF3E42;}
	.st1{fill:#FFFFFF;}
	.st2{fill:none;}
	.st3{fill-rule:evenodd;clip-rule:evenodd;fill:#FFFFFF;}
]]>
</style><defs
     id="defs4" /><path
     d="M75.6,44.8v73c0,3.4-2.8,6.2-6.2,6.2H21.3c-3.4,0-6.2-2.8-6.2-6.2v-73H75.6L75.6,44.8z M59.9,52.9v62.8h3.6V52.9H59.9  L59.9,52.9z M43.6,52.9v62.8h3.6V52.9H43.6L43.6,52.9z M27.3,52.9v62.8h3.6V52.9H27.3L27.3,52.9z M31.3,27.9v-5.2  c0-3.3,2.6-5.9,5.9-5.9h16.4c3.3,0,5.9,2.6,5.9,5.9v5.2h18.1c3.4,0,6.2,2.8,6.2,6.2v4.3H7V34c0-3.4,2.8-6.2,6.2-6.2H31.3L31.3,27.9z   M37.2,20.8c-1,0-1.8,0.8-1.8,1.8v5.2h20.1v-5.2c0-1-0.8-1.8-1.8-1.8H37.2L37.2,20.8z"
     id="path6"
     style="fill:#2c7be5;fill-opacity:1" /><rect
     class="st2"
     height="137"
     id="_x3C_Slice_x3E__100_"
     width="98" /></svg>