<svg xmlns="http://www.w3.org/2000/svg" style="enable-background:new 0 0 98 137" version="1.1" viewBox="0 16 92 108" xml:space="preserve" id="svg9"><style type="text/css" id="style2"><![CDATA[.st0{fill:#EF3E42}.st1{fill:#FFFFFF}.st3{fill-rule:evenodd;clip-rule:evenodd;fill:#FFFFFF}]]></style><path d="M75.6 44.8v73c0 3.4-2.8 6.2-6.2 6.2H21.3c-3.4 0-6.2-2.8-6.2-6.2v-73h60.5zm-15.7 8.1v62.8h3.6V52.9h-3.6zm-16.3 0v62.8h3.6V52.9h-3.6zm-16.3 0v62.8h3.6V52.9h-3.6zm4-25v-5.2c0-3.3 2.6-5.9 5.9-5.9h16.4c3.3 0 5.9 2.6 5.9 5.9v5.2h18.1c3.4 0 6.2 2.8 6.2 6.2v4.3H7V34c0-3.4 2.8-6.2 6.2-6.2h18.1v.1zm5.9-7.1c-1 0-1.8.8-1.8 1.8v5.2h20.1v-5.2c0-1-.8-1.8-1.8-1.8H37.2z" id="path6" style="fill:#c8c8c8;fill-opacity:1"/><path id="_x3C_Slice_x3E__100_" style="fill:none" d="M0 0h98v137H0z"/></svg>