<?xml version="1.0" encoding="UTF-8" standalone="no"?>
<svg
   xmlns:dc="http://purl.org/dc/elements/1.1/"
   xmlns:cc="http://creativecommons.org/ns#"
   xmlns:rdf="http://www.w3.org/1999/02/22-rdf-syntax-ns#"
   xmlns:svg="http://www.w3.org/2000/svg"
   xmlns="http://www.w3.org/2000/svg"
   xmlns:sodipodi="http://sodipodi.sourceforge.net/DTD/sodipodi-0.dtd"
   xmlns:inkscape="http://www.inkscape.org/namespaces/inkscape"
   version="1.1"
   viewBox="0 0 261.019 261.019"
   enable-background="new 0 0 261.019 261.019"
   id="svg10"
   sodipodi:docname="Rapport_UUID.svg"
   inkscape:version="0.92.4 (5da689c313, 2019-01-14)">
  <metadata
     id="metadata16">
    <rdf:RDF>
      <cc:Work
         rdf:about="">
        <dc:format>image/svg+xml</dc:format>
        <dc:type
           rdf:resource="http://purl.org/dc/dcmitype/StillImage" />
        <dc:title />
      </cc:Work>
    </rdf:RDF>
  </metadata>
  <defs
     id="defs14" />
  <sodipodi:namedview
     pagecolor="#ffffff"
     bordercolor="#666666"
     borderopacity="1"
     objecttolerance="10"
     gridtolerance="10"
     guidetolerance="10"
     inkscape:pageopacity="0"
     inkscape:pageshadow="2"
     inkscape:window-width="1920"
     inkscape:window-height="1027"
     id="namedview12"
     showgrid="false"
     inkscape:zoom="3.2947792"
     inkscape:cx="130.50951"
     inkscape:cy="130.50951"
     inkscape:window-x="-8"
     inkscape:window-y="-8"
     inkscape:window-maximized="1"
     inkscape:current-layer="svg10"
     showguides="true"
     inkscape:guide-bbox="true"
     inkscape:object-paths="true">
    <sodipodi:guide
       position="381.57439,110.60127"
       orientation="0,1"
       id="guide6129"
       inkscape:locked="false" />
  </sodipodi:namedview>
  <g
     id="g8">
    <g
       id="g6">
      <path
         inkscape:connector-curvature="0"
         d="m 252.318,174.013 c -5.22,0 -8.701,3.48 -8.701,8.701 v 34.802 c 0,13.921 -12.181,26.102 -26.102,26.102 H 43.503 c -13.921,0 -26.102,-12.181 -26.102,-26.102 v -34.802 c 0,-5.22 -3.48,-8.701 -8.701,-8.701 -5.221,0 -8.7,3.48 -8.7,8.7 v 34.802 c 0,24.362 19.141,43.503 43.503,43.503 h 174.012 c 24.362,0 43.503,-19.141 43.503,-43.503 v -34.802 c 0,-5.22 -3.48,-8.7 -8.7,-8.7 z"
         id="path4"
         style="fill:#2c7be5;fill-opacity:1" />
    </g>
  </g>
  <g
     aria-label="UUID"
     transform="matrix(1.3048466,0,0,1.3048466,-59.676988,-181.63844)"
     style="font-style:normal;font-weight:normal;font-size:40px;line-height:1.25;font-family:sans-serif;letter-spacing:0px;word-spacing:0px;fill:#2c7be5;fill-opacity:1;stroke:none"
     id="flowRoot5538">
    <path
       d="m 59.867187,200.1756 h 10.791667 v 28.94792 q 0,6.89062 0.401041,8.93229 0.692709,3.28125 3.28125,5.28646 2.625,1.96875 7.145833,1.96875 4.59375,0 6.927083,-1.85938 2.333334,-1.89583 2.807292,-4.63021 0.473958,-2.73437 0.473958,-9.07812 V 200.1756 h 10.791669 v 28.07292 q 0,9.625 -0.875,13.59895 -0.875,3.97396 -3.244794,6.70834 -2.333333,2.73437 -6.270833,4.375 -3.9375,1.60416 -10.28125,1.60416 -7.65625,0 -11.630208,-1.75 -3.9375,-1.78645 -6.234374,-4.59375 -2.296875,-2.84375 -3.026042,-5.9427 -1.057292,-4.59375 -1.057292,-13.5625 z"
       style="font-style:normal;font-variant:normal;font-weight:bold;font-stretch:normal;font-size:74.66666412px;font-family:Arial;-inkscape-font-specification:'Arial Bold';fill:#2c7be5;fill-opacity:1"
       id="path828" />
    <path
       d="m 113.82552,200.1756 h 10.79167 v 28.94792 q 0,6.89062 0.40104,8.93229 0.69271,3.28125 3.28125,5.28646 2.625,1.96875 7.14583,1.96875 4.59375,0 6.92708,-1.85938 2.33334,-1.89583 2.80729,-4.63021 0.47396,-2.73437 0.47396,-9.07812 V 200.1756 h 10.79167 v 28.07292 q 0,9.625 -0.875,13.59895 -0.875,3.97396 -3.24479,6.70834 -2.33334,2.73437 -6.27084,4.375 -3.93749,1.60416 -10.28124,1.60416 -7.65625,0 -11.63021,-1.75 -3.9375,-1.78645 -6.23438,-4.59375 -2.29687,-2.84375 -3.02604,-5.9427 -1.05729,-4.59375 -1.05729,-13.5625 z"
       style="font-style:normal;font-variant:normal;font-weight:bold;font-stretch:normal;font-size:74.66666412px;font-family:Arial;-inkscape-font-specification:'Arial Bold';fill:#2c7be5;fill-opacity:1"
       id="path830" />
    <path
       d="M 167.52864,253.62352 V 200.1756 h 10.79167 v 53.44792 z"
       style="font-style:normal;font-variant:normal;font-weight:bold;font-stretch:normal;font-size:74.66666412px;font-family:Arial;-inkscape-font-specification:'Arial Bold';fill:#2c7be5;fill-opacity:1"
       id="path832" />
    <path
       d="m 188.52865,200.1756 h 19.72395 q 6.67188,0 10.17188,1.02083 4.70312,1.38542 8.05729,4.92188 3.35417,3.53646 5.10417,8.67708 1.75,5.10417 1.75,12.61458 0,6.59896 -1.64063,11.375 -2.00521,5.83334 -5.72396,9.44271 -2.80729,2.73438 -7.58333,4.26563 -3.57292,1.13021 -9.55208,1.13021 h -20.30729 z m 10.79166,9.04167 v 35.40104 h 8.05729 q 4.52084,0 6.52604,-0.51042 2.625,-0.65625 4.33855,-2.22396 1.75,-1.56771 2.84375,-5.14062 1.09375,-3.60938 1.09375,-9.80729 0,-6.19792 -1.09375,-9.51563 -1.09375,-3.31771 -3.0625,-5.17708 -1.96875,-1.85938 -4.9948,-2.51563 -2.26041,-0.51041 -8.85937,-0.51041 z"
       style="font-style:normal;font-variant:normal;font-weight:bold;font-stretch:normal;font-size:74.66666412px;font-family:Arial;-inkscape-font-specification:'Arial Bold';fill:#2c7be5;fill-opacity:1"
       id="path834" />
  </g>
</svg>
