<svg xmlns="http://www.w3.org/2000/svg" viewBox="0 0 261.019 261.019"><path d="M252.318 174.013c-5.22 0-8.701 3.48-8.701 8.701v34.802c0 13.921-12.181 26.102-26.102 26.102H43.503c-13.921 0-26.102-12.181-26.102-26.102v-34.802c0-5.22-3.48-8.701-8.701-8.701s-8.7 3.48-8.7 8.7v34.802c0 24.362 19.141 43.503 43.503 43.503h174.012c24.362 0 43.503-19.141 43.503-43.503v-34.802c0-5.22-3.48-8.7-8.7-8.7z" style="fill:#2c7be5;fill-opacity:1"/><g aria-label="UUID" style="font-style:normal;font-weight:400;font-size:40px;line-height:1.25;font-family:sans-serif;letter-spacing:0;word-spacing:0;fill:#2c7be5;fill-opacity:1;stroke:none"><path d="M18.44 79.56h14.082v37.773q0 8.99.523 11.655.904 4.281 4.282 6.898 3.425 2.569 9.324 2.569 5.994 0 9.039-2.426 3.044-2.474 3.663-6.042.618-3.568.618-11.846V79.56h14.082v36.63q0 12.56-1.142 17.745-1.142 5.186-4.234 8.754-3.045 3.568-8.182 5.708-5.138 2.094-13.416 2.094-9.99 0-15.175-2.284-5.138-2.33-8.135-5.994-2.997-3.71-3.949-7.754-1.38-5.994-1.38-17.697zM88.848 79.56h14.081v37.773q0 8.99.524 11.655.904 4.281 4.281 6.898 3.425 2.569 9.324 2.569 5.995 0 9.04-2.426 3.044-2.474 3.662-6.042.619-3.568.619-11.846V79.56h14.081v36.63q0 12.56-1.142 17.745-1.141 5.186-4.234 8.754-3.044 3.568-8.182 5.708-5.138 2.094-13.415 2.094-9.99 0-15.176-2.284-5.138-2.33-8.135-5.994-2.997-3.71-3.949-7.754-1.38-5.994-1.38-17.697zM158.922 149.301V79.56h14.082v69.741zM186.324 79.56h25.737q8.705 0 13.272 1.332 6.137 1.808 10.514 6.422 4.377 4.615 6.66 11.323 2.284 6.66 2.284 16.46 0 8.61-2.141 14.842-2.617 7.612-7.469 12.322-3.663 3.568-9.895 5.566-4.662 1.474-12.464 1.474h-26.498zm14.081 11.798v46.193h10.514q5.899 0 8.515-.666 3.426-.856 5.662-2.902 2.283-2.046 3.71-6.708 1.427-4.71 1.427-12.797t-1.427-12.416q-1.427-4.33-3.996-6.755-2.569-2.427-6.517-3.283-2.95-.666-11.56-.666z" style="font-style:normal;font-variant:normal;font-weight:700;font-stretch:normal;font-size:74.66666412px;font-family:Arial;-inkscape-font-specification:'Arial Bold';fill:#2c7be5;fill-opacity:1"/></g></svg>