<?xml version="1.0" encoding="UTF-8" standalone="no"?>
<svg
   xmlns:dc="http://purl.org/dc/elements/1.1/"
   xmlns:cc="http://creativecommons.org/ns#"
   xmlns:rdf="http://www.w3.org/1999/02/22-rdf-syntax-ns#"
   xmlns:svg="http://www.w3.org/2000/svg"
   xmlns="http://www.w3.org/2000/svg"
   xmlns:sodipodi="http://sodipodi.sourceforge.net/DTD/sodipodi-0.dtd"
   xmlns:inkscape="http://www.inkscape.org/namespaces/inkscape"
   version="1.1"
   viewBox="0 0 261.019 261.019"
   enable-background="new 0 0 261.019 261.019"
   id="svg10"
   sodipodi:docname="Rapport_Sensibles.svg"
   inkscape:version="0.92.4 (5da689c313, 2019-01-14)">
  <metadata
     id="metadata16">
    <rdf:RDF>
      <cc:Work
         rdf:about="">
        <dc:format>image/svg+xml</dc:format>
        <dc:type
           rdf:resource="http://purl.org/dc/dcmitype/StillImage" />
        <dc:title></dc:title>
      </cc:Work>
    </rdf:RDF>
  </metadata>
  <defs
     id="defs14" />
  <sodipodi:namedview
     pagecolor="#ffffff"
     bordercolor="#666666"
     borderopacity="1"
     objecttolerance="10"
     gridtolerance="10"
     guidetolerance="10"
     inkscape:pageopacity="0"
     inkscape:pageshadow="2"
     inkscape:window-width="1920"
     inkscape:window-height="1027"
     id="namedview12"
     showgrid="false"
     inkscape:zoom="0.9041487"
     inkscape:cx="-228.94464"
     inkscape:cy="130.50951"
     inkscape:window-x="-8"
     inkscape:window-y="-8"
     inkscape:window-maximized="1"
     inkscape:current-layer="svg10"
     showguides="true"
     inkscape:guide-bbox="true">
    <sodipodi:guide
       position="381.57439,110.60127"
       orientation="0,1"
       id="guide6129"
       inkscape:locked="false" />
    <sodipodi:guide
       position="233.36868,182.4921"
       orientation="0,1"
       id="guide6131"
       inkscape:locked="false" />
  </sodipodi:namedview>
  <g
     id="g8">
    <g
       id="g6">
      <path
         d="m252.318,174.013c-5.22,0-8.701,3.48-8.701,8.701v34.802c0,13.921-12.181,26.102-26.102,26.102h-174.012c-13.921,0-26.102-12.181-26.102-26.102v-34.802c0-5.22-3.48-8.701-8.701-8.701s-8.7,3.48-8.7,8.7v34.802c0,24.362 19.141,43.503 43.503,43.503h174.012c24.362,0 43.503-19.141 43.503-43.503v-34.802c0-5.22-3.48-8.7-8.7-8.7z"
         id="path4"
         style="fill:#2c7be5;fill-opacity:1" />
    </g>
  </g>
  <path
     style="fill:#2c7be5;fill-opacity:1;stroke-width:0.44366017"
     d="m 125.44867,219.80546 c -16.54062,-2.14277 -27.937815,-7.31932 -37.702615,-17.12435 -4.82281,-4.84268 -9.49944,-10.78471 -14.38359,-18.27548 -8.40704,-12.89385 -28.98767,-50.45665 -30.1929,-55.10669 -1.72452,-6.65365 -0.0714,-13.15034 4.55457,-17.8997 5.44346,-5.58859 13.5106,-6.83557 21.1362,-3.26712 3.80138,1.77888 5.61408,3.53296 11.20297,10.84076 l 4.79045,6.26379 0.22183,-43.231047 c 0.24511,-47.76692 0.0421,-44.54605 3.08557,-48.96948 4.60932,-6.69943 14.393215,-9.43947 22.143155,-6.20135 2.04922,0.85623 2.14145,0.82559 2.45471,-0.81546 0.39938,-2.09222 2.27509,-5.92883 3.90422,-7.98579 1.71442,-2.16463 5.07588,-4.36588 8.27678,-5.42003 3.53272,-1.16343 9.63278,-0.81153 13.02789,0.75155 3.21107,1.47837 6.48902,4.52932 8.1026,7.5415 0.68939,1.28695 1.28366,2.38407 1.3206,2.43805 0.0369,0.054 0.86649,-0.29732 1.84345,-0.78069 0.97697,-0.48336 3.42554,-1.11922 5.44127,-1.41302 3.11815,-0.45446 4.18339,-0.42697 7.13954,0.18429 8.47145,1.75171 12.7162,7.45656 13.76321,18.49743 0.24563,2.59024 0.44677,4.93991 0.44698,5.22148 2.4e-4,0.34516 0.69839,0.24672 2.14289,-0.30214 3.05105,-1.15931 6.9127,-1.49151 10.25584,-0.88226 6.8603,1.25022 10.94614,4.97795 13.39765,12.22343 l 1.04542,3.08981 0.1349,49.911767 c 0.091,33.70056 -0.0225,51.56075 -0.34966,54.98876 -1.57486,16.50081 -7.5666,30.256 -17.49771,40.16932 -7.79774,7.78378 -16.37714,12.25852 -28.59868,14.9161 -5.54886,1.20662 -23.82095,1.58053 -31.10754,0.63657 z m 29.49651,-9.56181 c 8.45164,-1.7982 15.30976,-4.96195 20.84734,-9.6172 10.50553,-8.83161 16.58647,-22.01017 17.95978,-38.92221 0.60881,-7.49746 0.61307,-95.578817 0.004,-99.859337 -0.51256,-3.60723 -1.90635,-6.61563 -3.67767,-7.93813 -0.95945,-0.71633 -2.0338,-0.96308 -4.6557,-1.06927 -4.52076,-0.18312 -6.02478,0.61101 -7.845,4.14217 l -1.33099,2.58204 -0.22183,24.21192 c -0.22868,24.960587 -0.24124,25.122817 -2.0663,26.705357 -1.88447,1.63407 -5.22958,1.10726 -6.43845,-1.01399 -0.47255,-0.82918 -0.63454,-8.1597 -0.81212,-36.750427 l -0.22183,-35.71465 -1.33099,-2.64148 c -1.67384,-3.32195 -3.4333,-4.34254 -7.44338,-4.31761 -4.23919,0.0264 -6.54542,1.22936 -8.23778,4.29714 -0.65994,1.19624 -0.75671,4.8267 -0.95609,35.86423 l -0.22183,34.533247 -1.2448,1.07047 c -1.68839,1.45194 -4.25162,1.45191 -5.93994,-5e-5 l -1.2448,-1.07055 -0.22184,-38.526117 c -0.23854,-41.4296 -0.14294,-39.85574 -2.57926,-42.46411 -3.94014,-4.2184 -10.76946,-3.74156 -14.05206,0.98115 l -1.33691,1.92343 -0.22183,38.81897 -0.22183,38.818977 -1.44889,1.29439 c -1.95788,1.7491 -4.01749,1.74912 -5.97542,6e-5 l -1.4489,-1.29432 -0.22182,-32.091097 c -0.16571,-23.97287 -0.35783,-32.32824 -0.75945,-33.0285 -0.2957,-0.51556 -1.22689,-1.54257 -2.06934,-2.28225 -4.41522,-3.87662 -11.584335,-2.70015 -14.212625,2.33233 -0.92003,1.76161 -0.92846,2.14156 -1.14866,51.78514 -0.2207,49.755947 -0.22648,50.015157 -1.13568,50.924207 -1.19779,1.19759 -3.90319,1.63145 -5.34885,0.85775 -0.61164,-0.32734 -4.82032,-5.49614 -9.35259,-11.48624 -4.53228,-5.99008 -8.95613,-11.64315 -9.8308,-12.56238 -2.22905,-2.34267 -4.6916,-3.43077 -7.76434,-3.43077 -5.46031,0 -8.88857,3.52669 -8.84805,9.10211 0.0225,3.09694 0.66925,4.5028 9.89564,21.51045 15.53191,28.63104 23.84976,41.49101 32.55685,50.33512 8.613185,8.74874 19.162115,13.24813 34.876975,14.87593 6.57906,0.68149 20.87439,0.19341 25.94723,-0.8859 z"
     id="path5524"
     inkscape:connector-curvature="0" />
</svg>
