<svg xmlns="http://www.w3.org/2000/svg" viewBox="0 0 261.019 261.019"><path d="M252.318 174.013c-5.22 0-8.701 3.48-8.701 8.701v34.802c0 13.921-12.181 26.102-26.102 26.102H43.503c-13.921 0-26.102-12.181-26.102-26.102v-34.802c0-5.22-3.48-8.701-8.701-8.701s-8.7 3.48-8.7 8.7v34.802c0 24.362 19.141 43.503 43.503 43.503h174.012c24.362 0 43.503-19.141 43.503-43.503v-34.802c0-5.22-3.48-8.7-8.7-8.7z" style="fill:#2c7be5;fill-opacity:1"/><path style="fill:#2c7be5;fill-opacity:1;stroke-width:.44366017" d="M125.449 219.805c-16.54-2.142-27.938-7.319-37.703-17.124-4.823-4.843-9.5-10.785-14.384-18.275-8.407-12.894-28.987-50.457-30.192-55.107-1.725-6.654-.072-13.15 4.554-17.9 5.444-5.588 13.51-6.835 21.136-3.267 3.802 1.779 5.614 3.533 11.203 10.84l4.79 6.265.223-43.231c.245-47.767.042-44.546 3.085-48.97 4.61-6.7 14.393-9.44 22.143-6.201 2.05.856 2.142.825 2.455-.816.4-2.092 2.275-5.928 3.904-7.985 1.715-2.165 5.076-4.366 8.277-5.42 3.533-1.164 9.633-.812 13.028.751 3.211 1.478 6.489 4.53 8.103 7.542.689 1.287 1.283 2.384 1.32 2.438.037.054.867-.298 1.844-.781.977-.483 3.425-1.12 5.44-1.413 3.119-.455 4.184-.427 7.14.184 8.472 1.752 12.717 7.457 13.764 18.498.245 2.59.446 4.94.447 5.221 0 .345.698.247 2.142-.302 3.052-1.16 6.913-1.492 10.256-.882 6.86 1.25 10.946 4.978 13.398 12.223l1.045 3.09.135 49.912c.091 33.7-.022 51.56-.35 54.988-1.574 16.501-7.566 30.256-17.497 40.17-7.798 7.784-16.377 12.258-28.599 14.916-5.549 1.207-23.82 1.58-31.107.636zm29.496-9.561c8.452-1.799 15.31-4.962 20.848-9.618 10.505-8.831 16.586-22.01 17.96-38.922.608-7.497.612-95.579.003-99.86-.512-3.606-1.906-6.615-3.677-7.937-.96-.717-2.034-.963-4.656-1.07-4.52-.183-6.025.612-7.845 4.143l-1.331 2.582-.222 24.212c-.229 24.96-.241 25.122-2.066 26.705-1.885 1.634-5.23 1.107-6.439-1.014-.472-.83-.634-8.16-.812-36.75L166.486 37l-1.33-2.642c-1.674-3.322-3.434-4.342-7.444-4.317-4.24.026-6.545 1.23-8.238 4.297-.66 1.196-.756 4.827-.956 35.864l-.222 34.533-1.244 1.07c-1.689 1.453-4.252 1.453-5.94 0l-1.245-1.07-.222-38.526c-.239-41.43-.143-39.856-2.58-42.464-3.94-4.218-10.769-3.741-14.051.981l-1.337 1.924-.222 38.819-.222 38.819-1.449 1.294c-1.958 1.75-4.017 1.75-5.975 0l-1.45-1.294-.221-32.091c-.166-23.973-.358-32.329-.76-33.029-.295-.515-1.226-1.542-2.069-2.282-4.415-3.877-11.584-2.7-14.212 2.332-.92 1.762-.929 2.142-1.149 51.785-.22 49.756-.227 50.016-1.136 50.925-1.198 1.197-3.903 1.631-5.349.857-.611-.327-4.82-5.496-9.352-11.486s-8.956-11.643-9.831-12.562c-2.229-2.343-4.692-3.431-7.764-3.431-5.46 0-8.889 3.527-8.848 9.102.022 3.097.669 4.503 9.895 21.51 15.532 28.632 23.85 41.492 32.557 50.336 8.613 8.748 19.162 13.248 34.877 14.876 6.58.681 20.875.193 25.947-.886z"/></svg>