<svg xmlns="http://www.w3.org/2000/svg" width="300mm" height="300mm" viewBox="-202 -200 698 702"><ellipse style="fill:#7ab839;fill-opacity:1;stroke-width:.21599621" cx="132.981" cy="158.342" rx="339.423" ry="345.594"/><ellipse ry="111.189" rx="116.243" cy="-27.066" cx="188.232" style="fill:#fff;fill-opacity:.05853659;stroke:#fff;stroke-width:13.37131786;stroke-linecap:round;stroke-linejoin:round;stroke-miterlimit:4;stroke-dasharray:none;stroke-opacity:1"/><path d="M152.785 73.462c-19.507 40.582-47.571 77.026-81.823 106.254-33.452 28.546-72.774 50.368-102.461 82.811-20.56 22.469-35.94 49.65-44.61 78.844" style="fill:none;stroke:#fff;stroke-width:18.06500053;stroke-linecap:butt;stroke-linejoin:miter;stroke-miterlimit:4;stroke-dasharray:none;stroke-opacity:1"/><path d="M-11.04 173.47a78.24 78.24 0 0 0 0 30.752c1.868 9.25 5.445 18.042 10.427 25.626M201.36 160.885a97.385 97.385 0 0 0-37.35-16.677c-20.32-4.28-42.005-1.81-60.843 6.933M-26.373 264.959A64.213 64.213 0 0 0-1.05 282.834c14.685 5.69 31.493 5.69 46.178 0" style="fill:none;stroke:#fff;stroke-width:10;stroke-linecap:butt;stroke-linejoin:miter;stroke-miterlimit:4;stroke-dasharray:none;stroke-opacity:1"/><ellipse ry="83.155" rx="86.935" cy="91.193" cx="-26.265" style="fill:#fff;fill-opacity:0;stroke:#fff;stroke-width:10;stroke-linecap:round;stroke-linejoin:round;stroke-miterlimit:4;stroke-dasharray:none;stroke-opacity:1"/><ellipse ry="83.155" rx="86.935" cy="177.372" cx="286.624" style="fill:#fff;fill-opacity:0;stroke:#fff;stroke-width:10;stroke-linecap:round;stroke-linejoin:round;stroke-miterlimit:4;stroke-dasharray:none;stroke-opacity:1"/><ellipse ry="42.509" rx="44.442" cy="336.878" cx="-78.005" style="fill:#fff;fill-opacity:1;stroke:#fff;stroke-width:5.11199999;stroke-linecap:round;stroke-linejoin:round;stroke-miterlimit:4;stroke-dasharray:none;stroke-opacity:1"/><ellipse ry="83.155" rx="86.935" cy="287.282" cx="129.866" style="fill:#fff;fill-opacity:.01463414;stroke:#fff;stroke-width:10;stroke-linecap:round;stroke-linejoin:round;stroke-miterlimit:4;stroke-dasharray:none;stroke-opacity:1"/><g style="fill:#fff;fill-opacity:1;stroke:none"><path d="M176.269 234.432c-.03.042-.77.353-1.65.689l-1.578.604-1.17 1.192c-.64.663-1.259 1.276-1.389 1.377-.13.092-.76.437-1.409.764l-1.19.588-1.448 2.208c-.79 1.217-1.96 3.03-2.589 4.03l-1.14 1.813v2.368l1 1.561c.55.857 1 1.629 1 1.73 0 .092-.27.814-.61 1.612l-.6 1.444-1.709 2.057c-.94 1.133-1.789 2.14-1.899 2.233-.1.1-.7.411-1.319.697l-1.13.512-2.837.117-2.839.11-3.298-.958c-1.809-.528-3.408-1.015-3.558-1.074-.14-.067-2.538-1.327-5.326-2.813-5.067-2.686-5.087-2.695-10.034-4.802l-4.967-2.116-3.448-.57c-5.067-.84-4.947-.832-8.945-.42l-3.298.344-2.139.73c-2.029.689-2.249.79-4.147 1.847-1.97 1.092-2.04 1.134-3.268 2.284l-1.26 1.167-1.279 2.048-1.28 2.049-.14 1.091c-.109.848-.219 1.285-.499 1.931-.41.957-.41.79-.12 3.443l.21 2.014 1.05 2.074 1.049 2.082 1.29 1.302c.819.83 1.258 1.343 1.228 1.427-.03.067-.22.16-.43.201-.35.084-2.808.32-5.706.546-1.32.11-1.709.185-4.397.848-2.229.554-3.758 1-6.287 1.83l-3.328 1.108-2.098 1.537c-1.77 1.293-2.339 1.771-3.658 3.073l-1.57 1.544-.769 1.42-.78 1.41-.849 3.064c-.47 1.688-.9 3.132-.96 3.224-.08.11-.08.21 0 .336.06.092.38 1.116.71 2.275l.6 2.099 1.619 2.435c.89 1.335 1.709 2.569 1.839 2.737.16.21 1.29.94 3.818 2.451l3.587 2.158 4.718 1.385 4.707 1.385h1.03c.559 0 2.328-.042 3.917-.084l2.898-.092 6.796-.999c4.977-.73 7.196-1.016 8.295-1.083l5.047-.302 3.548-.219 4.547.84c2.499.47 4.688.898 4.848.965.17.068.989.521 1.828 1.008 1.17.688 1.67 1.05 2.17 1.536.359.353.669.722.699.815.02.1.09.856.15 1.696l.1 1.52-.37.83c-.33.748-.53 1.016-1.939 2.62l-1.57 1.788-2.118 1.335c-1.18.739-2.139 1.343-2.149 1.343-.01 0-1.049.336-2.298.756l-2.269.755-1.619.084c-.88.05-1.759.101-1.949.126-.28.026-.4-.016-.78-.319-.419-.335-.459-.411-.589-1.032l-.14-.664.65-1.225.65-1.226v-2.964l-.65-1.091-.65-1.083-.75-.428-.759-.429-2.968-.545-2.968-.538-3.198.429-3.199.42-2.148.805c-3.048 1.15-2.959 1.1-6.526 3.056l-3.238 1.772-2.909 2.443-2.908 2.451-2.309 3.443-2.308 3.442-1.4 3.224c-.889 2.04-1.389 3.29-1.349 3.4.03.1.15.361.26.58.2.377.22.394.63.394l.42-.009 1.898-2.149c1.44-1.637 2.08-2.443 2.629-3.324.69-1.1.86-1.293 3.428-3.862 2.229-2.217 2.968-2.897 4.147-3.795l1.44-1.092 4.427-2.19 4.417-2.192 1.85-.185c1.019-.1 1.988-.193 2.148-.193.46-.008 2.328.806 2.398 1.041.27 1.05.28.982-.45 3.3-.649 2.073-.689 2.258-.789 3.652-.08.974-.09 1.553-.02 1.72.05.135.17.47.25.731.13.395.4.73 1.57 1.973l1.398 1.495 1.41.528 1.399.538 3.787.445 3.788.453 2.169-.235c2.129-.235 2.258-.26 5.527-1.091 4.627-1.176 5.726-1.604 9.194-3.585l2.549-1.461 2.948-2.36 2.948-2.35 1.17-1.906 1.159-1.906 1.159-3.249 1.16-3.257v-1.612c0-.89-.07-2.343-.15-3.233l-.14-1.611-1.19-2.418-1.18-2.418-1.368-1.545c-.75-.848-1.37-1.604-1.37-1.67 0-.068.73-1.075 1.62-2.234l1.629-2.107 1.459-2.939 1.469-2.947.25-3.266.25-3.274-.4-1.427-.41-1.427-1.29-1.931-1.289-1.931-2.038-1.847c-1.13-1.008-2.05-1.873-2.05-1.915 0-.033.11-.159.25-.268.28-.244.78-.269 2.28-.118 1.409.143 2.928-.117 7.185-1.225 1.889-.496 3.588-.94 3.778-1 .3-.084 3.378-1.838 4.967-2.837.29-.177 1.21-1 2.049-1.822 1.429-1.402 1.689-1.713 3.857-4.66l2.329-3.148.54-1.47c.69-1.913 1.359-3.072 2.248-3.861.36-.32 1.64-1.218 2.849-1.99l2.198-1.419.67-.856c.37-.479.71-.957.77-1.075.06-.117.19-.722.3-1.343.569-3.207 1.508-8.051 1.608-8.295.09-.201.09-.386.01-.672a10.44 10.44 0 0 1-.2-1.15c-.09-.73-.12-.797-.879-1.914l-.78-1.159-.799-.302c-.73-.277-.94-.31-2.299-.411-.82-.059-1.689-.126-1.909-.16-.23-.033-.44-.025-.47.017zm-56.077 28.898l2.019.411 1.829 1.209c1.689 1.108 1.969 1.335 3.368 2.703.96.932 1.499 1.528 1.449 1.57-.06.05-1.61-.033-4.088-.218l-3.987-.302-2.469-1.016-2.468-1.024-.37-.747c-.31-.639-.36-.806-.31-1.16.03-.226.12-.511.19-.637.17-.277 2.319-1.301 2.618-1.243.12.026 1.12.227 2.22.454zm5.027 20.703c.99.143 2.019.361 3.298.722l1.86.512.549.479c.3.269.86.772 1.239 1.133l.69.647-.11.638c-.07.344-.15.663-.18.705-.03.042-.58.076-1.23.076h-1.179l-3.288-2.46c-1.799-1.344-3.298-2.502-3.318-2.56-.05-.135 0-.135 1.67.108zm-25.795 5.76c4.058 1.083 4.528 1.293 8.685 3.853 3.558 2.2 3.718 2.309 3.578 2.426-.06.042-1.579.177-3.398.294-2.378.168-3.917.32-5.507.546l-2.218.32-4.228-.538-4.237-.546-1.11-.437-1.099-.444-.52-.706-.52-.705v-1.939l.51-.63c.28-.344.6-.705.71-.798.1-.1.83-.428 1.61-.73 1.408-.546 1.438-.554 2.618-.63 2.218-.142 1.998-.168 5.126.664z" style="fill:#fff;fill-opacity:1"/></g><g style="fill:#fff;fill-opacity:1;stroke:none"><path d="M211.246-106.83c-1.155.234-3.52.977-4.22 1.32-2.557 1.292-3.767 2.777-5.485 6.763-.44 1.018-.99 2.09-1.237 2.406-1.1 1.375-1.938 2.24-2.9 2.956-.564.44-1.994 1.65-3.19 2.708-3.134 2.79-4.454 3.684-6.75 4.55-2.199.824-5.993 1.264-12.357 1.43-5.884.15-6.571.205-8.042.687-6.86 2.24-14.585 7.148-21.21 13.457l-1.073 1.031-1.375-.673c-.742-.371-1.36-.715-1.36-.756 0-.042.48-.633 1.058-1.306 1.8-2.117 3.945-5.086 5.32-7.382 1.058-1.787 1.32-2.31 1.32-2.75 0-.494-.028-.522-.344-.44-.206.056-.536 0-.825-.137-.399-.192-.577-.206-1.058-.068-2.021.536-5.568 3.161-9.692 7.189-1.086 1.045-1.965 1.87-1.965 1.814 0-.04.508-.673 1.113-1.402.619-.742 1.815-2.268 2.68-3.409.88-1.182 1.815-2.282 2.186-2.557 1.306-.99 1.471-1.154 1.774-1.773.178-.344.453-1.25.618-2.007.165-.756.399-1.65.523-1.98.302-.81.15-1.044-.729-1.072a5.92 5.92 0 0 1-1.1-.11c-.316-.068-.605 0-1.168.275-1.072.537-3.63 3.19-6.062 6.255-1.1 1.402-2.64 3.34-3.423 4.33-1.856 2.35-2.928 3.547-3.753 4.207-.783.632-1.25.687-1.485.192-.22-.481.207-3.052.578-3.437.137-.15.481-.893.742-1.65.261-.755.949-2.501 1.512-3.89.578-1.374 1.031-2.556 1.017-2.611-.013-.055.055-.344.152-.633.192-.536.165-1.553-.069-4.508l-.096-1.059-.99-.082c-1.1-.11-1.36-.028-2.103.673-1.389 1.279-2.64 4.317-4.152 10.008-1.512 5.677-1.897 6.845-2.68 8.096-.179.275-1.086 1.361-1.993 2.406-2.832 3.23-4.647 5.663-8.633 11.602-2.584 3.821-4.371 9.017-4.853 14.021-.22 2.35-.013 6.31.454 8.77.124.688.206.853.399.825.15-.027.426.261.824.852.825 1.21 1.444 1.622 2.818 1.842 1.925.303 2.599.138 6.324-1.622.673-.33 1.8-.934 2.502-1.36.7-.427 1.264-.702 1.264-.605 0 .096-.467 2.543-1.03 5.443l-1.018 5.265.564.921c.316.495.728 1.127.92 1.388l.344.482-.453-.413c-.701-.632-.468-.22.77 1.347 1.443 1.815 6.474 6.764 8.632 8.496 1.787 1.443 6.997 5.237 9.21 6.722 5.279 3.532 12.44 6.777 15.603 7.079.673.055 1.883.371 3.505.893 2.64.866 4.646 1.458 6.53 1.925.645.151 1.264.316 1.36.357.316.11-1.003.674-3.876 1.65-6.763 2.31-11.547 4.33-14.599 6.145-4.536 2.708-5.938 3.766-7.313 5.54-.371.48-.783.728-2.887 1.704-1.704.783-2.735 1.182-3.409 1.306-1.622.289-2.557.825-3.038 1.746-.192.385-.233 1.704-.068 2.309.055.206.013.591-.138.962-.261.701-.22.963.151.963.193 0 .289.137.344.508.055.289.165.674.247.866.289.591 2.461 2.653 3.533 3.34.564.372 1.842 1.196 2.818 1.829 2.873 1.883 6.653 3.684 10.585 5.045.756.26 2.24.852 3.299 1.292a73.4 73.4 0 0 0 3.78 1.47c1.018.372 2.626.935 3.574 1.28 2.461.893 5.251 1.552 9.912 2.364 3.725.646 4.137.687 4.81.55.496-.11 1.595-.138 3.286-.083 3.794.11 5.306.564 8.028 2.364.729.481 2.103 1.526 3.052 2.323 1.993 1.664 3.807 3.052 5.278 4.028 1.966 1.32 8.028 4.894 9.06 5.361.577.261 1.195.55 1.388.66.192.096.563.22.852.275.618.124 1.278-.316 1.47-.949.07-.233.166-.536.22-.673.07-.165.028-.234-.11-.234-.11 0-.398-.288-.618-.646-.412-.632-2.598-2.845-4.426-4.481l-.894-.811.866.646c.468.357 1.512 1.265 2.31 2.02 1.278 1.224 1.773 1.526 1.773 1.128 0-.069.055-.22.124-.316.096-.152-.179-.495-1.114-1.375-1.484-1.416-2.598-2.227-5.952-4.344-2.543-1.608-3.684-2.543-4.619-3.808-.26-.343-.536-.824-.618-1.072-.138-.371-.124-.467.137-.742.371-.385 1.485-.55 5.306-.784 3.01-.178 16.4-.027 16.675.179.37.302 1.814-.206 1.814-.632 0-.11-.22-.454-.481-.77s-.481-.687-.481-.825c0-.247-.632-.481-.756-.261-.041.055-.426-.014-.866-.165-2.048-.715-4.372-1.045-10.131-1.443-3.23-.22-3.588-.22-5.98-.014-1.402.137-2.942.234-3.437.234-1.567 0-4.948-.963-4.948-1.416 0-.22.44-.633 1.1-1.031.618-.358 4.467-1.746 5.594-2.007.468-.11 1.031-.316 1.237-.468.825-.577 2.214-1.168 4.922-2.09 3.23-1.099 4.343-1.621 5.58-2.611 1.114-.893 1.183-1.017.894-1.608-.124-.248-.22-.605-.22-.784v-.316l-2.227.041c-1.773.014-2.612.096-4.055.385-3.052.605-6.31 1.636-10.42 3.272-3.271 1.306-3.945 1.54-5.842 1.98-2.323.522-4.467.687-6.694.494-1.045-.096-2.2-.247-2.585-.357l-.687-.179.385-.165c.22-.082.412-.151.44-.151.165 0 4.742-1.966 6.46-2.777 4.564-2.158 6.956-3.656 9.28-5.773l1.003-.921-.165-.756c-.096-.427-.275-.894-.399-1.045-1.388-1.718-8.536 1.127-19.767 7.863-1.828 1.1-3.313 1.897-3.52 1.897-.673 0-8.453-1.361-11.024-1.925-3.464-.77-5.003-1.264-5.65-1.856-.274-.26-.618-.508-.77-.55-.288-.096-.33-.44-.082-.77.303-.398 3.368-1.264 6.42-1.827.646-.11 2.928-.495 5.086-.839 6.543-1.045 9.54-1.842 12.605-3.354 1.801-.894 3.245-1.87 4.908-3.354.618-.55 1.924-1.65 2.9-2.447 2.214-1.815 3.85-3.505 4.454-4.66.454-.852.468-.894.385-2.145-.069-1.1-.137-1.402-.522-2.13-.426-.798-1.609-2.103-2.557-2.832-.248-.192-1.595-.893-3.01-1.567-3.34-1.595-4.95-2.653-6.929-4.578-2.584-2.515-4.027-3.587-7.766-5.8-1.128-.66-2.351-1.444-2.722-1.719l-.646-.522.577-.069c.33-.041 1.526-.165 2.653-.289 6.777-.714 13.458-2.474 21.238-5.594 3.616-1.458 6.873-3.382 10.104-5.98 1.732-1.388 5.004-4.523 6.9-6.626 1.389-1.526 4.51-5.595 5.857-7.643.55-.838.783-1.1.728-.825-1.718 7.121-2.076 14.572-.893 18.462.343 1.1 1.32 2.941 1.91 3.601.248.261.371.371.275.234-.096-.124-.137-.234-.11-.234.042 0 .591.344 1.224.756 2.35 1.554 5.663 2.214 14.145 2.832 6.2.44 6.46.454 10.09.193 3.725-.262 5.704-.234 7.436.137 1.512.316 1.622.399.99.701-.563.275-.591.316-.33.646.138.193.248.193.729.069.467-.124.728-.11 1.443.082 1.237.344 4.399 1.622 6.585 2.653 3.161 1.513 5.924 2.736 7.354 3.272 1.705.632 4.289 1.306 5.292 1.361.413.027 1.141.124 1.609.234.838.178.852.178.893.66.028.412.096.508.385.536.701.11 2.392-.743 2.447-1.224.014-.11.069-.426.11-.7.069-.386.014-.633-.22-.99-1.127-1.843-6.323-4.537-13.939-7.245-1.924-.687-2.378-.894-2.13-.962 1.32-.385 6.337-2.076 8.027-2.695 4.482-1.663 8.784-3.615 11.176-5.1.577-.357 1.361-.797 1.718-.975 1.568-.756 2.86-2.447 2.653-3.45-.123-.62-.756-1.375-1.388-1.664-2.227-1.017-9.292 1.182-18.283 5.677-1.003.509-1.567.729-1.443.578.11-.152.77-.908 1.443-1.705.688-.797 1.513-1.787 1.856-2.2.894-1.127 2.53-2.79 3.78-3.848 1.045-.88 1.155-1.018 1.994-2.667.742-1.471.893-1.87.934-2.612.083-1.196-.068-1.416-1.003-1.526-.921-.124-1.457.069-3.01 1.045-3.011 1.91-7.561 5.746-14.228 12l-3.065 2.887-1.568-.522c-.866-.275-1.567-.536-1.567-.55 0-.028.193-.467.426-.99.248-.522.839-1.91 1.32-3.079.495-1.168 1.1-2.626 1.347-3.23.261-.605.564-1.664.688-2.337.123-.688.343-1.815.494-2.516.138-.7.262-1.484.262-1.76 0-.618-.317-1.374-.66-1.553-.44-.233-1.265-.178-1.746.124-1.526.948-4.151 5.883-6.722 12.62-.302.769-.44.989-.619.934-.728-.234-3.78-.935-5.306-1.237-3.326-.646-4.261-.756-6.873-.825-1.636-.041-2.873-.138-3.299-.261-1.47-.413-2.873-1.43-2.254-1.636.22-.069-.07-.619-.591-1.1-.44-.412-.454-.632-.193-1.924.344-1.622.894-2.626 4.069-7.533.66-1.018 1.388-2.323 1.622-2.887.22-.564.687-1.718 1.045-2.543 1.154-2.804 1.333-4.399.687-6.186-.55-1.54-.563-1.443.371-2.13 1.169-.867 5.196-5.018 6.53-6.736 1.388-1.787 3.354-4.715 4.866-7.231.632-1.045 1.705-2.763 2.364-3.821.674-1.045 1.375-2.282 1.567-2.75.385-.907.757-1.663 3.863-7.78 2.997-5.925 3.973-8.62 4.44-12.235a50 50 0 0 1 .371-2.378c.193-1.03.193-1.388.055-2.268-.26-1.76-1.388-3.753-2.886-5.155-.385-.357-.701-.687-.701-.715 0-.04.192-.068.412-.068.234 0 .412-.041.412-.11-.013-.303-1.87-1.389-3.972-2.296-2.97-1.306-3.822-1.58-6.406-2.103-4.179-.866-6.392-.907-9.788-.179-4.88 1.045-7.698 1.1-12.756.22-4.18-.728-5.636-.866-6.887-.618zm40.428 20.84c-.206.674-.605 1.815-.921 2.53-.811 1.924-2.75 6.062-2.804 6.007-.028-.028.385-1.031.907-2.227.949-2.131 2.543-6.09 2.887-7.12.33-1.032.275-.4-.069.81zM207.342 40.862c1.265.11 2.57.316 2.955.44l.688.247-.481.096c-1.196.262-4.523.426-5.581.289-6.09-.825-8.454-1.21-8.083-1.292.66-.165 8.055 0 10.502.22z" style="fill:#fff;fill-opacity:1"/></g><g style="fill:#fff;fill-opacity:1;stroke:none"><path d="M346.9 130.738c-.166.023-.54.188-.84.379-.766.498-.934.49-.909-.003.004-.22.078-.613.162-.88.116-.396.116-.658-.009-1.464-.083-.537-.229-1.205-.324-1.49-.106-.285-.27-.931-.373-1.436-.318-1.554-.462-1.658-1.26-.896-.253.25-.51.458-.55.461-.177.014-.315-.279-.485-.987a10.537 10.537 0 0 0-.49-1.468c-.42-.971-.745-2.19-.816-3.116-.048-.623-.092-.777-.254-.848-.12-.053-.253-.032-.393.052-.308.212-1.296 1.093-1.359 1.223-.073.142-1.832 1.596-2.417 2.007-.417.283-.479.298-.605.151-.124-.116-.132-.22-.05-.519.137-.512-.021-.667-.655-.618-.53.04-1.245.4-1.622.794-.136.136-.45.401-.71.568-.257.176-.738.58-1.07.888-.624.581-.876.705-.897.435-.035-.447-1.23.053-2.046.859a8.22 8.22 0 0 1-1.122.902c-1.392.924-1.679 1.144-2.193 1.655-.29.304-.575.546-.617.55-.051.003-.166-.124-.273-.293-.12-.2-.263-.294-.42-.281-.632.059-1.82 1.06-3.081 2.601-.678.837-.852 1.153-1.351 2.405-.332.841-.64 1.45-.724 1.457-.083.007-.234-.18-.325-.414-.127-.293-.253-.44-.4-.45-.305-.018-.93.835-1.351 1.872-.343.831-1.085 3.545-1.06 3.867.022.29-.34 1.145-.486 1.156-.083.007-.264-.168-.396-.387-.132-.22-.302-.395-.375-.39-.655.051-1.732 3.428-1.859 5.843-.04.693-.071 1.375-.071 1.511-.013.377-.22.394-.373.04-.176-.374-.543-.387-.838-.009-.238.3-.575 1.477-.721 2.565-.12.878.074 2.577.386 3.369.236.62.264.983.08 1.165-.185.181-.47.005-.494-.297-.025-.322-.244-.587-.462-.57-.385.03-.58.891-.628 2.704-.014.628-.044 1.185-.062 1.228-.064.11.574 3.354.95 4.852.17.687.437 1.576.592 1.961.418 1.087.295 1.922-.39 2.394-.14.094-.425.315-.632.477-.207.163-.71.557-1.115.87-.404.314-1.024.812-1.378 1.1-.354.3-.927.731-1.286.958-.359.226-1.094.722-1.64 1.089-1.35.93-1.66 1.121-1.816 1.133-.083.007-.506.217-.967.483-.79.448-3.277 1.56-4.013 1.785-.193.067-.815.272-1.364.471-.56.19-1.473.428-2.03.523-1.124.202-2.147.5-2.71.795-.21.11-.751.289-1.203.397-1.263.296-2.102.528-2.672.74-.284.105-.591.192-.695.2-.094.007-.426.169-.746.36-.32.193-.975.505-1.462.7-.488.184-1.537.673-2.322 1.068-.786.385-1.542.757-1.684.81-.142.053-.764.394-1.395.756-1.53.892-1.983 1.126-2.061 1.059-.168-.144-.064-.55.35-1.428.241-.521.46-1.082.488-1.251.073-.414.408-1.213.674-1.558.38-.5 1.279-1.312 1.613-1.453.334-.14 1.148-.841 2.088-1.803.3-.305.862-.882 1.24-1.277.416-.42.72-.83.738-.999.087-.498.713-2 1.014-2.43.16-.233.46-.549.658-.69.514-.384 1.636-3.043 1.696-4.02.023-.379.135-.962.254-1.317.349-1.03.241-1.21-.314-.54-.545.66-1.07.898-1.101.493-.007-.083.083-.414.195-.726.247-.72.723-3.622.679-4.193-.018-.229.008-.44.057-.475.04-.035.082-.425.09-.875-.002-.7.07-1.386.253-2.53.04-.295-.17-.3-.588-.037-.56.336-.519.594-.813-5.636-.098-2.22-.17-2.475-.539-2.102-.115.124-.435.588-.715 1.028-.55.858-.812.993-.914.478a.965.965 0 0 1 .101-.583c.138-.25.131-.47-.023-1.786-.193-1.543-.419-2.571-.905-4.123-.372-1.163-1.047-2.867-1.193-2.992-.18-.153-.428.284-.624 1.125-.251 1.076-.733 1.479-.795.668-.016-.197-.225-.871-.472-1.5-.591-1.565-.603-1.574-.765-2.315a3.904 3.904 0 0 0-.383-1.037c-.143-.23-.256-.471-.262-.544-.013-.166-.79-1.842-1.152-2.462-.339-.591-.594-.519-.953.251-.142.325-.319.61-.39.637-.122.051-.603-.633-.623-.893-.01-.135-.304-.677-.999-1.826a7.756 7.756 0 0 0-.837-1.085 18.63 18.63 0 0 1-.846-.939c-.417-.521-.802-.764-1.165-.735-.333.025-.36.08-.485 1.166-.125.951-.246 1.149-.484.78-.072-.12-.578-.718-1.106-1.326-.687-.773-1.093-1.15-1.362-1.254-.226-.076-.576-.28-.798-.44-.221-.16-.707-.5-1.094-.762a31.748 31.748 0 0 1-1.576-1.185c-.858-.687-.891-.705-1.021-.496-.112.175-.117.385-.01.962.157.94.04 1.043-.734.643a3.41 3.41 0 0 0-1.187-.337c-.37-.045-.848-.154-1.086-.25-.227-.098-.473-.173-.546-.168-.073.006-.517-.2-.996-.445-.48-.256-.924-.452-.997-.446-.197.015-1.012-.643-1.215-.973-.238-.379-.423-.333-.606.141-.184.464-.26 1.63-.306 4.154-.01.963-.053 1.876-.105 2.026-.099.343-.317.36-.56.044-.373-.484-.667-.231-.796.668-.018.168-.15.503-.287.754l-.248.448.197 2.546c.208 2.818.202 2.881-.445 2.346-.425-.354-.716-.332-.8.061-.227 1.137-.274 1.6-.294 2.836-.003.774.066 2.201.174 3.196.108.986.164 1.849.128 1.925-.056.088-.194.057-.49-.119-.23-.129-.489-.234-.572-.228-.176.014-.118.23.446 1.848.217.642.413 1.275.423 1.41.01.135.18.572.378.964.98 1.995 1.008 2.756.085 2.315a1.617 1.617 0 0 0-.604-.11c-.489.038-.432.368.136.816.49.38.705.865 1.19 2.689.134.512.456 1.428.703 2.047.236.62.449 1.21.458 1.324.008.104.314.687.674 1.276.717 1.168.837 1.63.518 1.967-.107.113-.186.308-.177.422.019.239.894 1.28 1.245 1.493.274.157.875.905 1.122 1.387.221.433.896 1.186 1.844 2.075.923.859 1.064 1.057 1.017 1.395-.016.2.052.394.201.57.637.798.957 1.285 1.225 1.913.27.638.372.755 1.949 2.076.973.824 1.662 1.482 1.672 1.607.016.218 1.789 1.775 2.007 1.758.073-.006.503.15.958.344 2.086.884 3.202 1.248 3.883 1.268.817.02 2.085.33 2.174.533.038.08-.024.367-.138.648-.114.28-.256.752-.327 1.04-.216 1-1.099 2.291-3.163 4.667-1.076 1.223-1.31 1.44-2.27 2.027-1.267.777-2.816 1.974-2.94 2.266-.053.12-.282.273-.516.354-.498.185-1.444.802-1.503.984-.025.075-.367.394-.76.707-.405.314-.972.828-1.272 1.134-.61.632-1.485 1.348-2.696 2.195-.952.67-2.545 1.964-3.03 2.461-.532.554-1.44 1.241-2.21 1.698-.94.554-1.51 1.027-2.014 1.682-.256.334-.697.724-1.156 1a5.378 5.378 0 0 0-1.215 1.066c-.267.324-.842.87-1.276 1.207a32.278 32.278 0 0 0-1.781 1.57c-.556.524-1.302 1.157-1.669 1.416a7.189 7.189 0 0 0-1.162 1.062c-.517.615-.963.796-1.125.453-.088-.192.095-1.335.294-1.874.104-.28.11-.479.001-.93-.231-.965-.133-1.59.39-2.52.552-.983 1.973-2.347 2.754-2.659.365-.154.983-.682 1.46-1.263.24-.29.744-.8 1.115-1.132 1.28-1.155 2.424-2.728 3.26-4.487.16-.368.447-.85.617-1.093.397-.543.397-.805-.002-.7a5.244 5.244 0 0 0-.5.164c-.314.128-.325-.153-.038-.76.225-.478.91-2.434.9-2.57-.011-.135.469-2.18.644-2.747.093-.29.244-.636.339-.758.266-.345.307-.756.088-1.021a.917.917 0 0 1-.2-.434c-.026-.197-.037-.196-.206.047-.104.144-.226.457-.281.69-.084.405-.74 1.396-.926 1.41-.167.014-.125-.261.067-.475.214-.215.48-1.24.534-2.017a5.54 5.54 0 0 1 .1-.74c.043-.118.084-.812.08-1.533-.003-.721.064-1.605.151-1.967.088-.352.113-.699.066-.768-.057-.069-.27.031-.696.325-.793.564-.882.497-.805-.544.097-1.178-.176-7.138-.319-7.221-.043-.018-.22.268-.39.636-.18.38-.385.689-.498.719-.215.058-.217-.099.014-.9.116-.386.1-.604-.05-1.46-.262-1.35-.485-1.94-1.224-3.116-.61-.988-.942-1.632-1.111-2.194a.532.532 0 0 0-.406-.376c-.202-.047-.348-.172-.39-.325-.042-.133-.1-.348-.142-.47-.088-.328-1.354-1.966-1.928-2.486l-.473-.445-.194.465c-.117.25-.278.471-.36.498-.204.058-.693-.584-.825-1.076-.117-.43-.465-.873-1.435-1.792-.574-.53-.704-.719-.726-1.01-.049-.624-.321-.498-.647.29-.16.368-.485.488-.61.215-.139-.292-1.619-2.259-2.075-2.757-.812-.888-1.2-1.047-1.944-.79-.264.093-.287.074-.487-.485-.17-.437-.426-.783-1.074-1.454-.476-.476-.927-.89-1.002-.916-.139-.042-.37.206-2.073 2.126-.356.404-.742.946-.858 1.206-.385.835-.43.922-.545.93-.062.006-.316-.299-.566-.687-.44-.688-.715-.865-.759-.485-.012.116-.127.376-.247.584-.12.218-.217.445-.212.507.005.063-.324.548-.722 1.07-.41.524-1.034 1.367-1.404 1.855-.85 1.174-.944 1.182-1.17.154-.094-.401-.154-.5-.32-.488-.146.011-.24.154-.344.55-.081.309-.283.67-.477.873-.504.51-1.382 2-1.7 2.881a18.91 18.91 0 0 1-.595 1.374c-.216.446-.295.776-.307 1.3-.011.398-.043.798-.057.893-.053.255-.345.267-.427.012-.04-.112-.11-.2-.162-.197-.156.012-.387.543-.319.747.095.275-.073.538-.354.56-.197.015-.332.162-.57.599-.258.448-.388.929-.616 2.316-.155.964-.272 1.893-.257 2.08.063.821-.045.903-1.654 1.194-.278.053-.319.747-.185 3.152.123 1.998.19 2.599.397 3.367.338 1.27.495 1.54 1.014 1.762.238.097.491.265.563.375.225.348-.138.387-.748.068-.882-.455-1.225-.428-1.879.177-.185.171-.114.28 1.012 1.72 1.067 1.36 2.084 3.153 1.988 3.537-.023.107-.158.253-.298.337-.251.134-.25.145-.074.393.23.285.18.446-.173.473-.395.03-.299.462.176.792.21.15.596.529.861.853.6.717 1.962 1.981 2.376 2.19.305.164.453.592.246.744-.05.035-.08.33-.054.653.05.644-.032.535 1.556 2.138 1.077 1.088 1.671 1.47 3.259 2.121.658.263.681.293.642.599-.057.475.373 1.173.813 1.317.182.06.555.281.833.49.964.71 1.39.938 2.073 1.115.384.106.963.292 1.288.434.325.142.839.3 1.126.362 1.127.248 2.786.736 3.092.911.242.149.58.196 1.322.19 1.986-.006 2.108.078 2.224 1.585.045.582.034 1.242-.034 1.582a36.5 36.5 0 0 0-.217 1.115c-.06.297-.204.873-.33 1.28-.124.417-.329 1.155-.468 1.657-.358 1.314-1.433 2.83-2.538 3.553-.139.094-.676.721-1.21 1.39a35.242 35.242 0 0 1-1.52 1.832c-.32.339-1.656 1.843-2.973 3.336-1.328 1.493-2.58 2.887-2.794 3.081-.215.194-.51.573-.668.825-.158.264-.706.881-1.212 1.37-.895.864-1.048 1.053-1.765 2.186-.233.363-.565.67-1.141 1.06-1.78 1.184-1.899 1.549-.66 2.028l.712.269 1.661-.15c2.274-.207 4.021-.467 4.051-.616.048-.192-.778-.191-3.064-.014-2.069.16-2.646.131-2.668-.15-.01-.134.574-.692.896-.853 1.368-.702 1.825-.873 2.572-.952.798-.093.798-.093 1.159.245.192.195.445.489.552.658.12.19.286.313.4.304.26-.02.814-.973 1.218-2.102.139-.366.395-.71.92-1.221l1.176-1.147c.233-.238.827-.67 1.316-.97.49-.289 1.105-.723 1.359-.952.255-.218.65-.51.892-.634.24-.133.684-.481.994-.798.727-.736 2.274-1.692 3.163-1.96.756-.225 4.145-.624 4.238-.505.024.05.193.068.37.065.448-.024 1.001.362 1.261.886.123.23.331.633.455.884.135.251.36.851.502 1.342.141.48.291.929.337.978.036.06.159.573.255 1.14.269 1.444.661 2.73 1.13 3.646.307.604.562.918 1.157 1.448.426.374.778.734.783.796.006.073.228.244.5.39.273.136.492.276.496.318.007.093 1.098 1.63 1.384 1.942.137.157.594.655.995 1.104.411.45.861.864 1.013.936.152.062.336.142.402.189.076.036.333.11.565.144.34.058.438.123.475.33.141.741.276.857.681.553.257-.187.468-.036.852.604.167.269.534.69.825.94.292.249.935.858 1.434 1.363 1.519 1.524 1.677 1.68 2.283 2.072.847.55 1.225.7 1.672.665l.384-.03-.035-.457c-.02-.26.004-.492.053-.527.099-.081.866.372 1.38.813.191.163.738.476 1.215.69.467.226 1.11.563 1.418.759.627.4.848.425 1.012.11.146-.273.281-.284.78-.06.227.097.515.168.65.158.135-.01.37.065.525.169.155.103.339.182.411.177.073-.006.34.193.59.456.25.253.492.422.53.377.096-.122.05-.579-.148-1.253-.098-.317-.144-.638-.117-.692.109-.217.502-.133 1.213.262.393.22.84.447.99.509.152.061.61.298 1.013.517.568.312.805.398.998.331.173-.066.513.002 1.093.208.473.162 1.04.338 1.274.383.233.034.719.237 1.068.43.34.203.664.335.704.31.178-.128 0-.815-.348-1.394-.36-.6-.373-.63-.233-.976.167-.42.3-.452.97-.169.95.387 1.521.468 2.507.37.519-.05 1.572-.09 2.335-.096 1.652-.002 2.26-.112 2.474-.453.122-.187.223-.226.487-.194.19.027.405.104.473.172.17.175.42.156.406-.031-.007-.083-.225-.474-.487-.883-.274-.439-.437-.782-.391-.869.046-.087.507-.206 1.25-.326 2.24-.372 3.124-.577 3.83-.903.83-.368 1.037-.394 1.62-.147.228.098.453.175.484.172.146-.011-.018-.375-.378-.838-.429-.542-.51-.777-.305-.97.058-.057.996-.37 2.058-.693 1.961-.601 2.978-.983 3.373-1.275.297-.221.474-.225.712.008.338.319.39.053.121-.595-.87-2.066-1.472-3.347-1.698-3.57-.08-.078-.256-.336-.4-.576-.443-.718-1.252-1.586-2.19-2.35-.657-.525-.886-.779-.843-.897.023-.106.33-.329.672-.512.693-.367 1.064-.71 1.043-.98-.008-.094-.493-.558-1.083-1.025-1.982-1.55-2.16-1.704-2.18-1.954-.014-.176.025-.221.175-.17.096.024.603.09 1.109.144.832.072.967.061 1.392-.118.263-.114.559-.21.663-.218.301-.024.198-.277-.3-.772-.657-.65-.594-.78.362-.854a17.045 17.045 0 0 1 1.938.049c.642.055 1.439.077 1.783.06.698-.033 1.888-.323 2.041-.503.068-.078-.012-.302-.252-.701-.557-.972-.308-1.137 1.143-.769.436.103 1.083.22 1.43.245.347.026.801.085 1.004.132.98.227 2.616.3 2.979.125.222-.101.193-.203-.168-.824-.518-.88-.402-1.004.782-.834.297.05 1.821.026 3.394-.053 1.574-.07 2.983-.106 3.13-.086.33.058.674-.209.562-.44-.038-.092-.276-.199-.53-.242-.5-.097-.885-.35-1.148-.768-.203-.33-.203-.33-.04-.52.105-.134.291-.159.942-.125.881.036.984.007 3.412-1.038.455-.203.933-.375 1.037-.383.364-.029 2.252-.896 2.454-1.121.182-.223.182-.223-.176-.384-.432-.186-1.433-.955-1.444-1.1-.004-.053-.183-.332-.403-.608-.488-.631-1.123-1.68-1.573-2.628-.187-.393-.495-.86-.675-1.025-.418-.396-.378-.692.058-.464.174.09.405.23.527.325s.535.293.925.462c.388.158.866.393 1.064.513.198.121.38.19.4.168.03-.023.065-.235.1-.457.064-.528.217-.582.52-.176.291.385 1.094 1.023 1.848 1.456.788.452 3.374 1.57 3.646 1.58.22.003.237-.05.23-.541-.001-.293.041-.557.111-.594.243-.113 1.51.197 2.292.565.803.377 2.772.82 3.054.684.091-.039.141-.2.128-.376-.014-.177.037-.327.138-.377.131-.062 1.166.203 1.676.446.249.106 1.835.203 2.595.155l.571-.045-.028-.363c-.025-.333.003-.367.254-.365.147-.001.582.09.958.218.966.323 1.996.526 2.443.491.458-.035 1.509-.503 1.496-.67a1.92 1.92 0 0 0-.16-.447c-.127-.294-.133-.367-.015-.46.08-.058.992-.16 2.021-.229 1.748-.114 2.255-.185 3.313-.434.709-.16.871-.224.863-.328-.009-.115-.737-1.02-1.34-1.653-.365-.38-.497-.61-.582-1.032a4.41 4.41 0 0 0-.299-.887 2.03 2.03 0 0 1-.196-.643c-.021-.27.018-.305.288-.326.5-.038.47-.277-.163-1.169a12.41 12.41 0 0 1-.863-1.418 28.17 28.17 0 0 0-.522-1.078c-.15-.302-.255-.723-.29-1.17-.057-.748-.086-.715.582-.599.222.035.14-.492-.193-1.407-.237-.63-1.348-2.552-2.244-3.873-.473-.695-.421-.846.32-.861l.595-.005-.024-.311c-.013-.177-.185-.509-.405-.785-.22-.265-.536-.7-.724-.979-.554-.804-1.45-1.717-2.599-2.632-.59-.477-1.076-.942-1.083-1.035-.028-.354.322-.423 1.019-.205.719.237 1.075.252 1.06.044-.022-.27-1.173-1.363-3.645-3.451-1.399-1.188-2.696-2.27-2.873-2.402-.434-.333-.437-.51-.01-.815.743-.518.387-.793-2.614-2.015-.917-.368-2.198-.834-2.83-1.025l-1.156-.36.032-.39c.034-.379.022-.399-.434-.614a7.547 7.547 0 0 0-.863-.341c-.427-.114-.54-.346-.287-.595.078-.08.141-.21.135-.282-.015-.198-1.39-.939-1.854-.997-.549-.062-2.598-.468-3.472-.683-.598-.152-1.165-.181-2.617-.163-1.023.016-1.966-.005-2.105-.046-.32-.09-.434-.48-.323-1.073.053-.255.065-.507.02-.546-.045-.038-.91-.002-1.918.076-1.02.068-2.592.148-3.51.177-2.067.045-3.912.386-6.362 1.151-2.093.653-5.82 2.636-6.84 3.635-.301.295-.464.35-.632.205-.068-.057-.698-.102-1.42-.11-2.763-.026-3.059-.066-2.851-.354.056-.088.37-.227.687-.314.318-.077.82-.22 1.096-.294.623-.185 3.826-1.499 4.195-1.726.14-.094.552-.294.917-.447.617-.268 2.93-1.597 3.163-1.824.058-.057.34-.194.615-.299.274-.104.684-.345.91-.54.215-.184.535-.376.688-.43.408-.136.976-.494 1.127-.704.076-.1.402-.345.742-.539.331-.182.846-.557 1.14-.81.94-.825.981-.838 1.7-.59.345.119.765.285.948.354.174.081.677.23 1.123.321.436.092 1.492.366 2.346.593 1.55.424 1.55.424 3.112.355.865-.036 1.893-.136 2.293-.23.771-.174 1.695-.12 2.237.12.368.16 1.73-.071 2.973-.491.968-.337 1.478-.627 1.914-1.08.204-.203.501-.414 1.388-.974.41-.252.397-.554-.05-.917-.179-.153-.337-.308-.341-.36-.012-.156.962-.67 2.421-1.275 1.804-.746 1.914-.807 2.679-1.598.339-.35.84-.765 1.12-.933.68-.408.69-.535.006-.597-.757-.056-.777-.306-.053-.822.515-.364 1.3-1.177 1.918-1.968.161-.21.449-.547.642-.75.183-.202.48-.696.668-1.097.178-.4.586-1.08.9-1.492.672-.899.628-1.063-.226-.746-.64.238-.95.283-1.055.145-.128-.168.098-.489.79-1.149.38-.353 1.053-1.116 1.488-1.704.713-.923.813-1.12.877-1.637.06-.454.175-.714.46-1.08.562-.714.418-.953-.408-.68-.53.166-.33-.205.631-1.168 1.435-1.46 1.627-1.684 2.15-2.624.634-1.126.906-1.941.696-2.092-.144-.104-.848-.008-1.46.196-.367.112-.295-.165.118-.51.314-.266.431-.505.894-1.952.466-1.416.533-1.767.528-2.509-.007-1.034-.101-1.173-.746-1.123-.374.029-.492-.015-.644-.222-.197-.247-.19-.279.092-.97.168-.4.365-.822.45-.944.283-.398.586-1.886.53-2.603-.02-.27-.065-.308-.304-.29zm-11.447 47.615c-.312-.112-.4-.304-.1-.223.234.066.477.225.429.28-.03.024-.168-.007-.33-.057zm-29.72 15.223c-.17.117-.65-.138-.73-.372-.12-.347.03-.829.27-.847.28-.022.686 1.044.46 1.219zm-1.885-.973c-.192-.048-.24-.274-.064-.288a.165.165 0 0 1 .18.153c.006.094-.041.15-.116.135zm-.458-1.052c-.05.035-.23-.003-.403-.074a7.946 7.946 0 0 0-.743-.277 3.96 3.96 0 0 1-.723-.3c-.405-.23-2.215-.654-3.76-.88-1.734-.252-1.93-.363-1.375-.75.169-.118.304-.265.299-.327-.033-.426-2.885-1.063-5.587-1.251a11.66 11.66 0 0 0-2.439.094l-1.283.173.027-.326c.017-.19-.04-.374-.106-.42-.077-.058-.71-.134-1.425-.173-1.113-.06-1.477-.042-2.591.159-2.167.376-3.03.58-3.534.817-.273.125-.934.354-1.476.522-.551.168-1.26.463-1.59.667-.8.47-2.228 1.197-2.395 1.21-.29.022-1.657 1.016-2.484 1.812-.234.217-.71.83-1.056 1.347-.347.519-.779 1.023-.948 1.13-.17.107-.502.405-.744.664l-.444.473-.94-.115c-.527-.064-1.158-.11-1.418-.09-.26.02-.785-.012-1.187-.064-.39-.054-.99-.101-1.336-.116-.378-.013-.644-.076-.682-.157-.086-.17.268-.46.74-.58.399-.114.826-.398 2.104-1.449.994-.809 2.389-1.837 3.215-2.371.299-.19.72-.558.951-.816.22-.268.67-.658.989-.871.328-.214.726-.485.882-.623 1.213-.95 2.778-2.076 2.934-2.088.104-.008.372-.186.617-.403.234-.217.542-.429.674-.48.132-.053.583-.307.992-.559.41-.25 1.65-.974 2.75-1.614 1.1-.65 2.11-1.26 2.247-1.376a1.94 1.94 0 0 1 .5-.28c.144-.042.69-.293 1.222-.564.523-.27 1.232-.566 1.57-.665.327-.088.767-.216.96-.284.439-.149 3.51-.857 4.418-1.021.371-.06 1.709-.341 2.985-.608 1.389-.295 2.503-.486 2.786-.476.263.021.965.03 1.552.047 1.025.015 1.723.107 1.975.265.066.037.259.095.449.122.19.017.459.122.613.225.254.168.28.24.252.68-.01.274-.133.858-.276 1.298-.227.718-.236.876-.13 1.578.075.423.122 1.434.122 2.24l-.002 1.463.675 1.569c1.11 2.59 1.25 2.914 1.44 3.203.202.308.256.597.137.69zm-16.243-36.01c-.166.013-.204-.078-.12-.346.073-.267.234-.217.256.074.013.167-.042.265-.136.272zm-15.688 56.172c-.4.24-.64.102-.375-.243.171-.222.447-.306.593-.182.145.115.091.234-.218.425zm-1.865-1.257c-.77.039-1.755.157-2.176.252-.987.223-3.367.669-3.74.708-.427.033-.478-.225-.136-.67.53-.71.374-.833-1.052-.89-1.07-.053-3.503-.001-3.968.066a5.242 5.242 0 0 0-.87.256c-.304.117-.814.282-1.12.379-.306.097-.857.275-1.213.408-.367.122-.789.207-.968.19-.264-.032-.395.03-.698.304-.205.194-.741.56-1.192.814-.461.255-1.026.655-1.26.882a5.915 5.915 0 0 1-.786.646c-.2.12-.66.532-1.037.917-.91.938-1.171 1.084-2.56 1.39-.647.144-1.384.348-1.637.45a6.34 6.34 0 0 1-.868.277c-.822.19-1.454.395-2.346.757-2.546 1.023-3.233 1.327-3.558 1.592-.335.267-1.043.437-1.057.25-.038-.49 2.844-3.786 4.734-5.438.284-.242.896-.854 1.379-1.372.473-.507 1.126-1.122 1.442-1.356.592-.453 1.277-1.207 2.003-2.225.293-.4.663-.752 1.072-1.014.937-.585 1.418-.998 2.443-2.07.503-.531 1.097-1.1 1.314-1.263.217-.174.675-.606 1.022-.978.879-.947 2.387-2.13 3.864-3.039.31-.191.687-.45.833-.587.146-.137.316-.244.378-.249.062-.005.435-.19.815-.408.391-.219.977-.483 1.304-.582.338-.1.814-.293 1.065-.427.443-.223 2.149-.742 3.076-.928.66-.125 1.39-.15 2.231-.079.58.05.805.126 1.15.392.233.18.46.414.5.516.04.112.037.624-.007 1.14-.168 1.738-.135 2.3.163 3.187.408 1.213.708 2.256.888 3.1.096.42.246.88.33 1.02.096.149.236.473.328.727.083.255.292.657.457.906.435.614.87 1.511.869 1.762-.006.2-.067.215-1.41.287z" style="fill:#fff;fill-opacity:1"/></g><g style="fill:#fff;fill-opacity:1;stroke:none"><path d="M29.803 46.042c-.042.037-.703.187-1.468.312-3.587.611-6.985 1.685-10.425 3.307-1.636.774-6.554 3.47-8.232 4.518-6.24 3.88-12.207 9.097-19.82 17.309-4.804 5.191-8.202 10.033-10.75 15.362-.734 1.523-.86 1.71-1.196 1.66-.377-.05-.66-.811-.723-1.922-.042-.836-.021-.973.23-1.423.179-.324.273-.661.273-.998 0-.437-.063-.587-.472-1.06-.262-.3-.618-.575-.797-.625-.178-.05-.346-.162-.367-.25-.063-.199.577-1.572 1.405-2.994.829-1.423 1.962-3.07 3.755-5.429 2.716-3.57 3.901-5.304 4.646-6.764.126-.25.786-1.086 1.457-1.847 1.259-1.435 2.014-2.446 2.014-2.72 0-.312-.451-.125-.902.374-.262.3-.786 1.023-1.174 1.622-2.35 3.62-3.063 4.705-4.164 6.277-1.699 2.446-6.712 9.235-7.026 9.522-.179.175-.504.262-1.143.312-.797.075-.965.05-1.647-.237-.744-.324-.818-.387-2.286-2.221a774.242 774.242 0 0 0-4.73-5.753c-3.177-3.844-4.436-5.479-6.45-8.386-.912-1.323-1.782-2.272-1.919-2.11-.02.038.095.362.263.724.188.425.964 1.485 2.129 2.908 1.006 1.248 2.139 2.708 2.506 3.245.367.549 1.646 2.121 2.831 3.494 4.583 5.279 5.758 6.789 6.943 8.873.315.55.388.749.294.874-.063.1-.179.174-.242.174-.146 0-.618.574-.786.961-.178.424-.136 1.248.105 1.922.482 1.323-.095 3.582-.84 3.295-.104-.038-.555-.637-1.006-1.348-6.429-9.984-15.122-18.657-26.9-26.856-1.363-.949-4.52-2.758-7.236-4.143-5.663-2.896-10.812-4.792-15.898-5.853-1.311-.275-1.982-.337-4.132-.387-2.265-.063-2.716-.038-3.828.187-2.003.412-4.059 1.298-4.75 2.072-.83.898-2.234 5.44-1.69 5.44.053 0 .21.263.326.587.189.5.241.949.294 2.658.063 1.872.094 2.122.346 2.758.157.387.398 1.323.545 2.097.399 2.184.577 2.52 1.92 3.881.86.861 1.058 1.26 1.363 2.696.115.561.346 1.323.503 1.684.356.862 1.321 2.596 1.888 3.42.681.998.702 1.086.786 3.132l.074 1.872.576 1.635c.713 1.997 1.27 4.13 1.437 5.466.378 2.995 1.961 6.764 4.017 9.56.755 1.035.807 1.073 1.552 1.335 2.296.786 4.226.81 9.113.087 2.821-.412 3.985-.512 3.985-.324 0 .074-.314.399-.702.736-2.119 1.797-3.356 2.97-4.405 4.205l-1.175 1.373-1.51 3.557c-1.866 4.405-2.38 6.202-2.38 8.211 0 .737.052.911.367 1.51.986 1.847 1.53 4.28 1.688 7.638l.074 1.423.524.561c1.751 1.847 2.433 2.933 3.639 5.753l.724 1.697.975.562c1.08.612 2.695 1.772 4.121 2.958.703.574 1.007.923 1.227 1.372.65 1.323 1.993 2.372 3.597 2.796a44.14 44.14 0 0 0 2.045.462 22.12 22.12 0 0 1 2.098.511c.891.287 1.992.836 1.992.999 0 .15 1.962.137 2.192-.013.105-.062.766-.175 1.458-.237.703-.062 1.374-.187 1.5-.275.136-.087.818-.15 1.71-.162 1.792-.025 1.981-.1 4.886-1.76 1.122-.648 2.433-1.322 2.905-1.51l.87-.336.62-1.136c2.055-3.806 3.334-7.35 5.295-14.713 1.825-6.852 2.108-7.875 2.601-9.447.545-1.76.808-2.247 1.196-2.247.335 0 .45.237.618 1.26.262 1.685.294 3.507.105 7.164-.2 3.781-.168 5.766.105 7.363.346 1.947 1.206 4.068 1.688 4.156.535.087 1.343-1.922 1.846-4.593.357-1.922.336-5.666-.063-9.672-.304-3.107-.503-6.34-.409-6.626.074-.225.294-.225.483 0 .073.1.65 1.96 1.28 4.156 3.418 12.03 6.386 20.753 7.739 22.762.545.799 1.237 1.385 2.003 1.685.293.112.85.45 1.237.761 1.93 1.51 3.723 1.972 8.264 2.16 1.647.062 3.283.149 3.64.174.565.062.754.012 1.635-.424 1.678-.812 4.164-1.648 6.502-2.197l.923-.212.66-1.01c1.416-2.135 3.052-3.657 5.853-5.43.67-.424 1.248-.86 1.29-.985.041-.113.262-.799.482-1.51.44-1.386.692-1.947 1.195-2.633.179-.238.451-.7.609-1.024.188-.374.64-.936 1.258-1.535 1.447-1.41 1.479-1.472 1.552-3.731.053-1.735.095-1.997.44-3.207.2-.737.735-2.172 1.165-3.208l.786-1.884-.21-.973c-.503-2.272-1.405-4.668-3.324-8.836l-1.143-2.496-.88-.849c-.903-.873-2.025-1.734-4.71-3.606-1.646-1.16-2.087-1.523-1.971-1.66.042-.05 1.08.025 2.307.175 4.342.511 7.729.474 10.665-.125 1.783-.362 1.878-.45 3.042-2.783 1.908-3.831 2.737-6.54 2.737-8.923 0-.736.105-1.235.734-3.47.88-3.144 1.133-4.417 1.227-6.189.063-1.31.073-1.348.472-1.997.608-.948 1.143-2.358 1.867-4.88.797-2.795 1.227-3.805 2.107-5.04.389-.513.588-1.374.724-3.083.115-1.386.44-2.983.63-3.12.136-.1.136-1.223 0-1.386-.179-.212-.43-1.909-.357-2.396.031-.25.147-.611.262-.798.587-.986-.115-3.232-1.51-4.792-1.206-1.373-2.81-2.234-5.107-2.733-1.039-.238-3.042-.387-3.157-.25z" style="fill:#fff;fill-opacity:1"/></g></svg>