<?xml version="1.0" encoding="UTF-8" standalone="no"?>
<!DOCTYPE svg PUBLIC "-//W3C//DTD SVG 1.1//EN"
 "http://www.w3.org/Graphics/SVG/1.1/DTD/svg11.dtd">
<!-- Generated by graphviz version 2.44.1 (20200629.0846)
 -->
<!-- Title: dependencies Pages: 1 -->
<svg width="2283pt" height="276pt"
 viewBox="0.00 0.00 2283.00 276.00" xmlns="http://www.w3.org/2000/svg" xmlns:xlink="http://www.w3.org/1999/xlink">
<g id="graph0" class="graph" transform="scale(1 1) rotate(0) translate(4 272)">
<title>dependencies</title>
<polygon fill="white" stroke="transparent" points="-4,4 -4,-272 2279,-272 2279,4 -4,4"/>
<text text-anchor="start" x="1116.51" y="-42.4" font-family="sans-serif" font-weight="bold" font-size="14.00">Legend</text>
<polygon fill="#ffffb3" stroke="transparent" points="903.5,-10 903.5,-30 923.5,-30 923.5,-10 903.5,-10"/>
<text text-anchor="start" x="927.13" y="-15.4" font-family="sans-serif" font-size="14.00"> &#160;Declarations</text>
<polygon fill="#8dd3c7" stroke="transparent" points="1016.5,-10 1016.5,-30 1036.5,-30 1036.5,-10 1016.5,-10"/>
<text text-anchor="start" x="1040.23" y="-15.4" font-family="sans-serif" font-size="14.00"> &#160;Module</text>
<polygon fill="#80b1d3" stroke="transparent" points="1102.5,-10 1102.5,-30 1122.5,-30 1122.5,-10 1102.5,-10"/>
<text text-anchor="start" x="1126.28" y="-15.4" font-family="sans-serif" font-size="14.00"> &#160;Bootstrap</text>
<polygon fill="#fdb462" stroke="transparent" points="1199.5,-10 1199.5,-30 1219.5,-30 1219.5,-10 1199.5,-10"/>
<text text-anchor="start" x="1223.17" y="-15.4" font-family="sans-serif" font-size="14.00"> &#160;Providers</text>
<polygon fill="#fb8072" stroke="transparent" points="1295.5,-10 1295.5,-30 1315.5,-30 1315.5,-10 1295.5,-10"/>
<text text-anchor="start" x="1319.23" y="-15.4" font-family="sans-serif" font-size="14.00"> &#160;Exports</text>
<g id="clust1" class="cluster">
<title>cluster_MetadataModule</title>
<polygon fill="none" stroke="black" stroke-dasharray="1,5" points="8,-70 8,-260 2267,-260 2267,-70 8,-70"/>
</g>
<g id="clust9" class="cluster">
<title>cluster_MetadataModule_imports</title>
<polygon fill="none" stroke="black" points="1287,-143 1287,-195 2259,-195 2259,-143 1287,-143"/>
</g>
<g id="clust3" class="cluster">
<title>cluster_MetadataModule_MetadataComponent_providers</title>
<polygon fill="none" stroke="black" points="779,-78 779,-195 1279,-195 1279,-78 779,-78"/>
</g>
<g id="clust2" class="cluster">
<title>cluster_MetadataModule_declarations</title>
<polygon fill="none" stroke="black" points="16,-143 16,-195 771,-195 771,-143 16,-143"/>
</g>
<g id="clust6" class="cluster">
<title>cluster_MetadataModule_AfFormComponent_providers</title>
<polygon fill="none" stroke="black" points="408,-78 408,-130 618,-130 618,-78 408,-78"/>
</g>
<!-- MetadataComponent -->
<g id="node1" class="node">
<title>MetadataComponent</title>
<polygon fill="#ffffb3" stroke="black" points="1182.92,-187 1049.08,-187 1049.08,-151 1182.92,-151 1182.92,-187"/>
<text text-anchor="middle" x="1116" y="-164.8" font-family="Times,serif" font-size="14.00">MetadataComponent</text>
</g>
<!-- MetadataModule -->
<g id="node7" class="node">
<title>MetadataModule</title>
<polygon fill="#8dd3c7" stroke="black" points="1349.63,-252 1346.63,-256 1325.63,-256 1322.63,-252 1238.37,-252 1238.37,-216 1349.63,-216 1349.63,-252"/>
<text text-anchor="middle" x="1294" y="-229.8" font-family="Times,serif" font-size="14.00">MetadataModule</text>
</g>
<!-- MetadataComponent&#45;&gt;MetadataModule -->
<g id="edge1" class="edge">
<title>MetadataComponent&#45;&gt;MetadataModule</title>
<path fill="none" stroke="black" d="M1182.95,-169C1218.43,-169 1254.77,-169 1254.77,-169 1254.77,-169 1254.77,-205.89 1254.77,-205.89"/>
<polygon fill="black" stroke="black" points="1251.27,-205.89 1254.77,-215.89 1258.27,-205.89 1251.27,-205.89"/>
</g>
<!-- DatasetFormComponent -->
<g id="node2" class="node">
<title>DatasetFormComponent</title>
<polygon fill="#ffffb3" stroke="black" points="762.64,-187 609.36,-187 609.36,-151 762.64,-151 762.64,-187"/>
<text text-anchor="middle" x="686" y="-164.8" font-family="Times,serif" font-size="14.00">DatasetFormComponent</text>
</g>
<!-- DatasetFormComponent&#45;&gt;MetadataModule -->
<g id="edge3" class="edge">
<title>DatasetFormComponent&#45;&gt;MetadataModule</title>
<path fill="none" stroke="black" d="M686,-187.24C686,-202.57 686,-222 686,-222 686,-222 1228.16,-222 1228.16,-222"/>
<polygon fill="black" stroke="black" points="1228.16,-225.5 1238.16,-222 1228.16,-218.5 1228.16,-225.5"/>
</g>
<!-- DatasetCardComponent -->
<g id="node3" class="node">
<title>DatasetCardComponent</title>
<polygon fill="#ffffb3" stroke="black" points="591.02,-187 440.98,-187 440.98,-151 591.02,-151 591.02,-187"/>
<text text-anchor="middle" x="516" y="-164.8" font-family="Times,serif" font-size="14.00">DatasetCardComponent</text>
</g>
<!-- DatasetCardComponent&#45;&gt;MetadataModule -->
<g id="edge5" class="edge">
<title>DatasetCardComponent&#45;&gt;MetadataModule</title>
<path fill="none" stroke="black" d="M516,-187.02C516,-204.37 516,-228 516,-228 516,-228 1228.36,-228 1228.36,-228"/>
<polygon fill="black" stroke="black" points="1228.36,-231.5 1238.36,-228 1228.36,-224.5 1228.36,-231.5"/>
</g>
<!-- AfFormComponent -->
<g id="node4" class="node">
<title>AfFormComponent</title>
<polygon fill="#ffffb3" stroke="black" points="423.43,-187 296.57,-187 296.57,-151 423.43,-151 423.43,-187"/>
<text text-anchor="middle" x="360" y="-164.8" font-family="Times,serif" font-size="14.00">AfFormComponent</text>
</g>
<!-- AfFormComponent&#45;&gt;MetadataModule -->
<g id="edge6" class="edge">
<title>AfFormComponent&#45;&gt;MetadataModule</title>
<path fill="none" stroke="black" d="M360,-187.11C360,-206.34 360,-234 360,-234 360,-234 1228.02,-234 1228.02,-234"/>
<polygon fill="black" stroke="black" points="1228.02,-237.5 1238.02,-234 1228.02,-230.5 1228.02,-237.5"/>
</g>
<!-- ActorComponent -->
<g id="node5" class="node">
<title>ActorComponent</title>
<polygon fill="#ffffb3" stroke="black" points="278.7,-187 165.3,-187 165.3,-151 278.7,-151 278.7,-187"/>
<text text-anchor="middle" x="222" y="-164.8" font-family="Times,serif" font-size="14.00">ActorComponent</text>
</g>
<!-- ActorComponent&#45;&gt;MetadataModule -->
<g id="edge8" class="edge">
<title>ActorComponent&#45;&gt;MetadataModule</title>
<path fill="none" stroke="black" d="M222,-187.28C222,-208.32 222,-240 222,-240 222,-240 1228.25,-240 1228.25,-240"/>
<polygon fill="black" stroke="black" points="1228.25,-243.5 1238.25,-240 1228.25,-236.5 1228.25,-243.5"/>
</g>
<!-- AfCardComponent -->
<g id="node6" class="node">
<title>AfCardComponent</title>
<polygon fill="#ffffb3" stroke="black" points="147.81,-187 24.19,-187 24.19,-151 147.81,-151 147.81,-187"/>
<text text-anchor="middle" x="86" y="-164.8" font-family="Times,serif" font-size="14.00">AfCardComponent</text>
</g>
<!-- AfCardComponent&#45;&gt;MetadataModule -->
<g id="edge9" class="edge">
<title>AfCardComponent&#45;&gt;MetadataModule</title>
<path fill="none" stroke="black" d="M86,-187.09C86,-210.13 86,-247 86,-247 86,-247 1228.16,-247 1228.16,-247"/>
<polygon fill="black" stroke="black" points="1228.16,-250.5 1238.16,-247 1228.16,-243.5 1228.16,-250.5"/>
</g>
<!-- { provide: MatPaginatorIntl, useClass: MetadataPaginator } -->
<g id="node8" class="node">
<title>{ provide: MatPaginatorIntl, useClass: MetadataPaginator }</title>
<ellipse fill="#fdb462" stroke="black" cx="1029" cy="-104" rx="242.22" ry="18"/>
<text text-anchor="middle" x="1029" y="-99.8" font-family="Times,serif" font-size="14.00">{ provide: MatPaginatorIntl, useClass: MetadataPaginator }</text>
</g>
<!-- { provide: MatPaginatorIntl, useClass: MetadataPaginator }&#45;&gt;MetadataComponent -->
<g id="edge2" class="edge">
<title>{ provide: MatPaginatorIntl, useClass: MetadataPaginator }&#45;&gt;MetadataComponent</title>
<path fill="none" stroke="black" d="M1116,-121.08C1116,-121.08 1116,-140.9 1116,-140.9"/>
<polygon fill="black" stroke="black" points="1112.5,-140.9 1116,-150.9 1119.5,-140.9 1112.5,-140.9"/>
</g>
<!-- MetadataFormService -->
<g id="node9" class="node">
<title>MetadataFormService</title>
<ellipse fill="#fdb462" stroke="black" cx="513" cy="-104" rx="96.68" ry="18"/>
<text text-anchor="middle" x="513" y="-99.8" font-family="Times,serif" font-size="14.00">MetadataFormService</text>
</g>
<!-- MetadataFormService&#45;&gt;DatasetFormComponent -->
<g id="edge4" class="edge">
<title>MetadataFormService&#45;&gt;DatasetFormComponent</title>
<path fill="none" stroke="black" d="M600.22,-111.97C600.22,-129.33 600.22,-169 600.22,-169 600.22,-169 601.11,-169 601.11,-169"/>
<polygon fill="black" stroke="black" points="599.08,-172.5 609.08,-169 599.08,-165.5 599.08,-172.5"/>
</g>
<!-- MetadataFormService&#45;&gt;AfFormComponent -->
<g id="edge7" class="edge">
<title>MetadataFormService&#45;&gt;AfFormComponent</title>
<path fill="none" stroke="black" d="M419.69,-109.1C419.69,-109.1 419.69,-140.74 419.69,-140.74"/>
<polygon fill="black" stroke="black" points="416.19,-140.74 419.69,-150.74 423.19,-140.74 416.19,-140.74"/>
</g>
<!-- HttpClientXsrfModule.withOptions(args) -->
<g id="node10" class="node">
<title>HttpClientXsrfModule.withOptions(args)</title>
<polygon fill="#8dd3c7" stroke="black" points="2251.39,-187 2248.39,-191 2227.39,-191 2224.39,-187 2002.61,-187 2002.61,-151 2251.39,-151 2251.39,-187"/>
<text text-anchor="middle" x="2127" y="-164.8" font-family="Times,serif" font-size="14.00">HttpClientXsrfModule.withOptions(args)</text>
</g>
<!-- HttpClientXsrfModule.withOptions(args)&#45;&gt;MetadataModule -->
<g id="edge10" class="edge">
<title>HttpClientXsrfModule.withOptions(args)&#45;&gt;MetadataModule</title>
<path fill="none" stroke="black" d="M2127,-187.09C2127,-210.13 2127,-247 2127,-247 2127,-247 1359.95,-247 1359.95,-247"/>
<polygon fill="black" stroke="black" points="1359.95,-243.5 1349.95,-247 1359.95,-250.5 1359.95,-243.5"/>
</g>
<!-- CommonModule -->
<g id="node11" class="node">
<title>CommonModule</title>
<polygon fill="#8dd3c7" stroke="black" points="1984.67,-187 1981.67,-191 1960.67,-191 1957.67,-187 1873.33,-187 1873.33,-151 1984.67,-151 1984.67,-187"/>
<text text-anchor="middle" x="1929" y="-164.8" font-family="Times,serif" font-size="14.00">CommonModule</text>
</g>
<!-- CommonModule&#45;&gt;MetadataModule -->
<g id="edge11" class="edge">
<title>CommonModule&#45;&gt;MetadataModule</title>
<path fill="none" stroke="black" d="M1929,-187.28C1929,-208.32 1929,-240 1929,-240 1929,-240 1359.8,-240 1359.8,-240"/>
<polygon fill="black" stroke="black" points="1359.8,-236.5 1349.8,-240 1359.8,-243.5 1359.8,-236.5"/>
</g>
<!-- GN2CommonModule -->
<g id="node12" class="node">
<title>GN2CommonModule</title>
<polygon fill="#8dd3c7" stroke="black" points="1855.38,-187 1852.38,-191 1831.38,-191 1828.38,-187 1716.62,-187 1716.62,-151 1855.38,-151 1855.38,-187"/>
<text text-anchor="middle" x="1786" y="-164.8" font-family="Times,serif" font-size="14.00">GN2CommonModule</text>
</g>
<!-- GN2CommonModule&#45;&gt;MetadataModule -->
<g id="edge12" class="edge">
<title>GN2CommonModule&#45;&gt;MetadataModule</title>
<path fill="none" stroke="black" d="M1786,-187.11C1786,-206.34 1786,-234 1786,-234 1786,-234 1359.96,-234 1359.96,-234"/>
<polygon fill="black" stroke="black" points="1359.96,-230.5 1349.96,-234 1359.96,-237.5 1359.96,-230.5"/>
</g>
<!-- ChartsModule -->
<g id="node13" class="node">
<title>ChartsModule</title>
<polygon fill="#8dd3c7" stroke="black" points="1699.1,-187 1696.1,-191 1675.1,-191 1672.1,-187 1602.9,-187 1602.9,-151 1699.1,-151 1699.1,-187"/>
<text text-anchor="middle" x="1651" y="-164.8" font-family="Times,serif" font-size="14.00">ChartsModule</text>
</g>
<!-- ChartsModule&#45;&gt;MetadataModule -->
<g id="edge13" class="edge">
<title>ChartsModule&#45;&gt;MetadataModule</title>
<path fill="none" stroke="black" d="M1651,-187.02C1651,-204.37 1651,-228 1651,-228 1651,-228 1359.78,-228 1359.78,-228"/>
<polygon fill="black" stroke="black" points="1359.78,-224.5 1349.78,-228 1359.78,-231.5 1359.78,-224.5"/>
</g>
<!-- ChartModule -->
<g id="node14" class="node">
<title>ChartModule</title>
<polygon fill="#8dd3c7" stroke="black" points="1585.15,-187 1582.15,-191 1561.15,-191 1558.15,-187 1494.85,-187 1494.85,-151 1585.15,-151 1585.15,-187"/>
<text text-anchor="middle" x="1540" y="-164.8" font-family="Times,serif" font-size="14.00">ChartModule</text>
</g>
<!-- ChartModule&#45;&gt;MetadataModule -->
<g id="edge14" class="edge">
<title>ChartModule&#45;&gt;MetadataModule</title>
<path fill="none" stroke="black" d="M1540,-187.24C1540,-202.57 1540,-222 1540,-222 1540,-222 1359.82,-222 1359.82,-222"/>
<polygon fill="black" stroke="black" points="1359.82,-218.5 1349.82,-222 1359.82,-225.5 1359.82,-218.5"/>
</g>
<!-- RouterModule.forChild(args) -->
<g id="node15" class="node">
<title>RouterModule.forChild(args)</title>
<polygon fill="#8dd3c7" stroke="black" points="1476.73,-187 1473.73,-191 1452.73,-191 1449.73,-187 1295.27,-187 1295.27,-151 1476.73,-151 1476.73,-187"/>
<text text-anchor="middle" x="1386" y="-164.8" font-family="Times,serif" font-size="14.00">RouterModule.forChild(args)</text>
</g>
<!-- RouterModule.forChild(args)&#45;&gt;MetadataModule -->
<g id="edge15" class="edge">
<title>RouterModule.forChild(args)&#45;&gt;MetadataModule</title>
<path fill="none" stroke="black" d="M1322.6,-187.11C1322.6,-187.11 1322.6,-205.99 1322.6,-205.99"/>
<polygon fill="black" stroke="black" points="1319.1,-205.99 1322.6,-215.99 1326.1,-205.99 1319.1,-205.99"/>
</g>
</g>
</svg>
