<?xml version="1.0" encoding="UTF-8" standalone="no"?>
<!DOCTYPE svg PUBLIC "-//W3C//DTD SVG 1.1//EN"
 "http://www.w3.org/Graphics/SVG/1.1/DTD/svg11.dtd">
<!-- Generated by graphviz version 2.40.1 (20161225.0304)
 -->
<!-- Title: dependencies Pages: 1 -->
<svg width="1098pt" height="211pt"
 viewBox="0.00 0.00 1098.00 211.00" xmlns="http://www.w3.org/2000/svg" xmlns:xlink="http://www.w3.org/1999/xlink">
<g id="graph0" class="graph" transform="scale(1 1) rotate(0) translate(4 207)">
<title>dependencies</title>
<polygon fill="#ffffff" stroke="transparent" points="-4,4 -4,-207 1094,-207 1094,4 -4,4"/>
<text text-anchor="start" x="524.0091" y="-42.4" font-family="sans-serif" font-weight="bold" font-size="14.00" fill="#000000">Legend</text>
<polygon fill="#ffffb3" stroke="transparent" points="311,-10 311,-30 331,-30 331,-10 311,-10"/>
<text text-anchor="start" x="334.629" y="-15.4" font-family="sans-serif" font-size="14.00" fill="#000000"> &#160;Declarations</text>
<polygon fill="#8dd3c7" stroke="transparent" points="424,-10 424,-30 444,-30 444,-10 424,-10"/>
<text text-anchor="start" x="447.7251" y="-15.4" font-family="sans-serif" font-size="14.00" fill="#000000"> &#160;Module</text>
<polygon fill="#80b1d3" stroke="transparent" points="510,-10 510,-30 530,-30 530,-10 510,-10"/>
<text text-anchor="start" x="533.7812" y="-15.4" font-family="sans-serif" font-size="14.00" fill="#000000"> &#160;Bootstrap</text>
<polygon fill="#fdb462" stroke="transparent" points="607,-10 607,-30 627,-30 627,-10 607,-10"/>
<text text-anchor="start" x="630.6732" y="-15.4" font-family="sans-serif" font-size="14.00" fill="#000000"> &#160;Providers</text>
<polygon fill="#fb8072" stroke="transparent" points="703,-10 703,-30 723,-30 723,-10 703,-10"/>
<text text-anchor="start" x="726.7258" y="-15.4" font-family="sans-serif" font-size="14.00" fill="#000000"> &#160;Exports</text>
<g id="clust1" class="cluster">
<title>cluster_MetadataModule</title>
<polygon fill="none" stroke="#000000" stroke-dasharray="1,5" points="8,-70 8,-195 1082,-195 1082,-70 8,-70"/>
</g>
<g id="clust2" class="cluster">
<title>cluster_MetadataModule_declarations</title>
<polygon fill="none" stroke="#000000" points="178,-78 178,-130 1074,-130 1074,-78 178,-78"/>
</g>
<g id="clust9" class="cluster">
<title>cluster_MetadataModule_imports</title>
<polygon fill="none" stroke="#000000" points="16,-78 16,-130 170,-130 170,-78 16,-78"/>
</g>
<!-- MetadataComponent -->
<g id="node1" class="node">
<title>MetadataComponent</title>
<polygon fill="#ffffb3" stroke="#000000" points="1065.9173,-122 932.0827,-122 932.0827,-86 1065.9173,-86 1065.9173,-122"/>
<text text-anchor="middle" x="999" y="-99.8" font-family="Times,serif" font-size="14.00" fill="#000000">MetadataComponent</text>
</g>
<!-- MetadataModule -->
<g id="node7" class="node">
<title>MetadataModule</title>
<polygon fill="#8dd3c7" stroke="#000000" points="576.6346,-187 573.6346,-191 552.6346,-191 549.6346,-187 465.3654,-187 465.3654,-151 576.6346,-151 576.6346,-187"/>
<text text-anchor="middle" x="521" y="-164.8" font-family="Times,serif" font-size="14.00" fill="#000000">MetadataModule</text>
</g>
<!-- MetadataComponent&#45;&gt;MetadataModule -->
<g id="edge1" class="edge">
<title>MetadataComponent&#45;&gt;MetadataModule</title>
<path fill="none" stroke="#000000" d="M999,-122.2921C999,-144.2057 999,-178 999,-178 999,-178 586.7682,-178 586.7682,-178"/>
<polygon fill="#000000" stroke="#000000" points="586.7682,-174.5001 576.7682,-178 586.7681,-181.5001 586.7682,-174.5001"/>
</g>
<!-- DatasetListComponent -->
<g id="node2" class="node">
<title>DatasetListComponent</title>
<polygon fill="#ffffb3" stroke="#000000" points="914.587,-122 769.413,-122 769.413,-86 914.587,-86 914.587,-122"/>
<text text-anchor="middle" x="842" y="-99.8" font-family="Times,serif" font-size="14.00" fill="#000000">DatasetListComponent</text>
</g>
<!-- DatasetListComponent&#45;&gt;MetadataModule -->
<g id="edge2" class="edge">
<title>DatasetListComponent&#45;&gt;MetadataModule</title>
<path fill="none" stroke="#000000" d="M842,-122.1061C842,-141.3391 842,-169 842,-169 842,-169 586.9139,-169 586.9139,-169"/>
<polygon fill="#000000" stroke="#000000" points="586.914,-165.5001 576.9139,-169 586.9139,-172.5001 586.914,-165.5001"/>
</g>
<!-- DatasetFormComponent -->
<g id="node3" class="node">
<title>DatasetFormComponent</title>
<polygon fill="#ffffb3" stroke="#000000" points="751.6428,-122 598.3572,-122 598.3572,-86 751.6428,-86 751.6428,-122"/>
<text text-anchor="middle" x="675" y="-99.8" font-family="Times,serif" font-size="14.00" fill="#000000">DatasetFormComponent</text>
</g>
<!-- DatasetFormComponent&#45;&gt;MetadataModule -->
<g id="edge3" class="edge">
<title>DatasetFormComponent&#45;&gt;MetadataModule</title>
<path fill="none" stroke="#000000" d="M675,-122.027C675,-138.3976 675,-160 675,-160 675,-160 587.0332,-160 587.0332,-160"/>
<polygon fill="#000000" stroke="#000000" points="587.0332,-156.5001 577.0332,-160 587.0331,-163.5001 587.0332,-156.5001"/>
</g>
<!-- AfListComponent -->
<g id="node4" class="node">
<title>AfListComponent</title>
<polygon fill="#ffffb3" stroke="#000000" points="579.8781,-122 462.1219,-122 462.1219,-86 579.8781,-86 579.8781,-122"/>
<text text-anchor="middle" x="521" y="-99.8" font-family="Times,serif" font-size="14.00" fill="#000000">AfListComponent</text>
</g>
<!-- AfListComponent&#45;&gt;MetadataModule -->
<g id="edge4" class="edge">
<title>AfListComponent&#45;&gt;MetadataModule</title>
<path fill="none" stroke="#000000" d="M521,-122.1061C521,-122.1061 521,-140.991 521,-140.991"/>
<polygon fill="#000000" stroke="#000000" points="517.5001,-140.9909 521,-150.991 524.5001,-140.991 517.5001,-140.9909"/>
</g>
<!-- AfFormComponent -->
<g id="node5" class="node">
<title>AfFormComponent</title>
<polygon fill="#ffffb3" stroke="#000000" points="444.4341,-122 317.5659,-122 317.5659,-86 444.4341,-86 444.4341,-122"/>
<text text-anchor="middle" x="381" y="-99.8" font-family="Times,serif" font-size="14.00" fill="#000000">AfFormComponent</text>
</g>
<!-- AfFormComponent&#45;&gt;MetadataModule -->
<g id="edge5" class="edge">
<title>AfFormComponent&#45;&gt;MetadataModule</title>
<path fill="none" stroke="#000000" d="M381,-122.027C381,-138.3976 381,-160 381,-160 381,-160 455.266,-160 455.266,-160"/>
<polygon fill="#000000" stroke="#000000" points="455.2661,-163.5001 465.266,-160 455.266,-156.5001 455.2661,-163.5001"/>
</g>
<!-- ActorComponent -->
<g id="node6" class="node">
<title>ActorComponent</title>
<polygon fill="#ffffb3" stroke="#000000" points="299.705,-122 186.295,-122 186.295,-86 299.705,-86 299.705,-122"/>
<text text-anchor="middle" x="243" y="-99.8" font-family="Times,serif" font-size="14.00" fill="#000000">ActorComponent</text>
</g>
<!-- ActorComponent&#45;&gt;MetadataModule -->
<g id="edge6" class="edge">
<title>ActorComponent&#45;&gt;MetadataModule</title>
<path fill="none" stroke="#000000" d="M243,-122.1061C243,-141.3391 243,-169 243,-169 243,-169 455.077,-169 455.077,-169"/>
<polygon fill="#000000" stroke="#000000" points="455.077,-172.5001 465.077,-169 455.0769,-165.5001 455.077,-172.5001"/>
</g>
<!-- GN2CommonModule -->
<g id="node8" class="node">
<title>GN2CommonModule</title>
<polygon fill="#8dd3c7" stroke="#000000" points="162.3809,-122 159.3809,-126 138.3809,-126 135.3809,-122 23.6191,-122 23.6191,-86 162.3809,-86 162.3809,-122"/>
<text text-anchor="middle" x="93" y="-99.8" font-family="Times,serif" font-size="14.00" fill="#000000">GN2CommonModule</text>
</g>
<!-- GN2CommonModule&#45;&gt;MetadataModule -->
<g id="edge7" class="edge">
<title>GN2CommonModule&#45;&gt;MetadataModule</title>
<path fill="none" stroke="#000000" d="M93,-122.2921C93,-144.2057 93,-178 93,-178 93,-178 455.0465,-178 455.0465,-178"/>
<polygon fill="#000000" stroke="#000000" points="455.0465,-181.5001 465.0465,-178 455.0464,-174.5001 455.0465,-181.5001"/>
</g>
</g>
</svg>
