<?xml version="1.0" encoding="UTF-8" standalone="no"?>
<!DOCTYPE svg PUBLIC "-//W3C//DTD SVG 1.1//EN"
 "http://www.w3.org/Graphics/SVG/1.1/DTD/svg11.dtd">
<!-- Generated by graphviz version 2.44.1 (20200629.0846)
 -->
<!-- Title: dependencies Pages: 1 -->
<svg width="2363pt" height="276pt"
 viewBox="0.00 0.00 2363.00 276.00" xmlns="http://www.w3.org/2000/svg" xmlns:xlink="http://www.w3.org/1999/xlink">
<g id="graph0" class="graph" transform="scale(1 1) rotate(0) translate(4 272)">
<title>dependencies</title>
<polygon fill="white" stroke="transparent" points="-4,4 -4,-272 2359,-272 2359,4 -4,4"/>
<text text-anchor="start" x="1156.51" y="-42.4" font-family="sans-serif" font-weight="bold" font-size="14.00">Legend</text>
<polygon fill="#ffffb3" stroke="transparent" points="943.5,-10 943.5,-30 963.5,-30 963.5,-10 943.5,-10"/>
<text text-anchor="start" x="967.13" y="-15.4" font-family="sans-serif" font-size="14.00"> &#160;Declarations</text>
<polygon fill="#8dd3c7" stroke="transparent" points="1056.5,-10 1056.5,-30 1076.5,-30 1076.5,-10 1056.5,-10"/>
<text text-anchor="start" x="1080.23" y="-15.4" font-family="sans-serif" font-size="14.00"> &#160;Module</text>
<polygon fill="#80b1d3" stroke="transparent" points="1142.5,-10 1142.5,-30 1162.5,-30 1162.5,-10 1142.5,-10"/>
<text text-anchor="start" x="1166.28" y="-15.4" font-family="sans-serif" font-size="14.00"> &#160;Bootstrap</text>
<polygon fill="#fdb462" stroke="transparent" points="1239.5,-10 1239.5,-30 1259.5,-30 1259.5,-10 1239.5,-10"/>
<text text-anchor="start" x="1263.17" y="-15.4" font-family="sans-serif" font-size="14.00"> &#160;Providers</text>
<polygon fill="#fb8072" stroke="transparent" points="1335.5,-10 1335.5,-30 1355.5,-30 1355.5,-10 1335.5,-10"/>
<text text-anchor="start" x="1359.23" y="-15.4" font-family="sans-serif" font-size="14.00"> &#160;Exports</text>
<g id="clust1" class="cluster">
<title>cluster_MetadataModule</title>
<polygon fill="none" stroke="black" stroke-dasharray="1,5" points="8,-70 8,-260 2347,-260 2347,-70 8,-70"/>
</g>
<g id="clust6" class="cluster">
<title>cluster_MetadataModule_AfFormComponent_providers</title>
<polygon fill="none" stroke="black" points="1951,-78 1951,-195 2161,-195 2161,-78 1951,-78"/>
</g>
<g id="clust3" class="cluster">
<title>cluster_MetadataModule_MetadataComponent_providers</title>
<polygon fill="none" stroke="black" points="1443,-78 1443,-195 1943,-195 1943,-78 1443,-78"/>
</g>
<g id="clust4" class="cluster">
<title>cluster_MetadataModule_DatasetFormComponent_providers</title>
<polygon fill="none" stroke="black" points="2169,-143 2169,-195 2339,-195 2339,-143 2169,-143"/>
</g>
<g id="clust2" class="cluster">
<title>cluster_MetadataModule_declarations</title>
<polygon fill="none" stroke="black" points="996,-143 996,-195 1435,-195 1435,-143 996,-143"/>
</g>
<g id="clust9" class="cluster">
<title>cluster_MetadataModule_imports</title>
<polygon fill="none" stroke="black" points="16,-143 16,-195 988,-195 988,-143 16,-143"/>
</g>
<!-- MetadataComponent -->
<g id="node1" class="node">
<title>MetadataComponent</title>
<polygon fill="#ffffb3" stroke="black" points="1671.92,-187 1538.08,-187 1538.08,-151 1671.92,-151 1671.92,-187"/>
<text text-anchor="middle" x="1605" y="-164.8" font-family="Times,serif" font-size="14.00">MetadataComponent</text>
</g>
<!-- MetadataModule -->
<g id="node7" class="node">
<title>MetadataModule</title>
<polygon fill="#8dd3c7" stroke="black" points="1016.63,-252 1013.63,-256 992.63,-256 989.63,-252 905.37,-252 905.37,-216 1016.63,-216 1016.63,-252"/>
<text text-anchor="middle" x="961" y="-229.8" font-family="Times,serif" font-size="14.00">MetadataModule</text>
</g>
<!-- MetadataComponent&#45;&gt;MetadataModule -->
<g id="edge1" class="edge">
<title>MetadataComponent&#45;&gt;MetadataModule</title>
<path fill="none" stroke="black" d="M1605,-187.11C1605,-206.34 1605,-234 1605,-234 1605,-234 1026.74,-234 1026.74,-234"/>
<polygon fill="black" stroke="black" points="1026.74,-230.5 1016.74,-234 1026.74,-237.5 1026.74,-230.5"/>
</g>
<!-- DatasetFormComponent -->
<g id="node2" class="node">
<title>DatasetFormComponent</title>
<polygon fill="#ffffb3" stroke="black" points="2330.64,-187 2177.36,-187 2177.36,-151 2330.64,-151 2330.64,-187"/>
<text text-anchor="middle" x="2254" y="-164.8" font-family="Times,serif" font-size="14.00">DatasetFormComponent</text>
</g>
<!-- DatasetFormComponent&#45;&gt;MetadataModule -->
<g id="edge3" class="edge">
<title>DatasetFormComponent&#45;&gt;MetadataModule</title>
<path fill="none" stroke="black" d="M2254,-187.09C2254,-210.13 2254,-247 2254,-247 2254,-247 1026.97,-247 1026.97,-247"/>
<polygon fill="black" stroke="black" points="1026.97,-243.5 1016.97,-247 1026.97,-250.5 1026.97,-243.5"/>
</g>
<!-- DatasetCardComponent -->
<g id="node3" class="node">
<title>DatasetCardComponent</title>
<polygon fill="#ffffb3" stroke="black" points="1427.02,-187 1276.98,-187 1276.98,-151 1427.02,-151 1427.02,-187"/>
<text text-anchor="middle" x="1352" y="-164.8" font-family="Times,serif" font-size="14.00">DatasetCardComponent</text>
</g>
<!-- DatasetCardComponent&#45;&gt;MetadataModule -->
<g id="edge5" class="edge">
<title>DatasetCardComponent&#45;&gt;MetadataModule</title>
<path fill="none" stroke="black" d="M1352,-187.02C1352,-204.37 1352,-228 1352,-228 1352,-228 1027.02,-228 1027.02,-228"/>
<polygon fill="black" stroke="black" points="1027.02,-224.5 1017.02,-228 1027.02,-231.5 1027.02,-224.5"/>
</g>
<!-- AfFormComponent -->
<g id="node4" class="node">
<title>AfFormComponent</title>
<polygon fill="#ffffb3" stroke="black" points="2102.43,-187 1975.57,-187 1975.57,-151 2102.43,-151 2102.43,-187"/>
<text text-anchor="middle" x="2039" y="-164.8" font-family="Times,serif" font-size="14.00">AfFormComponent</text>
</g>
<!-- AfFormComponent&#45;&gt;MetadataModule -->
<g id="edge6" class="edge">
<title>AfFormComponent&#45;&gt;MetadataModule</title>
<path fill="none" stroke="black" d="M2039,-187.28C2039,-208.32 2039,-240 2039,-240 2039,-240 1026.69,-240 1026.69,-240"/>
<polygon fill="black" stroke="black" points="1026.69,-236.5 1016.69,-240 1026.69,-243.5 1026.69,-236.5"/>
</g>
<!-- ActorComponent -->
<g id="node5" class="node">
<title>ActorComponent</title>
<polygon fill="#ffffb3" stroke="black" points="1258.7,-187 1145.3,-187 1145.3,-151 1258.7,-151 1258.7,-187"/>
<text text-anchor="middle" x="1202" y="-164.8" font-family="Times,serif" font-size="14.00">ActorComponent</text>
</g>
<!-- ActorComponent&#45;&gt;MetadataModule -->
<g id="edge8" class="edge">
<title>ActorComponent&#45;&gt;MetadataModule</title>
<path fill="none" stroke="black" d="M1202,-187.24C1202,-202.57 1202,-222 1202,-222 1202,-222 1026.9,-222 1026.9,-222"/>
<polygon fill="black" stroke="black" points="1026.9,-218.5 1016.9,-222 1026.9,-225.5 1026.9,-218.5"/>
</g>
<!-- AfCardComponent -->
<g id="node6" class="node">
<title>AfCardComponent</title>
<polygon fill="#ffffb3" stroke="black" points="1127.81,-187 1004.19,-187 1004.19,-151 1127.81,-151 1127.81,-187"/>
<text text-anchor="middle" x="1066" y="-164.8" font-family="Times,serif" font-size="14.00">AfCardComponent</text>
</g>
<!-- AfCardComponent&#45;&gt;MetadataModule -->
<g id="edge9" class="edge">
<title>AfCardComponent&#45;&gt;MetadataModule</title>
<path fill="none" stroke="black" d="M1010.58,-187.11C1010.58,-187.11 1010.58,-205.99 1010.58,-205.99"/>
<polygon fill="black" stroke="black" points="1007.08,-205.99 1010.58,-215.99 1014.08,-205.99 1007.08,-205.99"/>
</g>
<!-- { provide: MatPaginatorIntl, useClass: MetadataPaginator } -->
<g id="node8" class="node">
<title>{ provide: MatPaginatorIntl, useClass: MetadataPaginator }</title>
<ellipse fill="#fdb462" stroke="black" cx="1693" cy="-104" rx="242.22" ry="18"/>
<text text-anchor="middle" x="1693" y="-99.8" font-family="Times,serif" font-size="14.00">{ provide: MatPaginatorIntl, useClass: MetadataPaginator }</text>
</g>
<!-- { provide: MatPaginatorIntl, useClass: MetadataPaginator }&#45;&gt;MetadataComponent -->
<g id="edge2" class="edge">
<title>{ provide: MatPaginatorIntl, useClass: MetadataPaginator }&#45;&gt;MetadataComponent</title>
<path fill="none" stroke="black" d="M1605,-121.08C1605,-121.08 1605,-140.9 1605,-140.9"/>
<polygon fill="black" stroke="black" points="1601.5,-140.9 1605,-150.9 1608.5,-140.9 1601.5,-140.9"/>
</g>
<!-- MetadataFormService -->
<g id="node9" class="node">
<title>MetadataFormService</title>
<ellipse fill="#fdb462" stroke="black" cx="2056" cy="-104" rx="96.68" ry="18"/>
<text text-anchor="middle" x="2056" y="-99.8" font-family="Times,serif" font-size="14.00">MetadataFormService</text>
</g>
<!-- MetadataFormService&#45;&gt;DatasetFormComponent -->
<g id="edge4" class="edge">
<title>MetadataFormService&#45;&gt;DatasetFormComponent</title>
<path fill="none" stroke="black" d="M2127.53,-116.23C2127.53,-135.05 2127.53,-169 2127.53,-169 2127.53,-169 2167.15,-169 2167.15,-169"/>
<polygon fill="black" stroke="black" points="2167.15,-172.5 2177.15,-169 2167.15,-165.5 2167.15,-172.5"/>
</g>
<!-- MetadataFormService&#45;&gt;AfFormComponent -->
<g id="edge7" class="edge">
<title>MetadataFormService&#45;&gt;AfFormComponent</title>
<path fill="none" stroke="black" d="M2039,-121.76C2039,-121.76 2039,-140.81 2039,-140.81"/>
<polygon fill="black" stroke="black" points="2035.5,-140.81 2039,-150.81 2042.5,-140.81 2035.5,-140.81"/>
</g>
<!-- HttpClientXsrfModule.withOptions(args) -->
<g id="node10" class="node">
<title>HttpClientXsrfModule.withOptions(args)</title>
<polygon fill="#8dd3c7" stroke="black" points="980.39,-187 977.39,-191 956.39,-191 953.39,-187 731.61,-187 731.61,-151 980.39,-151 980.39,-187"/>
<text text-anchor="middle" x="856" y="-164.8" font-family="Times,serif" font-size="14.00">HttpClientXsrfModule.withOptions(args)</text>
</g>
<!-- HttpClientXsrfModule.withOptions(args)&#45;&gt;MetadataModule -->
<g id="edge10" class="edge">
<title>HttpClientXsrfModule.withOptions(args)&#45;&gt;MetadataModule</title>
<path fill="none" stroke="black" d="M942.82,-187.11C942.82,-187.11 942.82,-205.99 942.82,-205.99"/>
<polygon fill="black" stroke="black" points="939.32,-205.99 942.82,-215.99 946.32,-205.99 939.32,-205.99"/>
</g>
<!-- CommonModule -->
<g id="node11" class="node">
<title>CommonModule</title>
<polygon fill="#8dd3c7" stroke="black" points="713.67,-187 710.67,-191 689.67,-191 686.67,-187 602.33,-187 602.33,-151 713.67,-151 713.67,-187"/>
<text text-anchor="middle" x="658" y="-164.8" font-family="Times,serif" font-size="14.00">CommonModule</text>
</g>
<!-- CommonModule&#45;&gt;MetadataModule -->
<g id="edge11" class="edge">
<title>CommonModule&#45;&gt;MetadataModule</title>
<path fill="none" stroke="black" d="M658,-187.24C658,-202.57 658,-222 658,-222 658,-222 895.07,-222 895.07,-222"/>
<polygon fill="black" stroke="black" points="895.07,-225.5 905.07,-222 895.07,-218.5 895.07,-225.5"/>
</g>
<!-- GN2CommonModule -->
<g id="node12" class="node">
<title>GN2CommonModule</title>
<polygon fill="#8dd3c7" stroke="black" points="584.38,-187 581.38,-191 560.38,-191 557.38,-187 445.62,-187 445.62,-151 584.38,-151 584.38,-187"/>
<text text-anchor="middle" x="515" y="-164.8" font-family="Times,serif" font-size="14.00">GN2CommonModule</text>
</g>
<!-- GN2CommonModule&#45;&gt;MetadataModule -->
<g id="edge12" class="edge">
<title>GN2CommonModule&#45;&gt;MetadataModule</title>
<path fill="none" stroke="black" d="M515,-187.02C515,-204.37 515,-228 515,-228 515,-228 894.97,-228 894.97,-228"/>
<polygon fill="black" stroke="black" points="894.97,-231.5 904.97,-228 894.97,-224.5 894.97,-231.5"/>
</g>
<!-- ChartsModule -->
<g id="node13" class="node">
<title>ChartsModule</title>
<polygon fill="#8dd3c7" stroke="black" points="428.1,-187 425.1,-191 404.1,-191 401.1,-187 331.9,-187 331.9,-151 428.1,-151 428.1,-187"/>
<text text-anchor="middle" x="380" y="-164.8" font-family="Times,serif" font-size="14.00">ChartsModule</text>
</g>
<!-- ChartsModule&#45;&gt;MetadataModule -->
<g id="edge13" class="edge">
<title>ChartsModule&#45;&gt;MetadataModule</title>
<path fill="none" stroke="black" d="M380,-187.11C380,-206.34 380,-234 380,-234 380,-234 895.29,-234 895.29,-234"/>
<polygon fill="black" stroke="black" points="895.29,-237.5 905.29,-234 895.29,-230.5 895.29,-237.5"/>
</g>
<!-- ChartModule -->
<g id="node14" class="node">
<title>ChartModule</title>
<polygon fill="#8dd3c7" stroke="black" points="314.15,-187 311.15,-191 290.15,-191 287.15,-187 223.85,-187 223.85,-151 314.15,-151 314.15,-187"/>
<text text-anchor="middle" x="269" y="-164.8" font-family="Times,serif" font-size="14.00">ChartModule</text>
</g>
<!-- ChartModule&#45;&gt;MetadataModule -->
<g id="edge14" class="edge">
<title>ChartModule&#45;&gt;MetadataModule</title>
<path fill="none" stroke="black" d="M269,-187.28C269,-208.32 269,-240 269,-240 269,-240 895.25,-240 895.25,-240"/>
<polygon fill="black" stroke="black" points="895.25,-243.5 905.25,-240 895.25,-236.5 895.25,-243.5"/>
</g>
<!-- RouterModule.forChild(args) -->
<g id="node15" class="node">
<title>RouterModule.forChild(args)</title>
<polygon fill="#8dd3c7" stroke="black" points="205.73,-187 202.73,-191 181.73,-191 178.73,-187 24.27,-187 24.27,-151 205.73,-151 205.73,-187"/>
<text text-anchor="middle" x="115" y="-164.8" font-family="Times,serif" font-size="14.00">RouterModule.forChild(args)</text>
</g>
<!-- RouterModule.forChild(args)&#45;&gt;MetadataModule -->
<g id="edge15" class="edge">
<title>RouterModule.forChild(args)&#45;&gt;MetadataModule</title>
<path fill="none" stroke="black" d="M115,-187.09C115,-210.13 115,-247 115,-247 115,-247 895.16,-247 895.16,-247"/>
<polygon fill="black" stroke="black" points="895.16,-250.5 905.16,-247 895.16,-243.5 895.16,-250.5"/>
</g>
</g>
</svg>
