<?xml version="1.0" encoding="UTF-8" standalone="no"?>
<!DOCTYPE svg PUBLIC "-//W3C//DTD SVG 1.1//EN"
 "http://www.w3.org/Graphics/SVG/1.1/DTD/svg11.dtd">
<!-- Generated by graphviz version 2.40.1 (20161225.0304)
 -->
<!-- Title: dependencies Pages: 1 -->
<svg width="1109pt" height="276pt"
 viewBox="0.00 0.00 1109.00 276.00" xmlns="http://www.w3.org/2000/svg" xmlns:xlink="http://www.w3.org/1999/xlink">
<g id="graph0" class="graph" transform="scale(1 1) rotate(0) translate(4 272)">
<title>dependencies</title>
<polygon fill="#ffffff" stroke="transparent" points="-4,4 -4,-272 1105,-272 1105,4 -4,4"/>
<text text-anchor="start" x="529.5091" y="-42.4" font-family="sans-serif" font-weight="bold" font-size="14.00" fill="#000000">Legend</text>
<polygon fill="#ffffb3" stroke="transparent" points="316.5,-10 316.5,-30 336.5,-30 336.5,-10 316.5,-10"/>
<text text-anchor="start" x="340.129" y="-15.4" font-family="sans-serif" font-size="14.00" fill="#000000"> &#160;Declarations</text>
<polygon fill="#8dd3c7" stroke="transparent" points="429.5,-10 429.5,-30 449.5,-30 449.5,-10 429.5,-10"/>
<text text-anchor="start" x="453.2251" y="-15.4" font-family="sans-serif" font-size="14.00" fill="#000000"> &#160;Module</text>
<polygon fill="#80b1d3" stroke="transparent" points="515.5,-10 515.5,-30 535.5,-30 535.5,-10 515.5,-10"/>
<text text-anchor="start" x="539.2812" y="-15.4" font-family="sans-serif" font-size="14.00" fill="#000000"> &#160;Bootstrap</text>
<polygon fill="#fdb462" stroke="transparent" points="612.5,-10 612.5,-30 632.5,-30 632.5,-10 612.5,-10"/>
<text text-anchor="start" x="636.1732" y="-15.4" font-family="sans-serif" font-size="14.00" fill="#000000"> &#160;Providers</text>
<polygon fill="#fb8072" stroke="transparent" points="708.5,-10 708.5,-30 728.5,-30 728.5,-10 708.5,-10"/>
<text text-anchor="start" x="732.2258" y="-15.4" font-family="sans-serif" font-size="14.00" fill="#000000"> &#160;Exports</text>
<g id="clust1" class="cluster">
<title>cluster_MetadataModule</title>
<polygon fill="none" stroke="#000000" stroke-dasharray="1,5" points="8,-70 8,-260 1093,-260 1093,-70 8,-70"/>
</g>
<g id="clust2" class="cluster">
<title>cluster_MetadataModule_declarations</title>
<polygon fill="none" stroke="#000000" points="178,-143 178,-195 1085,-195 1085,-143 178,-143"/>
</g>
<g id="clust3" class="cluster">
<title>cluster_MetadataModule_MetadataComponent_providers</title>
<polygon fill="none" stroke="#000000" points="585,-78 585,-130 1085,-130 1085,-78 585,-78"/>
</g>
<g id="clust9" class="cluster">
<title>cluster_MetadataModule_imports</title>
<polygon fill="none" stroke="#000000" points="16,-143 16,-195 170,-195 170,-143 16,-143"/>
</g>
<!-- MetadataComponent -->
<g id="node1" class="node">
<title>MetadataComponent</title>
<polygon fill="#ffffb3" stroke="#000000" points="1076.9173,-187 943.0827,-187 943.0827,-151 1076.9173,-151 1076.9173,-187"/>
<text text-anchor="middle" x="1010" y="-164.8" font-family="Times,serif" font-size="14.00" fill="#000000">MetadataComponent</text>
</g>
<!-- MetadataModule -->
<g id="node7" class="node">
<title>MetadataModule</title>
<polygon fill="#8dd3c7" stroke="#000000" points="577.6346,-252 574.6346,-256 553.6346,-256 550.6346,-252 466.3654,-252 466.3654,-216 577.6346,-216 577.6346,-252"/>
<text text-anchor="middle" x="522" y="-229.8" font-family="Times,serif" font-size="14.00" fill="#000000">MetadataModule</text>
</g>
<!-- MetadataComponent&#45;&gt;MetadataModule -->
<g id="edge1" class="edge">
<title>MetadataComponent&#45;&gt;MetadataModule</title>
<path fill="none" stroke="#000000" d="M1010,-187.2921C1010,-209.2057 1010,-243 1010,-243 1010,-243 587.9798,-243 587.9798,-243"/>
<polygon fill="#000000" stroke="#000000" points="587.9798,-239.5001 577.9798,-243 587.9798,-246.5001 587.9798,-239.5001"/>
</g>
<!-- DatasetFormComponent -->
<g id="node2" class="node">
<title>DatasetFormComponent</title>
<polygon fill="#ffffb3" stroke="#000000" points="924.6428,-187 771.3572,-187 771.3572,-151 924.6428,-151 924.6428,-187"/>
<text text-anchor="middle" x="848" y="-164.8" font-family="Times,serif" font-size="14.00" fill="#000000">DatasetFormComponent</text>
</g>
<!-- DatasetFormComponent&#45;&gt;MetadataModule -->
<g id="edge3" class="edge">
<title>DatasetFormComponent&#45;&gt;MetadataModule</title>
<path fill="none" stroke="#000000" d="M848,-187.1061C848,-206.3391 848,-234 848,-234 848,-234 587.671,-234 587.671,-234"/>
<polygon fill="#000000" stroke="#000000" points="587.671,-230.5001 577.671,-234 587.6709,-237.5001 587.671,-230.5001"/>
</g>
<!-- DatasetCardComponent -->
<g id="node3" class="node">
<title>DatasetCardComponent</title>
<polygon fill="#ffffb3" stroke="#000000" points="753.0212,-187 602.9788,-187 602.9788,-151 753.0212,-151 753.0212,-187"/>
<text text-anchor="middle" x="678" y="-164.8" font-family="Times,serif" font-size="14.00" fill="#000000">DatasetCardComponent</text>
</g>
<!-- DatasetCardComponent&#45;&gt;MetadataModule -->
<g id="edge4" class="edge">
<title>DatasetCardComponent&#45;&gt;MetadataModule</title>
<path fill="none" stroke="#000000" d="M678,-187.027C678,-203.3976 678,-225 678,-225 678,-225 587.879,-225 587.879,-225"/>
<polygon fill="#000000" stroke="#000000" points="587.879,-221.5001 577.879,-225 587.8789,-228.5001 587.879,-221.5001"/>
</g>
<!-- AfFormComponent -->
<g id="node4" class="node">
<title>AfFormComponent</title>
<polygon fill="#ffffb3" stroke="#000000" points="585.4341,-187 458.5659,-187 458.5659,-151 585.4341,-151 585.4341,-187"/>
<text text-anchor="middle" x="522" y="-164.8" font-family="Times,serif" font-size="14.00" fill="#000000">AfFormComponent</text>
</g>
<!-- AfFormComponent&#45;&gt;MetadataModule -->
<g id="edge5" class="edge">
<title>AfFormComponent&#45;&gt;MetadataModule</title>
<path fill="none" stroke="#000000" d="M522,-187.1061C522,-187.1061 522,-205.991 522,-205.991"/>
<polygon fill="#000000" stroke="#000000" points="518.5001,-205.9909 522,-215.991 525.5001,-205.991 518.5001,-205.9909"/>
</g>
<!-- ActorComponent -->
<g id="node5" class="node">
<title>ActorComponent</title>
<polygon fill="#ffffb3" stroke="#000000" points="440.705,-187 327.295,-187 327.295,-151 440.705,-151 440.705,-187"/>
<text text-anchor="middle" x="384" y="-164.8" font-family="Times,serif" font-size="14.00" fill="#000000">ActorComponent</text>
</g>
<!-- ActorComponent&#45;&gt;MetadataModule -->
<g id="edge6" class="edge">
<title>ActorComponent&#45;&gt;MetadataModule</title>
<path fill="none" stroke="#000000" d="M384,-187.027C384,-203.3976 384,-225 384,-225 384,-225 456.2679,-225 456.2679,-225"/>
<polygon fill="#000000" stroke="#000000" points="456.2679,-228.5001 466.2679,-225 456.2679,-221.5001 456.2679,-228.5001"/>
</g>
<!-- AfCardComponent -->
<g id="node6" class="node">
<title>AfCardComponent</title>
<polygon fill="#ffffb3" stroke="#000000" points="309.8118,-187 186.1882,-187 186.1882,-151 309.8118,-151 309.8118,-187"/>
<text text-anchor="middle" x="248" y="-164.8" font-family="Times,serif" font-size="14.00" fill="#000000">AfCardComponent</text>
</g>
<!-- AfCardComponent&#45;&gt;MetadataModule -->
<g id="edge7" class="edge">
<title>AfCardComponent&#45;&gt;MetadataModule</title>
<path fill="none" stroke="#000000" d="M248,-187.1061C248,-206.3391 248,-234 248,-234 248,-234 456.2217,-234 456.2217,-234"/>
<polygon fill="#000000" stroke="#000000" points="456.2218,-237.5001 466.2217,-234 456.2217,-230.5001 456.2218,-237.5001"/>
</g>
<!-- { provide: MatPaginatorIntl, useClass: MetadataPaginator } -->
<g id="node8" class="node">
<title>{ provide: MatPaginatorIntl, useClass: MetadataPaginator }</title>
<ellipse fill="#fdb462" stroke="#000000" cx="835" cy="-104" rx="242.2199" ry="18"/>
<text text-anchor="middle" x="835" y="-99.8" font-family="Times,serif" font-size="14.00" fill="#000000">{ provide: MatPaginatorIntl, useClass: MetadataPaginator }</text>
</g>
<!-- { provide: MatPaginatorIntl, useClass: MetadataPaginator }&#45;&gt;MetadataComponent -->
<g id="edge2" class="edge">
<title>{ provide: MatPaginatorIntl, useClass: MetadataPaginator }&#45;&gt;MetadataComponent</title>
<path fill="none" stroke="#000000" d="M1010,-116.5327C1010,-116.5327 1010,-140.8507 1010,-140.8507"/>
<polygon fill="#000000" stroke="#000000" points="1006.5001,-140.8506 1010,-150.8507 1013.5001,-140.8507 1006.5001,-140.8506"/>
</g>
<!-- GN2CommonModule -->
<g id="node9" class="node">
<title>GN2CommonModule</title>
<polygon fill="#8dd3c7" stroke="#000000" points="162.3809,-187 159.3809,-191 138.3809,-191 135.3809,-187 23.6191,-187 23.6191,-151 162.3809,-151 162.3809,-187"/>
<text text-anchor="middle" x="93" y="-164.8" font-family="Times,serif" font-size="14.00" fill="#000000">GN2CommonModule</text>
</g>
<!-- GN2CommonModule&#45;&gt;MetadataModule -->
<g id="edge8" class="edge">
<title>GN2CommonModule&#45;&gt;MetadataModule</title>
<path fill="none" stroke="#000000" d="M93,-187.2921C93,-209.2057 93,-243 93,-243 93,-243 456.3555,-243 456.3555,-243"/>
<polygon fill="#000000" stroke="#000000" points="456.3556,-246.5001 466.3555,-243 456.3555,-239.5001 456.3556,-246.5001"/>
</g>
</g>
</svg>
