<?xml version="1.0" encoding="UTF-8" standalone="no"?>
<!DOCTYPE svg PUBLIC "-//W3C//DTD SVG 1.1//EN"
 "http://www.w3.org/Graphics/SVG/1.1/DTD/svg11.dtd">
<!-- Generated by graphviz version 2.46.0 (20210119.1425)
 -->
<!-- Title: dependencies Pages: 1 -->
<svg width="1109pt" height="276pt"
 viewBox="0.00 0.00 1109.00 276.00" xmlns="http://www.w3.org/2000/svg" xmlns:xlink="http://www.w3.org/1999/xlink">
<g id="graph0" class="graph" transform="scale(1 1) rotate(0) translate(4 272)">
<title>dependencies</title>
<polygon fill="white" stroke="transparent" points="-4,4 -4,-272 1105,-272 1105,4 -4,4"/>
<text text-anchor="start" x="529.51" y="-42.4" font-family="sans-serif" font-weight="bold" font-size="14.00">Legend</text>
<polygon fill="#ffffb3" stroke="transparent" points="316.5,-10 316.5,-30 336.5,-30 336.5,-10 316.5,-10"/>
<text text-anchor="start" x="340.13" y="-15.4" font-family="sans-serif" font-size="14.00"> &#160;Declarations</text>
<polygon fill="#8dd3c7" stroke="transparent" points="429.5,-10 429.5,-30 449.5,-30 449.5,-10 429.5,-10"/>
<text text-anchor="start" x="453.23" y="-15.4" font-family="sans-serif" font-size="14.00"> &#160;Module</text>
<polygon fill="#80b1d3" stroke="transparent" points="515.5,-10 515.5,-30 535.5,-30 535.5,-10 515.5,-10"/>
<text text-anchor="start" x="539.28" y="-15.4" font-family="sans-serif" font-size="14.00"> &#160;Bootstrap</text>
<polygon fill="#fdb462" stroke="transparent" points="612.5,-10 612.5,-30 632.5,-30 632.5,-10 612.5,-10"/>
<text text-anchor="start" x="636.17" y="-15.4" font-family="sans-serif" font-size="14.00"> &#160;Providers</text>
<polygon fill="#fb8072" stroke="transparent" points="708.5,-10 708.5,-30 728.5,-30 728.5,-10 708.5,-10"/>
<text text-anchor="start" x="732.23" y="-15.4" font-family="sans-serif" font-size="14.00"> &#160;Exports</text>
<g id="clust1" class="cluster">
<title>cluster_MetadataModule</title>
<polygon fill="none" stroke="black" stroke-dasharray="1,5" points="8,-70 8,-260 1093,-260 1093,-70 8,-70"/>
</g>
<g id="clust2" class="cluster">
<title>cluster_MetadataModule_declarations</title>
<polygon fill="none" stroke="black" points="16,-143 16,-195 923,-195 923,-143 16,-143"/>
</g>
<g id="clust9" class="cluster">
<title>cluster_MetadataModule_imports</title>
<polygon fill="none" stroke="black" points="931,-143 931,-195 1085,-195 1085,-143 931,-143"/>
</g>
<g id="clust8" class="cluster">
<title>cluster_MetadataModule_MetadataComponent_providers</title>
<polygon fill="none" stroke="black" points="16,-78 16,-130 790,-130 790,-78 16,-78"/>
</g>
<!-- ActorComponent -->
<g id="node1" class="node">
<title>ActorComponent</title>
<polygon fill="#ffffb3" stroke="black" points="914.7,-187 801.3,-187 801.3,-151 914.7,-151 914.7,-187"/>
<text text-anchor="middle" x="858" y="-164.8" font-family="Times,serif" font-size="14.00">ActorComponent</text>
</g>
<!-- MetadataModule -->
<g id="node7" class="node">
<title>MetadataModule</title>
<polygon fill="#8dd3c7" stroke="black" points="634.63,-252 631.63,-256 610.63,-256 607.63,-252 523.37,-252 523.37,-216 634.63,-216 634.63,-252"/>
<text text-anchor="middle" x="579" y="-229.8" font-family="Times,serif" font-size="14.00">MetadataModule</text>
</g>
<!-- ActorComponent&#45;&gt;MetadataModule -->
<g id="edge1" class="edge">
<title>ActorComponent&#45;&gt;MetadataModule</title>
<path fill="none" stroke="black" d="M858,-187.11C858,-206.34 858,-234 858,-234 858,-234 644.79,-234 644.79,-234"/>
<polygon fill="black" stroke="black" points="644.79,-230.5 634.79,-234 644.79,-237.5 644.79,-230.5"/>
</g>
<!-- AfCardComponent -->
<g id="node2" class="node">
<title>AfCardComponent</title>
<polygon fill="#ffffb3" stroke="black" points="783.81,-187 660.19,-187 660.19,-151 783.81,-151 783.81,-187"/>
<text text-anchor="middle" x="722" y="-164.8" font-family="Times,serif" font-size="14.00">AfCardComponent</text>
</g>
<!-- AfCardComponent&#45;&gt;MetadataModule -->
<g id="edge2" class="edge">
<title>AfCardComponent&#45;&gt;MetadataModule</title>
<path fill="none" stroke="black" d="M722,-187.03C722,-203.4 722,-225 722,-225 722,-225 644.7,-225 644.7,-225"/>
<polygon fill="black" stroke="black" points="644.7,-221.5 634.7,-225 644.7,-228.5 644.7,-221.5"/>
</g>
<!-- AfFormComponent -->
<g id="node3" class="node">
<title>AfFormComponent</title>
<polygon fill="#ffffb3" stroke="black" points="642.43,-187 515.57,-187 515.57,-151 642.43,-151 642.43,-187"/>
<text text-anchor="middle" x="579" y="-164.8" font-family="Times,serif" font-size="14.00">AfFormComponent</text>
</g>
<!-- AfFormComponent&#45;&gt;MetadataModule -->
<g id="edge3" class="edge">
<title>AfFormComponent&#45;&gt;MetadataModule</title>
<path fill="none" stroke="black" d="M579,-187.11C579,-187.11 579,-205.99 579,-205.99"/>
<polygon fill="black" stroke="black" points="575.5,-205.99 579,-215.99 582.5,-205.99 575.5,-205.99"/>
</g>
<!-- DatasetCardComponent -->
<g id="node4" class="node">
<title>DatasetCardComponent</title>
<polygon fill="#ffffb3" stroke="black" points="498.02,-187 347.98,-187 347.98,-151 498.02,-151 498.02,-187"/>
<text text-anchor="middle" x="423" y="-164.8" font-family="Times,serif" font-size="14.00">DatasetCardComponent</text>
</g>
<!-- DatasetCardComponent&#45;&gt;MetadataModule -->
<g id="edge4" class="edge">
<title>DatasetCardComponent&#45;&gt;MetadataModule</title>
<path fill="none" stroke="black" d="M423,-187.03C423,-203.4 423,-225 423,-225 423,-225 513.12,-225 513.12,-225"/>
<polygon fill="black" stroke="black" points="513.12,-228.5 523.12,-225 513.12,-221.5 513.12,-228.5"/>
</g>
<!-- DatasetFormComponent -->
<g id="node5" class="node">
<title>DatasetFormComponent</title>
<polygon fill="#ffffb3" stroke="black" points="329.64,-187 176.36,-187 176.36,-151 329.64,-151 329.64,-187"/>
<text text-anchor="middle" x="253" y="-164.8" font-family="Times,serif" font-size="14.00">DatasetFormComponent</text>
</g>
<!-- DatasetFormComponent&#45;&gt;MetadataModule -->
<g id="edge5" class="edge">
<title>DatasetFormComponent&#45;&gt;MetadataModule</title>
<path fill="none" stroke="black" d="M253,-187.11C253,-206.34 253,-234 253,-234 253,-234 513.33,-234 513.33,-234"/>
<polygon fill="black" stroke="black" points="513.33,-237.5 523.33,-234 513.33,-230.5 513.33,-237.5"/>
</g>
<!-- MetadataComponent -->
<g id="node6" class="node">
<title>MetadataComponent</title>
<polygon fill="#ffffb3" stroke="black" points="157.92,-187 24.08,-187 24.08,-151 157.92,-151 157.92,-187"/>
<text text-anchor="middle" x="91" y="-164.8" font-family="Times,serif" font-size="14.00">MetadataComponent</text>
</g>
<!-- MetadataComponent&#45;&gt;MetadataModule -->
<g id="edge6" class="edge">
<title>MetadataComponent&#45;&gt;MetadataModule</title>
<path fill="none" stroke="black" d="M91,-187.29C91,-209.21 91,-243 91,-243 91,-243 513.02,-243 513.02,-243"/>
<polygon fill="black" stroke="black" points="513.02,-246.5 523.02,-243 513.02,-239.5 513.02,-246.5"/>
</g>
<!-- { &#160;&#160;&#160;provide: MatPaginatorIntl, useClass: MetadataPaginator} -->
<g id="node8" class="node">
<title>{ &#160;&#160;&#160;provide: MatPaginatorIntl, useClass: MetadataPaginator}</title>
<ellipse fill="#fdb462" stroke="black" cx="535" cy="-104" rx="247.38" ry="18"/>
<text text-anchor="middle" x="535" y="-99.8" font-family="Times,serif" font-size="14.00">{ &#160;&#160;&#160;provide: MatPaginatorIntl, useClass: MetadataPaginator}</text>
</g>
<!-- { &#160;&#160;&#160;provide: MatPaginatorIntl, useClass: MetadataPaginator}&#45;&gt;MetadataComponent -->
<g id="edge7" class="edge">
<title>{ &#160;&#160;&#160;provide: MatPaginatorIntl, useClass: MetadataPaginator}&#45;&gt;MetadataComponent</title>
<path fill="none" stroke="black" d="M308.82,-111.32C308.82,-121.05 308.82,-137 308.82,-137 308.82,-137 113.24,-137 113.24,-137 113.24,-137 113.24,-140.76 113.24,-140.76"/>
<polygon fill="black" stroke="black" points="109.74,-140.76 113.24,-150.76 116.74,-140.76 109.74,-140.76"/>
</g>
<!-- MetadataSearchFormService -->
<g id="node9" class="node">
<title>MetadataSearchFormService</title>
<ellipse fill="#fdb462" stroke="black" cx="147" cy="-104" rx="123.23" ry="18"/>
<text text-anchor="middle" x="147" y="-99.8" font-family="Times,serif" font-size="14.00">MetadataSearchFormService</text>
</g>
<!-- MetadataSearchFormService&#45;&gt;MetadataComponent -->
<g id="edge8" class="edge">
<title>MetadataSearchFormService&#45;&gt;MetadataComponent</title>
<path fill="none" stroke="black" d="M68.76,-118.1C68.76,-118.1 68.76,-140.72 68.76,-140.72"/>
<polygon fill="black" stroke="black" points="65.26,-140.72 68.76,-150.72 72.26,-140.72 65.26,-140.72"/>
</g>
<!-- GN2CommonModule -->
<g id="node10" class="node">
<title>GN2CommonModule</title>
<polygon fill="#8dd3c7" stroke="black" points="1077.38,-187 1074.38,-191 1053.38,-191 1050.38,-187 938.62,-187 938.62,-151 1077.38,-151 1077.38,-187"/>
<text text-anchor="middle" x="1008" y="-164.8" font-family="Times,serif" font-size="14.00">GN2CommonModule</text>
</g>
<!-- GN2CommonModule&#45;&gt;MetadataModule -->
<g id="edge9" class="edge">
<title>GN2CommonModule&#45;&gt;MetadataModule</title>
<path fill="none" stroke="black" d="M1008,-187.29C1008,-209.21 1008,-243 1008,-243 1008,-243 644.64,-243 644.64,-243"/>
<polygon fill="black" stroke="black" points="644.64,-239.5 634.64,-243 644.64,-246.5 644.64,-239.5"/>
</g>
</g>
</svg>
