<?xml version="1.0" encoding="UTF-8" standalone="no"?>
<!DOCTYPE svg PUBLIC "-//W3C//DTD SVG 1.1//EN"
 "http://www.w3.org/Graphics/SVG/1.1/DTD/svg11.dtd">
<!-- Generated by graphviz version 2.47.0 (20210316.0004)
 -->
<!-- Title: dependencies Pages: 1 -->
<svg width="831pt" height="211pt"
 viewBox="0.00 0.00 831.00 211.00" xmlns="http://www.w3.org/2000/svg" xmlns:xlink="http://www.w3.org/1999/xlink">
<g id="graph0" class="graph" transform="scale(1 1) rotate(0) translate(4 207)">
<title>dependencies</title>
<polygon fill="white" stroke="transparent" points="-4,4 -4,-207 827,-207 827,4 -4,4"/>
<text text-anchor="start" x="390.51" y="-42.4" font-family="Times-12" font-weight="bold" font-size="14.00">Legend</text>
<polygon fill="#ffffb3" stroke="transparent" points="177.5,-10 177.5,-30 197.5,-30 197.5,-10 177.5,-10"/>
<text text-anchor="start" x="201.13" y="-15.4" font-family="Times-12" font-size="14.00"> &#160;Declarations</text>
<polygon fill="#8dd3c7" stroke="transparent" points="290.5,-10 290.5,-30 310.5,-30 310.5,-10 290.5,-10"/>
<text text-anchor="start" x="314.23" y="-15.4" font-family="Times-12" font-size="14.00"> &#160;Module</text>
<polygon fill="#80b1d3" stroke="transparent" points="376.5,-10 376.5,-30 396.5,-30 396.5,-10 376.5,-10"/>
<text text-anchor="start" x="400.28" y="-15.4" font-family="Times-12" font-size="14.00"> &#160;Bootstrap</text>
<polygon fill="#fdb462" stroke="transparent" points="473.5,-10 473.5,-30 493.5,-30 493.5,-10 473.5,-10"/>
<text text-anchor="start" x="497.17" y="-15.4" font-family="Times-12" font-size="14.00"> &#160;Providers</text>
<polygon fill="#fb8072" stroke="transparent" points="569.5,-10 569.5,-30 589.5,-30 589.5,-10 569.5,-10"/>
<text text-anchor="start" x="593.23" y="-15.4" font-family="Times-12" font-size="14.00"> &#160;Exports</text>
<g id="clust1" class="cluster">
<title>cluster_UserModule</title>
<polygon fill="none" stroke="black" stroke-dasharray="1,5" points="8,-70 8,-195 815,-195 815,-70 8,-70"/>
</g>
<g id="clust8" class="cluster">
<title>cluster_UserModule_providers</title>
<polygon fill="none" stroke="black" points="462,-78 462,-130 807,-130 807,-78 462,-78"/>
</g>
<g id="clust2" class="cluster">
<title>cluster_UserModule_declarations</title>
<polygon fill="none" stroke="black" points="178,-78 178,-130 454,-130 454,-78 178,-78"/>
</g>
<g id="clust5" class="cluster">
<title>cluster_UserModule_imports</title>
<polygon fill="none" stroke="black" points="16,-78 16,-130 170,-130 170,-78 16,-78"/>
</g>
<!-- PasswordComponent -->
<g id="node1" class="node">
<title>PasswordComponent</title>
<polygon fill="#ffffb3" stroke="black" points="446.49,-122 311.51,-122 311.51,-86 446.49,-86 446.49,-122"/>
<text text-anchor="middle" x="379" y="-99.8" font-family="Times,serif" font-size="14.00">PasswordComponent</text>
</g>
<!-- UserModule -->
<g id="node3" class="node">
<title>UserModule</title>
<polygon fill="#8dd3c7" stroke="black" points="421.98,-187 418.98,-191 397.98,-191 394.98,-187 336.02,-187 336.02,-151 421.98,-151 421.98,-187"/>
<text text-anchor="middle" x="379" y="-164.8" font-family="Times,serif" font-size="14.00">UserModule</text>
</g>
<!-- PasswordComponent&#45;&gt;UserModule -->
<g id="edge1" class="edge">
<title>PasswordComponent&#45;&gt;UserModule</title>
<path fill="none" stroke="black" d="M379,-122.11C379,-122.11 379,-140.99 379,-140.99"/>
<polygon fill="black" stroke="black" points="375.5,-140.99 379,-150.99 382.5,-140.99 375.5,-140.99"/>
</g>
<!-- UserComponent -->
<g id="node2" class="node">
<title>UserComponent</title>
<polygon fill="#ffffb3" stroke="black" points="293.76,-122 186.24,-122 186.24,-86 293.76,-86 293.76,-122"/>
<text text-anchor="middle" x="240" y="-99.8" font-family="Times,serif" font-size="14.00">UserComponent</text>
</g>
<!-- UserComponent&#45;&gt;UserModule -->
<g id="edge2" class="edge">
<title>UserComponent&#45;&gt;UserModule</title>
<path fill="none" stroke="black" d="M240,-122.02C240,-139.37 240,-163 240,-163 240,-163 325.78,-163 325.78,-163"/>
<polygon fill="black" stroke="black" points="325.78,-166.5 335.78,-163 325.78,-159.5 325.78,-166.5"/>
</g>
<!-- GN2CommonModule -->
<g id="node4" class="node">
<title>GN2CommonModule</title>
<polygon fill="#8dd3c7" stroke="black" points="162.38,-122 159.38,-126 138.38,-126 135.38,-122 23.62,-122 23.62,-86 162.38,-86 162.38,-122"/>
<text text-anchor="middle" x="93" y="-99.8" font-family="Times,serif" font-size="14.00">GN2CommonModule</text>
</g>
<!-- GN2CommonModule&#45;&gt;UserModule -->
<g id="edge3" class="edge">
<title>GN2CommonModule&#45;&gt;UserModule</title>
<path fill="none" stroke="black" d="M93,-122.28C93,-143.32 93,-175 93,-175 93,-175 325.87,-175 325.87,-175"/>
<polygon fill="black" stroke="black" points="325.87,-178.5 335.87,-175 325.87,-171.5 325.87,-178.5"/>
</g>
<!-- RoleFormService -->
<g id="node5" class="node">
<title>RoleFormService</title>
<ellipse fill="#fdb462" stroke="black" cx="720" cy="-104" rx="79.31" ry="18"/>
<text text-anchor="middle" x="720" y="-99.8" font-family="Times,serif" font-size="14.00">RoleFormService</text>
</g>
<!-- RoleFormService&#45;&gt;UserModule -->
<g id="edge4" class="edge">
<title>RoleFormService&#45;&gt;UserModule</title>
<path fill="none" stroke="black" d="M720,-122.28C720,-143.32 720,-175 720,-175 720,-175 432.19,-175 432.19,-175"/>
<polygon fill="black" stroke="black" points="432.19,-171.5 422.19,-175 432.19,-178.5 432.19,-171.5"/>
</g>
<!-- UserDataService -->
<g id="node6" class="node">
<title>UserDataService</title>
<ellipse fill="#fdb462" stroke="black" cx="546" cy="-104" rx="76.4" ry="18"/>
<text text-anchor="middle" x="546" y="-99.8" font-family="Times,serif" font-size="14.00">UserDataService</text>
</g>
<!-- UserDataService&#45;&gt;UserModule -->
<g id="edge5" class="edge">
<title>UserDataService&#45;&gt;UserModule</title>
<path fill="none" stroke="black" d="M546,-122.02C546,-139.37 546,-163 546,-163 546,-163 432.01,-163 432.01,-163"/>
<polygon fill="black" stroke="black" points="432.01,-159.5 422.01,-163 432.01,-166.5 432.01,-159.5"/>
</g>
</g>
</svg>
