<?xml version="1.0" encoding="UTF-8" standalone="no"?>
<!DOCTYPE svg PUBLIC "-//W3C//DTD SVG 1.1//EN"
 "http://www.w3.org/Graphics/SVG/1.1/DTD/svg11.dtd">
<!-- Generated by graphviz version 2.47.0 (20210316.0004)
 -->
<!-- Title: dependencies Pages: 1 -->
<svg width="654pt" height="211pt"
 viewBox="0.00 0.00 654.00 211.00" xmlns="http://www.w3.org/2000/svg" xmlns:xlink="http://www.w3.org/1999/xlink">
<g id="graph0" class="graph" transform="scale(1 1) rotate(0) translate(4 207)">
<title>dependencies</title>
<polygon fill="white" stroke="transparent" points="-4,4 -4,-207 650,-207 650,4 -4,4"/>
<text text-anchor="start" x="302.01" y="-42.4" font-family="Times-12" font-weight="bold" font-size="14.00">Legend</text>
<polygon fill="#ffffb3" stroke="transparent" points="89,-10 89,-30 109,-30 109,-10 89,-10"/>
<text text-anchor="start" x="112.63" y="-15.4" font-family="Times-12" font-size="14.00"> &#160;Declarations</text>
<polygon fill="#8dd3c7" stroke="transparent" points="202,-10 202,-30 222,-30 222,-10 202,-10"/>
<text text-anchor="start" x="225.73" y="-15.4" font-family="Times-12" font-size="14.00"> &#160;Module</text>
<polygon fill="#80b1d3" stroke="transparent" points="288,-10 288,-30 308,-30 308,-10 288,-10"/>
<text text-anchor="start" x="311.78" y="-15.4" font-family="Times-12" font-size="14.00"> &#160;Bootstrap</text>
<polygon fill="#fdb462" stroke="transparent" points="385,-10 385,-30 405,-30 405,-10 385,-10"/>
<text text-anchor="start" x="408.67" y="-15.4" font-family="Times-12" font-size="14.00"> &#160;Providers</text>
<polygon fill="#fb8072" stroke="transparent" points="481,-10 481,-30 501,-30 501,-10 481,-10"/>
<text text-anchor="start" x="504.73" y="-15.4" font-family="Times-12" font-size="14.00"> &#160;Exports</text>
<g id="clust1" class="cluster">
<title>cluster_LoginModule</title>
<polygon fill="none" stroke="black" stroke-dasharray="1,5" points="8,-70 8,-195 638,-195 638,-70 8,-70"/>
</g>
<g id="clust6" class="cluster">
<title>cluster_LoginModule_imports</title>
<polygon fill="none" stroke="black" points="476,-78 476,-130 630,-130 630,-78 476,-78"/>
</g>
<g id="clust2" class="cluster">
<title>cluster_LoginModule_declarations</title>
<polygon fill="none" stroke="black" points="16,-78 16,-130 468,-130 468,-78 16,-78"/>
</g>
<!-- LoginComponent -->
<g id="node1" class="node">
<title>LoginComponent</title>
<polygon fill="#ffffb3" stroke="black" points="460.28,-122 345.72,-122 345.72,-86 460.28,-86 460.28,-122"/>
<text text-anchor="middle" x="403" y="-99.8" font-family="Times,serif" font-size="14.00">LoginComponent</text>
</g>
<!-- LoginModule -->
<g id="node4" class="node">
<title>LoginModule</title>
<polygon fill="#8dd3c7" stroke="black" points="371.49,-187 368.49,-191 347.49,-191 344.49,-187 278.51,-187 278.51,-151 371.49,-151 371.49,-187"/>
<text text-anchor="middle" x="325" y="-164.8" font-family="Times,serif" font-size="14.00">LoginModule</text>
</g>
<!-- LoginComponent&#45;&gt;LoginModule -->
<g id="edge1" class="edge">
<title>LoginComponent&#45;&gt;LoginModule</title>
<path fill="none" stroke="black" d="M358.55,-122.11C358.55,-122.11 358.55,-140.99 358.55,-140.99"/>
<polygon fill="black" stroke="black" points="355.05,-140.99 358.55,-150.99 362.05,-140.99 355.05,-140.99"/>
</g>
<!-- NewPasswordComponent -->
<g id="node2" class="node">
<title>NewPasswordComponent</title>
<polygon fill="#ffffb3" stroke="black" points="327.91,-122 166.09,-122 166.09,-86 327.91,-86 327.91,-122"/>
<text text-anchor="middle" x="247" y="-99.8" font-family="Times,serif" font-size="14.00">NewPasswordComponent</text>
</g>
<!-- NewPasswordComponent&#45;&gt;LoginModule -->
<g id="edge2" class="edge">
<title>NewPasswordComponent&#45;&gt;LoginModule</title>
<path fill="none" stroke="black" d="M303.11,-122.11C303.11,-122.11 303.11,-140.99 303.11,-140.99"/>
<polygon fill="black" stroke="black" points="299.61,-140.99 303.11,-150.99 306.61,-140.99 299.61,-140.99"/>
</g>
<!-- SignUpComponent -->
<g id="node3" class="node">
<title>SignUpComponent</title>
<polygon fill="#ffffb3" stroke="black" points="148.11,-122 23.89,-122 23.89,-86 148.11,-86 148.11,-122"/>
<text text-anchor="middle" x="86" y="-99.8" font-family="Times,serif" font-size="14.00">SignUpComponent</text>
</g>
<!-- SignUpComponent&#45;&gt;LoginModule -->
<g id="edge3" class="edge">
<title>SignUpComponent&#45;&gt;LoginModule</title>
<path fill="none" stroke="black" d="M86,-122.11C86,-141.34 86,-169 86,-169 86,-169 268.35,-169 268.35,-169"/>
<polygon fill="black" stroke="black" points="268.35,-172.5 278.35,-169 268.35,-165.5 268.35,-172.5"/>
</g>
<!-- GN2CommonModule -->
<g id="node5" class="node">
<title>GN2CommonModule</title>
<polygon fill="#8dd3c7" stroke="black" points="622.38,-122 619.38,-126 598.38,-126 595.38,-122 483.62,-122 483.62,-86 622.38,-86 622.38,-122"/>
<text text-anchor="middle" x="553" y="-99.8" font-family="Times,serif" font-size="14.00">GN2CommonModule</text>
</g>
<!-- GN2CommonModule&#45;&gt;LoginModule -->
<g id="edge4" class="edge">
<title>GN2CommonModule&#45;&gt;LoginModule</title>
<path fill="none" stroke="black" d="M553,-122.11C553,-141.34 553,-169 553,-169 553,-169 381.69,-169 381.69,-169"/>
<polygon fill="black" stroke="black" points="381.69,-165.5 371.69,-169 381.69,-172.5 381.69,-165.5"/>
</g>
</g>
</svg>
