<?xml version="1.0" encoding="UTF-8" standalone="no"?>
<!DOCTYPE svg PUBLIC "-//W3C//DTD SVG 1.1//EN"
 "http://www.w3.org/Graphics/SVG/1.1/DTD/svg11.dtd">
<!-- Generated by graphviz version 2.47.0 (20210316.0004)
 -->
<!-- Title: dependencies Pages: 1 -->
<svg width="1363pt" height="211pt"
 viewBox="0.00 0.00 1363.00 211.00" xmlns="http://www.w3.org/2000/svg" xmlns:xlink="http://www.w3.org/1999/xlink">
<g id="graph0" class="graph" transform="scale(1 1) rotate(0) translate(4 207)">
<title>dependencies</title>
<polygon fill="white" stroke="transparent" points="-4,4 -4,-207 1359,-207 1359,4 -4,4"/>
<text text-anchor="start" x="656.51" y="-42.4" font-family="Times-12" font-weight="bold" font-size="14.00">Legend</text>
<polygon fill="#ffffb3" stroke="transparent" points="443.5,-10 443.5,-30 463.5,-30 463.5,-10 443.5,-10"/>
<text text-anchor="start" x="467.13" y="-15.4" font-family="Times-12" font-size="14.00"> &#160;Declarations</text>
<polygon fill="#8dd3c7" stroke="transparent" points="556.5,-10 556.5,-30 576.5,-30 576.5,-10 556.5,-10"/>
<text text-anchor="start" x="580.23" y="-15.4" font-family="Times-12" font-size="14.00"> &#160;Module</text>
<polygon fill="#80b1d3" stroke="transparent" points="642.5,-10 642.5,-30 662.5,-30 662.5,-10 642.5,-10"/>
<text text-anchor="start" x="666.28" y="-15.4" font-family="Times-12" font-size="14.00"> &#160;Bootstrap</text>
<polygon fill="#fdb462" stroke="transparent" points="739.5,-10 739.5,-30 759.5,-30 759.5,-10 739.5,-10"/>
<text text-anchor="start" x="763.17" y="-15.4" font-family="Times-12" font-size="14.00"> &#160;Providers</text>
<polygon fill="#fb8072" stroke="transparent" points="835.5,-10 835.5,-30 855.5,-30 855.5,-10 835.5,-10"/>
<text text-anchor="start" x="859.23" y="-15.4" font-family="Times-12" font-size="14.00"> &#160;Exports</text>
<g id="clust1" class="cluster">
<title>cluster_LoginModule</title>
<polygon fill="none" stroke="black" stroke-dasharray="1,5" points="8,-70 8,-195 1347,-195 1347,-70 8,-70"/>
</g>
<g id="clust2" class="cluster">
<title>cluster_LoginModule_declarations</title>
<polygon fill="none" stroke="black" points="887,-78 887,-130 1339,-130 1339,-78 887,-78"/>
</g>
<g id="clust6" class="cluster">
<title>cluster_LoginModule_imports</title>
<polygon fill="none" stroke="black" points="395,-78 395,-130 879,-130 879,-78 395,-78"/>
</g>
<g id="clust9" class="cluster">
<title>cluster_LoginModule_providers</title>
<polygon fill="none" stroke="black" points="16,-78 16,-130 387,-130 387,-78 16,-78"/>
</g>
<!-- LoginComponent -->
<g id="node1" class="node">
<title>LoginComponent</title>
<polygon fill="#ffffb3" stroke="black" points="1331.28,-122 1216.72,-122 1216.72,-86 1331.28,-86 1331.28,-122"/>
<text text-anchor="middle" x="1274" y="-99.8" font-family="Times,serif" font-size="14.00">LoginComponent</text>
</g>
<!-- LoginModule -->
<g id="node4" class="node">
<title>LoginModule</title>
<polygon fill="#8dd3c7" stroke="black" points="789.49,-187 786.49,-191 765.49,-191 762.49,-187 696.51,-187 696.51,-151 789.49,-151 789.49,-187"/>
<text text-anchor="middle" x="743" y="-164.8" font-family="Times,serif" font-size="14.00">LoginModule</text>
</g>
<!-- LoginComponent&#45;&gt;LoginModule -->
<g id="edge1" class="edge">
<title>LoginComponent&#45;&gt;LoginModule</title>
<path fill="none" stroke="black" d="M1274,-122.29C1274,-144.21 1274,-178 1274,-178 1274,-178 799.66,-178 799.66,-178"/>
<polygon fill="black" stroke="black" points="799.66,-174.5 789.66,-178 799.66,-181.5 799.66,-174.5"/>
</g>
<!-- NewPasswordComponent -->
<g id="node2" class="node">
<title>NewPasswordComponent</title>
<polygon fill="#ffffb3" stroke="black" points="1198.91,-122 1037.09,-122 1037.09,-86 1198.91,-86 1198.91,-122"/>
<text text-anchor="middle" x="1118" y="-99.8" font-family="Times,serif" font-size="14.00">NewPasswordComponent</text>
</g>
<!-- NewPasswordComponent&#45;&gt;LoginModule -->
<g id="edge2" class="edge">
<title>NewPasswordComponent&#45;&gt;LoginModule</title>
<path fill="none" stroke="black" d="M1118,-122.11C1118,-141.34 1118,-169 1118,-169 1118,-169 799.74,-169 799.74,-169"/>
<polygon fill="black" stroke="black" points="799.74,-165.5 789.74,-169 799.74,-172.5 799.74,-165.5"/>
</g>
<!-- SignUpComponent -->
<g id="node3" class="node">
<title>SignUpComponent</title>
<polygon fill="#ffffb3" stroke="black" points="1019.11,-122 894.89,-122 894.89,-86 1019.11,-86 1019.11,-122"/>
<text text-anchor="middle" x="957" y="-99.8" font-family="Times,serif" font-size="14.00">SignUpComponent</text>
</g>
<!-- SignUpComponent&#45;&gt;LoginModule -->
<g id="edge3" class="edge">
<title>SignUpComponent&#45;&gt;LoginModule</title>
<path fill="none" stroke="black" d="M957,-122.03C957,-138.4 957,-160 957,-160 957,-160 799.7,-160 799.7,-160"/>
<polygon fill="black" stroke="black" points="799.7,-156.5 789.7,-160 799.7,-163.5 799.7,-156.5"/>
</g>
<!-- CommonModule -->
<g id="node5" class="node">
<title>CommonModule</title>
<polygon fill="#8dd3c7" stroke="black" points="870.67,-122 867.67,-126 846.67,-126 843.67,-122 759.33,-122 759.33,-86 870.67,-86 870.67,-122"/>
<text text-anchor="middle" x="815" y="-99.8" font-family="Times,serif" font-size="14.00">CommonModule</text>
</g>
<!-- CommonModule&#45;&gt;LoginModule -->
<g id="edge4" class="edge">
<title>CommonModule&#45;&gt;LoginModule</title>
<path fill="none" stroke="black" d="M774.33,-122.11C774.33,-122.11 774.33,-140.99 774.33,-140.99"/>
<polygon fill="black" stroke="black" points="770.83,-140.99 774.33,-150.99 777.83,-140.99 770.83,-140.99"/>
</g>
<!-- GN2CommonModule -->
<g id="node6" class="node">
<title>GN2CommonModule</title>
<polygon fill="#8dd3c7" stroke="black" points="741.38,-122 738.38,-126 717.38,-126 714.38,-122 602.62,-122 602.62,-86 741.38,-86 741.38,-122"/>
<text text-anchor="middle" x="672" y="-99.8" font-family="Times,serif" font-size="14.00">GN2CommonModule</text>
</g>
<!-- GN2CommonModule&#45;&gt;LoginModule -->
<g id="edge5" class="edge">
<title>GN2CommonModule&#45;&gt;LoginModule</title>
<path fill="none" stroke="black" d="M718.97,-122.11C718.97,-122.11 718.97,-140.99 718.97,-140.99"/>
<polygon fill="black" stroke="black" points="715.47,-140.99 718.97,-150.99 722.47,-140.99 715.47,-140.99"/>
</g>
<!-- RouterModule.forChild(args) -->
<g id="node7" class="node">
<title>RouterModule.forChild(args)</title>
<polygon fill="#8dd3c7" stroke="black" points="584.73,-122 581.73,-126 560.73,-126 557.73,-122 403.27,-122 403.27,-86 584.73,-86 584.73,-122"/>
<text text-anchor="middle" x="494" y="-99.8" font-family="Times,serif" font-size="14.00">RouterModule.forChild(args)</text>
</g>
<!-- RouterModule.forChild(args)&#45;&gt;LoginModule -->
<g id="edge6" class="edge">
<title>RouterModule.forChild(args)&#45;&gt;LoginModule</title>
<path fill="none" stroke="black" d="M494,-122.03C494,-138.4 494,-160 494,-160 494,-160 686.46,-160 686.46,-160"/>
<polygon fill="black" stroke="black" points="686.46,-163.5 696.46,-160 686.46,-156.5 686.46,-163.5"/>
</g>
<!-- SignUpGuard -->
<g id="node8" class="node">
<title>SignUpGuard</title>
<ellipse fill="#fdb462" stroke="black" cx="314" cy="-104" rx="64.85" ry="18"/>
<text text-anchor="middle" x="314" y="-99.8" font-family="Times,serif" font-size="14.00">SignUpGuard</text>
</g>
<!-- SignUpGuard&#45;&gt;LoginModule -->
<g id="edge7" class="edge">
<title>SignUpGuard&#45;&gt;LoginModule</title>
<path fill="none" stroke="black" d="M314,-122.11C314,-141.34 314,-169 314,-169 314,-169 686.27,-169 686.27,-169"/>
<polygon fill="black" stroke="black" points="686.27,-172.5 696.27,-169 686.27,-165.5 686.27,-172.5"/>
</g>
<!-- UserManagementGuard -->
<g id="node9" class="node">
<title>UserManagementGuard</title>
<ellipse fill="#fdb462" stroke="black" cx="128" cy="-104" rx="103.61" ry="18"/>
<text text-anchor="middle" x="128" y="-99.8" font-family="Times,serif" font-size="14.00">UserManagementGuard</text>
</g>
<!-- UserManagementGuard&#45;&gt;LoginModule -->
<g id="edge8" class="edge">
<title>UserManagementGuard&#45;&gt;LoginModule</title>
<path fill="none" stroke="black" d="M128,-122.29C128,-144.21 128,-178 128,-178 128,-178 686.27,-178 686.27,-178"/>
<polygon fill="black" stroke="black" points="686.27,-181.5 696.27,-178 686.27,-174.5 686.27,-181.5"/>
</g>
</g>
</svg>
