<?xml version="1.0" encoding="UTF-8" standalone="no"?>
<!DOCTYPE svg PUBLIC "-//W3C//DTD SVG 1.1//EN"
 "http://www.w3.org/Graphics/SVG/1.1/DTD/svg11.dtd">
<!-- Generated by graphviz version 2.44.1 (20200629.0846)
 -->
<!-- Title: dependencies Pages: 1 -->
<svg width="504pt" height="284pt"
 viewBox="0.00 0.00 504.00 284.00" xmlns="http://www.w3.org/2000/svg" xmlns:xlink="http://www.w3.org/1999/xlink">
<g id="graph0" class="graph" transform="scale(1 1) rotate(0) translate(4 280)">
<title>dependencies</title>
<polygon fill="white" stroke="transparent" points="-4,4 -4,-280 500,-280 500,4 -4,4"/>
<text text-anchor="start" x="227.01" y="-42.4" font-family="sans-serif" font-weight="bold" font-size="14.00">Legend</text>
<polygon fill="#ffffb3" stroke="transparent" points="14,-10 14,-30 34,-30 34,-10 14,-10"/>
<text text-anchor="start" x="37.63" y="-15.4" font-family="sans-serif" font-size="14.00"> &#160;Declarations</text>
<polygon fill="#8dd3c7" stroke="transparent" points="127,-10 127,-30 147,-30 147,-10 127,-10"/>
<text text-anchor="start" x="150.73" y="-15.4" font-family="sans-serif" font-size="14.00"> &#160;Module</text>
<polygon fill="#80b1d3" stroke="transparent" points="213,-10 213,-30 233,-30 233,-10 213,-10"/>
<text text-anchor="start" x="236.78" y="-15.4" font-family="sans-serif" font-size="14.00"> &#160;Bootstrap</text>
<polygon fill="#fdb462" stroke="transparent" points="310,-10 310,-30 330,-30 330,-10 310,-10"/>
<text text-anchor="start" x="333.67" y="-15.4" font-family="sans-serif" font-size="14.00"> &#160;Providers</text>
<polygon fill="#fb8072" stroke="transparent" points="406,-10 406,-30 426,-30 426,-10 406,-10"/>
<text text-anchor="start" x="429.73" y="-15.4" font-family="sans-serif" font-size="14.00"> &#160;Exports</text>
<g id="clust1" class="cluster">
<title>cluster_GNPanelModule</title>
<polygon fill="none" stroke="black" stroke-dasharray="1,5" points="36,-70 36,-268 460,-268 460,-70 36,-70"/>
</g>
<g id="clust4" class="cluster">
<title>cluster_GNPanelModule_imports</title>
<polygon fill="none" stroke="black" points="200,-78 200,-130 452,-130 452,-78 200,-78"/>
</g>
<g id="clust5" class="cluster">
<title>cluster_GNPanelModule_exports</title>
<polygon fill="none" stroke="black" points="185,-208 185,-260 337,-260 337,-208 185,-208"/>
</g>
<g id="clust2" class="cluster">
<title>cluster_GNPanelModule_declarations</title>
<polygon fill="none" stroke="black" points="44,-78 44,-130 192,-130 192,-78 44,-78"/>
</g>
<!-- GNPanelComponent -->
<g id="node1" class="node">
<title>GNPanelComponent</title>
<polygon fill="#ffffb3" stroke="black" points="184.15,-122 51.85,-122 51.85,-86 184.15,-86 184.15,-122"/>
<text text-anchor="middle" x="118" y="-99.8" font-family="Times,serif" font-size="14.00">GNPanelComponent</text>
</g>
<!-- GNPanelModule -->
<g id="node2" class="node">
<title>GNPanelModule</title>
<polygon fill="#8dd3c7" stroke="black" points="316.37,-187 313.37,-191 292.37,-191 289.37,-187 205.63,-187 205.63,-151 316.37,-151 316.37,-187"/>
<text text-anchor="middle" x="261" y="-164.8" font-family="Times,serif" font-size="14.00">GNPanelModule</text>
</g>
<!-- GNPanelComponent&#45;&gt;GNPanelModule -->
<g id="edge1" class="edge">
<title>GNPanelComponent&#45;&gt;GNPanelModule</title>
<path fill="none" stroke="black" d="M118,-122.11C118,-141.34 118,-169 118,-169 118,-169 195.3,-169 195.3,-169"/>
<polygon fill="black" stroke="black" points="195.3,-172.5 205.3,-169 195.3,-165.5 195.3,-172.5"/>
</g>
<!-- GNPanelComponent  -->
<g id="node5" class="node">
<title>GNPanelComponent </title>
<polygon fill="#fb8072" stroke="black" points="329.15,-252 192.85,-252 192.85,-216 329.15,-216 329.15,-252"/>
<text text-anchor="middle" x="261" y="-229.8" font-family="Times,serif" font-size="14.00">GNPanelComponent </text>
</g>
<!-- GNPanelModule&#45;&gt;GNPanelComponent  -->
<g id="edge4" class="edge">
<title>GNPanelModule&#45;&gt;GNPanelComponent </title>
<path fill="none" stroke="black" stroke-dasharray="5,2" d="M261,-187.11C261,-187.11 261,-205.99 261,-205.99"/>
<polygon fill="black" stroke="black" points="257.5,-205.99 261,-215.99 264.5,-205.99 257.5,-205.99"/>
</g>
<!-- CommonModule -->
<g id="node3" class="node">
<title>CommonModule</title>
<polygon fill="#8dd3c7" stroke="black" points="443.67,-122 440.67,-126 419.67,-126 416.67,-122 332.33,-122 332.33,-86 443.67,-86 443.67,-122"/>
<text text-anchor="middle" x="388" y="-99.8" font-family="Times,serif" font-size="14.00">CommonModule</text>
</g>
<!-- CommonModule&#45;&gt;GNPanelModule -->
<g id="edge2" class="edge">
<title>CommonModule&#45;&gt;GNPanelModule</title>
<path fill="none" stroke="black" d="M388,-122.11C388,-141.34 388,-169 388,-169 388,-169 326.7,-169 326.7,-169"/>
<polygon fill="black" stroke="black" points="326.7,-165.5 316.7,-169 326.7,-172.5 326.7,-165.5"/>
</g>
<!-- MatIconModule -->
<g id="node4" class="node">
<title>MatIconModule</title>
<polygon fill="#8dd3c7" stroke="black" points="314.47,-122 311.47,-126 290.47,-126 287.47,-122 207.53,-122 207.53,-86 314.47,-86 314.47,-122"/>
<text text-anchor="middle" x="261" y="-99.8" font-family="Times,serif" font-size="14.00">MatIconModule</text>
</g>
<!-- MatIconModule&#45;&gt;GNPanelModule -->
<g id="edge3" class="edge">
<title>MatIconModule&#45;&gt;GNPanelModule</title>
<path fill="none" stroke="black" d="M261,-122.11C261,-122.11 261,-140.99 261,-140.99"/>
<polygon fill="black" stroke="black" points="257.5,-140.99 261,-150.99 264.5,-140.99 257.5,-140.99"/>
</g>
</g>
</svg>
