<?xml version="1.0" encoding="UTF-8" standalone="no"?>
<!DOCTYPE svg PUBLIC "-//W3C//DTD SVG 1.1//EN"
 "http://www.w3.org/Graphics/SVG/1.1/DTD/svg11.dtd">
<!-- Generated by graphviz version 2.40.1 (20161225.0304)
 -->
<!-- Title: dependencies Pages: 1 -->
<svg width="504pt" height="284pt"
 viewBox="0.00 0.00 504.00 284.00" xmlns="http://www.w3.org/2000/svg" xmlns:xlink="http://www.w3.org/1999/xlink">
<g id="graph0" class="graph" transform="scale(1 1) rotate(0) translate(4 280)">
<title>dependencies</title>
<polygon fill="#ffffff" stroke="transparent" points="-4,4 -4,-280 500,-280 500,4 -4,4"/>
<text text-anchor="start" x="227.0091" y="-42.4" font-family="sans-serif" font-weight="bold" font-size="14.00" fill="#000000">Legend</text>
<polygon fill="#ffffb3" stroke="transparent" points="14,-10 14,-30 34,-30 34,-10 14,-10"/>
<text text-anchor="start" x="37.629" y="-15.4" font-family="sans-serif" font-size="14.00" fill="#000000"> &#160;Declarations</text>
<polygon fill="#8dd3c7" stroke="transparent" points="127,-10 127,-30 147,-30 147,-10 127,-10"/>
<text text-anchor="start" x="150.7251" y="-15.4" font-family="sans-serif" font-size="14.00" fill="#000000"> &#160;Module</text>
<polygon fill="#80b1d3" stroke="transparent" points="213,-10 213,-30 233,-30 233,-10 213,-10"/>
<text text-anchor="start" x="236.7812" y="-15.4" font-family="sans-serif" font-size="14.00" fill="#000000"> &#160;Bootstrap</text>
<polygon fill="#fdb462" stroke="transparent" points="310,-10 310,-30 330,-30 330,-10 310,-10"/>
<text text-anchor="start" x="333.6732" y="-15.4" font-family="sans-serif" font-size="14.00" fill="#000000"> &#160;Providers</text>
<polygon fill="#fb8072" stroke="transparent" points="406,-10 406,-30 426,-30 426,-10 406,-10"/>
<text text-anchor="start" x="429.7258" y="-15.4" font-family="sans-serif" font-size="14.00" fill="#000000"> &#160;Exports</text>
<g id="clust1" class="cluster">
<title>cluster_GNPanelModule</title>
<polygon fill="none" stroke="#000000" stroke-dasharray="1,5" points="164,-70 164,-268 332,-268 332,-70 164,-70"/>
</g>
<g id="clust2" class="cluster">
<title>cluster_GNPanelModule_declarations</title>
<polygon fill="none" stroke="#000000" points="174,-78 174,-130 322,-130 322,-78 174,-78"/>
</g>
<g id="clust5" class="cluster">
<title>cluster_GNPanelModule_exports</title>
<polygon fill="none" stroke="#000000" points="172,-208 172,-260 324,-260 324,-208 172,-208"/>
</g>
<!-- GNPanelComponent -->
<g id="node1" class="node">
<title>GNPanelComponent</title>
<polygon fill="#ffffb3" stroke="#000000" points="314.1485,-122 181.8515,-122 181.8515,-86 314.1485,-86 314.1485,-122"/>
<text text-anchor="middle" x="248" y="-99.8" font-family="Times,serif" font-size="14.00" fill="#000000">GNPanelComponent</text>
</g>
<!-- GNPanelModule -->
<g id="node2" class="node">
<title>GNPanelModule</title>
<polygon fill="#8dd3c7" stroke="#000000" points="303.3655,-187 300.3655,-191 279.3655,-191 276.3655,-187 192.6345,-187 192.6345,-151 303.3655,-151 303.3655,-187"/>
<text text-anchor="middle" x="248" y="-164.8" font-family="Times,serif" font-size="14.00" fill="#000000">GNPanelModule</text>
</g>
<!-- GNPanelComponent&#45;&gt;GNPanelModule -->
<g id="edge1" class="edge">
<title>GNPanelComponent&#45;&gt;GNPanelModule</title>
<path fill="none" stroke="#000000" d="M248,-122.1061C248,-122.1061 248,-140.991 248,-140.991"/>
<polygon fill="#000000" stroke="#000000" points="244.5001,-140.9909 248,-150.991 251.5001,-140.991 244.5001,-140.9909"/>
</g>
<!-- GNPanelComponent  -->
<g id="node3" class="node">
<title>GNPanelComponent </title>
<polygon fill="#fb8072" stroke="#000000" points="316.1481,-252 179.8519,-252 179.8519,-216 316.1481,-216 316.1481,-252"/>
<text text-anchor="middle" x="248" y="-229.8" font-family="Times,serif" font-size="14.00" fill="#000000">GNPanelComponent </text>
</g>
<!-- GNPanelModule&#45;&gt;GNPanelComponent  -->
<g id="edge2" class="edge">
<title>GNPanelModule&#45;&gt;GNPanelComponent </title>
<path fill="none" stroke="#000000" stroke-dasharray="5,2" d="M248,-187.1061C248,-187.1061 248,-205.991 248,-205.991"/>
<polygon fill="#000000" stroke="#000000" points="244.5001,-205.9909 248,-215.991 251.5001,-205.991 244.5001,-205.9909"/>
</g>
</g>
</svg>
