<?xml version="1.0" encoding="UTF-8" standalone="no"?>
<!DOCTYPE svg PUBLIC "-//W3C//DTD SVG 1.1//EN"
 "http://www.w3.org/Graphics/SVG/1.1/DTD/svg11.dtd">
<!-- Generated by graphviz version 2.44.1 (20200629.0846)
 -->
<!-- Title: dependencies Pages: 1 -->
<svg width="668pt" height="211pt"
 viewBox="0.00 0.00 668.00 211.00" xmlns="http://www.w3.org/2000/svg" xmlns:xlink="http://www.w3.org/1999/xlink">
<g id="graph0" class="graph" transform="scale(1 1) rotate(0) translate(4 207)">
<title>dependencies</title>
<polygon fill="white" stroke="transparent" points="-4,4 -4,-207 664,-207 664,4 -4,4"/>
<text text-anchor="start" x="309.01" y="-42.4" font-family="sans-serif" font-weight="bold" font-size="14.00">Legend</text>
<polygon fill="#ffffb3" stroke="transparent" points="96,-10 96,-30 116,-30 116,-10 96,-10"/>
<text text-anchor="start" x="119.63" y="-15.4" font-family="sans-serif" font-size="14.00"> &#160;Declarations</text>
<polygon fill="#8dd3c7" stroke="transparent" points="209,-10 209,-30 229,-30 229,-10 209,-10"/>
<text text-anchor="start" x="232.73" y="-15.4" font-family="sans-serif" font-size="14.00"> &#160;Module</text>
<polygon fill="#80b1d3" stroke="transparent" points="295,-10 295,-30 315,-30 315,-10 295,-10"/>
<text text-anchor="start" x="318.78" y="-15.4" font-family="sans-serif" font-size="14.00"> &#160;Bootstrap</text>
<polygon fill="#fdb462" stroke="transparent" points="392,-10 392,-30 412,-30 412,-10 392,-10"/>
<text text-anchor="start" x="415.67" y="-15.4" font-family="sans-serif" font-size="14.00"> &#160;Providers</text>
<polygon fill="#fb8072" stroke="transparent" points="488,-10 488,-30 508,-30 508,-10 488,-10"/>
<text text-anchor="start" x="511.73" y="-15.4" font-family="sans-serif" font-size="14.00"> &#160;Exports</text>
<g id="clust1" class="cluster">
<title>cluster_AdminModule</title>
<polygon fill="none" stroke="black" stroke-dasharray="1,5" points="8,-70 8,-195 652,-195 652,-70 8,-70"/>
</g>
<g id="clust4" class="cluster">
<title>cluster_AdminModule_imports</title>
<polygon fill="none" stroke="black" points="160,-78 160,-130 644,-130 644,-78 160,-78"/>
</g>
<g id="clust2" class="cluster">
<title>cluster_AdminModule_declarations</title>
<polygon fill="none" stroke="black" points="16,-78 16,-130 152,-130 152,-78 16,-78"/>
</g>
<!-- AdminComponent -->
<g id="node1" class="node">
<title>AdminComponent</title>
<polygon fill="#ffffb3" stroke="black" points="144.22,-122 23.78,-122 23.78,-86 144.22,-86 144.22,-122"/>
<text text-anchor="middle" x="84" y="-99.8" font-family="Times,serif" font-size="14.00">AdminComponent</text>
</g>
<!-- AdminModule -->
<g id="node2" class="node">
<title>AdminModule</title>
<polygon fill="#8dd3c7" stroke="black" points="397.44,-187 394.44,-191 373.44,-191 370.44,-187 298.56,-187 298.56,-151 397.44,-151 397.44,-187"/>
<text text-anchor="middle" x="348" y="-164.8" font-family="Times,serif" font-size="14.00">AdminModule</text>
</g>
<!-- AdminComponent&#45;&gt;AdminModule -->
<g id="edge1" class="edge">
<title>AdminComponent&#45;&gt;AdminModule</title>
<path fill="none" stroke="black" d="M84,-122.11C84,-141.34 84,-169 84,-169 84,-169 288.65,-169 288.65,-169"/>
<polygon fill="black" stroke="black" points="288.65,-172.5 298.65,-169 288.65,-165.5 288.65,-172.5"/>
</g>
<!-- CommonModule -->
<g id="node3" class="node">
<title>CommonModule</title>
<polygon fill="#8dd3c7" stroke="black" points="635.67,-122 632.67,-126 611.67,-126 608.67,-122 524.33,-122 524.33,-86 635.67,-86 635.67,-122"/>
<text text-anchor="middle" x="580" y="-99.8" font-family="Times,serif" font-size="14.00">CommonModule</text>
</g>
<!-- CommonModule&#45;&gt;AdminModule -->
<g id="edge2" class="edge">
<title>CommonModule&#45;&gt;AdminModule</title>
<path fill="none" stroke="black" d="M580,-122.11C580,-141.34 580,-169 580,-169 580,-169 407.49,-169 407.49,-169"/>
<polygon fill="black" stroke="black" points="407.49,-165.5 397.49,-169 407.49,-172.5 407.49,-165.5"/>
</g>
<!-- GN2CommonModule -->
<g id="node4" class="node">
<title>GN2CommonModule</title>
<polygon fill="#8dd3c7" stroke="black" points="506.38,-122 503.38,-126 482.38,-126 479.38,-122 367.62,-122 367.62,-86 506.38,-86 506.38,-122"/>
<text text-anchor="middle" x="437" y="-99.8" font-family="Times,serif" font-size="14.00">GN2CommonModule</text>
</g>
<!-- GN2CommonModule&#45;&gt;AdminModule -->
<g id="edge3" class="edge">
<title>GN2CommonModule&#45;&gt;AdminModule</title>
<path fill="none" stroke="black" d="M382.39,-122.11C382.39,-122.11 382.39,-140.99 382.39,-140.99"/>
<polygon fill="black" stroke="black" points="378.89,-140.99 382.39,-150.99 385.89,-140.99 378.89,-140.99"/>
</g>
<!-- RouterModule.forChild(args) -->
<g id="node5" class="node">
<title>RouterModule.forChild(args)</title>
<polygon fill="#8dd3c7" stroke="black" points="349.73,-122 346.73,-126 325.73,-126 322.73,-122 168.27,-122 168.27,-86 349.73,-86 349.73,-122"/>
<text text-anchor="middle" x="259" y="-99.8" font-family="Times,serif" font-size="14.00">RouterModule.forChild(args)</text>
</g>
<!-- RouterModule.forChild(args)&#45;&gt;AdminModule -->
<g id="edge4" class="edge">
<title>RouterModule.forChild(args)&#45;&gt;AdminModule</title>
<path fill="none" stroke="black" d="M324.2,-122.11C324.2,-122.11 324.2,-140.99 324.2,-140.99"/>
<polygon fill="black" stroke="black" points="320.7,-140.99 324.2,-150.99 327.7,-140.99 320.7,-140.99"/>
</g>
</g>
</svg>
