<?xml version="1.0" encoding="UTF-8" standalone="no"?>
<!DOCTYPE svg PUBLIC "-//W3C//DTD SVG 1.1//EN"
 "http://www.w3.org/Graphics/SVG/1.1/DTD/svg11.dtd">
<!-- Generated by graphviz version 2.40.1 (20161225.0304)
 -->
<!-- Title: dependencies Pages: 1 -->
<svg width="1098pt" height="276pt"
 viewBox="0.00 0.00 1098.00 276.00" xmlns="http://www.w3.org/2000/svg" xmlns:xlink="http://www.w3.org/1999/xlink">
<g id="graph0" class="graph" transform="scale(1 1) rotate(0) translate(4 272)">
<title>dependencies</title>
<polygon fill="#ffffff" stroke="transparent" points="-4,4 -4,-272 1094,-272 1094,4 -4,4"/>
<text text-anchor="start" x="524.0091" y="-42.4" font-family="sans-serif" font-weight="bold" font-size="14.00" fill="#000000">Legend</text>
<polygon fill="#ffffb3" stroke="transparent" points="311,-10 311,-30 331,-30 331,-10 311,-10"/>
<text text-anchor="start" x="334.629" y="-15.4" font-family="sans-serif" font-size="14.00" fill="#000000"> &#160;Declarations</text>
<polygon fill="#8dd3c7" stroke="transparent" points="424,-10 424,-30 444,-30 444,-10 424,-10"/>
<text text-anchor="start" x="447.7251" y="-15.4" font-family="sans-serif" font-size="14.00" fill="#000000"> &#160;Module</text>
<polygon fill="#80b1d3" stroke="transparent" points="510,-10 510,-30 530,-30 530,-10 510,-10"/>
<text text-anchor="start" x="533.7812" y="-15.4" font-family="sans-serif" font-size="14.00" fill="#000000"> &#160;Bootstrap</text>
<polygon fill="#fdb462" stroke="transparent" points="607,-10 607,-30 627,-30 627,-10 607,-10"/>
<text text-anchor="start" x="630.6732" y="-15.4" font-family="sans-serif" font-size="14.00" fill="#000000"> &#160;Providers</text>
<polygon fill="#fb8072" stroke="transparent" points="703,-10 703,-30 723,-30 723,-10 703,-10"/>
<text text-anchor="start" x="726.7258" y="-15.4" font-family="sans-serif" font-size="14.00" fill="#000000"> &#160;Exports</text>
<g id="clust1" class="cluster">
<title>cluster_MetadataModule</title>
<polygon fill="none" stroke="#000000" stroke-dasharray="1,5" points="8,-70 8,-260 1082,-260 1082,-70 8,-70"/>
</g>
<g id="clust2" class="cluster">
<title>cluster_MetadataModule_declarations</title>
<polygon fill="none" stroke="#000000" points="178,-143 178,-195 1074,-195 1074,-143 178,-143"/>
</g>
<g id="clust3" class="cluster">
<title>cluster_MetadataModule_MetadataComponent_providers</title>
<polygon fill="none" stroke="#000000" points="574,-78 574,-130 1074,-130 1074,-78 574,-78"/>
</g>
<g id="clust9" class="cluster">
<title>cluster_MetadataModule_imports</title>
<polygon fill="none" stroke="#000000" points="16,-143 16,-195 170,-195 170,-143 16,-143"/>
</g>
<!-- MetadataComponent -->
<g id="node1" class="node">
<title>MetadataComponent</title>
<polygon fill="#ffffb3" stroke="#000000" points="1065.9173,-187 932.0827,-187 932.0827,-151 1065.9173,-151 1065.9173,-187"/>
<text text-anchor="middle" x="999" y="-164.8" font-family="Times,serif" font-size="14.00" fill="#000000">MetadataComponent</text>
</g>
<!-- MetadataModule -->
<g id="node7" class="node">
<title>MetadataModule</title>
<polygon fill="#8dd3c7" stroke="#000000" points="576.6346,-252 573.6346,-256 552.6346,-256 549.6346,-252 465.3654,-252 465.3654,-216 576.6346,-216 576.6346,-252"/>
<text text-anchor="middle" x="521" y="-229.8" font-family="Times,serif" font-size="14.00" fill="#000000">MetadataModule</text>
</g>
<!-- MetadataComponent&#45;&gt;MetadataModule -->
<g id="edge1" class="edge">
<title>MetadataComponent&#45;&gt;MetadataModule</title>
<path fill="none" stroke="#000000" d="M999,-187.2921C999,-209.2057 999,-243 999,-243 999,-243 586.7682,-243 586.7682,-243"/>
<polygon fill="#000000" stroke="#000000" points="586.7682,-239.5001 576.7682,-243 586.7681,-246.5001 586.7682,-239.5001"/>
</g>
<!-- DatasetListComponent -->
<g id="node2" class="node">
<title>DatasetListComponent</title>
<polygon fill="#ffffb3" stroke="#000000" points="914.587,-187 769.413,-187 769.413,-151 914.587,-151 914.587,-187"/>
<text text-anchor="middle" x="842" y="-164.8" font-family="Times,serif" font-size="14.00" fill="#000000">DatasetListComponent</text>
</g>
<!-- DatasetListComponent&#45;&gt;MetadataModule -->
<g id="edge3" class="edge">
<title>DatasetListComponent&#45;&gt;MetadataModule</title>
<path fill="none" stroke="#000000" d="M842,-187.1061C842,-206.3391 842,-234 842,-234 842,-234 586.9139,-234 586.9139,-234"/>
<polygon fill="#000000" stroke="#000000" points="586.914,-230.5001 576.9139,-234 586.9139,-237.5001 586.914,-230.5001"/>
</g>
<!-- DatasetFormComponent -->
<g id="node3" class="node">
<title>DatasetFormComponent</title>
<polygon fill="#ffffb3" stroke="#000000" points="751.6428,-187 598.3572,-187 598.3572,-151 751.6428,-151 751.6428,-187"/>
<text text-anchor="middle" x="675" y="-164.8" font-family="Times,serif" font-size="14.00" fill="#000000">DatasetFormComponent</text>
</g>
<!-- DatasetFormComponent&#45;&gt;MetadataModule -->
<g id="edge4" class="edge">
<title>DatasetFormComponent&#45;&gt;MetadataModule</title>
<path fill="none" stroke="#000000" d="M675,-187.027C675,-203.3976 675,-225 675,-225 675,-225 587.0332,-225 587.0332,-225"/>
<polygon fill="#000000" stroke="#000000" points="587.0332,-221.5001 577.0332,-225 587.0331,-228.5001 587.0332,-221.5001"/>
</g>
<!-- AfListComponent -->
<g id="node4" class="node">
<title>AfListComponent</title>
<polygon fill="#ffffb3" stroke="#000000" points="579.8781,-187 462.1219,-187 462.1219,-151 579.8781,-151 579.8781,-187"/>
<text text-anchor="middle" x="521" y="-164.8" font-family="Times,serif" font-size="14.00" fill="#000000">AfListComponent</text>
</g>
<!-- AfListComponent&#45;&gt;MetadataModule -->
<g id="edge5" class="edge">
<title>AfListComponent&#45;&gt;MetadataModule</title>
<path fill="none" stroke="#000000" d="M521,-187.1061C521,-187.1061 521,-205.991 521,-205.991"/>
<polygon fill="#000000" stroke="#000000" points="517.5001,-205.9909 521,-215.991 524.5001,-205.991 517.5001,-205.9909"/>
</g>
<!-- AfFormComponent -->
<g id="node5" class="node">
<title>AfFormComponent</title>
<polygon fill="#ffffb3" stroke="#000000" points="444.4341,-187 317.5659,-187 317.5659,-151 444.4341,-151 444.4341,-187"/>
<text text-anchor="middle" x="381" y="-164.8" font-family="Times,serif" font-size="14.00" fill="#000000">AfFormComponent</text>
</g>
<!-- AfFormComponent&#45;&gt;MetadataModule -->
<g id="edge6" class="edge">
<title>AfFormComponent&#45;&gt;MetadataModule</title>
<path fill="none" stroke="#000000" d="M381,-187.027C381,-203.3976 381,-225 381,-225 381,-225 455.266,-225 455.266,-225"/>
<polygon fill="#000000" stroke="#000000" points="455.2661,-228.5001 465.266,-225 455.266,-221.5001 455.2661,-228.5001"/>
</g>
<!-- ActorComponent -->
<g id="node6" class="node">
<title>ActorComponent</title>
<polygon fill="#ffffb3" stroke="#000000" points="299.705,-187 186.295,-187 186.295,-151 299.705,-151 299.705,-187"/>
<text text-anchor="middle" x="243" y="-164.8" font-family="Times,serif" font-size="14.00" fill="#000000">ActorComponent</text>
</g>
<!-- ActorComponent&#45;&gt;MetadataModule -->
<g id="edge7" class="edge">
<title>ActorComponent&#45;&gt;MetadataModule</title>
<path fill="none" stroke="#000000" d="M243,-187.1061C243,-206.3391 243,-234 243,-234 243,-234 455.077,-234 455.077,-234"/>
<polygon fill="#000000" stroke="#000000" points="455.077,-237.5001 465.077,-234 455.0769,-230.5001 455.077,-237.5001"/>
</g>
<!-- { provide: MatPaginatorIntl, useClass: MetadataPaginator } -->
<g id="node8" class="node">
<title>{ provide: MatPaginatorIntl, useClass: MetadataPaginator }</title>
<ellipse fill="#fdb462" stroke="#000000" cx="824" cy="-104" rx="242.2199" ry="18"/>
<text text-anchor="middle" x="824" y="-99.8" font-family="Times,serif" font-size="14.00" fill="#000000">{ provide: MatPaginatorIntl, useClass: MetadataPaginator }</text>
</g>
<!-- { provide: MatPaginatorIntl, useClass: MetadataPaginator }&#45;&gt;MetadataComponent -->
<g id="edge2" class="edge">
<title>{ provide: MatPaginatorIntl, useClass: MetadataPaginator }&#45;&gt;MetadataComponent</title>
<path fill="none" stroke="#000000" d="M999,-116.5327C999,-116.5327 999,-140.8507 999,-140.8507"/>
<polygon fill="#000000" stroke="#000000" points="995.5001,-140.8506 999,-150.8507 1002.5001,-140.8507 995.5001,-140.8506"/>
</g>
<!-- GN2CommonModule -->
<g id="node9" class="node">
<title>GN2CommonModule</title>
<polygon fill="#8dd3c7" stroke="#000000" points="162.3809,-187 159.3809,-191 138.3809,-191 135.3809,-187 23.6191,-187 23.6191,-151 162.3809,-151 162.3809,-187"/>
<text text-anchor="middle" x="93" y="-164.8" font-family="Times,serif" font-size="14.00" fill="#000000">GN2CommonModule</text>
</g>
<!-- GN2CommonModule&#45;&gt;MetadataModule -->
<g id="edge8" class="edge">
<title>GN2CommonModule&#45;&gt;MetadataModule</title>
<path fill="none" stroke="#000000" d="M93,-187.2921C93,-209.2057 93,-243 93,-243 93,-243 455.0465,-243 455.0465,-243"/>
<polygon fill="#000000" stroke="#000000" points="455.0465,-246.5001 465.0465,-243 455.0464,-239.5001 455.0465,-246.5001"/>
</g>
</g>
</svg>
