<?xml version="1.0" encoding="UTF-8" standalone="no"?>
<!DOCTYPE svg PUBLIC "-//W3C//DTD SVG 1.1//EN"
 "http://www.w3.org/Graphics/SVG/1.1/DTD/svg11.dtd">
<!-- Generated by graphviz version 2.40.1 (20161225.0304)
 -->
<!-- Title: dependencies Pages: 1 -->
<svg width="831pt" height="211pt"
 viewBox="0.00 0.00 831.00 211.00" xmlns="http://www.w3.org/2000/svg" xmlns:xlink="http://www.w3.org/1999/xlink">
<g id="graph0" class="graph" transform="scale(1 1) rotate(0) translate(4 207)">
<title>dependencies</title>
<polygon fill="#ffffff" stroke="transparent" points="-4,4 -4,-207 827,-207 827,4 -4,4"/>
<text text-anchor="start" x="390.5091" y="-42.4" font-family="sans-serif" font-weight="bold" font-size="14.00" fill="#000000">Legend</text>
<polygon fill="#ffffb3" stroke="transparent" points="177.5,-10 177.5,-30 197.5,-30 197.5,-10 177.5,-10"/>
<text text-anchor="start" x="201.129" y="-15.4" font-family="sans-serif" font-size="14.00" fill="#000000"> &#160;Declarations</text>
<polygon fill="#8dd3c7" stroke="transparent" points="290.5,-10 290.5,-30 310.5,-30 310.5,-10 290.5,-10"/>
<text text-anchor="start" x="314.2251" y="-15.4" font-family="sans-serif" font-size="14.00" fill="#000000"> &#160;Module</text>
<polygon fill="#80b1d3" stroke="transparent" points="376.5,-10 376.5,-30 396.5,-30 396.5,-10 376.5,-10"/>
<text text-anchor="start" x="400.2812" y="-15.4" font-family="sans-serif" font-size="14.00" fill="#000000"> &#160;Bootstrap</text>
<polygon fill="#fdb462" stroke="transparent" points="473.5,-10 473.5,-30 493.5,-30 493.5,-10 473.5,-10"/>
<text text-anchor="start" x="497.1732" y="-15.4" font-family="sans-serif" font-size="14.00" fill="#000000"> &#160;Providers</text>
<polygon fill="#fb8072" stroke="transparent" points="569.5,-10 569.5,-30 589.5,-30 589.5,-10 569.5,-10"/>
<text text-anchor="start" x="593.2258" y="-15.4" font-family="sans-serif" font-size="14.00" fill="#000000"> &#160;Exports</text>
<g id="clust1" class="cluster">
<title>cluster_UserModule</title>
<polygon fill="none" stroke="#000000" stroke-dasharray="1,5" points="8,-70 8,-195 815,-195 815,-70 8,-70"/>
</g>
<g id="clust2" class="cluster">
<title>cluster_UserModule_declarations</title>
<polygon fill="none" stroke="#000000" points="531,-78 531,-130 807,-130 807,-78 531,-78"/>
</g>
<g id="clust5" class="cluster">
<title>cluster_UserModule_imports</title>
<polygon fill="none" stroke="#000000" points="369,-78 369,-130 523,-130 523,-78 369,-78"/>
</g>
<g id="clust8" class="cluster">
<title>cluster_UserModule_providers</title>
<polygon fill="none" stroke="#000000" points="16,-78 16,-130 361,-130 361,-78 16,-78"/>
</g>
<!-- UserComponent -->
<g id="node1" class="node">
<title>UserComponent</title>
<polygon fill="#ffffb3" stroke="#000000" points="798.7591,-122 691.2409,-122 691.2409,-86 798.7591,-86 798.7591,-122"/>
<text text-anchor="middle" x="745" y="-99.8" font-family="Times,serif" font-size="14.00" fill="#000000">UserComponent</text>
</g>
<!-- UserModule -->
<g id="node3" class="node">
<title>UserModule</title>
<polygon fill="#8dd3c7" stroke="#000000" points="488.9762,-187 485.9762,-191 464.9762,-191 461.9762,-187 403.0238,-187 403.0238,-151 488.9762,-151 488.9762,-187"/>
<text text-anchor="middle" x="446" y="-164.8" font-family="Times,serif" font-size="14.00" fill="#000000">UserModule</text>
</g>
<!-- UserComponent&#45;&gt;UserModule -->
<g id="edge1" class="edge">
<title>UserComponent&#45;&gt;UserModule</title>
<path fill="none" stroke="#000000" d="M745,-122.2843C745,-143.3211 745,-175 745,-175 745,-175 499.1578,-175 499.1578,-175"/>
<polygon fill="#000000" stroke="#000000" points="499.1579,-171.5001 489.1578,-175 499.1578,-178.5001 499.1579,-171.5001"/>
</g>
<!-- PasswordComponent -->
<g id="node2" class="node">
<title>PasswordComponent</title>
<polygon fill="#ffffb3" stroke="#000000" points="673.486,-122 538.514,-122 538.514,-86 673.486,-86 673.486,-122"/>
<text text-anchor="middle" x="606" y="-99.8" font-family="Times,serif" font-size="14.00" fill="#000000">PasswordComponent</text>
</g>
<!-- PasswordComponent&#45;&gt;UserModule -->
<g id="edge2" class="edge">
<title>PasswordComponent&#45;&gt;UserModule</title>
<path fill="none" stroke="#000000" d="M606,-122.0225C606,-139.3734 606,-163 606,-163 606,-163 499.2983,-163 499.2983,-163"/>
<polygon fill="#000000" stroke="#000000" points="499.2983,-159.5001 489.2983,-163 499.2983,-166.5001 499.2983,-159.5001"/>
</g>
<!-- GN2CommonModule -->
<g id="node4" class="node">
<title>GN2CommonModule</title>
<polygon fill="#8dd3c7" stroke="#000000" points="515.3809,-122 512.3809,-126 491.3809,-126 488.3809,-122 376.6191,-122 376.6191,-86 515.3809,-86 515.3809,-122"/>
<text text-anchor="middle" x="446" y="-99.8" font-family="Times,serif" font-size="14.00" fill="#000000">GN2CommonModule</text>
</g>
<!-- GN2CommonModule&#45;&gt;UserModule -->
<g id="edge3" class="edge">
<title>GN2CommonModule&#45;&gt;UserModule</title>
<path fill="none" stroke="#000000" d="M446,-122.1061C446,-122.1061 446,-140.991 446,-140.991"/>
<polygon fill="#000000" stroke="#000000" points="442.5001,-140.9909 446,-150.991 449.5001,-140.991 442.5001,-140.9909"/>
</g>
<!-- UserDataService -->
<g id="node5" class="node">
<title>UserDataService</title>
<ellipse fill="#fdb462" stroke="#000000" cx="277" cy="-104" rx="76.3976" ry="18"/>
<text text-anchor="middle" x="277" y="-99.8" font-family="Times,serif" font-size="14.00" fill="#000000">UserDataService</text>
</g>
<!-- UserDataService&#45;&gt;UserModule -->
<g id="edge4" class="edge">
<title>UserDataService&#45;&gt;UserModule</title>
<path fill="none" stroke="#000000" d="M277,-122.0225C277,-139.3734 277,-163 277,-163 277,-163 392.9169,-163 392.9169,-163"/>
<polygon fill="#000000" stroke="#000000" points="392.9169,-166.5001 402.9169,-163 392.9169,-159.5001 392.9169,-166.5001"/>
</g>
<!-- RoleFormService -->
<g id="node6" class="node">
<title>RoleFormService</title>
<ellipse fill="#fdb462" stroke="#000000" cx="103" cy="-104" rx="79.3096" ry="18"/>
<text text-anchor="middle" x="103" y="-99.8" font-family="Times,serif" font-size="14.00" fill="#000000">RoleFormService</text>
</g>
<!-- RoleFormService&#45;&gt;UserModule -->
<g id="edge5" class="edge">
<title>RoleFormService&#45;&gt;UserModule</title>
<path fill="none" stroke="#000000" d="M103,-122.2843C103,-143.3211 103,-175 103,-175 103,-175 392.9061,-175 392.9061,-175"/>
<polygon fill="#000000" stroke="#000000" points="392.9062,-178.5001 402.9061,-175 392.9061,-171.5001 392.9062,-178.5001"/>
</g>
</g>
</svg>
