<?xml version="1.0" encoding="UTF-8" standalone="no"?>
<!DOCTYPE svg PUBLIC "-//W3C//DTD SVG 1.1//EN"
 "http://www.w3.org/Graphics/SVG/1.1/DTD/svg11.dtd">
<!-- Generated by graphviz version 2.40.1 (20161225.0304)
 -->
<!-- Title: dependencies Pages: 1 -->
<svg width="2163pt" height="276pt"
 viewBox="0.00 0.00 2163.00 276.00" xmlns="http://www.w3.org/2000/svg" xmlns:xlink="http://www.w3.org/1999/xlink">
<g id="graph0" class="graph" transform="scale(1 1) rotate(0) translate(4 272)">
<title>dependencies</title>
<polygon fill="#ffffff" stroke="transparent" points="-4,4 -4,-272 2159,-272 2159,4 -4,4"/>
<text text-anchor="start" x="1056.5091" y="-42.4" font-family="sans-serif" font-weight="bold" font-size="14.00" fill="#000000">Legend</text>
<polygon fill="#ffffb3" stroke="transparent" points="843.5,-10 843.5,-30 863.5,-30 863.5,-10 843.5,-10"/>
<text text-anchor="start" x="867.129" y="-15.4" font-family="sans-serif" font-size="14.00" fill="#000000"> &#160;Declarations</text>
<polygon fill="#8dd3c7" stroke="transparent" points="956.5,-10 956.5,-30 976.5,-30 976.5,-10 956.5,-10"/>
<text text-anchor="start" x="980.2251" y="-15.4" font-family="sans-serif" font-size="14.00" fill="#000000"> &#160;Module</text>
<polygon fill="#80b1d3" stroke="transparent" points="1042.5,-10 1042.5,-30 1062.5,-30 1062.5,-10 1042.5,-10"/>
<text text-anchor="start" x="1066.2812" y="-15.4" font-family="sans-serif" font-size="14.00" fill="#000000"> &#160;Bootstrap</text>
<polygon fill="#fdb462" stroke="transparent" points="1139.5,-10 1139.5,-30 1159.5,-30 1159.5,-10 1139.5,-10"/>
<text text-anchor="start" x="1163.1732" y="-15.4" font-family="sans-serif" font-size="14.00" fill="#000000"> &#160;Providers</text>
<polygon fill="#fb8072" stroke="transparent" points="1235.5,-10 1235.5,-30 1255.5,-30 1255.5,-10 1235.5,-10"/>
<text text-anchor="start" x="1259.2258" y="-15.4" font-family="sans-serif" font-size="14.00" fill="#000000"> &#160;Exports</text>
<g id="clust1" class="cluster">
<title>cluster_SyntheseModule</title>
<polygon fill="none" stroke="#000000" stroke-dasharray="1,5" points="8,-70 8,-260 2147,-260 2147,-70 8,-70"/>
</g>
<g id="clust2" class="cluster">
<title>cluster_SyntheseModule_declarations</title>
<polygon fill="none" stroke="#000000" points="1213,-143 1213,-195 2139,-195 2139,-143 1213,-143"/>
</g>
<g id="clust3" class="cluster">
<title>cluster_SyntheseModule_SyntheseComponent_providers</title>
<polygon fill="none" stroke="#000000" points="1977,-78 1977,-130 2139,-130 2139,-78 1977,-78"/>
</g>
<g id="clust8" class="cluster">
<title>cluster_SyntheseModule_imports</title>
<polygon fill="none" stroke="#000000" points="1051,-143 1051,-195 1205,-195 1205,-143 1051,-143"/>
</g>
<g id="clust11" class="cluster">
<title>cluster_SyntheseModule_providers</title>
<polygon fill="none" stroke="#000000" points="16,-143 16,-195 1043,-195 1043,-143 16,-143"/>
</g>
<!-- SyntheseComponent -->
<g id="node1" class="node">
<title>SyntheseComponent</title>
<polygon fill="#ffffb3" stroke="#000000" points="2130.8795,-187 1999.1205,-187 1999.1205,-151 2130.8795,-151 2130.8795,-187"/>
<text text-anchor="middle" x="2065" y="-164.8" font-family="Times,serif" font-size="14.00" fill="#000000">SyntheseComponent</text>
</g>
<!-- SyntheseModule -->
<g id="node6" class="node">
<title>SyntheseModule</title>
<polygon fill="#8dd3c7" stroke="#000000" points="1183.0968,-252 1180.0968,-256 1159.0968,-256 1156.0968,-252 1072.9032,-252 1072.9032,-216 1183.0968,-216 1183.0968,-252"/>
<text text-anchor="middle" x="1128" y="-229.8" font-family="Times,serif" font-size="14.00" fill="#000000">SyntheseModule</text>
</g>
<!-- SyntheseComponent&#45;&gt;SyntheseModule -->
<g id="edge1" class="edge">
<title>SyntheseComponent&#45;&gt;SyntheseModule</title>
<path fill="none" stroke="#000000" d="M2065,-187.0908C2065,-210.1328 2065,-247 2065,-247 2065,-247 1193.1155,-247 1193.1155,-247"/>
<polygon fill="#000000" stroke="#000000" points="1193.1155,-243.5001 1183.1155,-247 1193.1154,-250.5001 1193.1155,-243.5001"/>
</g>
<!-- SyntheseListComponent -->
<g id="node2" class="node">
<title>SyntheseListComponent</title>
<polygon fill="#ffffb3" stroke="#000000" points="1980.6582,-187 1827.3418,-187 1827.3418,-151 1980.6582,-151 1980.6582,-187"/>
<text text-anchor="middle" x="1904" y="-164.8" font-family="Times,serif" font-size="14.00" fill="#000000">SyntheseListComponent</text>
</g>
<!-- SyntheseListComponent&#45;&gt;SyntheseModule -->
<g id="edge3" class="edge">
<title>SyntheseListComponent&#45;&gt;SyntheseModule</title>
<path fill="none" stroke="#000000" d="M1904,-187.2843C1904,-208.3211 1904,-240 1904,-240 1904,-240 1193.1859,-240 1193.1859,-240"/>
<polygon fill="#000000" stroke="#000000" points="1193.1859,-236.5001 1183.1859,-240 1193.1859,-243.5001 1193.1859,-236.5001"/>
</g>
<!-- SyntheseCarteComponent -->
<g id="node3" class="node">
<title>SyntheseCarteComponent</title>
<polygon fill="#ffffb3" stroke="#000000" points="1809.1965,-187 1646.8035,-187 1646.8035,-151 1809.1965,-151 1809.1965,-187"/>
<text text-anchor="middle" x="1728" y="-164.8" font-family="Times,serif" font-size="14.00" fill="#000000">SyntheseCarteComponent</text>
</g>
<!-- SyntheseCarteComponent&#45;&gt;SyntheseModule -->
<g id="edge4" class="edge">
<title>SyntheseCarteComponent&#45;&gt;SyntheseModule</title>
<path fill="none" stroke="#000000" d="M1728,-187.1061C1728,-206.3391 1728,-234 1728,-234 1728,-234 1193.1036,-234 1193.1036,-234"/>
<polygon fill="#000000" stroke="#000000" points="1193.1036,-230.5001 1183.1036,-234 1193.1035,-237.5001 1193.1036,-230.5001"/>
</g>
<!-- SyntheseModalDownloadComponent -->
<g id="node4" class="node">
<title>SyntheseModalDownloadComponent</title>
<polygon fill="#ffffb3" stroke="#000000" points="1629.2477,-187 1402.7523,-187 1402.7523,-151 1629.2477,-151 1629.2477,-187"/>
<text text-anchor="middle" x="1516" y="-164.8" font-family="Times,serif" font-size="14.00" fill="#000000">SyntheseModalDownloadComponent</text>
</g>
<!-- SyntheseModalDownloadComponent&#45;&gt;SyntheseModule -->
<g id="edge5" class="edge">
<title>SyntheseModalDownloadComponent&#45;&gt;SyntheseModule</title>
<path fill="none" stroke="#000000" d="M1516,-187.0225C1516,-204.3734 1516,-228 1516,-228 1516,-228 1193.1789,-228 1193.1789,-228"/>
<polygon fill="#000000" stroke="#000000" points="1193.1789,-224.5001 1183.1789,-228 1193.1789,-231.5001 1193.1789,-224.5001"/>
</g>
<!-- ModalInfoObsComponent -->
<g id="node5" class="node">
<title>ModalInfoObsComponent</title>
<polygon fill="#ffffb3" stroke="#000000" points="1384.7548,-187 1221.2452,-187 1221.2452,-151 1384.7548,-151 1384.7548,-187"/>
<text text-anchor="middle" x="1303" y="-164.8" font-family="Times,serif" font-size="14.00" fill="#000000">ModalInfoObsComponent</text>
</g>
<!-- ModalInfoObsComponent&#45;&gt;SyntheseModule -->
<g id="edge6" class="edge">
<title>ModalInfoObsComponent&#45;&gt;SyntheseModule</title>
<path fill="none" stroke="#000000" d="M1303,-187.2396C1303,-202.5706 1303,-222 1303,-222 1303,-222 1193.3711,-222 1193.3711,-222"/>
<polygon fill="#000000" stroke="#000000" points="1193.3711,-218.5001 1183.3711,-222 1193.3711,-225.5001 1193.3711,-218.5001"/>
</g>
<!-- MapListService -->
<g id="node7" class="node">
<title>MapListService</title>
<ellipse fill="#fdb462" stroke="#000000" cx="2058" cy="-104" rx="72.9276" ry="18"/>
<text text-anchor="middle" x="2058" y="-99.8" font-family="Times,serif" font-size="14.00" fill="#000000">MapListService</text>
</g>
<!-- MapListService&#45;&gt;SyntheseComponent -->
<g id="edge2" class="edge">
<title>MapListService&#45;&gt;SyntheseComponent</title>
<path fill="none" stroke="#000000" d="M2064.8869,-122.1061C2064.8869,-122.1061 2064.8869,-140.991 2064.8869,-140.991"/>
<polygon fill="#000000" stroke="#000000" points="2061.387,-140.9909 2064.8869,-150.991 2068.387,-140.991 2061.387,-140.9909"/>
</g>
<!-- GN2CommonModule -->
<g id="node8" class="node">
<title>GN2CommonModule</title>
<polygon fill="#8dd3c7" stroke="#000000" points="1197.3809,-187 1194.3809,-191 1173.3809,-191 1170.3809,-187 1058.6191,-187 1058.6191,-151 1197.3809,-151 1197.3809,-187"/>
<text text-anchor="middle" x="1128" y="-164.8" font-family="Times,serif" font-size="14.00" fill="#000000">GN2CommonModule</text>
</g>
<!-- GN2CommonModule&#45;&gt;SyntheseModule -->
<g id="edge7" class="edge">
<title>GN2CommonModule&#45;&gt;SyntheseModule</title>
<path fill="none" stroke="#000000" d="M1128,-187.1061C1128,-187.1061 1128,-205.991 1128,-205.991"/>
<polygon fill="#000000" stroke="#000000" points="1124.5001,-205.9909 1128,-215.991 1131.5001,-205.991 1124.5001,-205.9909"/>
</g>
<!-- MapService -->
<g id="node9" class="node">
<title>MapService</title>
<ellipse fill="#fdb462" stroke="#000000" cx="977" cy="-169" rx="57.8829" ry="18"/>
<text text-anchor="middle" x="977" y="-164.8" font-family="Times,serif" font-size="14.00" fill="#000000">MapService</text>
</g>
<!-- MapService&#45;&gt;SyntheseModule -->
<g id="edge8" class="edge">
<title>MapService&#45;&gt;SyntheseModule</title>
<path fill="none" stroke="#000000" d="M977,-187.2396C977,-202.5706 977,-222 977,-222 977,-222 1062.6306,-222 1062.6306,-222"/>
<polygon fill="#000000" stroke="#000000" points="1062.6306,-225.5001 1072.6306,-222 1062.6306,-218.5001 1062.6306,-225.5001"/>
</g>
<!-- DynamicFormService -->
<g id="node10" class="node">
<title>DynamicFormService</title>
<ellipse fill="#fdb462" stroke="#000000" cx="805" cy="-169" rx="96.1266" ry="18"/>
<text text-anchor="middle" x="805" y="-164.8" font-family="Times,serif" font-size="14.00" fill="#000000">DynamicFormService</text>
</g>
<!-- DynamicFormService&#45;&gt;SyntheseModule -->
<g id="edge9" class="edge">
<title>DynamicFormService&#45;&gt;SyntheseModule</title>
<path fill="none" stroke="#000000" d="M805,-187.0225C805,-204.3734 805,-228 805,-228 805,-228 1062.8413,-228 1062.8413,-228"/>
<polygon fill="#000000" stroke="#000000" points="1062.8414,-231.5001 1072.8413,-228 1062.8413,-224.5001 1062.8414,-231.5001"/>
</g>
<!-- TaxonAdvancedStoreService -->
<g id="node11" class="node">
<title>TaxonAdvancedStoreService</title>
<ellipse fill="#fdb462" stroke="#000000" cx="566" cy="-169" rx="124.3819" ry="18"/>
<text text-anchor="middle" x="566" y="-164.8" font-family="Times,serif" font-size="14.00" fill="#000000">TaxonAdvancedStoreService</text>
</g>
<!-- TaxonAdvancedStoreService&#45;&gt;SyntheseModule -->
<g id="edge10" class="edge">
<title>TaxonAdvancedStoreService&#45;&gt;SyntheseModule</title>
<path fill="none" stroke="#000000" d="M566,-187.1061C566,-206.3391 566,-234 566,-234 566,-234 1062.8328,-234 1062.8328,-234"/>
<polygon fill="#000000" stroke="#000000" points="1062.8328,-237.5001 1072.8328,-234 1062.8327,-230.5001 1062.8328,-237.5001"/>
</g>
<!-- SyntheseStoreService -->
<g id="node12" class="node">
<title>SyntheseStoreService</title>
<ellipse fill="#fdb462" stroke="#000000" cx="329" cy="-169" rx="95.4811" ry="18"/>
<text text-anchor="middle" x="329" y="-164.8" font-family="Times,serif" font-size="14.00" fill="#000000">SyntheseStoreService</text>
</g>
<!-- SyntheseStoreService&#45;&gt;SyntheseModule -->
<g id="edge11" class="edge">
<title>SyntheseStoreService&#45;&gt;SyntheseModule</title>
<path fill="none" stroke="#000000" d="M329,-187.2843C329,-208.3211 329,-240 329,-240 329,-240 1062.7663,-240 1062.7663,-240"/>
<polygon fill="#000000" stroke="#000000" points="1062.7663,-243.5001 1072.7663,-240 1062.7662,-236.5001 1062.7663,-243.5001"/>
</g>
<!-- SyntheseFormService -->
<g id="node13" class="node">
<title>SyntheseFormService</title>
<ellipse fill="#fdb462" stroke="#000000" cx="120" cy="-169" rx="95.5645" ry="18"/>
<text text-anchor="middle" x="120" y="-164.8" font-family="Times,serif" font-size="14.00" fill="#000000">SyntheseFormService</text>
</g>
<!-- SyntheseFormService&#45;&gt;SyntheseModule -->
<g id="edge12" class="edge">
<title>SyntheseFormService&#45;&gt;SyntheseModule</title>
<path fill="none" stroke="#000000" d="M120,-187.0908C120,-210.1328 120,-247 120,-247 120,-247 1062.7302,-247 1062.7302,-247"/>
<polygon fill="#000000" stroke="#000000" points="1062.7303,-250.5001 1072.7302,-247 1062.7302,-243.5001 1062.7303,-250.5001"/>
</g>
</g>
</svg>
