<?xml version="1.0" encoding="UTF-8" standalone="no"?>
<!DOCTYPE svg PUBLIC "-//W3C//DTD SVG 1.1//EN"
 "http://www.w3.org/Graphics/SVG/1.1/DTD/svg11.dtd">
<!-- Generated by graphviz version 2.44.1 (20200629.0846)
 -->
<!-- Title: dependencies Pages: 1 -->
<svg width="2658pt" height="276pt"
 viewBox="0.00 0.00 2658.00 276.00" xmlns="http://www.w3.org/2000/svg" xmlns:xlink="http://www.w3.org/1999/xlink">
<g id="graph0" class="graph" transform="scale(1 1) rotate(0) translate(4 272)">
<title>dependencies</title>
<polygon fill="white" stroke="transparent" points="-4,4 -4,-272 2654,-272 2654,4 -4,4"/>
<text text-anchor="start" x="1304.01" y="-42.4" font-family="sans-serif" font-weight="bold" font-size="14.00">Legend</text>
<polygon fill="#ffffb3" stroke="transparent" points="1091,-10 1091,-30 1111,-30 1111,-10 1091,-10"/>
<text text-anchor="start" x="1114.63" y="-15.4" font-family="sans-serif" font-size="14.00"> &#160;Declarations</text>
<polygon fill="#8dd3c7" stroke="transparent" points="1204,-10 1204,-30 1224,-30 1224,-10 1204,-10"/>
<text text-anchor="start" x="1227.73" y="-15.4" font-family="sans-serif" font-size="14.00"> &#160;Module</text>
<polygon fill="#80b1d3" stroke="transparent" points="1290,-10 1290,-30 1310,-30 1310,-10 1290,-10"/>
<text text-anchor="start" x="1313.78" y="-15.4" font-family="sans-serif" font-size="14.00"> &#160;Bootstrap</text>
<polygon fill="#fdb462" stroke="transparent" points="1387,-10 1387,-30 1407,-30 1407,-10 1387,-10"/>
<text text-anchor="start" x="1410.67" y="-15.4" font-family="sans-serif" font-size="14.00"> &#160;Providers</text>
<polygon fill="#fb8072" stroke="transparent" points="1483,-10 1483,-30 1503,-30 1503,-10 1483,-10"/>
<text text-anchor="start" x="1506.73" y="-15.4" font-family="sans-serif" font-size="14.00"> &#160;Exports</text>
<g id="clust1" class="cluster">
<title>cluster_SyntheseModule</title>
<polygon fill="none" stroke="black" stroke-dasharray="1,5" points="8,-70 8,-260 2642,-260 2642,-70 8,-70"/>
</g>
<g id="clust7" class="cluster">
<title>cluster_SyntheseModule_imports</title>
<polygon fill="none" stroke="black" points="1823,-143 1823,-195 2634,-195 2634,-143 1823,-143"/>
</g>
<g id="clust3" class="cluster">
<title>cluster_SyntheseModule_SyntheseComponent_providers</title>
<polygon fill="none" stroke="black" points="1653,-78 1653,-195 1815,-195 1815,-78 1653,-78"/>
</g>
<g id="clust2" class="cluster">
<title>cluster_SyntheseModule_declarations</title>
<polygon fill="none" stroke="black" points="1051,-143 1051,-195 1645,-195 1645,-143 1051,-143"/>
</g>
<g id="clust10" class="cluster">
<title>cluster_SyntheseModule_providers</title>
<polygon fill="none" stroke="black" points="16,-143 16,-195 1043,-195 1043,-143 16,-143"/>
</g>
<!-- SyntheseComponent -->
<g id="node1" class="node">
<title>SyntheseComponent</title>
<polygon fill="#ffffb3" stroke="black" points="1795.88,-187 1664.12,-187 1664.12,-151 1795.88,-151 1795.88,-187"/>
<text text-anchor="middle" x="1730" y="-164.8" font-family="Times,serif" font-size="14.00">SyntheseComponent</text>
</g>
<!-- SyntheseModule -->
<g id="node5" class="node">
<title>SyntheseModule</title>
<polygon fill="#8dd3c7" stroke="black" points="1527.1,-252 1524.1,-256 1503.1,-256 1500.1,-252 1416.9,-252 1416.9,-216 1527.1,-216 1527.1,-252"/>
<text text-anchor="middle" x="1472" y="-229.8" font-family="Times,serif" font-size="14.00">SyntheseModule</text>
</g>
<!-- SyntheseComponent&#45;&gt;SyntheseModule -->
<g id="edge1" class="edge">
<title>SyntheseComponent&#45;&gt;SyntheseModule</title>
<path fill="none" stroke="black" d="M1730,-187.24C1730,-202.57 1730,-222 1730,-222 1730,-222 1537.35,-222 1537.35,-222"/>
<polygon fill="black" stroke="black" points="1537.35,-218.5 1527.35,-222 1537.35,-225.5 1537.35,-218.5"/>
</g>
<!-- SyntheseListComponent -->
<g id="node2" class="node">
<title>SyntheseListComponent</title>
<polygon fill="#ffffb3" stroke="black" points="1636.66,-187 1483.34,-187 1483.34,-151 1636.66,-151 1636.66,-187"/>
<text text-anchor="middle" x="1560" y="-164.8" font-family="Times,serif" font-size="14.00">SyntheseListComponent</text>
</g>
<!-- SyntheseListComponent&#45;&gt;SyntheseModule -->
<g id="edge3" class="edge">
<title>SyntheseListComponent&#45;&gt;SyntheseModule</title>
<path fill="none" stroke="black" d="M1505.11,-187.11C1505.11,-187.11 1505.11,-205.99 1505.11,-205.99"/>
<polygon fill="black" stroke="black" points="1501.61,-205.99 1505.11,-215.99 1508.61,-205.99 1501.61,-205.99"/>
</g>
<!-- SyntheseCarteComponent -->
<g id="node3" class="node">
<title>SyntheseCarteComponent</title>
<polygon fill="#ffffb3" stroke="black" points="1465.2,-187 1302.8,-187 1302.8,-151 1465.2,-151 1465.2,-187"/>
<text text-anchor="middle" x="1384" y="-164.8" font-family="Times,serif" font-size="14.00">SyntheseCarteComponent</text>
</g>
<!-- SyntheseCarteComponent&#45;&gt;SyntheseModule -->
<g id="edge4" class="edge">
<title>SyntheseCarteComponent&#45;&gt;SyntheseModule</title>
<path fill="none" stroke="black" d="M1441.02,-187.11C1441.02,-187.11 1441.02,-205.99 1441.02,-205.99"/>
<polygon fill="black" stroke="black" points="1437.52,-205.99 1441.02,-215.99 1444.52,-205.99 1437.52,-205.99"/>
</g>
<!-- SyntheseModalDownloadComponent -->
<g id="node4" class="node">
<title>SyntheseModalDownloadComponent</title>
<polygon fill="#ffffb3" stroke="black" points="1285.25,-187 1058.75,-187 1058.75,-151 1285.25,-151 1285.25,-187"/>
<text text-anchor="middle" x="1172" y="-164.8" font-family="Times,serif" font-size="14.00">SyntheseModalDownloadComponent</text>
</g>
<!-- SyntheseModalDownloadComponent&#45;&gt;SyntheseModule -->
<g id="edge5" class="edge">
<title>SyntheseModalDownloadComponent&#45;&gt;SyntheseModule</title>
<path fill="none" stroke="black" d="M1172,-187.24C1172,-202.57 1172,-222 1172,-222 1172,-222 1406.63,-222 1406.63,-222"/>
<polygon fill="black" stroke="black" points="1406.63,-225.5 1416.63,-222 1406.63,-218.5 1406.63,-225.5"/>
</g>
<!-- MapListService -->
<g id="node6" class="node">
<title>MapListService</title>
<ellipse fill="#fdb462" stroke="black" cx="1734" cy="-104" rx="72.93" ry="18"/>
<text text-anchor="middle" x="1734" y="-99.8" font-family="Times,serif" font-size="14.00">MapListService</text>
</g>
<!-- MapListService&#45;&gt;SyntheseComponent -->
<g id="edge2" class="edge">
<title>MapListService&#45;&gt;SyntheseComponent</title>
<path fill="none" stroke="black" d="M1730,-122.11C1730,-122.11 1730,-140.99 1730,-140.99"/>
<polygon fill="black" stroke="black" points="1726.5,-140.99 1730,-150.99 1733.5,-140.99 1726.5,-140.99"/>
</g>
<!-- RouterModule.forChild(args) -->
<g id="node7" class="node">
<title>RouterModule.forChild(args)</title>
<polygon fill="#8dd3c7" stroke="black" points="2625.73,-187 2622.73,-191 2601.73,-191 2598.73,-187 2444.27,-187 2444.27,-151 2625.73,-151 2625.73,-187"/>
<text text-anchor="middle" x="2535" y="-164.8" font-family="Times,serif" font-size="14.00">RouterModule.forChild(args)</text>
</g>
<!-- RouterModule.forChild(args)&#45;&gt;SyntheseModule -->
<g id="edge6" class="edge">
<title>RouterModule.forChild(args)&#45;&gt;SyntheseModule</title>
<path fill="none" stroke="black" d="M2535,-187.09C2535,-210.13 2535,-247 2535,-247 2535,-247 1537.28,-247 1537.28,-247"/>
<polygon fill="black" stroke="black" points="1537.28,-243.5 1527.28,-247 1537.28,-250.5 1537.28,-243.5"/>
</g>
<!-- GN2CommonModule -->
<g id="node8" class="node">
<title>GN2CommonModule</title>
<polygon fill="#8dd3c7" stroke="black" points="2426.38,-187 2423.38,-191 2402.38,-191 2399.38,-187 2287.62,-187 2287.62,-151 2426.38,-151 2426.38,-187"/>
<text text-anchor="middle" x="2357" y="-164.8" font-family="Times,serif" font-size="14.00">GN2CommonModule</text>
</g>
<!-- GN2CommonModule&#45;&gt;SyntheseModule -->
<g id="edge7" class="edge">
<title>GN2CommonModule&#45;&gt;SyntheseModule</title>
<path fill="none" stroke="black" d="M2357,-187.04C2357,-208.66 2357,-242 2357,-242 2357,-242 1537.36,-242 1537.36,-242"/>
<polygon fill="black" stroke="black" points="1537.36,-238.5 1527.36,-242 1537.36,-245.5 1537.36,-238.5"/>
</g>
<!-- SharedSyntheseModule -->
<g id="node9" class="node">
<title>SharedSyntheseModule</title>
<polygon fill="#8dd3c7" stroke="black" points="2269.47,-187 2266.47,-191 2245.47,-191 2242.47,-187 2120.53,-187 2120.53,-151 2269.47,-151 2269.47,-187"/>
<text text-anchor="middle" x="2195" y="-164.8" font-family="Times,serif" font-size="14.00">SharedSyntheseModule</text>
</g>
<!-- SharedSyntheseModule&#45;&gt;SyntheseModule -->
<g id="edge8" class="edge">
<title>SharedSyntheseModule&#45;&gt;SyntheseModule</title>
<path fill="none" stroke="black" d="M2195,-187.22C2195,-207.37 2195,-237 2195,-237 2195,-237 1537.23,-237 1537.23,-237"/>
<polygon fill="black" stroke="black" points="1537.23,-233.5 1527.23,-237 1537.23,-240.5 1537.23,-233.5"/>
</g>
<!-- CommonModule -->
<g id="node10" class="node">
<title>CommonModule</title>
<polygon fill="#8dd3c7" stroke="black" points="2102.67,-187 2099.67,-191 2078.67,-191 2075.67,-187 1991.33,-187 1991.33,-151 2102.67,-151 2102.67,-187"/>
<text text-anchor="middle" x="2047" y="-164.8" font-family="Times,serif" font-size="14.00">CommonModule</text>
</g>
<!-- CommonModule&#45;&gt;SyntheseModule -->
<g id="edge9" class="edge">
<title>CommonModule&#45;&gt;SyntheseModule</title>
<path fill="none" stroke="black" d="M2047,-187.22C2047,-205.83 2047,-232 2047,-232 2047,-232 1537.13,-232 1537.13,-232"/>
<polygon fill="black" stroke="black" points="1537.13,-228.5 1527.13,-232 1537.13,-235.5 1537.13,-228.5"/>
</g>
<!-- TreeModule.forRoot() -->
<g id="node11" class="node">
<title>TreeModule.forRoot()</title>
<polygon fill="#8dd3c7" stroke="black" points="1972.56,-187 1969.56,-191 1948.56,-191 1945.56,-187 1831.44,-187 1831.44,-151 1972.56,-151 1972.56,-187"/>
<text text-anchor="middle" x="1902" y="-164.8" font-family="Times,serif" font-size="14.00">TreeModule.forRoot()</text>
</g>
<!-- TreeModule.forRoot()&#45;&gt;SyntheseModule -->
<g id="edge10" class="edge">
<title>TreeModule.forRoot()&#45;&gt;SyntheseModule</title>
<path fill="none" stroke="black" d="M1902,-187.03C1902,-204.06 1902,-227 1902,-227 1902,-227 1537.33,-227 1537.33,-227"/>
<polygon fill="black" stroke="black" points="1537.33,-223.5 1527.33,-227 1537.33,-230.5 1537.33,-223.5"/>
</g>
<!-- MapService -->
<g id="node12" class="node">
<title>MapService</title>
<ellipse fill="#fdb462" stroke="black" cx="977" cy="-169" rx="57.88" ry="18"/>
<text text-anchor="middle" x="977" y="-164.8" font-family="Times,serif" font-size="14.00">MapService</text>
</g>
<!-- MapService&#45;&gt;SyntheseModule -->
<g id="edge11" class="edge">
<title>MapService&#45;&gt;SyntheseModule</title>
<path fill="none" stroke="black" d="M977,-187.03C977,-204.06 977,-227 977,-227 977,-227 1406.66,-227 1406.66,-227"/>
<polygon fill="black" stroke="black" points="1406.66,-230.5 1416.66,-227 1406.66,-223.5 1406.66,-230.5"/>
</g>
<!-- DynamicFormService -->
<g id="node13" class="node">
<title>DynamicFormService</title>
<ellipse fill="#fdb462" stroke="black" cx="805" cy="-169" rx="96.13" ry="18"/>
<text text-anchor="middle" x="805" y="-164.8" font-family="Times,serif" font-size="14.00">DynamicFormService</text>
</g>
<!-- DynamicFormService&#45;&gt;SyntheseModule -->
<g id="edge12" class="edge">
<title>DynamicFormService&#45;&gt;SyntheseModule</title>
<path fill="none" stroke="black" d="M805,-187.22C805,-205.83 805,-232 805,-232 805,-232 1406.85,-232 1406.85,-232"/>
<polygon fill="black" stroke="black" points="1406.85,-235.5 1416.85,-232 1406.85,-228.5 1406.85,-235.5"/>
</g>
<!-- TaxonAdvancedStoreService -->
<g id="node14" class="node">
<title>TaxonAdvancedStoreService</title>
<ellipse fill="#fdb462" stroke="black" cx="566" cy="-169" rx="124.38" ry="18"/>
<text text-anchor="middle" x="566" y="-164.8" font-family="Times,serif" font-size="14.00">TaxonAdvancedStoreService</text>
</g>
<!-- TaxonAdvancedStoreService&#45;&gt;SyntheseModule -->
<g id="edge13" class="edge">
<title>TaxonAdvancedStoreService&#45;&gt;SyntheseModule</title>
<path fill="none" stroke="black" d="M566,-187.22C566,-207.37 566,-237 566,-237 566,-237 1406.69,-237 1406.69,-237"/>
<polygon fill="black" stroke="black" points="1406.69,-240.5 1416.69,-237 1406.69,-233.5 1406.69,-240.5"/>
</g>
<!-- SyntheseStoreService -->
<g id="node15" class="node">
<title>SyntheseStoreService</title>
<ellipse fill="#fdb462" stroke="black" cx="329" cy="-169" rx="95.48" ry="18"/>
<text text-anchor="middle" x="329" y="-164.8" font-family="Times,serif" font-size="14.00">SyntheseStoreService</text>
</g>
<!-- SyntheseStoreService&#45;&gt;SyntheseModule -->
<g id="edge14" class="edge">
<title>SyntheseStoreService&#45;&gt;SyntheseModule</title>
<path fill="none" stroke="black" d="M329,-187.04C329,-208.66 329,-242 329,-242 329,-242 1406.87,-242 1406.87,-242"/>
<polygon fill="black" stroke="black" points="1406.87,-245.5 1416.87,-242 1406.87,-238.5 1406.87,-245.5"/>
</g>
<!-- SyntheseFormService -->
<g id="node16" class="node">
<title>SyntheseFormService</title>
<ellipse fill="#fdb462" stroke="black" cx="120" cy="-169" rx="95.56" ry="18"/>
<text text-anchor="middle" x="120" y="-164.8" font-family="Times,serif" font-size="14.00">SyntheseFormService</text>
</g>
<!-- SyntheseFormService&#45;&gt;SyntheseModule -->
<g id="edge15" class="edge">
<title>SyntheseFormService&#45;&gt;SyntheseModule</title>
<path fill="none" stroke="black" d="M120,-187.09C120,-210.13 120,-247 120,-247 120,-247 1406.9,-247 1406.9,-247"/>
<polygon fill="black" stroke="black" points="1406.9,-250.5 1416.9,-247 1406.9,-243.5 1406.9,-250.5"/>
</g>
</g>
</svg>
