<?xml version="1.0" encoding="UTF-8" standalone="no"?>
<!DOCTYPE svg PUBLIC "-//W3C//DTD SVG 1.1//EN"
 "http://www.w3.org/Graphics/SVG/1.1/DTD/svg11.dtd">
<!-- Generated by graphviz version 2.46.0 (20210119.1425)
 -->
<!-- Title: dependencies Pages: 1 -->
<svg width="2146pt" height="276pt"
 viewBox="0.00 0.00 2146.00 276.00" xmlns="http://www.w3.org/2000/svg" xmlns:xlink="http://www.w3.org/1999/xlink">
<g id="graph0" class="graph" transform="scale(1 1) rotate(0) translate(4 272)">
<title>dependencies</title>
<polygon fill="white" stroke="transparent" points="-4,4 -4,-272 2142,-272 2142,4 -4,4"/>
<text text-anchor="start" x="1048.01" y="-42.4" font-family="sans-serif" font-weight="bold" font-size="14.00">Legend</text>
<polygon fill="#ffffb3" stroke="transparent" points="835,-10 835,-30 855,-30 855,-10 835,-10"/>
<text text-anchor="start" x="858.63" y="-15.4" font-family="sans-serif" font-size="14.00"> &#160;Declarations</text>
<polygon fill="#8dd3c7" stroke="transparent" points="948,-10 948,-30 968,-30 968,-10 948,-10"/>
<text text-anchor="start" x="971.73" y="-15.4" font-family="sans-serif" font-size="14.00"> &#160;Module</text>
<polygon fill="#80b1d3" stroke="transparent" points="1034,-10 1034,-30 1054,-30 1054,-10 1034,-10"/>
<text text-anchor="start" x="1057.78" y="-15.4" font-family="sans-serif" font-size="14.00"> &#160;Bootstrap</text>
<polygon fill="#fdb462" stroke="transparent" points="1131,-10 1131,-30 1151,-30 1151,-10 1131,-10"/>
<text text-anchor="start" x="1154.67" y="-15.4" font-family="sans-serif" font-size="14.00"> &#160;Providers</text>
<polygon fill="#fb8072" stroke="transparent" points="1227,-10 1227,-30 1247,-30 1247,-10 1227,-10"/>
<text text-anchor="start" x="1250.73" y="-15.4" font-family="sans-serif" font-size="14.00"> &#160;Exports</text>
<g id="clust1" class="cluster">
<title>cluster_SyntheseModule</title>
<polygon fill="none" stroke="black" stroke-dasharray="1,5" points="8,-70 8,-260 2130,-260 2130,-70 8,-70"/>
</g>
<g id="clust2" class="cluster">
<title>cluster_SyntheseModule_declarations</title>
<polygon fill="none" stroke="black" points="1378,-143 1378,-195 2122,-195 2122,-143 1378,-143"/>
</g>
<g id="clust4" class="cluster">
<title>cluster_SyntheseModule_SyntheseComponent_providers</title>
<polygon fill="none" stroke="black" points="1787,-78 1787,-130 1949,-130 1949,-78 1787,-78"/>
</g>
<g id="clust7" class="cluster">
<title>cluster_SyntheseModule_imports</title>
<polygon fill="none" stroke="black" points="1049,-143 1049,-195 1370,-195 1370,-143 1049,-143"/>
</g>
<g id="clust10" class="cluster">
<title>cluster_SyntheseModule_providers</title>
<polygon fill="none" stroke="black" points="16,-143 16,-195 1041,-195 1041,-143 16,-143"/>
</g>
<!-- SyntheseCarteComponent -->
<g id="node1" class="node">
<title>SyntheseCarteComponent</title>
<polygon fill="#ffffb3" stroke="black" points="2114.2,-187 1951.8,-187 1951.8,-151 2114.2,-151 2114.2,-187"/>
<text text-anchor="middle" x="2033" y="-164.8" font-family="Times,serif" font-size="14.00">SyntheseCarteComponent</text>
</g>
<!-- SyntheseModule -->
<g id="node5" class="node">
<title>SyntheseModule</title>
<polygon fill="#8dd3c7" stroke="black" points="1186.1,-252 1183.1,-256 1162.1,-256 1159.1,-252 1075.9,-252 1075.9,-216 1186.1,-216 1186.1,-252"/>
<text text-anchor="middle" x="1131" y="-229.8" font-family="Times,serif" font-size="14.00">SyntheseModule</text>
</g>
<!-- SyntheseCarteComponent&#45;&gt;SyntheseModule -->
<g id="edge1" class="edge">
<title>SyntheseCarteComponent&#45;&gt;SyntheseModule</title>
<path fill="none" stroke="black" d="M2033,-187.09C2033,-210.13 2033,-247 2033,-247 2033,-247 1196.07,-247 1196.07,-247"/>
<polygon fill="black" stroke="black" points="1196.07,-243.5 1186.07,-247 1196.07,-250.5 1196.07,-243.5"/>
</g>
<!-- SyntheseComponent -->
<g id="node2" class="node">
<title>SyntheseComponent</title>
<polygon fill="#ffffb3" stroke="black" points="1933.88,-187 1802.12,-187 1802.12,-151 1933.88,-151 1933.88,-187"/>
<text text-anchor="middle" x="1868" y="-164.8" font-family="Times,serif" font-size="14.00">SyntheseComponent</text>
</g>
<!-- SyntheseComponent&#45;&gt;SyntheseModule -->
<g id="edge2" class="edge">
<title>SyntheseComponent&#45;&gt;SyntheseModule</title>
<path fill="none" stroke="black" d="M1868,-187.28C1868,-208.32 1868,-240 1868,-240 1868,-240 1196.09,-240 1196.09,-240"/>
<polygon fill="black" stroke="black" points="1196.09,-236.5 1186.09,-240 1196.09,-243.5 1196.09,-236.5"/>
</g>
<!-- SyntheseListComponent -->
<g id="node3" class="node">
<title>SyntheseListComponent</title>
<polygon fill="#ffffb3" stroke="black" points="1783.66,-187 1630.34,-187 1630.34,-151 1783.66,-151 1783.66,-187"/>
<text text-anchor="middle" x="1707" y="-164.8" font-family="Times,serif" font-size="14.00">SyntheseListComponent</text>
</g>
<!-- SyntheseListComponent&#45;&gt;SyntheseModule -->
<g id="edge4" class="edge">
<title>SyntheseListComponent&#45;&gt;SyntheseModule</title>
<path fill="none" stroke="black" d="M1707,-187.11C1707,-206.34 1707,-234 1707,-234 1707,-234 1196.23,-234 1196.23,-234"/>
<polygon fill="black" stroke="black" points="1196.23,-230.5 1186.23,-234 1196.23,-237.5 1196.23,-230.5"/>
</g>
<!-- SyntheseModalDownloadComponent -->
<g id="node4" class="node">
<title>SyntheseModalDownloadComponent</title>
<polygon fill="#ffffb3" stroke="black" points="1612.25,-187 1385.75,-187 1385.75,-151 1612.25,-151 1612.25,-187"/>
<text text-anchor="middle" x="1499" y="-164.8" font-family="Times,serif" font-size="14.00">SyntheseModalDownloadComponent</text>
</g>
<!-- SyntheseModalDownloadComponent&#45;&gt;SyntheseModule -->
<g id="edge5" class="edge">
<title>SyntheseModalDownloadComponent&#45;&gt;SyntheseModule</title>
<path fill="none" stroke="black" d="M1499,-187.02C1499,-204.37 1499,-228 1499,-228 1499,-228 1196.09,-228 1196.09,-228"/>
<polygon fill="black" stroke="black" points="1196.09,-224.5 1186.09,-228 1196.09,-231.5 1196.09,-224.5"/>
</g>
<!-- MapListService -->
<g id="node6" class="node">
<title>MapListService</title>
<ellipse fill="#fdb462" stroke="black" cx="1868" cy="-104" rx="72.93" ry="18"/>
<text text-anchor="middle" x="1868" y="-99.8" font-family="Times,serif" font-size="14.00">MapListService</text>
</g>
<!-- MapListService&#45;&gt;SyntheseComponent -->
<g id="edge3" class="edge">
<title>MapListService&#45;&gt;SyntheseComponent</title>
<path fill="none" stroke="black" d="M1868,-122.11C1868,-122.11 1868,-140.99 1868,-140.99"/>
<polygon fill="black" stroke="black" points="1864.5,-140.99 1868,-150.99 1871.5,-140.99 1864.5,-140.99"/>
</g>
<!-- GN2CommonModule -->
<g id="node7" class="node">
<title>GN2CommonModule</title>
<polygon fill="#8dd3c7" stroke="black" points="1362.38,-187 1359.38,-191 1338.38,-191 1335.38,-187 1223.62,-187 1223.62,-151 1362.38,-151 1362.38,-187"/>
<text text-anchor="middle" x="1293" y="-164.8" font-family="Times,serif" font-size="14.00">GN2CommonModule</text>
</g>
<!-- GN2CommonModule&#45;&gt;SyntheseModule -->
<g id="edge6" class="edge">
<title>GN2CommonModule&#45;&gt;SyntheseModule</title>
<path fill="none" stroke="black" d="M1293,-187.24C1293,-202.57 1293,-222 1293,-222 1293,-222 1196.3,-222 1196.3,-222"/>
<polygon fill="black" stroke="black" points="1196.3,-218.5 1186.3,-222 1196.3,-225.5 1196.3,-218.5"/>
</g>
<!-- SharedSyntheseModule -->
<g id="node8" class="node">
<title>SharedSyntheseModule</title>
<polygon fill="#8dd3c7" stroke="black" points="1205.47,-187 1202.47,-191 1181.47,-191 1178.47,-187 1056.53,-187 1056.53,-151 1205.47,-151 1205.47,-187"/>
<text text-anchor="middle" x="1131" y="-164.8" font-family="Times,serif" font-size="14.00">SharedSyntheseModule</text>
</g>
<!-- SharedSyntheseModule&#45;&gt;SyntheseModule -->
<g id="edge7" class="edge">
<title>SharedSyntheseModule&#45;&gt;SyntheseModule</title>
<path fill="none" stroke="black" d="M1131,-187.11C1131,-187.11 1131,-205.99 1131,-205.99"/>
<polygon fill="black" stroke="black" points="1127.5,-205.99 1131,-215.99 1134.5,-205.99 1127.5,-205.99"/>
</g>
<!-- DynamicFormService -->
<g id="node9" class="node">
<title>DynamicFormService</title>
<ellipse fill="#fdb462" stroke="black" cx="937" cy="-169" rx="96.13" ry="18"/>
<text text-anchor="middle" x="937" y="-164.8" font-family="Times,serif" font-size="14.00">DynamicFormService</text>
</g>
<!-- DynamicFormService&#45;&gt;SyntheseModule -->
<g id="edge8" class="edge">
<title>DynamicFormService&#45;&gt;SyntheseModule</title>
<path fill="none" stroke="black" d="M937,-187.24C937,-202.57 937,-222 937,-222 937,-222 1065.93,-222 1065.93,-222"/>
<polygon fill="black" stroke="black" points="1065.93,-225.5 1075.93,-222 1065.93,-218.5 1065.93,-225.5"/>
</g>
<!-- MapService -->
<g id="node10" class="node">
<title>MapService</title>
<ellipse fill="#fdb462" stroke="black" cx="765" cy="-169" rx="57.88" ry="18"/>
<text text-anchor="middle" x="765" y="-164.8" font-family="Times,serif" font-size="14.00">MapService</text>
</g>
<!-- MapService&#45;&gt;SyntheseModule -->
<g id="edge9" class="edge">
<title>MapService&#45;&gt;SyntheseModule</title>
<path fill="none" stroke="black" d="M765,-187.02C765,-204.37 765,-228 765,-228 765,-228 1065.81,-228 1065.81,-228"/>
<polygon fill="black" stroke="black" points="1065.81,-231.5 1075.81,-228 1065.81,-224.5 1065.81,-231.5"/>
</g>
<!-- SyntheseFormService -->
<g id="node11" class="node">
<title>SyntheseFormService</title>
<ellipse fill="#fdb462" stroke="black" cx="594" cy="-169" rx="95.56" ry="18"/>
<text text-anchor="middle" x="594" y="-164.8" font-family="Times,serif" font-size="14.00">SyntheseFormService</text>
</g>
<!-- SyntheseFormService&#45;&gt;SyntheseModule -->
<g id="edge10" class="edge">
<title>SyntheseFormService&#45;&gt;SyntheseModule</title>
<path fill="none" stroke="black" d="M594,-187.11C594,-206.34 594,-234 594,-234 594,-234 1065.55,-234 1065.55,-234"/>
<polygon fill="black" stroke="black" points="1065.55,-237.5 1075.55,-234 1065.55,-230.5 1065.55,-237.5"/>
</g>
<!-- SyntheseStoreService -->
<g id="node12" class="node">
<title>SyntheseStoreService</title>
<ellipse fill="#fdb462" stroke="black" cx="385" cy="-169" rx="95.48" ry="18"/>
<text text-anchor="middle" x="385" y="-164.8" font-family="Times,serif" font-size="14.00">SyntheseStoreService</text>
</g>
<!-- SyntheseStoreService&#45;&gt;SyntheseModule -->
<g id="edge11" class="edge">
<title>SyntheseStoreService&#45;&gt;SyntheseModule</title>
<path fill="none" stroke="black" d="M385,-187.28C385,-208.32 385,-240 385,-240 385,-240 1065.84,-240 1065.84,-240"/>
<polygon fill="black" stroke="black" points="1065.84,-243.5 1075.84,-240 1065.84,-236.5 1065.84,-243.5"/>
</g>
<!-- TaxonAdvancedStoreService -->
<g id="node13" class="node">
<title>TaxonAdvancedStoreService</title>
<ellipse fill="#fdb462" stroke="black" cx="148" cy="-169" rx="124.38" ry="18"/>
<text text-anchor="middle" x="148" y="-164.8" font-family="Times,serif" font-size="14.00">TaxonAdvancedStoreService</text>
</g>
<!-- TaxonAdvancedStoreService&#45;&gt;SyntheseModule -->
<g id="edge12" class="edge">
<title>TaxonAdvancedStoreService&#45;&gt;SyntheseModule</title>
<path fill="none" stroke="black" d="M148,-187.09C148,-210.13 148,-247 148,-247 148,-247 1065.69,-247 1065.69,-247"/>
<polygon fill="black" stroke="black" points="1065.69,-250.5 1075.69,-247 1065.69,-243.5 1065.69,-250.5"/>
</g>
</g>
</svg>
