<?xml version="1.0" encoding="UTF-8" standalone="no"?>
<!DOCTYPE svg PUBLIC "-//W3C//DTD SVG 1.1//EN"
 "http://www.w3.org/Graphics/SVG/1.1/DTD/svg11.dtd">
<!-- Generated by graphviz version 2.40.1 (20161225.0304)
 -->
<!-- Title: dependencies Pages: 1 -->
<svg width="2148pt" height="276pt"
 viewBox="0.00 0.00 2148.00 276.00" xmlns="http://www.w3.org/2000/svg" xmlns:xlink="http://www.w3.org/1999/xlink">
<g id="graph0" class="graph" transform="scale(1 1) rotate(0) translate(4 272)">
<title>dependencies</title>
<polygon fill="#ffffff" stroke="transparent" points="-4,4 -4,-272 2144,-272 2144,4 -4,4"/>
<text text-anchor="start" x="1049.0091" y="-42.4" font-family="sans-serif" font-weight="bold" font-size="14.00" fill="#000000">Legend</text>
<polygon fill="#ffffb3" stroke="transparent" points="836,-10 836,-30 856,-30 856,-10 836,-10"/>
<text text-anchor="start" x="859.629" y="-15.4" font-family="sans-serif" font-size="14.00" fill="#000000"> &#160;Declarations</text>
<polygon fill="#8dd3c7" stroke="transparent" points="949,-10 949,-30 969,-30 969,-10 949,-10"/>
<text text-anchor="start" x="972.7251" y="-15.4" font-family="sans-serif" font-size="14.00" fill="#000000"> &#160;Module</text>
<polygon fill="#80b1d3" stroke="transparent" points="1035,-10 1035,-30 1055,-30 1055,-10 1035,-10"/>
<text text-anchor="start" x="1058.7812" y="-15.4" font-family="sans-serif" font-size="14.00" fill="#000000"> &#160;Bootstrap</text>
<polygon fill="#fdb462" stroke="transparent" points="1132,-10 1132,-30 1152,-30 1152,-10 1132,-10"/>
<text text-anchor="start" x="1155.6732" y="-15.4" font-family="sans-serif" font-size="14.00" fill="#000000"> &#160;Providers</text>
<polygon fill="#fb8072" stroke="transparent" points="1228,-10 1228,-30 1248,-30 1248,-10 1228,-10"/>
<text text-anchor="start" x="1251.7258" y="-15.4" font-family="sans-serif" font-size="14.00" fill="#000000"> &#160;Exports</text>
<g id="clust1" class="cluster">
<title>cluster_SyntheseModule</title>
<polygon fill="none" stroke="#000000" stroke-dasharray="1,5" points="8,-70 8,-260 2132,-260 2132,-70 8,-70"/>
</g>
<g id="clust2" class="cluster">
<title>cluster_SyntheseModule_declarations</title>
<polygon fill="none" stroke="#000000" points="1380,-143 1380,-195 2124,-195 2124,-143 1380,-143"/>
</g>
<g id="clust3" class="cluster">
<title>cluster_SyntheseModule_SyntheseComponent_providers</title>
<polygon fill="none" stroke="#000000" points="1962,-78 1962,-130 2124,-130 2124,-78 1962,-78"/>
</g>
<g id="clust7" class="cluster">
<title>cluster_SyntheseModule_imports</title>
<polygon fill="none" stroke="#000000" points="1051,-143 1051,-195 1372,-195 1372,-143 1051,-143"/>
</g>
<g id="clust10" class="cluster">
<title>cluster_SyntheseModule_providers</title>
<polygon fill="none" stroke="#000000" points="16,-143 16,-195 1043,-195 1043,-143 16,-143"/>
</g>
<!-- SyntheseComponent -->
<g id="node1" class="node">
<title>SyntheseComponent</title>
<polygon fill="#ffffb3" stroke="#000000" points="2115.8795,-187 1984.1205,-187 1984.1205,-151 2115.8795,-151 2115.8795,-187"/>
<text text-anchor="middle" x="2050" y="-164.8" font-family="Times,serif" font-size="14.00" fill="#000000">SyntheseComponent</text>
</g>
<!-- SyntheseModule -->
<g id="node5" class="node">
<title>SyntheseModule</title>
<polygon fill="#8dd3c7" stroke="#000000" points="1188.0968,-252 1185.0968,-256 1164.0968,-256 1161.0968,-252 1077.9032,-252 1077.9032,-216 1188.0968,-216 1188.0968,-252"/>
<text text-anchor="middle" x="1133" y="-229.8" font-family="Times,serif" font-size="14.00" fill="#000000">SyntheseModule</text>
</g>
<!-- SyntheseComponent&#45;&gt;SyntheseModule -->
<g id="edge1" class="edge">
<title>SyntheseComponent&#45;&gt;SyntheseModule</title>
<path fill="none" stroke="#000000" d="M2050,-187.0908C2050,-210.1328 2050,-247 2050,-247 2050,-247 1198.2974,-247 1198.2974,-247"/>
<polygon fill="#000000" stroke="#000000" points="1198.2974,-243.5001 1188.2974,-247 1198.2973,-250.5001 1198.2974,-243.5001"/>
</g>
<!-- SyntheseListComponent -->
<g id="node2" class="node">
<title>SyntheseListComponent</title>
<polygon fill="#ffffb3" stroke="#000000" points="1965.6582,-187 1812.3418,-187 1812.3418,-151 1965.6582,-151 1965.6582,-187"/>
<text text-anchor="middle" x="1889" y="-164.8" font-family="Times,serif" font-size="14.00" fill="#000000">SyntheseListComponent</text>
</g>
<!-- SyntheseListComponent&#45;&gt;SyntheseModule -->
<g id="edge3" class="edge">
<title>SyntheseListComponent&#45;&gt;SyntheseModule</title>
<path fill="none" stroke="#000000" d="M1889,-187.2843C1889,-208.3211 1889,-240 1889,-240 1889,-240 1198.2842,-240 1198.2842,-240"/>
<polygon fill="#000000" stroke="#000000" points="1198.2842,-236.5001 1188.2842,-240 1198.2842,-243.5001 1198.2842,-236.5001"/>
</g>
<!-- SyntheseCarteComponent -->
<g id="node3" class="node">
<title>SyntheseCarteComponent</title>
<polygon fill="#ffffb3" stroke="#000000" points="1794.1965,-187 1631.8035,-187 1631.8035,-151 1794.1965,-151 1794.1965,-187"/>
<text text-anchor="middle" x="1713" y="-164.8" font-family="Times,serif" font-size="14.00" fill="#000000">SyntheseCarteComponent</text>
</g>
<!-- SyntheseCarteComponent&#45;&gt;SyntheseModule -->
<g id="edge4" class="edge">
<title>SyntheseCarteComponent&#45;&gt;SyntheseModule</title>
<path fill="none" stroke="#000000" d="M1713,-187.1061C1713,-206.3391 1713,-234 1713,-234 1713,-234 1198.0879,-234 1198.0879,-234"/>
<polygon fill="#000000" stroke="#000000" points="1198.0879,-230.5001 1188.0879,-234 1198.0879,-237.5001 1198.0879,-230.5001"/>
</g>
<!-- SyntheseModalDownloadComponent -->
<g id="node4" class="node">
<title>SyntheseModalDownloadComponent</title>
<polygon fill="#ffffb3" stroke="#000000" points="1614.2477,-187 1387.7523,-187 1387.7523,-151 1614.2477,-151 1614.2477,-187"/>
<text text-anchor="middle" x="1501" y="-164.8" font-family="Times,serif" font-size="14.00" fill="#000000">SyntheseModalDownloadComponent</text>
</g>
<!-- SyntheseModalDownloadComponent&#45;&gt;SyntheseModule -->
<g id="edge5" class="edge">
<title>SyntheseModalDownloadComponent&#45;&gt;SyntheseModule</title>
<path fill="none" stroke="#000000" d="M1501,-187.0225C1501,-204.3734 1501,-228 1501,-228 1501,-228 1198.0933,-228 1198.0933,-228"/>
<polygon fill="#000000" stroke="#000000" points="1198.0934,-224.5001 1188.0933,-228 1198.0933,-231.5001 1198.0934,-224.5001"/>
</g>
<!-- MapListService -->
<g id="node6" class="node">
<title>MapListService</title>
<ellipse fill="#fdb462" stroke="#000000" cx="2043" cy="-104" rx="72.9276" ry="18"/>
<text text-anchor="middle" x="2043" y="-99.8" font-family="Times,serif" font-size="14.00" fill="#000000">MapListService</text>
</g>
<!-- MapListService&#45;&gt;SyntheseComponent -->
<g id="edge2" class="edge">
<title>MapListService&#45;&gt;SyntheseComponent</title>
<path fill="none" stroke="#000000" d="M2049.8869,-122.1061C2049.8869,-122.1061 2049.8869,-140.991 2049.8869,-140.991"/>
<polygon fill="#000000" stroke="#000000" points="2046.387,-140.9909 2049.8869,-150.991 2053.387,-140.991 2046.387,-140.9909"/>
</g>
<!-- GN2CommonModule -->
<g id="node7" class="node">
<title>GN2CommonModule</title>
<polygon fill="#8dd3c7" stroke="#000000" points="1364.3809,-187 1361.3809,-191 1340.3809,-191 1337.3809,-187 1225.6191,-187 1225.6191,-151 1364.3809,-151 1364.3809,-187"/>
<text text-anchor="middle" x="1295" y="-164.8" font-family="Times,serif" font-size="14.00" fill="#000000">GN2CommonModule</text>
</g>
<!-- GN2CommonModule&#45;&gt;SyntheseModule -->
<g id="edge6" class="edge">
<title>GN2CommonModule&#45;&gt;SyntheseModule</title>
<path fill="none" stroke="#000000" d="M1295,-187.2396C1295,-202.5706 1295,-222 1295,-222 1295,-222 1198.2981,-222 1198.2981,-222"/>
<polygon fill="#000000" stroke="#000000" points="1198.2981,-218.5001 1188.2981,-222 1198.2981,-225.5001 1198.2981,-218.5001"/>
</g>
<!-- SharedSyntheseModule -->
<g id="node8" class="node">
<title>SharedSyntheseModule</title>
<polygon fill="#8dd3c7" stroke="#000000" points="1207.4692,-187 1204.4692,-191 1183.4692,-191 1180.4692,-187 1058.5308,-187 1058.5308,-151 1207.4692,-151 1207.4692,-187"/>
<text text-anchor="middle" x="1133" y="-164.8" font-family="Times,serif" font-size="14.00" fill="#000000">SharedSyntheseModule</text>
</g>
<!-- SharedSyntheseModule&#45;&gt;SyntheseModule -->
<g id="edge7" class="edge">
<title>SharedSyntheseModule&#45;&gt;SyntheseModule</title>
<path fill="none" stroke="#000000" d="M1133,-187.1061C1133,-187.1061 1133,-205.991 1133,-205.991"/>
<polygon fill="#000000" stroke="#000000" points="1129.5001,-205.9909 1133,-215.991 1136.5001,-205.991 1129.5001,-205.9909"/>
</g>
<!-- MapService -->
<g id="node9" class="node">
<title>MapService</title>
<ellipse fill="#fdb462" stroke="#000000" cx="977" cy="-169" rx="57.8829" ry="18"/>
<text text-anchor="middle" x="977" y="-164.8" font-family="Times,serif" font-size="14.00" fill="#000000">MapService</text>
</g>
<!-- MapService&#45;&gt;SyntheseModule -->
<g id="edge8" class="edge">
<title>MapService&#45;&gt;SyntheseModule</title>
<path fill="none" stroke="#000000" d="M977,-187.2396C977,-202.5706 977,-222 977,-222 977,-222 1067.561,-222 1067.561,-222"/>
<polygon fill="#000000" stroke="#000000" points="1067.561,-225.5001 1077.561,-222 1067.561,-218.5001 1067.561,-225.5001"/>
</g>
<!-- DynamicFormService -->
<g id="node10" class="node">
<title>DynamicFormService</title>
<ellipse fill="#fdb462" stroke="#000000" cx="805" cy="-169" rx="96.1266" ry="18"/>
<text text-anchor="middle" x="805" y="-164.8" font-family="Times,serif" font-size="14.00" fill="#000000">DynamicFormService</text>
</g>
<!-- DynamicFormService&#45;&gt;SyntheseModule -->
<g id="edge9" class="edge">
<title>DynamicFormService&#45;&gt;SyntheseModule</title>
<path fill="none" stroke="#000000" d="M805,-187.0225C805,-204.3734 805,-228 805,-228 805,-228 1067.7302,-228 1067.7302,-228"/>
<polygon fill="#000000" stroke="#000000" points="1067.7302,-231.5001 1077.7302,-228 1067.7301,-224.5001 1067.7302,-231.5001"/>
</g>
<!-- TaxonAdvancedStoreService -->
<g id="node11" class="node">
<title>TaxonAdvancedStoreService</title>
<ellipse fill="#fdb462" stroke="#000000" cx="566" cy="-169" rx="124.3819" ry="18"/>
<text text-anchor="middle" x="566" y="-164.8" font-family="Times,serif" font-size="14.00" fill="#000000">TaxonAdvancedStoreService</text>
</g>
<!-- TaxonAdvancedStoreService&#45;&gt;SyntheseModule -->
<g id="edge10" class="edge">
<title>TaxonAdvancedStoreService&#45;&gt;SyntheseModule</title>
<path fill="none" stroke="#000000" d="M566,-187.1061C566,-206.3391 566,-234 566,-234 566,-234 1067.8601,-234 1067.8601,-234"/>
<polygon fill="#000000" stroke="#000000" points="1067.8602,-237.5001 1077.8601,-234 1067.8601,-230.5001 1067.8602,-237.5001"/>
</g>
<!-- SyntheseStoreService -->
<g id="node12" class="node">
<title>SyntheseStoreService</title>
<ellipse fill="#fdb462" stroke="#000000" cx="329" cy="-169" rx="95.4811" ry="18"/>
<text text-anchor="middle" x="329" y="-164.8" font-family="Times,serif" font-size="14.00" fill="#000000">SyntheseStoreService</text>
</g>
<!-- SyntheseStoreService&#45;&gt;SyntheseModule -->
<g id="edge11" class="edge">
<title>SyntheseStoreService&#45;&gt;SyntheseModule</title>
<path fill="none" stroke="#000000" d="M329,-187.2843C329,-208.3211 329,-240 329,-240 329,-240 1067.7378,-240 1067.7378,-240"/>
<polygon fill="#000000" stroke="#000000" points="1067.7379,-243.5001 1077.7378,-240 1067.7378,-236.5001 1067.7379,-243.5001"/>
</g>
<!-- SyntheseFormService -->
<g id="node13" class="node">
<title>SyntheseFormService</title>
<ellipse fill="#fdb462" stroke="#000000" cx="120" cy="-169" rx="95.5645" ry="18"/>
<text text-anchor="middle" x="120" y="-164.8" font-family="Times,serif" font-size="14.00" fill="#000000">SyntheseFormService</text>
</g>
<!-- SyntheseFormService&#45;&gt;SyntheseModule -->
<g id="edge12" class="edge">
<title>SyntheseFormService&#45;&gt;SyntheseModule</title>
<path fill="none" stroke="#000000" d="M120,-187.0908C120,-210.1328 120,-247 120,-247 120,-247 1067.8173,-247 1067.8173,-247"/>
<polygon fill="#000000" stroke="#000000" points="1067.8174,-250.5001 1077.8173,-247 1067.8173,-243.5001 1067.8174,-250.5001"/>
</g>
</g>
</svg>
