<?xml version="1.0" encoding="UTF-8" standalone="no"?>
<!DOCTYPE svg PUBLIC "-//W3C//DTD SVG 1.1//EN"
 "http://www.w3.org/Graphics/SVG/1.1/DTD/svg11.dtd">
<!-- Generated by graphviz version 2.44.1 (20200629.0846)
 -->
<!-- Title: dependencies Pages: 1 -->
<svg width="2638pt" height="276pt"
 viewBox="0.00 0.00 2638.00 276.00" xmlns="http://www.w3.org/2000/svg" xmlns:xlink="http://www.w3.org/1999/xlink">
<g id="graph0" class="graph" transform="scale(1 1) rotate(0) translate(4 272)">
<title>dependencies</title>
<polygon fill="white" stroke="transparent" points="-4,4 -4,-272 2634,-272 2634,4 -4,4"/>
<text text-anchor="start" x="1294.01" y="-42.4" font-family="sans-serif" font-weight="bold" font-size="14.00">Legend</text>
<polygon fill="#ffffb3" stroke="transparent" points="1081,-10 1081,-30 1101,-30 1101,-10 1081,-10"/>
<text text-anchor="start" x="1104.63" y="-15.4" font-family="sans-serif" font-size="14.00"> &#160;Declarations</text>
<polygon fill="#8dd3c7" stroke="transparent" points="1194,-10 1194,-30 1214,-30 1214,-10 1194,-10"/>
<text text-anchor="start" x="1217.73" y="-15.4" font-family="sans-serif" font-size="14.00"> &#160;Module</text>
<polygon fill="#80b1d3" stroke="transparent" points="1280,-10 1280,-30 1300,-30 1300,-10 1280,-10"/>
<text text-anchor="start" x="1303.78" y="-15.4" font-family="sans-serif" font-size="14.00"> &#160;Bootstrap</text>
<polygon fill="#fdb462" stroke="transparent" points="1377,-10 1377,-30 1397,-30 1397,-10 1377,-10"/>
<text text-anchor="start" x="1400.67" y="-15.4" font-family="sans-serif" font-size="14.00"> &#160;Providers</text>
<polygon fill="#fb8072" stroke="transparent" points="1473,-10 1473,-30 1493,-30 1493,-10 1473,-10"/>
<text text-anchor="start" x="1496.73" y="-15.4" font-family="sans-serif" font-size="14.00"> &#160;Exports</text>
<g id="clust1" class="cluster">
<title>cluster_SyntheseModule</title>
<polygon fill="none" stroke="black" stroke-dasharray="1,5" points="8,-70 8,-260 2622,-260 2622,-70 8,-70"/>
</g>
<g id="clust2" class="cluster">
<title>cluster_SyntheseModule_declarations</title>
<polygon fill="none" stroke="black" points="835,-143 835,-195 1579,-195 1579,-143 835,-143"/>
</g>
<g id="clust10" class="cluster">
<title>cluster_SyntheseModule_providers</title>
<polygon fill="none" stroke="black" points="1587,-143 1587,-195 2614,-195 2614,-143 1587,-143"/>
</g>
<g id="clust3" class="cluster">
<title>cluster_SyntheseModule_SyntheseComponent_providers</title>
<polygon fill="none" stroke="black" points="1424,-78 1424,-130 1586,-130 1586,-78 1424,-78"/>
</g>
<g id="clust7" class="cluster">
<title>cluster_SyntheseModule_imports</title>
<polygon fill="none" stroke="black" points="16,-143 16,-195 827,-195 827,-143 16,-143"/>
</g>
<!-- SyntheseComponent -->
<g id="node1" class="node">
<title>SyntheseComponent</title>
<polygon fill="#ffffb3" stroke="black" points="1570.88,-187 1439.12,-187 1439.12,-151 1570.88,-151 1570.88,-187"/>
<text text-anchor="middle" x="1505" y="-164.8" font-family="Times,serif" font-size="14.00">SyntheseComponent</text>
</g>
<!-- SyntheseModule -->
<g id="node5" class="node">
<title>SyntheseModule</title>
<polygon fill="#8dd3c7" stroke="black" points="1311.1,-252 1308.1,-256 1287.1,-256 1284.1,-252 1200.9,-252 1200.9,-216 1311.1,-216 1311.1,-252"/>
<text text-anchor="middle" x="1256" y="-229.8" font-family="Times,serif" font-size="14.00">SyntheseModule</text>
</g>
<!-- SyntheseComponent&#45;&gt;SyntheseModule -->
<g id="edge1" class="edge">
<title>SyntheseComponent&#45;&gt;SyntheseModule</title>
<path fill="none" stroke="black" d="M1505,-187.24C1505,-202.57 1505,-222 1505,-222 1505,-222 1321.26,-222 1321.26,-222"/>
<polygon fill="black" stroke="black" points="1321.26,-218.5 1311.26,-222 1321.26,-225.5 1321.26,-218.5"/>
</g>
<!-- SyntheseListComponent -->
<g id="node2" class="node">
<title>SyntheseListComponent</title>
<polygon fill="#ffffb3" stroke="black" points="1420.66,-187 1267.34,-187 1267.34,-151 1420.66,-151 1420.66,-187"/>
<text text-anchor="middle" x="1344" y="-164.8" font-family="Times,serif" font-size="14.00">SyntheseListComponent</text>
</g>
<!-- SyntheseListComponent&#45;&gt;SyntheseModule -->
<g id="edge3" class="edge">
<title>SyntheseListComponent&#45;&gt;SyntheseModule</title>
<path fill="none" stroke="black" d="M1289.11,-187.11C1289.11,-187.11 1289.11,-205.99 1289.11,-205.99"/>
<polygon fill="black" stroke="black" points="1285.61,-205.99 1289.11,-215.99 1292.61,-205.99 1285.61,-205.99"/>
</g>
<!-- SyntheseCarteComponent -->
<g id="node3" class="node">
<title>SyntheseCarteComponent</title>
<polygon fill="#ffffb3" stroke="black" points="1249.2,-187 1086.8,-187 1086.8,-151 1249.2,-151 1249.2,-187"/>
<text text-anchor="middle" x="1168" y="-164.8" font-family="Times,serif" font-size="14.00">SyntheseCarteComponent</text>
</g>
<!-- SyntheseCarteComponent&#45;&gt;SyntheseModule -->
<g id="edge4" class="edge">
<title>SyntheseCarteComponent&#45;&gt;SyntheseModule</title>
<path fill="none" stroke="black" d="M1225.02,-187.11C1225.02,-187.11 1225.02,-205.99 1225.02,-205.99"/>
<polygon fill="black" stroke="black" points="1221.52,-205.99 1225.02,-215.99 1228.52,-205.99 1221.52,-205.99"/>
</g>
<!-- SyntheseModalDownloadComponent -->
<g id="node4" class="node">
<title>SyntheseModalDownloadComponent</title>
<polygon fill="#ffffb3" stroke="black" points="1069.25,-187 842.75,-187 842.75,-151 1069.25,-151 1069.25,-187"/>
<text text-anchor="middle" x="956" y="-164.8" font-family="Times,serif" font-size="14.00">SyntheseModalDownloadComponent</text>
</g>
<!-- SyntheseModalDownloadComponent&#45;&gt;SyntheseModule -->
<g id="edge5" class="edge">
<title>SyntheseModalDownloadComponent&#45;&gt;SyntheseModule</title>
<path fill="none" stroke="black" d="M956,-187.24C956,-202.57 956,-222 956,-222 956,-222 1190.63,-222 1190.63,-222"/>
<polygon fill="black" stroke="black" points="1190.63,-225.5 1200.63,-222 1190.63,-218.5 1190.63,-225.5"/>
</g>
<!-- MapListService -->
<g id="node6" class="node">
<title>MapListService</title>
<ellipse fill="#fdb462" stroke="black" cx="1505" cy="-104" rx="72.93" ry="18"/>
<text text-anchor="middle" x="1505" y="-99.8" font-family="Times,serif" font-size="14.00">MapListService</text>
</g>
<!-- MapListService&#45;&gt;SyntheseComponent -->
<g id="edge2" class="edge">
<title>MapListService&#45;&gt;SyntheseComponent</title>
<path fill="none" stroke="black" d="M1505,-122.11C1505,-122.11 1505,-140.99 1505,-140.99"/>
<polygon fill="black" stroke="black" points="1501.5,-140.99 1505,-150.99 1508.5,-140.99 1501.5,-140.99"/>
</g>
<!-- RouterModule.forChild(args) -->
<g id="node7" class="node">
<title>RouterModule.forChild(args)</title>
<polygon fill="#8dd3c7" stroke="black" points="818.73,-187 815.73,-191 794.73,-191 791.73,-187 637.27,-187 637.27,-151 818.73,-151 818.73,-187"/>
<text text-anchor="middle" x="728" y="-164.8" font-family="Times,serif" font-size="14.00">RouterModule.forChild(args)</text>
</g>
<!-- RouterModule.forChild(args)&#45;&gt;SyntheseModule -->
<g id="edge6" class="edge">
<title>RouterModule.forChild(args)&#45;&gt;SyntheseModule</title>
<path fill="none" stroke="black" d="M728,-187.03C728,-204.06 728,-227 728,-227 728,-227 1190.49,-227 1190.49,-227"/>
<polygon fill="black" stroke="black" points="1190.49,-230.5 1200.49,-227 1190.49,-223.5 1190.49,-230.5"/>
</g>
<!-- GN2CommonModule -->
<g id="node8" class="node">
<title>GN2CommonModule</title>
<polygon fill="#8dd3c7" stroke="black" points="619.38,-187 616.38,-191 595.38,-191 592.38,-187 480.62,-187 480.62,-151 619.38,-151 619.38,-187"/>
<text text-anchor="middle" x="550" y="-164.8" font-family="Times,serif" font-size="14.00">GN2CommonModule</text>
</g>
<!-- GN2CommonModule&#45;&gt;SyntheseModule -->
<g id="edge7" class="edge">
<title>GN2CommonModule&#45;&gt;SyntheseModule</title>
<path fill="none" stroke="black" d="M550,-187.22C550,-205.83 550,-232 550,-232 550,-232 1190.9,-232 1190.9,-232"/>
<polygon fill="black" stroke="black" points="1190.9,-235.5 1200.9,-232 1190.9,-228.5 1190.9,-235.5"/>
</g>
<!-- SharedSyntheseModule -->
<g id="node9" class="node">
<title>SharedSyntheseModule</title>
<polygon fill="#8dd3c7" stroke="black" points="462.47,-187 459.47,-191 438.47,-191 435.47,-187 313.53,-187 313.53,-151 462.47,-151 462.47,-187"/>
<text text-anchor="middle" x="388" y="-164.8" font-family="Times,serif" font-size="14.00">SharedSyntheseModule</text>
</g>
<!-- SharedSyntheseModule&#45;&gt;SyntheseModule -->
<g id="edge8" class="edge">
<title>SharedSyntheseModule&#45;&gt;SyntheseModule</title>
<path fill="none" stroke="black" d="M388,-187.22C388,-207.37 388,-237 388,-237 388,-237 1190.71,-237 1190.71,-237"/>
<polygon fill="black" stroke="black" points="1190.71,-240.5 1200.71,-237 1190.71,-233.5 1190.71,-240.5"/>
</g>
<!-- CommonModule -->
<g id="node10" class="node">
<title>CommonModule</title>
<polygon fill="#8dd3c7" stroke="black" points="295.67,-187 292.67,-191 271.67,-191 268.67,-187 184.33,-187 184.33,-151 295.67,-151 295.67,-187"/>
<text text-anchor="middle" x="240" y="-164.8" font-family="Times,serif" font-size="14.00">CommonModule</text>
</g>
<!-- CommonModule&#45;&gt;SyntheseModule -->
<g id="edge9" class="edge">
<title>CommonModule&#45;&gt;SyntheseModule</title>
<path fill="none" stroke="black" d="M240,-187.04C240,-208.66 240,-242 240,-242 240,-242 1190.65,-242 1190.65,-242"/>
<polygon fill="black" stroke="black" points="1190.65,-245.5 1200.65,-242 1190.65,-238.5 1190.65,-245.5"/>
</g>
<!-- TreeModule.forRoot() -->
<g id="node11" class="node">
<title>TreeModule.forRoot()</title>
<polygon fill="#8dd3c7" stroke="black" points="165.56,-187 162.56,-191 141.56,-191 138.56,-187 24.44,-187 24.44,-151 165.56,-151 165.56,-187"/>
<text text-anchor="middle" x="95" y="-164.8" font-family="Times,serif" font-size="14.00">TreeModule.forRoot()</text>
</g>
<!-- TreeModule.forRoot()&#45;&gt;SyntheseModule -->
<g id="edge10" class="edge">
<title>TreeModule.forRoot()&#45;&gt;SyntheseModule</title>
<path fill="none" stroke="black" d="M95,-187.09C95,-210.13 95,-247 95,-247 95,-247 1190.78,-247 1190.78,-247"/>
<polygon fill="black" stroke="black" points="1190.78,-250.5 1200.78,-247 1190.78,-243.5 1190.78,-250.5"/>
</g>
<!-- MapService -->
<g id="node12" class="node">
<title>MapService</title>
<ellipse fill="#fdb462" stroke="black" cx="2548" cy="-169" rx="57.88" ry="18"/>
<text text-anchor="middle" x="2548" y="-164.8" font-family="Times,serif" font-size="14.00">MapService</text>
</g>
<!-- MapService&#45;&gt;SyntheseModule -->
<g id="edge11" class="edge">
<title>MapService&#45;&gt;SyntheseModule</title>
<path fill="none" stroke="black" d="M2548,-187.09C2548,-210.13 2548,-247 2548,-247 2548,-247 1321.1,-247 1321.1,-247"/>
<polygon fill="black" stroke="black" points="1321.1,-243.5 1311.1,-247 1321.1,-250.5 1321.1,-243.5"/>
</g>
<!-- DynamicFormService -->
<g id="node13" class="node">
<title>DynamicFormService</title>
<ellipse fill="#fdb462" stroke="black" cx="2376" cy="-169" rx="96.13" ry="18"/>
<text text-anchor="middle" x="2376" y="-164.8" font-family="Times,serif" font-size="14.00">DynamicFormService</text>
</g>
<!-- DynamicFormService&#45;&gt;SyntheseModule -->
<g id="edge12" class="edge">
<title>DynamicFormService&#45;&gt;SyntheseModule</title>
<path fill="none" stroke="black" d="M2376,-187.04C2376,-208.66 2376,-242 2376,-242 2376,-242 1321.16,-242 1321.16,-242"/>
<polygon fill="black" stroke="black" points="1321.16,-238.5 1311.16,-242 1321.16,-245.5 1321.16,-238.5"/>
</g>
<!-- TaxonAdvancedStoreService -->
<g id="node14" class="node">
<title>TaxonAdvancedStoreService</title>
<ellipse fill="#fdb462" stroke="black" cx="2137" cy="-169" rx="124.38" ry="18"/>
<text text-anchor="middle" x="2137" y="-164.8" font-family="Times,serif" font-size="14.00">TaxonAdvancedStoreService</text>
</g>
<!-- TaxonAdvancedStoreService&#45;&gt;SyntheseModule -->
<g id="edge13" class="edge">
<title>TaxonAdvancedStoreService&#45;&gt;SyntheseModule</title>
<path fill="none" stroke="black" d="M2137,-187.22C2137,-207.37 2137,-237 2137,-237 2137,-237 1321.11,-237 1321.11,-237"/>
<polygon fill="black" stroke="black" points="1321.11,-233.5 1311.11,-237 1321.11,-240.5 1321.11,-233.5"/>
</g>
<!-- SyntheseStoreService -->
<g id="node15" class="node">
<title>SyntheseStoreService</title>
<ellipse fill="#fdb462" stroke="black" cx="1900" cy="-169" rx="95.48" ry="18"/>
<text text-anchor="middle" x="1900" y="-164.8" font-family="Times,serif" font-size="14.00">SyntheseStoreService</text>
</g>
<!-- SyntheseStoreService&#45;&gt;SyntheseModule -->
<g id="edge14" class="edge">
<title>SyntheseStoreService&#45;&gt;SyntheseModule</title>
<path fill="none" stroke="black" d="M1900,-187.22C1900,-205.83 1900,-232 1900,-232 1900,-232 1321.19,-232 1321.19,-232"/>
<polygon fill="black" stroke="black" points="1321.19,-228.5 1311.19,-232 1321.19,-235.5 1321.19,-228.5"/>
</g>
<!-- SyntheseFormService -->
<g id="node16" class="node">
<title>SyntheseFormService</title>
<ellipse fill="#fdb462" stroke="black" cx="1691" cy="-169" rx="95.56" ry="18"/>
<text text-anchor="middle" x="1691" y="-164.8" font-family="Times,serif" font-size="14.00">SyntheseFormService</text>
</g>
<!-- SyntheseFormService&#45;&gt;SyntheseModule -->
<g id="edge15" class="edge">
<title>SyntheseFormService&#45;&gt;SyntheseModule</title>
<path fill="none" stroke="black" d="M1691,-187.03C1691,-204.06 1691,-227 1691,-227 1691,-227 1321.09,-227 1321.09,-227"/>
<polygon fill="black" stroke="black" points="1321.09,-223.5 1311.09,-227 1321.09,-230.5 1321.09,-223.5"/>
</g>
</g>
</svg>
