<?xml version="1.0" encoding="UTF-8" standalone="no"?>
<!DOCTYPE svg PUBLIC "-//W3C//DTD SVG 1.1//EN"
 "http://www.w3.org/Graphics/SVG/1.1/DTD/svg11.dtd">
<!-- Generated by graphviz version 2.47.0 (20210316.0004)
 -->
<!-- Title: dependencies Pages: 1 -->
<svg width="2124pt" height="276pt"
 viewBox="0.00 0.00 2124.00 276.00" xmlns="http://www.w3.org/2000/svg" xmlns:xlink="http://www.w3.org/1999/xlink">
<g id="graph0" class="graph" transform="scale(1 1) rotate(0) translate(4 272)">
<title>dependencies</title>
<polygon fill="white" stroke="transparent" points="-4,4 -4,-272 2120,-272 2120,4 -4,4"/>
<text text-anchor="start" x="1037.01" y="-42.4" font-family="Times-12" font-weight="bold" font-size="14.00">Legend</text>
<polygon fill="#ffffb3" stroke="transparent" points="824,-10 824,-30 844,-30 844,-10 824,-10"/>
<text text-anchor="start" x="847.63" y="-15.4" font-family="Times-12" font-size="14.00"> &#160;Declarations</text>
<polygon fill="#8dd3c7" stroke="transparent" points="937,-10 937,-30 957,-30 957,-10 937,-10"/>
<text text-anchor="start" x="960.73" y="-15.4" font-family="Times-12" font-size="14.00"> &#160;Module</text>
<polygon fill="#80b1d3" stroke="transparent" points="1023,-10 1023,-30 1043,-30 1043,-10 1023,-10"/>
<text text-anchor="start" x="1046.78" y="-15.4" font-family="Times-12" font-size="14.00"> &#160;Bootstrap</text>
<polygon fill="#fdb462" stroke="transparent" points="1120,-10 1120,-30 1140,-30 1140,-10 1120,-10"/>
<text text-anchor="start" x="1143.67" y="-15.4" font-family="Times-12" font-size="14.00"> &#160;Providers</text>
<polygon fill="#fb8072" stroke="transparent" points="1216,-10 1216,-30 1236,-30 1236,-10 1216,-10"/>
<text text-anchor="start" x="1239.73" y="-15.4" font-family="Times-12" font-size="14.00"> &#160;Exports</text>
<g id="clust1" class="cluster">
<title>cluster_SyntheseModule</title>
<polygon fill="none" stroke="black" stroke-dasharray="1,5" points="8,-70 8,-260 2108,-260 2108,-70 8,-70"/>
</g>
<g id="clust11" class="cluster">
<title>cluster_SyntheseModule_providers</title>
<polygon fill="none" stroke="black" points="1283,-143 1283,-195 2100,-195 2100,-143 1283,-143"/>
</g>
<g id="clust4" class="cluster">
<title>cluster_SyntheseModule_SyntheseComponent_providers</title>
<polygon fill="none" stroke="black" points="1113,-78 1113,-195 1275,-195 1275,-78 1113,-78"/>
</g>
<g id="clust2" class="cluster">
<title>cluster_SyntheseModule_declarations</title>
<polygon fill="none" stroke="black" points="345,-143 345,-195 1105,-195 1105,-143 345,-143"/>
</g>
<g id="clust8" class="cluster">
<title>cluster_SyntheseModule_imports</title>
<polygon fill="none" stroke="black" points="16,-143 16,-195 337,-195 337,-143 16,-143"/>
</g>
<!-- SyntheseCarteComponent -->
<g id="node1" class="node">
<title>SyntheseCarteComponent</title>
<polygon fill="#ffffb3" stroke="black" points="1097.2,-187 934.8,-187 934.8,-151 1097.2,-151 1097.2,-187"/>
<text text-anchor="middle" x="1016" y="-164.8" font-family="Times,serif" font-size="14.00">SyntheseCarteComponent</text>
</g>
<!-- SyntheseModule -->
<g id="node6" class="node">
<title>SyntheseModule</title>
<polygon fill="#8dd3c7" stroke="black" points="1071.1,-252 1068.1,-256 1047.1,-256 1044.1,-252 960.9,-252 960.9,-216 1071.1,-216 1071.1,-252"/>
<text text-anchor="middle" x="1016" y="-229.8" font-family="Times,serif" font-size="14.00">SyntheseModule</text>
</g>
<!-- SyntheseCarteComponent&#45;&gt;SyntheseModule -->
<g id="edge1" class="edge">
<title>SyntheseCarteComponent&#45;&gt;SyntheseModule</title>
<path fill="none" stroke="black" d="M1016,-187.11C1016,-187.11 1016,-205.99 1016,-205.99"/>
<polygon fill="black" stroke="black" points="1012.5,-205.99 1016,-215.99 1019.5,-205.99 1012.5,-205.99"/>
</g>
<!-- SyntheseComponent -->
<g id="node2" class="node">
<title>SyntheseComponent</title>
<polygon fill="#ffffb3" stroke="black" points="1255.88,-187 1124.12,-187 1124.12,-151 1255.88,-151 1255.88,-187"/>
<text text-anchor="middle" x="1190" y="-164.8" font-family="Times,serif" font-size="14.00">SyntheseComponent</text>
</g>
<!-- SyntheseComponent&#45;&gt;SyntheseModule -->
<g id="edge2" class="edge">
<title>SyntheseComponent&#45;&gt;SyntheseModule</title>
<path fill="none" stroke="black" d="M1190,-187.24C1190,-202.57 1190,-222 1190,-222 1190,-222 1081.05,-222 1081.05,-222"/>
<polygon fill="black" stroke="black" points="1081.05,-218.5 1071.05,-222 1081.05,-225.5 1081.05,-218.5"/>
</g>
<!-- SyntheseListComponent -->
<g id="node3" class="node">
<title>SyntheseListComponent</title>
<polygon fill="#ffffb3" stroke="black" points="916.66,-187 763.34,-187 763.34,-151 916.66,-151 916.66,-187"/>
<text text-anchor="middle" x="840" y="-164.8" font-family="Times,serif" font-size="14.00">SyntheseListComponent</text>
</g>
<!-- SyntheseListComponent&#45;&gt;SyntheseModule -->
<g id="edge4" class="edge">
<title>SyntheseListComponent&#45;&gt;SyntheseModule</title>
<path fill="none" stroke="black" d="M840,-187.24C840,-202.57 840,-222 840,-222 840,-222 950.8,-222 950.8,-222"/>
<polygon fill="black" stroke="black" points="950.8,-225.5 960.8,-222 950.8,-218.5 950.8,-225.5"/>
</g>
<!-- SyntheseModalDownloadComponent -->
<g id="node4" class="node">
<title>SyntheseModalDownloadComponent</title>
<polygon fill="#ffffb3" stroke="black" points="745.25,-187 518.75,-187 518.75,-151 745.25,-151 745.25,-187"/>
<text text-anchor="middle" x="632" y="-164.8" font-family="Times,serif" font-size="14.00">SyntheseModalDownloadComponent</text>
</g>
<!-- SyntheseModalDownloadComponent&#45;&gt;SyntheseModule -->
<g id="edge5" class="edge">
<title>SyntheseModalDownloadComponent&#45;&gt;SyntheseModule</title>
<path fill="none" stroke="black" d="M632,-187.02C632,-204.37 632,-228 632,-228 632,-228 950.57,-228 950.57,-228"/>
<polygon fill="black" stroke="black" points="950.57,-231.5 960.57,-228 950.57,-224.5 950.57,-231.5"/>
</g>
<!-- TaxonSheetComponent -->
<g id="node5" class="node">
<title>TaxonSheetComponent</title>
<polygon fill="#ffffb3" stroke="black" points="501.2,-187 352.8,-187 352.8,-151 501.2,-151 501.2,-187"/>
<text text-anchor="middle" x="427" y="-164.8" font-family="Times,serif" font-size="14.00">TaxonSheetComponent</text>
</g>
<!-- TaxonSheetComponent&#45;&gt;SyntheseModule -->
<g id="edge6" class="edge">
<title>TaxonSheetComponent&#45;&gt;SyntheseModule</title>
<path fill="none" stroke="black" d="M427,-187.11C427,-206.34 427,-234 427,-234 427,-234 950.85,-234 950.85,-234"/>
<polygon fill="black" stroke="black" points="950.85,-237.5 960.85,-234 950.85,-230.5 950.85,-237.5"/>
</g>
<!-- MapListService -->
<g id="node7" class="node">
<title>MapListService</title>
<ellipse fill="#fdb462" stroke="black" cx="1194" cy="-104" rx="72.93" ry="18"/>
<text text-anchor="middle" x="1194" y="-99.8" font-family="Times,serif" font-size="14.00">MapListService</text>
</g>
<!-- MapListService&#45;&gt;SyntheseComponent -->
<g id="edge3" class="edge">
<title>MapListService&#45;&gt;SyntheseComponent</title>
<path fill="none" stroke="black" d="M1190,-122.11C1190,-122.11 1190,-140.99 1190,-140.99"/>
<polygon fill="black" stroke="black" points="1186.5,-140.99 1190,-150.99 1193.5,-140.99 1186.5,-140.99"/>
</g>
<!-- GN2CommonModule -->
<g id="node8" class="node">
<title>GN2CommonModule</title>
<polygon fill="#8dd3c7" stroke="black" points="329.38,-187 326.38,-191 305.38,-191 302.38,-187 190.62,-187 190.62,-151 329.38,-151 329.38,-187"/>
<text text-anchor="middle" x="260" y="-164.8" font-family="Times,serif" font-size="14.00">GN2CommonModule</text>
</g>
<!-- GN2CommonModule&#45;&gt;SyntheseModule -->
<g id="edge7" class="edge">
<title>GN2CommonModule&#45;&gt;SyntheseModule</title>
<path fill="none" stroke="black" d="M260,-187.28C260,-208.32 260,-240 260,-240 260,-240 950.72,-240 950.72,-240"/>
<polygon fill="black" stroke="black" points="950.72,-243.5 960.72,-240 950.72,-236.5 950.72,-243.5"/>
</g>
<!-- SharedSyntheseModule -->
<g id="node9" class="node">
<title>SharedSyntheseModule</title>
<polygon fill="#8dd3c7" stroke="black" points="172.47,-187 169.47,-191 148.47,-191 145.47,-187 23.53,-187 23.53,-151 172.47,-151 172.47,-187"/>
<text text-anchor="middle" x="98" y="-164.8" font-family="Times,serif" font-size="14.00">SharedSyntheseModule</text>
</g>
<!-- SharedSyntheseModule&#45;&gt;SyntheseModule -->
<g id="edge8" class="edge">
<title>SharedSyntheseModule&#45;&gt;SyntheseModule</title>
<path fill="none" stroke="black" d="M98,-187.09C98,-210.13 98,-247 98,-247 98,-247 950.64,-247 950.64,-247"/>
<polygon fill="black" stroke="black" points="950.64,-250.5 960.64,-247 950.64,-243.5 950.64,-250.5"/>
</g>
<!-- DynamicFormService -->
<g id="node10" class="node">
<title>DynamicFormService</title>
<ellipse fill="#fdb462" stroke="black" cx="1996" cy="-169" rx="96.13" ry="18"/>
<text text-anchor="middle" x="1996" y="-164.8" font-family="Times,serif" font-size="14.00">DynamicFormService</text>
</g>
<!-- DynamicFormService&#45;&gt;SyntheseModule -->
<g id="edge9" class="edge">
<title>DynamicFormService&#45;&gt;SyntheseModule</title>
<path fill="none" stroke="black" d="M1996,-187.09C1996,-210.13 1996,-247 1996,-247 1996,-247 1081.14,-247 1081.14,-247"/>
<polygon fill="black" stroke="black" points="1081.14,-243.5 1071.14,-247 1081.14,-250.5 1081.14,-243.5"/>
</g>
<!-- MapService -->
<g id="node11" class="node">
<title>MapService</title>
<ellipse fill="#fdb462" stroke="black" cx="1824" cy="-169" rx="57.88" ry="18"/>
<text text-anchor="middle" x="1824" y="-164.8" font-family="Times,serif" font-size="14.00">MapService</text>
</g>
<!-- MapService&#45;&gt;SyntheseModule -->
<g id="edge10" class="edge">
<title>MapService&#45;&gt;SyntheseModule</title>
<path fill="none" stroke="black" d="M1824,-187.28C1824,-208.32 1824,-240 1824,-240 1824,-240 1081.22,-240 1081.22,-240"/>
<polygon fill="black" stroke="black" points="1081.22,-236.5 1071.22,-240 1081.22,-243.5 1081.22,-236.5"/>
</g>
<!-- SyntheseFormService -->
<g id="node12" class="node">
<title>SyntheseFormService</title>
<ellipse fill="#fdb462" stroke="black" cx="1653" cy="-169" rx="95.56" ry="18"/>
<text text-anchor="middle" x="1653" y="-164.8" font-family="Times,serif" font-size="14.00">SyntheseFormService</text>
</g>
<!-- SyntheseFormService&#45;&gt;SyntheseModule -->
<g id="edge11" class="edge">
<title>SyntheseFormService&#45;&gt;SyntheseModule</title>
<path fill="none" stroke="black" d="M1653,-187.11C1653,-206.34 1653,-234 1653,-234 1653,-234 1081.14,-234 1081.14,-234"/>
<polygon fill="black" stroke="black" points="1081.14,-230.5 1071.14,-234 1081.14,-237.5 1081.14,-230.5"/>
</g>
<!-- TaxonAdvancedStoreService -->
<g id="node13" class="node">
<title>TaxonAdvancedStoreService</title>
<ellipse fill="#fdb462" stroke="black" cx="1415" cy="-169" rx="124.38" ry="18"/>
<text text-anchor="middle" x="1415" y="-164.8" font-family="Times,serif" font-size="14.00">TaxonAdvancedStoreService</text>
</g>
<!-- TaxonAdvancedStoreService&#45;&gt;SyntheseModule -->
<g id="edge12" class="edge">
<title>TaxonAdvancedStoreService&#45;&gt;SyntheseModule</title>
<path fill="none" stroke="black" d="M1415,-187.02C1415,-204.37 1415,-228 1415,-228 1415,-228 1081.06,-228 1081.06,-228"/>
<polygon fill="black" stroke="black" points="1081.06,-224.5 1071.06,-228 1081.06,-231.5 1081.06,-224.5"/>
</g>
</g>
</svg>
