<svg xmlns="http://www.w3.org/2000/svg" width="1294.344" height="1294.889" viewBox="0 0 342.462 342.606"><path style="fill:#000;stroke-width:.43413207" d="M160.812 342.48c-37.134-2.676-71.19-16.203-99.276-39.43-6.03-4.988-17.099-16.056-22.086-22.086-18.828-22.766-31.527-49.958-36.835-78.872C.523 190.698 0 184.53 0 171.27c0-13.262.523-19.429 2.615-30.823C7.923 111.532 20.622 84.34 39.45 61.574c4.987-6.03 16.056-17.099 22.086-22.086 26-21.503 56.487-34.458 91.027-38.68 8.808-1.077 28.528-1.077 37.336 0 34.54 4.222 65.026 17.177 91.027 38.68 6.03 4.987 17.098 16.056 22.085 22.086 18.829 22.766 31.528 49.958 36.836 78.872 2.092 11.394 2.615 17.561 2.615 30.823 0 13.261-.523 19.429-2.615 30.823-5.308 28.914-18.007 56.106-36.836 78.872-4.987 6.03-16.055 17.098-22.085 22.085-25.872 21.398-56.726 34.548-90.593 38.612-5.614.674-24.334 1.194-29.521.82zm31.474-36.394c31.645-3.309 54.928-12.415 60.882-23.813 1.685-3.225 1.685-7.795 0-11.02-4.856-9.295-21.544-17.278-45.173-21.61-8.48-1.554-8.174-1.599-10.286 1.512-1.205 1.775-1.593 2.664-1.21 2.778.31.093 3.273.578 6.585 1.08 20.932 3.165 36.374 9.49 40.85 16.731 1.853 2.997 1.853 6.173 0 9.17-4.97 8.04-23.186 14.804-47.74 17.727-43.608 5.193-92.24-3.332-101.14-17.728-1.852-2.996-1.852-6.172 0-9.169 4.457-7.208 19.487-13.39 40.743-16.758 3.252-.515 5.913-1.12 5.913-1.342 0-.223-.632-1.462-1.404-2.753-1.019-1.703-1.666-2.347-2.359-2.347-1.82 0-12.978 2.207-18.595 3.677-17.601 4.608-29.535 11.381-33.53 19.032-1.686 3.225-1.686 7.795 0 11.02 5.985 11.46 30.065 20.824 61.098 23.76 10.807 1.023 10.957 1.028 25.396.876 8.115-.086 16.044-.412 19.97-.823zm-7.807-16.744c24.713-1.585 42.421-6.553 43.865-12.304 1.383-5.513-10.31-10.348-31.63-13.077-7.16-.917-6.943-.948-8.346 1.189-.666 1.015-3.48 4.12-6.253 6.9-4.427 4.438-5.328 5.14-7.39 5.752-2.688.798-9.766.94-12.265.246-2.152-.598-7.844-5.989-11.52-10.91-1.574-2.109-3.014-3.833-3.202-3.833-1.17 0-11.365 1.455-15.362 2.193-28.555 5.268-29.152 15.58-1.216 20.983 15.059 2.912 35.46 4.007 53.32 2.86zm-13.031-20.547c1.318-.616 3.198-2.113 4.786-3.814 2.543-2.724 19.176-26.984 26.895-39.229a3780.345 3780.345 0 0 1 10.638-16.714c22.25-34.77 34.566-59.289 39.363-78.36 1.363-5.42 1.83-14.97 1.044-21.347-1.433-11.64-5.023-22.29-10.654-31.618-19.828-32.84-59.142-47.388-95.515-35.346-23.972 7.936-43.119 26.968-51.025 50.717-3.356 10.082-4.815 21.197-3.934 29.96 2.147 21.332 16.46 55.218 42.927 101.623 13.695 24.012 22.8 38.303 26.868 42.17 3.319 3.153 5.153 3.57 8.607 1.958zm-5.253-115.102c-7.154-1.557-13.369-5.157-18.793-10.888-2.798-2.956-3.95-4.604-5.687-8.134-3.152-6.41-3.695-8.83-3.67-16.366.02-5.882.112-6.567 1.399-10.432 3.02-9.073 9.078-16.271 17.46-20.749 13.583-7.255 30.15-5.055 41.324 5.487 5.185 4.89 8.196 9.76 10.1 16.328 5.593 19.302-6.04 39.365-25.723 44.357-4.737 1.202-11.912 1.375-16.41.397z"/></svg>