<svg xmlns="http://www.w3.org/2000/svg" width="2565.714" height="2612.364" viewBox="0 0 678.845 691.188"><g transform="translate(233.59 196.76)"><ellipse style="fill:#7ab839;fill-opacity:1;stroke-width:.21599621" cx="105.833" cy="148.833" rx="339.423" ry="345.594"/><path style="fill:#fff;fill-opacity:1;stroke:none;stroke-width:4.61899996;stroke-miterlimit:4;stroke-dasharray:none;stroke-opacity:1" d="M41.838 225.095l2.646-4.158c-1.066 2.319-5.503 8.425-7.119 9.023-1.607.595-18.095.998-40.829.998h-38.134l-19.708.068-39.596-.285c-36.87-.266-39.742-.414-41.71-2.15-1.163-1.024-2.398-3.123-2.746-4.663-.446-1.98 11.785-47.225 41.765-154.49C-80.275-13.993-60.438-83.71-59.51-85.49c2.945-5.657 10.547-6.496 14.987-1.655.968 1.057 8.341 25.582 16.886 56.172 13.683 48.988 72.122 256.995 72.122 251.91"/><ellipse style="fill:#fff;fill-opacity:1;stroke:none;stroke-width:4.31472921;stroke-linecap:round;stroke-linejoin:round;stroke-miterlimit:4;stroke-dasharray:none;stroke-opacity:1" cx="262.315" cy="129.199" rx="116.417" ry="120.973"/><path style="fill:#fff;fill-opacity:1;stroke-width:1.01888418" d="M-41.598 230.958s.337 16.725 2.4 35.947c2.061 19.221 4.112 41.712 3.47 43.963-1.96 6.874-16.483 4.796-22.074.115l-10.38 3.454s1.554-27.595 4.507-45.18c2.954-17.584 2.37-38.23 2.37-38.23zM250.587 249.18l-1.323 28.926-1.984 28.643 5.98 3.566c3.574 4.136 9.203 4.325 13.19.443l6.029-.478-1.701-31.582-1.607-29.41-18.584-.108-4.904-.622"/><path style="fill:#fff;fill-opacity:1;stroke:#7ab839;stroke-width:10.85002804;stroke-miterlimit:4;stroke-dasharray:none;stroke-opacity:1" d="M100.365 227.287l5.881-.739c3.235-.406 10.803-2.37 16.817-4.363 31.634-10.482 55.66-35.067 65.34-66.859 9.07-29.79 1-101.728-17.66-157.422-16.345-48.782-41.05-86.182-64.2-97.192-6.926-3.294-8.86-3.721-16.83-3.721-7.97 0-9.9.426-16.819 3.72C28.82-78.302-12.819 28.276-14.456 120.974c1.3 16.908 2.635 22.992 4.384 29.666 7.146 32.875 29.855 56.908 60.333 69.402 7.897 3.236 21.245 6.818 25.74 6.905l3.08.06z"/><path style="fill:#7ab839;fill-opacity:1;stroke-width:1.01888418" d="M250.61 249.7c-.022.585-.023-26.069-.023-35.024v-16.282l-18.584-18.268c-17.753-17.45-18.583-18.442-18.551-22.177.035-4.258 1.315-6.462 4.803-8.271 5.23-2.713 7.193-1.679 20.03 10.559l12.302 11.729v-21.85c0-22.118.224-24.589 3.568-27.09 3.344-2.5 9.484-2.681 13.052.616 3.374 2.834 1.531 26.079 1.964 34.565 0 17.34.357 31.526.793 31.526.436 0 5.663-4.788 11.615-10.64 5.953-5.853 11.935-11.07 13.294-11.594 4.048-1.56 9.333.712 11.068 4.757.806 1.88 1.196 4.465.866 5.746-.33 1.281-8.933 10.435-19.118 20.343l-18.518 18.013v7.368c0 6.532.005 27.01.048 26.2z"/><path style="color:#000;font-style:normal;font-variant:normal;font-weight:400;font-stretch:normal;font-size:medium;line-height:normal;font-family:sans-serif;font-variant-ligatures:normal;font-variant-position:normal;font-variant-caps:normal;font-variant-numeric:normal;font-variant-alternates:normal;font-feature-settings:normal;text-indent:0;text-align:start;text-decoration:none;text-decoration-line:none;text-decoration-style:solid;text-decoration-color:#000;letter-spacing:normal;word-spacing:normal;text-transform:none;writing-mode:lr-tb;direction:ltr;text-orientation:mixed;dominant-baseline:auto;baseline-shift:baseline;text-anchor:start;white-space:normal;shape-padding:0;clip-rule:nonzero;display:inline;overflow:visible;visibility:visible;opacity:1;isolation:auto;mix-blend-mode:normal;color-interpolation:sRGB;color-interpolation-filters:linearRGB;solid-color:#000;solid-opacity:1;vector-effect:none;fill:#fff;fill-opacity:1;fill-rule:nonzero;stroke:none;stroke-width:10;stroke-linecap:round;stroke-linejoin:round;stroke-miterlimit:4;stroke-dasharray:none;stroke-dashoffset:0;stroke-opacity:1;color-rendering:auto;image-rendering:auto;shape-rendering:auto;text-rendering:auto;enable-background:accumulate" d="M-125.817 346.03c0-2.48-.669-7.895 1.986-10.95 2.655-3.056 6.934-6.35 12.688-9.553 11.507-6.407 28.803-12.459 50.312-17.524 43.019-10.13 102.935-16.472 169.104-16.472 66.169 0 126.087 6.343 169.105 16.472 21.51 5.065 38.805 11.117 50.313 17.524 5.753 3.203 10.032 6.497 12.687 9.553 2.655 3.055 3.666 5.666 3.666 8.146z"/><path style="fill:#fff;fill-opacity:1;stroke-width:1.01888418" d="M100.365 233.108l4.562 37.712c1.051 8.692 1.87 3.207 7.908 40.65.459 2.844-16.4 2.159-16.4 2.159s-24.287-.055-27.655-1.81c-4.394-2.29 2.287-6.275 6.374-40.505l4.562-38.206z"/><path style="fill:#7ab839;fill-opacity:1;stroke-width:1.01888418" d="M79.716 230.462l.517-18.608V179.245l-18.585-18.196c-19.539-19.13-20.4-20.414-17.383-25.93 1.851-3.385 4.117-4.643 8.429-4.678 3.656-.03 4.834.808 15.745 11.191l11.793 11.223.007-33.595c.003-19.583.442-35.125 1.052-37.262 1.668-5.849 8.145-8.623 13.552-5.804 3.715 1.936 5.007 7.025 5.007 19.718v11.82l7.232-6.989c6.588-6.367 7.607-6.989 11.466-6.989 3.352 0 4.75.584 6.707 2.799 5.224 5.915 3.041 9.963-14.454 26.8l-10.951 10.54V172.03l12.227-11.762c10.533-10.132 12.69-11.761 15.566-11.761 4.395 0 9.375 4.686 9.375 8.821 0 4.146-3.717 8.6-21.573 25.856l-15.595 15.07v6.929l.515 25.278zM-61.306 231.026l.092-34.964v-16.798l-13.938-13.699c-12.146-11.937-13.938-14.119-13.938-16.963 0-4.294 4.804-9.143 9.057-9.143 3.32 0 9.031 3.688 14.689 9.486l3.614 3.703.516-22.16.516-22.159 2.811-2.735c3.846-3.742 9.117-3.742 12.962 0l2.811 2.737.313 31.696.313 31.697 3.122-2.559c6.489-5.317 15.353-1.808 15.353 6.078 0 3.306-.991 4.684-9.292 12.928l-9.293 9.228v33.56z"/></g></svg>