<?xml version="1.0" encoding="UTF-8" standalone="no"?>
<!-- Created with Inkscape (http://www.inkscape.org/) -->

<svg
   xmlns:dc="http://purl.org/dc/elements/1.1/"
   xmlns:cc="http://creativecommons.org/ns#"
   xmlns:rdf="http://www.w3.org/1999/02/22-rdf-syntax-ns#"
   xmlns:svg="http://www.w3.org/2000/svg"
   xmlns="http://www.w3.org/2000/svg"
   xmlns:sodipodi="http://sodipodi.sourceforge.net/DTD/sodipodi-0.dtd"
   xmlns:inkscape="http://www.inkscape.org/namespaces/inkscape"
   width="678.84521mm"
   height="691.18787mm"
   viewBox="0 0 678.84521 691.18787"
   version="1.1"
   id="svg6923"
   inkscape:version="0.92.4 (5da689c313, 2019-01-14)"
   sodipodi:docname="Habitat_icon_vert.svg">
  <defs
     id="defs6917" />
  <sodipodi:namedview
     id="base"
     pagecolor="#ffffff"
     bordercolor="#666666"
     borderopacity="1.0"
     inkscape:pageopacity="0.0"
     inkscape:pageshadow="2"
     inkscape:zoom="0.24748738"
     inkscape:cx="2679.7019"
     inkscape:cy="983.83252"
     inkscape:document-units="mm"
     inkscape:current-layer="layer1"
     showgrid="false"
     inkscape:window-width="1920"
     inkscape:window-height="1027"
     inkscape:window-x="-8"
     inkscape:window-y="-8"
     inkscape:window-maximized="1"
     inkscape:lockguides="true"
     fit-margin-top="0"
     fit-margin-left="0"
     fit-margin-right="0"
     fit-margin-bottom="0" />
  <metadata
     id="metadata6920">
    <rdf:RDF>
      <cc:Work
         rdf:about="">
        <dc:format>image/svg+xml</dc:format>
        <dc:type
           rdf:resource="http://purl.org/dc/dcmitype/StillImage" />
        <dc:title></dc:title>
      </cc:Work>
    </rdf:RDF>
  </metadata>
  <g
     inkscape:label="Calque 1"
     inkscape:groupmode="layer"
     id="layer1"
     transform="translate(233.58926,196.7606)">
    <ellipse
       style="fill:#7ab839;fill-opacity:1;stroke-width:0.21599621"
       id="path6628"
       cx="105.83334"
       cy="148.83333"
       rx="339.42261"
       ry="345.59393"
       inkscape:export-xdpi="96"
       inkscape:export-ydpi="96" />
    <path
       style="fill:#ffffff;fill-opacity:1;stroke:none;stroke-width:4.61899996;stroke-miterlimit:4;stroke-dasharray:none;stroke-opacity:1"
       d="m 41.838333,225.09517 2.645833,-4.15774 c -1.06576,2.31826 -5.503193,8.42459 -7.119023,9.02289 -1.60686,0.59499 -18.09549,0.99802 -40.82902,0.99802 h -38.13363 l -19.70829,0.0681 -39.596443,-0.28543 c -36.87061,-0.26578 -39.74193,-0.41374 -41.71008,-2.14932 -1.16252,-1.02512 -2.39787,-3.124 -2.74522,-4.66418 -0.44659,-1.98021 11.78465,-47.22427 41.76469,-154.490065 23.317943,-83.429365 43.154583,-153.146213 44.081433,-154.926321 2.94538,-5.656874 10.54773,-6.496344 14.98717,-1.654913 0.96864,1.056347 8.34127,25.581868 16.88576,56.171553 13.68369,48.988122 72.122653,256.994826 72.122653,251.909666"
       id="path8829"
       inkscape:connector-curvature="0" />
    <ellipse
       style="fill:#ffffff;fill-opacity:1;stroke:none;stroke-width:4.31472921;stroke-linecap:round;stroke-linejoin:round;stroke-miterlimit:4;stroke-dasharray:none;stroke-opacity:1"
       id="path8839"
       cx="262.31549"
       cy="129.19868"
       rx="116.41666"
       ry="120.97254" />
    <path
       style="fill:#ffffff;fill-opacity:1;stroke-width:1.01888418"
       d="m -41.597505,230.95834 c 0,0 0.33677,16.725 2.398826,35.94633 2.062056,19.22133 4.113062,41.71215 3.471,43.9636 -1.960174,6.8736 -16.483512,4.79621 -22.074259,0.11473 h 8.4e-4 l -10.380389,3.45424 c 0,0 1.553042,-27.59537 4.506923,-45.1799 2.953881,-17.58453 2.368765,-38.23087 2.368765,-38.23087 z"
       id="path8745"
       inkscape:connector-curvature="0"
       sodipodi:nodetypes="czcccczcc" />
    <path
       style="fill:#ffffff;fill-opacity:1;stroke-width:1.01888418"
       d="m 250.58725,249.18041 -1.32292,28.92602 -1.98437,28.64254 5.9802,3.56609 c 3.5736,4.13604 9.203,4.32503 13.18937,0.44279 l 6.02921,-0.47749 -1.70089,-31.58261 -1.60635,-29.40921 -18.58425,-0.10813 -4.90415,-0.62191"
       id="path8753"
       inkscape:connector-curvature="0"
       sodipodi:nodetypes="cccccccccc" />
    <path
       style="fill:#ffffff;fill-opacity:1;stroke:#7ab839;stroke-width:10.85002804;stroke-miterlimit:4;stroke-dasharray:none;stroke-opacity:1"
       d="m 100.36507,227.2874 5.88114,-0.7391 c 3.23462,-0.40647 10.80237,-2.36977 16.81722,-4.36287 31.63324,-10.48205 55.65961,-35.0671 65.33971,-66.85901 9.07069,-29.79059 1.0005,-101.728432 -17.66008,-157.4220432 -16.3448,-48.7819398 -41.0499,-86.1828558 -64.20039,-97.1925088 -6.92589,-3.293748 -8.85967,-3.721358 -16.828739,-3.721358 -7.970843,0 -9.900271,0.42688 -16.81967,3.721358 -44.074679,20.984892 -85.713634,127.562735 -87.351106,220.260742 1.300237,16.90798 2.635412,22.9922 4.384925,29.66641 7.146029,32.87532 29.854459,56.90816 60.333273,69.40149 7.896736,3.23691 21.244581,6.81812 25.738999,6.90573 l 3.080606,0.06 z"
       id="path8757"
       inkscape:connector-curvature="0"
       sodipodi:nodetypes="ccccscsscccccc" />
    <path
       style="fill:#7ab839;fill-opacity:1;stroke-width:1.01888418"
       d="m 250.61087,249.70013 c -0.023,0.58481 -0.0236,-26.06878 -0.0236,-35.02399 v -16.2822 l -18.58419,-18.26752 c -17.75296,-17.45045 -18.58273,-18.44243 -18.55135,-22.17786 0.0357,-4.25796 1.3156,-6.46167 4.80345,-8.2708 5.23052,-2.71303 7.19315,-1.67839 20.02939,10.55904 l 12.3027,11.72878 v -21.84979 c 0,-22.11816 0.22365,-24.58865 3.56788,-27.08921 3.34423,-2.50055 9.48402,-2.68201 13.05144,0.61575 3.37438,2.83388 1.53155,26.0786 1.96488,34.5647 0,17.33938 0.35675,31.52616 0.79279,31.52616 0.43603,0 5.66283,-4.78841 11.61512,-10.64092 5.95228,-5.8525 11.93462,-11.0695 13.29405,-11.59334 4.04707,-1.5594 9.33237,0.71214 11.06757,4.75672 0.80647,1.87967 1.19615,4.46568 0.86604,5.74667 -0.33009,1.28099 -8.93316,10.43502 -19.11791,20.34225 l -18.51766,18.01319 v 7.36805 c 0,6.532 0.005,27.00938 0.0473,26.20056 z"
       id="path8727"
       inkscape:connector-curvature="0"
       sodipodi:nodetypes="cscsccscszccsscccccscc" />
    <path
       style="color:#000000;font-style:normal;font-variant:normal;font-weight:normal;font-stretch:normal;font-size:medium;line-height:normal;font-family:sans-serif;font-variant-ligatures:normal;font-variant-position:normal;font-variant-caps:normal;font-variant-numeric:normal;font-variant-alternates:normal;font-feature-settings:normal;text-indent:0;text-align:start;text-decoration:none;text-decoration-line:none;text-decoration-style:solid;text-decoration-color:#000000;letter-spacing:normal;word-spacing:normal;text-transform:none;writing-mode:lr-tb;direction:ltr;text-orientation:mixed;dominant-baseline:auto;baseline-shift:baseline;text-anchor:start;white-space:normal;shape-padding:0;clip-rule:nonzero;display:inline;overflow:visible;visibility:visible;opacity:1;isolation:auto;mix-blend-mode:normal;color-interpolation:sRGB;color-interpolation-filters:linearRGB;solid-color:#000000;solid-opacity:1;vector-effect:none;fill:#ffffff;fill-opacity:1;fill-rule:nonzero;stroke:none;stroke-width:10;stroke-linecap:round;stroke-linejoin:round;stroke-miterlimit:4;stroke-dasharray:none;stroke-dashoffset:0;stroke-opacity:1;color-rendering:auto;image-rendering:auto;shape-rendering:auto;text-rendering:auto;enable-background:accumulate"
       d="m -125.81742,346.02918 c 0,-2.47966 -0.6683,-7.89434 1.98663,-10.94952 2.65493,-3.05518 6.93387,-6.34949 12.6875,-9.55273 11.507256,-6.40649 28.803174,-12.45845 50.312493,-17.52344 43.018639,-10.12998 102.934643,-16.47266 169.103527,-16.47266 66.16887,0 126.08683,6.34268 169.10547,16.47266 21.50932,5.06499 38.80523,11.11695 50.3125,17.52344 5.75363,3.20324 10.03256,6.49755 12.6875,9.55273 2.65493,3.05518 3.66601,5.66683 3.66601,8.14649 z"
       id="path8113"
       inkscape:connector-curvature="0"
       sodipodi:nodetypes="cssssssccc" />
    <path
       style="fill:#ffffff;fill-opacity:1;stroke-width:1.01888418"
       d="m 100.36506,233.10829 4.56189,37.71121 c 1.05155,8.69268 1.87089,3.20724 7.90815,40.65122 0.45848,2.84359 -16.399307,2.15827 -16.399307,2.15827 0,0 -24.288191,-0.0548 -27.656241,-1.81023 -4.39332,-2.28981 2.287276,-6.2749 6.37453,-40.50519 l 4.561891,-38.20533 z"
       id="path8773"
       inkscape:connector-curvature="0"
       sodipodi:nodetypes="cssscscc" />
    <path
       style="fill:#7ab839;fill-opacity:1;stroke-width:1.01888418"
       d="m 79.715973,230.46239 0.51704,-18.60845 -8.1e-4,-16.30467 v -16.30473 l -18.58421,-18.19511 c -19.53873,-19.12968 -20.399789,-20.41412 -17.383087,-25.93026 1.851529,-3.38558 4.117426,-4.6431 8.429077,-4.678 3.65586,-0.0296 4.83451,0.80816 15.74495,11.19095 l 11.79327,11.22295 0.007,-33.59513 c 0.003,-19.582521 0.44201,-35.124741 1.05167,-37.262351 1.66803,-5.848425 8.14497,-8.622324 13.55221,-5.804015 3.71468,1.936115 5.00701,7.025465 5.00701,19.718255 V 107.7317 l 7.231427,-6.98863 c 6.58871,-6.367451 7.60788,-6.988631 11.4666,-6.988631 3.35198,0 4.75052,0.58354 6.70669,2.79832 5.22433,5.915021 3.04121,9.963011 -14.45338,26.800021 l -10.951787,10.53969 v 19.06882 19.06882 l 12.227027,-11.76103 c 10.53376,-10.13231 12.68947,-11.76104 15.56625,-11.76104 4.39504,0 9.37512,4.68584 9.37512,8.82122 0,4.14573 -3.71664,8.60009 -21.57348,25.85566 l -15.594917,15.0698 v 6.92919 l 0.515427,25.27851 z"
       id="path8723"
       inkscape:connector-curvature="0" />
    <path
       style="fill:#7ab839;fill-opacity:1;stroke-width:1.01888418"
       d="m -61.305799,231.02647 0.09164,-34.96447 v -16.79752 l -13.938143,-13.69916 c -12.1457,-11.93744 -13.938144,-14.119 -13.938144,-16.96381 0,-4.29314 4.804597,-9.14289 9.05776,-9.14289 3.319853,0 9.03108,3.68851 14.688699,9.48652 l 3.613608,3.70326 0.51622,-22.15955 0.51622,-22.15955 2.811103,-2.7353 c 3.846201,-3.74247 9.116547,-3.74209 12.962,8.8e-4 l 2.811104,2.73623 0.312697,31.69622 0.312714,31.69622 3.121992,-2.55837 c 6.48891,-5.31746 15.353008,-1.80828 15.353008,6.07805 0,3.30586 -0.990686,4.6842 -9.292095,12.92821 l -9.292096,9.22785 v 7.73006 l 3e-6,25.82899 z"
       id="path8731"
       inkscape:connector-curvature="0" />
  </g>
</svg>
