<svg xmlns="http://www.w3.org/2000/svg" width="4819.303" height="4819.983"><path style="fill:#000;stroke-width:2.72121453" d="M2292.655 4819.001c-6.735-.546-31.838-2.292-55.785-3.88-482.374-31.969-963.685-221.77-1344.28-530.108-94.71-76.73-217.645-194.59-292.832-280.746-147.356-168.854-262.345-341.598-357.751-537.44-135.848-278.854-212.377-562.7-238.447-884.394-4.747-58.578-4.747-287.017 0-345.595 26.07-321.693 102.6-605.54 238.447-884.394 95.406-195.842 210.395-368.586 357.751-537.44 47.305-54.207 161.071-167.973 215.278-215.278 168.854-147.356 341.598-262.345 537.44-357.751 251.357-122.452 514.77-198.791 791.873-229.492C2241.65 1.703 2277.854 0 2409.667 0c131.814 0 168.018 1.704 265.319 12.483 458.356 50.782 895.105 232.833 1251.758 521.775 125.333 101.538 256.763 232.968 358.301 358.3 63.893 78.867 141.667 190.022 193.255 276.204 178.018 297.39 290.338 630.93 328.52 975.555 10.78 97.301 12.483 133.505 12.483 265.319 0 131.813-1.704 168.017-12.484 265.318-50.78 458.356-232.833 895.105-521.774 1251.759-76.73 94.71-194.59 217.645-280.746 292.832-168.854 147.356-341.598 262.345-537.44 357.751-272.9 132.947-552.794 209.652-863.985 236.774-46.85 4.084-275.833 7.723-310.219 4.931zm289.81-1176.533c7.483-1.641 33.81-4.034 58.506-5.315 24.695-1.282 52.247-4.195 61.227-6.472 8.98-2.278 26.542-4.964 39.027-5.971 12.485-1.007 27.64-3.573 33.677-5.703 6.038-2.13 19.09-3.927 29.003-3.993 9.915-.065 22.925-1.964 28.911-4.219 5.987-2.254 19.316-5.249 29.62-6.654 10.305-1.406 20.154-3.734 21.888-5.173 1.734-1.439 11.672-3.43 22.083-4.426 10.412-.995 21.551-3.445 24.754-5.443 3.203-1.997 12.387-4.486 20.409-5.53 8.022-1.045 18.853-4.167 24.07-6.937 5.216-2.77 13.21-5.038 17.762-5.038 4.554 0 10.846-1.798 13.982-3.994 3.137-2.197 11.063-4.791 17.613-5.764 6.55-.973 14.36-3.27 17.353-5.104 2.993-1.834 10.733-4.167 17.199-5.184 6.466-1.017 14.426-3.52 17.688-5.563 3.262-2.042 10.4-4.495 15.862-5.451 5.462-.956 11.429-3.543 13.26-5.748 1.83-2.206 6.686-4.01 10.79-4.01 4.105 0 10.577-2.45 14.383-5.442 3.805-2.994 9.787-5.451 13.293-5.46 3.505 0 10.047-2.452 14.537-5.425 4.49-2.974 10.22-5.415 12.731-5.425 2.513 0 6.345-1.794 8.516-3.965 2.17-2.171 7.463-4.785 11.76-5.808 4.296-1.024 9.648-3.438 11.893-5.365 2.245-1.927 7.548-4.37 11.785-5.427 4.237-1.058 8.319-3.527 9.071-5.488.753-1.961 4.926-4.347 9.274-5.302 4.347-.955 8.68-2.992 9.629-4.526.948-1.534 5.554-4.55 10.235-6.704 4.682-2.153 13.033-6.62 18.559-9.927l24.852-14.873c8.143-4.874 16.324-10.69 18.18-12.926 1.855-2.236 4.483-4.064 5.84-4.064 3.295 0 46.166-33.55 59.983-46.941 2.702-2.62 5.845-4.763 6.984-4.763 1.14 0 5.119-3.722 8.844-8.271 3.725-4.55 13.186-15.136 21.023-23.525 16.348-17.497 49.699-65.941 49.699-72.19 0-2.307 1.758-5.655 3.907-7.438 2.149-1.784 4.718-7.138 5.71-11.898.99-4.761 3.403-11.192 5.36-14.292 1.957-3.099 4.437-12.895 5.511-21.77 1.074-8.873 3.333-17.853 5.019-19.954 2.196-2.737 3.142-53.685 3.335-179.6.147-96.68-.29-178.535-.976-181.903-1.778-8.75-8.069-7.564-10.15 1.913-.97 4.42-3.947 10.849-6.613 14.286-2.667 3.438-5.555 11.663-6.418 18.278-.883 6.765-3.442 13.075-5.849 14.422-2.353 1.317-4.279 4.617-4.279 7.334 0 2.717-2.191 7.861-4.87 11.43-2.679 3.57-6.4 9.551-8.271 13.293-6.164 12.33-10.82 19.76-13.445 21.457-1.423.92-4.627 5.653-7.119 10.517-4.544 8.869-53.902 60.472-57.996 60.634-1.2.046-6.407 4.333-11.574 9.524-5.166 5.191-10.328 9.438-11.471 9.438-1.143 0-5.614 3.367-9.936 7.483s-10.6 9.32-13.954 11.566c-3.353 2.244-9.893 6.837-14.534 10.204-4.641 3.368-9.977 6.123-11.857 6.123-1.88 0-4.397 1.556-5.594 3.459-1.196 1.902-5.237 4.988-8.979 6.857-3.741 1.869-11.701 6.313-17.688 9.876-5.986 3.563-18.232 10.375-27.212 15.138s-19.389 10.341-23.13 12.396c-3.742 2.056-12.926 6.355-20.41 9.555-7.483 3.199-18.134 8.151-23.669 11.004-5.535 2.853-11.798 5.188-13.92 5.188-2.12 0-6.969 2.449-10.774 5.442-3.805 2.993-8.873 5.442-11.262 5.442-2.388 0-8.912 2.45-14.497 5.443-5.585 2.993-11.82 5.442-13.857 5.442-2.036 0-6.952 1.74-10.925 3.865-9.65 5.164-31.315 12.198-48.04 15.596-7.484 1.52-15.444 4.334-17.689 6.252-2.245 1.918-9.98 4.253-17.189 5.188-7.209.935-15.747 3.548-18.974 5.808-3.226 2.26-10.186 4.136-15.465 4.17-5.28.031-14.937 2.481-21.461 5.442-6.525 2.96-16.321 5.39-21.77 5.4-5.449 0-13.412 1.843-17.695 4.077-4.283 2.234-15.304 5.293-24.49 6.799-9.188 1.505-21.603 4.514-27.59 6.687-5.986 2.173-15.782 4.019-21.769 4.102-5.987.085-17.62 2.004-25.852 4.268-8.231 2.264-25.987 5.253-39.457 6.641-13.47 1.389-31.187 4.42-39.37 6.736-8.184 2.317-22.927 4.212-32.764 4.212-9.836 0-24.57 1.685-32.741 3.745-8.172 2.06-33.839 4.53-57.037 5.491-23.199.96-55.037 3.522-70.752 5.693-33.181 4.584-225.2 5.557-257.155 1.305-10.476-1.395-43.539-3.748-73.472-5.23-29.934-1.482-61.16-4.439-69.391-6.57-8.232-2.132-29.05-4.765-46.261-5.85-17.212-1.086-34.266-3.1-37.898-4.477-3.632-1.376-17.714-3.569-31.294-4.872-13.58-1.304-28.364-4.306-32.854-6.671-4.49-2.365-14.01-4.308-21.157-4.317-7.147 0-19.962-2.466-28.478-5.46-8.517-2.993-21.405-5.442-28.64-5.442-7.236 0-16.73-1.848-21.1-4.108-4.37-2.26-15.023-5.212-23.676-6.56-8.652-1.349-20.629-4.344-26.615-6.657-5.987-2.313-13.701-4.26-17.143-4.325-3.442-.065-9.565-1.812-13.606-3.88-4.042-2.067-12.832-4.671-19.534-5.786-6.703-1.115-14.662-3.59-17.688-5.503-3.026-1.911-10.636-4.302-16.91-5.31-6.275-1.01-12.804-3.517-14.51-5.571-1.705-2.055-8.47-4.542-15.035-5.526-6.565-.984-13.27-3.398-14.901-5.363-1.631-1.965-7.787-4.388-13.68-5.383-5.892-.996-11.384-2.895-12.203-4.22-.82-1.327-6.643-3.727-12.94-5.336-6.298-1.608-15.736-4.869-20.975-7.245a5362.112 5362.112 0 0 0-21.77-9.797c-6.735-3.011-14.082-6.503-16.327-7.758-2.245-1.255-12.041-6.012-21.77-10.571-9.728-4.559-19.524-9.432-21.77-10.83-2.244-1.398-11.374-6.366-20.289-11.04-8.914-4.675-19.182-10.84-22.817-13.699-3.635-2.86-7.849-5.199-9.363-5.199-1.515 0-7.779-4.006-13.92-8.901-6.14-4.896-16.675-12.55-23.41-17.008-6.735-4.458-13.47-9.033-14.967-10.167-35.276-26.726-61.696-52.51-91.298-89.1-13.985-17.285-17.516-22.582-23.006-34.509-2.193-4.762-5.135-9.368-6.54-10.236-1.404-.868-3.4-5.543-4.437-10.39-1.036-4.847-3.544-11.874-5.573-15.616-2.029-3.742-4.996-12.007-6.593-18.368-2.921-11.629-6.036-13.67-13.58-8.903-3.554 2.247-4.082 23.618-4.082 165.273 0 165.28 1.573 207.143 8.168 217.399 2.025 3.149 4.511 10.146 5.525 15.55 1.013 5.404 3.473 11.178 5.465 12.831 1.992 1.654 4.392 6.51 5.333 10.794.94 4.283 3.468 9.247 5.617 11.03 2.149 1.783 3.907 4.534 3.907 6.111 0 4.382 24.71 40.203 34.695 50.295 4.865 4.917 8.844 9.83 8.844 10.92 0 1.089 3.83 5.027 8.51 8.753 4.679 3.725 15.396 13.508 23.814 21.74 17.146 16.765 42.348 38.097 45.008 38.097.96 0 7.94 4.898 15.514 10.885 7.574 5.986 15.437 10.884 17.473 10.884 2.036 0 4.681 1.652 5.878 3.671 2.004 3.381 6.976 6.499 25.306 15.868 3.742 1.912 7.706 4.897 8.81 6.632 1.103 1.735 5.292 3.98 9.31 4.988 4.016 1.009 10.32 4.207 14.007 7.107 3.687 2.9 8.857 5.274 11.489 5.274 2.631 0 5.49 1.837 6.35 4.082.862 2.245 4.36 4.09 7.775 4.1 3.414 0 9.882 2.45 14.372 5.424s9.807 5.415 11.816 5.424c2.009 0 6.766 2.467 10.572 5.46 3.805 2.994 9.665 5.443 13.021 5.443 3.357 0 7.528 1.717 9.27 3.815 1.74 2.098 6.44 4.637 10.443 5.641 4.002 1.005 12.457 4.186 18.787 7.07 6.33 2.884 13.142 5.244 15.136 5.244 1.994 0 6.104 1.736 9.132 3.857 3.03 2.121 10.343 4.725 16.253 5.787 5.91 1.061 12.582 3.478 14.827 5.371 2.245 1.893 9.216 4.282 15.49 5.31 6.275 1.029 12.804 3.551 14.51 5.606 1.705 2.054 8.817 4.588 15.803 5.629 6.987 1.041 15.153 3.477 18.146 5.413 2.993 1.936 12.092 4.392 20.219 5.458 8.127 1.067 17.923 3.582 21.77 5.59 3.846 2.006 11.279 3.663 16.517 3.682 5.238.027 13.097 1.897 17.465 4.174 4.367 2.278 15.778 5.251 25.357 6.608 9.58 1.356 19.067 3.836 21.084 5.51 2.018 1.675 14.105 4.12 26.86 5.437 12.757 1.316 25.584 3.672 28.505 5.236 2.922 1.563 15.826 4.037 28.676 5.497 12.85 1.46 26.031 4.083 29.292 5.827 3.26 1.745 20.738 4.149 38.84 5.341 18.102 1.193 36.735 3.367 41.406 4.83 4.672 1.465 23.04 3.487 40.818 4.495 17.779 1.007 39.06 3.153 47.291 4.77 24.307 4.77 110.135 6.93 240.828 6.062 75.608-.502 127.66-1.955 136.06-3.798zm-39.458-499.446c21.702-2.104 56.601-4.58 77.555-5.503 20.953-.922 45.826-3.433 55.273-5.58 9.447-2.146 24.865-3.903 34.263-3.903s23.098-1.894 30.445-4.21c7.347-2.314 26.113-5.395 41.703-6.845 15.59-1.45 29.844-3.88 31.676-5.4 1.83-1.52 12.954-3.922 24.718-5.338s26.287-4.385 32.273-6.598c5.987-2.214 16.762-4.078 23.946-4.144 7.184-.065 16.368-1.813 20.41-3.882 4.04-2.07 14.082-4.635 22.314-5.702 8.232-1.066 17.679-3.658 20.994-5.761 3.315-2.103 8.825-3.877 12.245-3.942 3.42-.065 11.117-2.024 17.103-4.352 5.987-2.327 17.982-5.843 26.656-7.813 8.674-1.97 17.246-4.772 19.049-6.226 1.802-1.454 8.788-3.549 15.523-4.654 6.735-1.105 14.66-3.692 17.613-5.75 2.952-2.057 8.462-3.745 12.245-3.75 3.783 0 10.888-2.455 15.788-5.443 4.9-2.988 10.429-5.432 12.286-5.432 1.856 0 7.945-2.45 13.53-5.443 5.585-2.993 13.133-5.442 16.773-5.442 3.64 0 8.395-1.777 10.566-3.948 2.171-2.17 7.463-4.798 11.76-5.839 4.296-1.04 12.097-4.056 17.336-6.7 5.238-2.646 16.871-8.231 25.851-12.413 8.98-4.181 16.94-8.357 17.688-9.278.749-.922 9.32-5.689 19.049-10.593 9.728-4.904 22.586-11.827 28.572-15.384 5.987-3.557 13.908-7.792 17.601-9.412 3.694-1.619 11.86-7.158 18.146-12.31 6.287-5.15 12.272-9.366 13.3-9.366 1.03 0 5.245-2.755 9.368-6.122 4.124-3.368 10.262-7.96 13.64-10.205 12.582-8.363 39.59-30.558 41.691-34.261 1.197-2.11 3.953-3.836 6.123-3.836 2.17 0 3.947-1.232 3.947-2.739 0-1.506 8.734-11.609 19.41-22.45 10.675-10.84 22.226-23.997 25.668-29.235 3.443-5.239 11.844-17.484 18.67-27.212 6.827-9.729 12.42-18.96 12.43-20.515 0-1.554 2.465-7.63 5.458-13.5 2.994-5.872 5.443-12.297 5.443-14.278 0-1.981 1.719-6.314 3.82-9.629 2.101-3.315 4.66-11.537 5.686-18.272 1.026-6.735 3.52-17.278 5.542-23.43 2.933-8.922 3.672-46.235 3.655-184.616 0-95.389-.682-175.156-1.49-177.26-2.448-6.382-8.343-4.295-10.327 3.655-1.028 4.116-3.76 9.582-6.07 12.148-2.312 2.565-5.281 10.431-6.598 17.48-1.317 7.049-4.228 14.843-6.47 17.32-2.242 2.477-4.076 6.385-4.076 8.684 0 2.3-2.191 7.102-4.87 10.671-2.679 3.57-6.4 9.551-8.271 13.293-6.958 13.917-10.578 19.147-22.331 32.266-2.298 2.565-7.776 9.518-12.172 15.452-8.866 11.965-23.677 26.676-41.983 41.698-6.64 5.45-15.825 13.314-20.41 17.478-4.584 4.163-13.234 10.894-19.22 14.959-5.987 4.064-11.775 8.762-12.862 10.441-1.087 1.68-5.679 4.586-10.204 6.461-4.526 1.875-8.228 4.484-8.228 5.8 0 1.314-1.53 2.392-3.402 2.394-1.87 0-10.41 4.869-18.976 10.815-8.566 5.946-18.58 11.566-22.253 12.487-3.673.922-7.34 3.403-8.15 5.513-.81 2.11-3.795 3.836-6.634 3.836-2.838 0-8.08 2.192-11.65 4.87-3.57 2.68-9.551 6.344-13.293 8.144-3.742 1.8-8.64 4.298-10.885 5.55-16.497 9.202-27.71 14.09-32.319 14.09-2.964 0-7.165 1.777-9.337 3.948-2.17 2.171-7.463 4.807-11.76 5.857-4.296 1.05-10.732 4.173-14.3 6.938-3.57 2.765-8.779 5.027-11.576 5.027-2.797 0-9.655 2.45-15.24 5.443-5.585 2.993-12.655 5.442-15.712 5.442-3.056 0-8.124 1.798-11.26 3.995-3.137 2.197-11.062 4.809-17.613 5.804-6.55.995-13.747 3.334-15.992 5.197-2.245 1.863-9.884 4.222-16.975 5.242-7.091 1.02-14.452 3.414-16.357 5.32-1.905 1.905-10.047 4.243-18.094 5.196-8.046.953-16.605 3.457-19.018 5.566-2.414 2.108-10.253 4.677-17.42 5.708-7.166 1.032-17.229 3.63-22.362 5.776-5.133 2.144-13.964 3.926-19.625 3.959-5.66.033-15.63 2.482-22.154 5.442-6.524 2.96-15.905 5.383-20.847 5.383-4.941 0-16.747 2.433-26.234 5.407-9.488 2.974-24.331 5.423-32.985 5.443-8.654.027-20.277 1.933-25.829 4.252-5.552 2.32-19.9 4.878-31.886 5.686-11.986.806-27.303 3.097-34.039 5.089-15.891 4.7-31.648 6.595-58.506 7.037-11.973.196-29.117 1.951-38.097 3.898-15.195 3.294-42.363 4.881-138.782 8.105-20.953.7-56.55 2.04-79.104 2.976-23.249.965-55.656.407-74.833-1.288-18.605-1.645-59.542-3.555-90.972-4.245-31.43-.69-61.431-2.6-66.67-4.245-5.238-1.644-25.443-4.2-44.9-5.68-19.456-1.48-39.05-3.853-43.54-5.273-4.49-1.42-21.928-3.779-38.753-5.24-16.824-1.46-32.85-3.867-35.615-5.346-2.764-1.48-14.714-3.908-26.555-5.397-11.842-1.489-26.083-4.613-31.648-6.943-5.564-2.33-15.507-4.236-22.095-4.236-6.589 0-19.645-2.45-29.015-5.442-9.37-2.994-20.291-5.443-24.27-5.443-3.979 0-12.038-2.449-17.909-5.442-5.871-2.994-15.375-5.443-21.12-5.443-5.744 0-13.75-1.692-17.792-3.76-4.042-2.068-12.832-4.672-19.535-5.786-6.702-1.115-14.661-3.613-17.687-5.552-3.026-1.94-11.28-4.367-18.34-5.395-7.061-1.027-14.225-3.54-15.92-5.582-1.696-2.043-7.552-4.543-13.014-5.557-5.462-1.014-12.38-3.405-15.374-5.313-2.993-1.909-9.99-4.301-15.55-5.317-5.56-1.015-11.526-3.555-13.259-5.644-1.733-2.088-5.757-3.838-8.94-3.89-3.185-.05-10.689-2.458-16.675-5.35-5.987-2.891-12.358-5.299-14.157-5.35-1.8-.05-12.573-4.99-23.94-10.977-11.367-5.986-21.947-10.884-23.51-10.884-1.565 0-5.957-2.45-9.763-5.443-3.805-2.993-9.743-5.442-13.194-5.442-3.452 0-7.11-1.35-8.129-2.999-1.02-1.65-5.684-4.76-10.365-6.914-4.682-2.153-13.41-6.878-19.397-10.5-5.987-3.622-14.252-7.978-18.368-9.68-4.116-1.702-7.483-4.05-7.483-5.22 0-1.168-3.674-3.646-8.164-5.505-4.49-1.86-8.164-4.496-8.164-5.858 0-1.363-2.143-3.3-4.762-4.304-2.619-1.005-10.074-5.558-16.567-10.119-6.492-4.56-13.84-9.555-16.327-11.098-16.494-10.232-86.484-80.602-98.175-98.708-4.537-7.027-9.58-14.334-11.205-16.237-1.625-1.903-4.226-7.108-5.78-11.565-1.554-4.458-3.777-8.106-4.94-8.106-1.163 0-2.888-3.863-3.832-8.584-.944-4.722-3.24-10.393-5.102-12.602-1.862-2.21-4.637-10.286-6.165-17.947-2.424-12.146-3.622-13.93-9.352-13.93-5.173 0-7.075 1.944-8.94 9.142-3.01 11.619-.604 327.285 2.69 352.78 1.353 10.476 4.504 22.721 7.003 27.212 2.498 4.49 4.55 10.768 4.559 13.953 0 3.184 1.775 7.248 3.923 9.032 2.15 1.783 4.714 6.914 5.7 11.402.985 4.487 3.402 8.777 5.371 9.532 1.97.756 4.357 4.47 5.306 8.254 1.914 7.625 11.849 22.816 17.133 26.197 1.871 1.196 3.402 3.51 3.402 5.14 0 3.226 25.105 32.614 38.987 45.637 23.404 21.958 38.749 35.406 40.44 35.444 1.03.027 5.929 3.778 10.885 8.344 4.957 4.566 14.522 11.922 21.257 16.346 6.735 4.425 14.083 9.305 16.328 10.846 6.844 4.697 17.291 10.53 25.171 14.055 4.116 1.841 7.483 4.366 7.483 5.61 0 1.246 3.98 4.123 8.844 6.394 4.864 2.272 13.742 7.078 19.73 10.682 5.986 3.603 13.945 7.868 17.687 9.478 3.742 1.61 11.701 5.164 17.688 7.9 5.987 2.736 12.722 5.726 14.967 6.645 2.245.919 5.918 2.695 8.163 3.945 16.462 9.172 27.691 14.088 32.18 14.088 2.888 0 6.775 1.837 8.638 4.082 1.864 2.245 4.769 4.093 6.456 4.106 1.688.027 9.191 3.037 16.675 6.719 7.483 3.68 16.102 6.73 19.153 6.777 3.051.046 10.351 2.535 16.222 5.528 5.872 2.993 13.172 5.45 16.223 5.46 3.051 0 9.22 2.451 13.71 5.425 4.49 2.974 11.742 5.415 16.114 5.425 4.372 0 9.972 1.848 12.444 4.085 2.473 2.238 10.528 4.852 17.902 5.81 7.374.957 15.244 3.284 17.49 5.171 2.244 1.887 11.09 4.228 19.657 5.2 8.566.973 18.975 3.543 23.13 5.71 4.155 2.168 10.917 3.949 15.027 3.958 4.11 0 14.52 2.364 23.13 5.233 8.612 2.869 21.765 6.049 29.229 7.067 7.463 1.017 16.648 3.399 20.41 5.291 3.76 1.894 15.41 4.148 25.886 5.01 10.477.861 24.407 3.48 30.956 5.818 6.55 2.339 18.294 4.252 26.1 4.252 7.805 0 19.991 1.746 27.08 3.879 7.087 2.133 25.344 4.669 40.57 5.634 15.225.966 39.551 4.119 54.057 7.006 17.898 3.563 37.732 5.251 61.711 5.251 19.435 0 44.602 1.289 55.927 2.864 57.377 7.98 200.26 8.62 276.415 1.237zm-47.621-500.745c80.349-2.127 118.157-4.341 137.903-8.077 9.994-1.891 30.552-3.668 45.684-3.95 15.523-.288 32.311-2.203 38.52-4.394 6.054-2.136 24.806-4.986 41.671-6.333 16.866-1.348 33.098-3.753 36.07-5.344 2.974-1.591 15.423-4.15 27.665-5.684 12.241-1.535 24.664-4.08 27.605-5.653 2.941-1.574 15.433-4.127 27.758-5.672 12.326-1.546 23.674-3.812 25.219-5.037 1.544-1.224 10.155-3.088 19.135-4.141 8.98-1.054 18.777-3.46 21.77-5.349 2.993-1.888 11.486-4.246 18.872-5.24 7.386-.994 15.958-3.457 19.048-5.473 3.09-2.016 11.742-4.566 19.225-5.667 7.484-1.101 15.443-3.58 17.688-5.509 2.245-1.929 9.733-4.32 16.64-5.312 6.908-.993 14.867-3.553 17.689-5.689 2.82-2.136 8.803-3.93 13.293-3.988 4.49-.058 11.837-2.538 16.327-5.511 4.49-2.974 10.631-5.415 13.646-5.425 3.016-.013 10.052-2.467 15.637-5.46 5.585-2.993 11.69-5.484 13.566-5.535 1.876-.05 8.31-2.458 14.296-5.35 5.987-2.892 12.794-5.3 15.127-5.35 2.333-.051 6.62-1.91 9.525-4.13 2.905-2.22 9.874-5.33 15.486-6.908 5.613-1.579 10.205-4.047 10.205-5.486 0-1.44 1.757-2.617 3.905-2.617 4.886 0 13.39-3.729 27.389-12.011 5.987-3.542 19.94-11.166 31.005-16.943 30.292-15.813 33.948-17.922 37.878-21.852 1.99-1.99 5.357-3.618 7.482-3.618 2.126 0 5.394-2.45 7.263-5.443 1.87-2.993 4.275-5.442 5.345-5.442 4.61 0 51.17-35.252 51.17-38.741 0-1.143 1.748-2.077 3.886-2.077 8.645 0 91.356-91.099 91.356-100.621 0-1.532 2.45-5.234 5.442-8.228 2.994-2.993 5.443-8.354 5.443-11.912 0-3.558 1.758-7.929 3.907-9.712 2.149-1.784 4.758-7.12 5.8-11.859 1.04-4.739 3.498-11.083 5.463-14.098 1.964-3.015 4.762-12.83 6.218-21.81 1.456-8.98 3.85-19.447 5.32-23.26 2.845-7.381 4.23-344.594 1.46-355.63-2.091-8.333-8.119-7.799-10.306.914-.977 3.892-4.056 10.321-6.843 14.287-2.787 3.965-5.867 11.496-6.844 16.734-.977 5.239-4.72 15.035-8.319 21.77-3.599 6.735-8.353 16.017-10.567 20.626-2.212 4.609-5.93 9.963-8.262 11.898-2.332 1.935-4.24 5.015-4.24 6.845s-2.448 5.543-5.442 8.252c-2.993 2.71-5.442 6.53-5.442 8.49s-2.45 4.875-5.443 6.477c-2.993 1.602-5.442 4.216-5.442 5.81 0 4.228-65.446 67.663-69.808 67.663-1.016 0-3.787 1.83-6.158 4.067-9.264 8.744-21.56 17.703-24.296 17.703-1.58 0-3.853 1.67-5.05 3.713-1.966 3.355-6.077 6.022-27.01 17.524-3.553 1.953-6.46 4.61-6.46 5.907 0 1.296-3.756 3.181-8.348 4.19-4.59 1.008-9.008 3.555-9.815 5.659-.807 2.103-3.62 3.825-6.252 3.825-2.631 0-7.705 2.191-11.274 4.87-3.57 2.68-9.551 6.388-13.293 8.242-3.742 1.854-14.763 7.596-24.49 12.759-9.73 5.163-19.07 9.413-20.757 9.446-1.688.032-4.593 1.895-6.456 4.14-1.863 2.245-5.196 4.082-7.405 4.082-2.21 0-7.877 1.718-12.593 3.819-34.058 15.166-41.032 17.953-44.96 17.969-2.438.013-8.107 2.45-12.597 5.424s-10.612 5.457-13.606 5.517c-2.993.06-10.34 2.476-16.327 5.368-5.987 2.892-14.715 5.3-19.396 5.35-4.68.051-9.906 1.774-11.612 3.83-1.706 2.056-8.988 4.519-16.182 5.473-7.194.954-15.438 3.52-18.32 5.7-2.883 2.18-8.963 4.004-13.51 4.052-4.548.047-12.745 2.368-18.217 5.158-5.47 2.79-16.33 5.918-24.13 6.953-7.802 1.035-17.36 3.508-21.242 5.496-3.882 1.987-14.987 4.521-24.677 5.63-9.69 1.11-20.1 3.556-23.13 5.437-3.032 1.882-13.47 4.158-23.2 5.059-9.728.9-22.585 3.44-28.572 5.645-5.987 2.205-18.344 4.062-27.46 4.128-9.116.065-22.586 1.974-29.933 4.241-7.347 2.267-25.89 5.351-41.208 6.854-15.317 1.503-31.236 4.046-35.376 5.651-4.14 1.606-28.343 3.922-53.787 5.148-25.443 1.226-53.608 3.87-62.588 5.874-22.058 4.925-332.581 4.954-354.673.033-7.986-1.779-32.477-4.503-54.424-6.052-21.947-1.55-46.815-4.602-55.262-6.782-8.448-2.18-24.367-3.992-35.376-4.028-11.01-.036-24.915-1.387-30.902-3.003-5.986-1.617-19.456-4.117-29.933-5.558-10.477-1.44-27.008-5.004-36.736-7.92-9.729-2.917-22.7-5.285-28.827-5.263-6.127.022-18.258-2.41-26.958-5.403-8.7-2.994-20.253-5.443-25.672-5.443-5.42 0-12.607-1.928-15.972-4.285-3.366-2.358-13.128-4.997-21.695-5.866-8.567-.868-18.026-3.11-21.019-4.98-2.993-1.87-12.148-4.28-20.343-5.359-8.196-1.077-17.38-3.525-20.41-5.44-3.029-1.914-10.705-4.316-17.058-5.339-6.354-1.022-12.166-2.854-12.918-4.07-.751-1.216-7.768-3.747-15.593-5.624-7.825-1.877-15.876-5.061-17.891-7.076-2.015-2.015-6.35-3.664-9.632-3.664-3.283 0-10.538-2.449-16.123-5.442-5.585-2.994-12.302-5.45-14.927-5.46-2.624-.013-8.445-2.451-12.935-5.425-4.49-2.974-11.032-5.415-14.538-5.424-3.505-.013-9.487-2.467-13.292-5.46-3.806-2.994-9.316-5.443-12.246-5.443-2.93 0-8.44-2.45-12.245-5.443-3.806-2.993-9.053-5.442-11.662-5.442-2.608 0-6.24-1.805-8.07-4.01s-7.447-4.783-12.481-5.727c-5.035-.945-10.507-3.347-12.16-5.34-1.654-1.992-6.596-4.41-10.982-5.373-4.387-.964-7.976-2.746-7.976-3.962 0-1.215-4.592-4.23-10.204-6.7-12.535-5.517-25.169-12.716-29.853-17.011-1.933-1.773-5.957-3.999-8.94-4.946-2.985-.947-5.427-2.668-5.427-3.823 0-1.156-3.004-3.47-6.675-5.143-15.685-7.146-61.31-43.988-89.982-72.66-28.218-28.219-39.816-42.263-49.757-60.251-1.953-3.533-4.61-6.424-5.906-6.424-1.297 0-3.145-3.589-4.109-7.976-.963-4.386-3.51-9.434-5.658-11.218-2.15-1.783-3.907-5.376-3.907-7.984 0-2.609-2.336-7.712-5.19-11.34-2.854-3.63-6.025-12.164-7.045-18.966-1.02-6.802-2.935-14.1-4.256-16.219-3.61-5.787-11.373.19-14.146 10.89-2.972 11.473-.542 327.642 2.71 352.622 1.365 10.477 4.525 22.723 7.024 27.213 2.498 4.49 4.55 10.769 4.559 13.953 0 3.184 1.775 7.248 3.923 9.032 2.15 1.783 4.695 6.831 5.66 11.218.963 4.386 2.94 7.975 4.395 7.975 1.454 0 4.434 4.286 6.623 9.525 2.189 5.238 5.188 9.524 6.664 9.524 1.477 0 2.685 2.386 2.685 5.302 0 2.916 2.755 8.357 6.122 12.091 3.368 3.734 10.406 12.063 15.64 18.509 8.406 10.35 24.667 26.809 57.434 58.13 5.393 5.156 11.249 9.374 13.012 9.374s3.848 1.675 4.634 3.723c.785 2.048 7.788 7.808 15.561 12.802 7.773 4.993 14.568 10.132 15.1 11.42.53 1.287 3.591 3.549 6.802 5.025 3.21 1.477 10.735 5.66 16.722 9.295 5.987 3.635 13.946 8.142 17.688 10.016 3.742 1.875 13.538 8.02 21.77 13.657 8.231 5.637 16.979 10.25 19.437 10.253 2.46 0 5.15 1.772 5.98 3.935.83 2.162 5.816 4.74 11.08 5.727 5.263.987 10.988 3.504 12.721 5.592 1.733 2.089 4.902 3.798 7.041 3.798 2.14 0 8.724 2.449 14.634 5.442l21.487 10.885c5.909 2.993 12.479 5.442 14.6 5.442 2.12 0 6.97 2.45 10.775 5.443 3.805 2.993 9.787 5.45 13.293 5.46 3.505.013 10.047 2.45 14.537 5.425 4.49 2.973 11.225 5.453 14.966 5.51 3.742.059 9.06 1.814 11.817 3.904 2.757 2.089 10.104 4.632 16.327 5.652 6.223 1.02 13.362 3.66 15.865 5.87 2.503 2.208 9.85 4.685 16.327 5.503 6.477.819 13.703 3.158 16.057 5.198 2.355 2.041 10.314 4.522 17.688 5.515 7.374.992 15.857 3.318 18.85 5.168 2.993 1.85 12.79 4.224 21.77 5.275 8.98 1.051 17.756 3.083 19.502 4.515 1.746 1.432 11.542 3.872 21.77 5.421 10.227 1.55 21.043 4.361 24.037 6.249 2.993 1.887 13.342 4.316 22.997 5.398 9.655 1.082 20.063 3.31 23.13 4.952s16.863 3.938 30.658 5.102c13.795 1.164 27.727 3.533 30.96 5.263 3.233 1.73 15.825 3.754 27.982 4.498 12.157.744 28.226 3.102 35.71 5.241 7.483 2.14 27.075 4.612 43.539 5.496 16.463.883 37.28 3.375 46.26 5.536 11.032 2.656 44.917 4.737 104.478 6.415 48.482 1.367 88.892 3.253 89.8 4.192.907.94 18.181.964 38.386.055 20.205-.909 60.003-2.268 88.44-3.02zm-1327.815-150.9l-20.359-20.514 20.738-21.18 20.738-21.178-7.735-8.074c-4.254-4.441-9.11-8.074-10.791-8.074-1.68 0-15.764 12.913-31.295 28.697l-28.24 28.696 29.676 29.769 29.677 29.768 8.975-8.699 8.974-8.698zm1408.09-352.642c14.219-2.31 43.608-5.315 65.31-6.678 21.701-1.363 48.029-4.345 58.506-6.627 10.476-2.282 27.883-4.17 38.682-4.196 10.798-.027 24.88-1.773 31.294-3.883 6.413-2.11 21.805-5.15 34.204-6.757 12.399-1.607 24.831-4.146 27.627-5.643 2.796-1.496 15.02-3.832 27.162-5.19 12.143-1.36 23.59-3.665 25.436-5.124 1.847-1.459 11.93-3.493 22.407-4.52 10.477-1.025 21.498-3.446 24.491-5.379 2.993-1.933 12.026-4.28 20.073-5.215 8.047-.935 17.258-3.422 20.468-5.526 3.211-2.104 11.322-4.71 18.024-5.791 6.703-1.082 14.899-3.686 18.213-5.787 3.315-2.1 8.363-3.82 11.218-3.82 6.89 0 46.149-12.577 55.287-17.712 3.973-2.232 9.502-4.058 12.286-4.058 2.785 0 9.633-2.449 15.218-5.442 5.584-2.994 12-5.443 14.256-5.443 2.255 0 8.67-2.449 14.255-5.442 5.585-2.993 12.32-5.443 14.967-5.443 2.647 0 9.382-2.449 14.967-5.442 5.585-2.993 12.354-5.442 15.042-5.442 2.688 0 5.546-1.717 6.352-3.815.805-2.098 5.541-4.58 10.526-5.514 4.984-.935 10.56-3.505 12.39-5.71s5.627-4.01 8.437-4.01c2.81 0 7.433-2.324 10.275-5.165 2.84-2.841 8.949-5.997 13.574-7.013s9.12-2.996 9.988-4.4c.867-1.404 5.474-4.38 10.235-6.613 4.762-2.233 13.556-7.05 19.543-10.704 5.987-3.654 13.64-7.9 17.008-9.437 3.367-1.537 6.123-3.966 6.123-5.4 0-1.432 2.441-3.38 5.426-4.327 2.984-.947 6.98-3.172 8.88-4.945 1.9-1.773 9.56-7.466 17.024-12.65 7.463-5.186 15.07-10.696 16.903-12.246 1.833-1.55 6.57-5.267 10.528-8.26 3.956-2.994 9.498-7.586 12.313-10.205 2.816-2.62 6.203-4.762 7.528-4.762 1.324 0 4.234-2.756 6.466-6.123 2.232-3.368 11.733-13.842 21.115-23.276 9.382-9.434 22.981-24.74 30.22-34.015 7.24-9.274 15.022-18.802 17.295-21.172 2.272-2.37 4.132-5.239 4.132-6.374 0-1.135 2.45-5.177 5.442-8.983 2.994-3.805 5.443-9.665 5.443-13.021 0-3.357 1.758-7.562 3.907-9.346 2.149-1.783 4.761-7.137 5.805-11.898 1.044-4.76 4.184-12.924 6.978-18.14 2.794-5.216 5.098-13.788 5.12-19.049.028-5.26 1.806-14.462 3.963-20.449 5.025-13.95 5.187-36.987.392-55.893-2.073-8.172-4.617-20.981-5.655-28.465-1.037-7.483-3.627-16.318-5.756-19.633-2.128-3.314-3.887-8.213-3.91-10.885-.026-2.671-1.785-7.919-3.918-11.66-2.133-3.742-5.764-10.477-8.069-14.967-2.305-4.49-5.715-10.613-7.579-13.606-13.662-21.943-17.525-27.475-20.523-29.388-1.876-1.197-3.41-3.99-3.41-6.209 0-2.217-1.79-4.719-3.978-5.558-2.188-.84-4.65-3.645-5.473-6.235-2.535-7.987-37.009-40.353-78.446-73.648-1.795-1.443-6.81-5.719-11.144-9.503-4.335-3.784-9.539-6.88-11.565-6.88-2.027 0-3.685-1.165-3.685-2.589 0-2.262-14.421-11.387-44.398-28.092-4.766-2.656-12.339-7.236-16.83-10.176-4.49-2.94-11.224-6.715-14.966-8.387-3.741-1.673-8.64-4.144-10.885-5.491-2.245-1.348-7.143-3.924-10.885-5.724-3.741-1.8-9.723-5.465-13.292-8.144-3.57-2.679-9.236-4.87-12.593-4.87-3.356 0-7.52-1.71-9.254-3.798-1.733-2.088-7.27-4.57-12.305-5.514s-10.545-3.394-12.246-5.442c-1.7-2.05-7.21-4.498-12.245-5.443-5.035-.944-10.625-3.49-12.422-5.655-1.797-2.166-7.707-4.77-13.131-5.788-5.425-1.018-11.512-3.5-13.527-5.514-2.015-2.016-6.35-3.665-9.633-3.665-3.283 0-10.243-2.29-15.467-5.09-5.223-2.8-14.796-5.986-21.271-7.08-6.475-1.094-15.041-3.694-19.034-5.777-3.994-2.084-10.356-3.796-14.14-3.805-3.782-.01-9.444-1.815-12.58-4.012-3.137-2.197-11.062-4.818-17.613-5.825-6.55-1.007-16.454-4.107-22.006-6.89-5.553-2.783-14.492-5.06-19.864-5.06s-13.275-1.814-17.562-4.03c-4.287-2.217-14.941-4.829-23.676-5.804-8.734-.975-17.847-3.477-20.25-5.56-2.403-2.082-12.811-4.54-23.13-5.46-10.319-.921-22.192-3.405-26.385-5.52-4.193-2.114-18.275-4.56-31.294-5.434-13.02-.874-25.93-2.752-28.691-4.173-2.762-1.421-17.122-3.723-31.911-5.114-14.79-1.392-30.286-3.921-34.437-5.62-4.15-1.7-27.752-4.668-52.447-6.596-24.695-1.927-54.696-4.78-66.67-6.339-32.494-4.23-225.516-8.222-268.04-5.542-20.204 1.274-57.553 2.402-82.996 2.507-30.593.127-52.713 1.595-65.31 4.335-10.476 2.278-35.11 5.188-54.743 6.467-19.633 1.278-38.001 3.515-40.819 4.971-2.817 1.456-17.882 3.494-33.476 4.527-15.595 1.034-32.396 3.568-37.336 5.632-4.94 2.064-17.896 4.586-28.791 5.604-10.896 1.018-23.484 3.415-27.974 5.326-4.49 1.91-18.44 4.824-31.001 6.473-12.56 1.65-24.194 4.063-25.852 5.364-1.657 1.3-10.15 3.063-18.871 3.918-8.722.855-18.519 3.283-21.77 5.395-3.252 2.112-12.262 4.671-20.023 5.687-7.762 1.017-17.558 3.646-21.77 5.843s-11.35 4.002-15.863 4.011c-4.512.01-12.773 2.466-18.358 5.46-5.585 2.993-13.526 5.45-17.648 5.46-4.12.012-11.166 2.45-15.656 5.424s-10.631 5.415-13.647 5.425c-3.015.01-10.052 2.467-15.637 5.46-5.585 2.993-12 5.443-14.256 5.443-2.256 0-8.67 2.449-14.256 5.442-5.585 2.993-12.693 5.442-15.797 5.442-3.104 0-8.02 1.798-10.925 3.996-2.905 2.197-7.166 4.034-9.47 4.082-2.302.046-8.99 2.535-14.861 5.528-5.871 2.994-12.088 5.443-13.815 5.443-1.726 0-6.156 2.373-9.843 5.274-3.688 2.9-9.925 6.082-13.862 7.07-3.936.988-8.581 3.513-10.323 5.61-1.741 2.099-5.912 3.816-9.269 3.816-3.356 0-9.023 2.182-12.592 4.85-3.57 2.668-13.531 8.324-22.137 12.57s-15.647 8.665-15.647 9.821c0 1.156-3.368 2.946-7.483 3.978-4.116 1.032-9.674 4.227-12.352 7.098-2.677 2.872-6.657 5.222-8.844 5.222-2.186 0-3.976.98-3.976 2.176 0 1.197-10.102 8.764-22.45 16.817-12.347 8.053-24.286 16.253-26.531 18.223-2.245 1.97-9.433 8.178-15.973 13.796-13.95 11.984-33.85 31.825-54.78 54.618-22.374 24.368-27.211 30.52-27.211 34.609 0 2.043-1.688 4.694-3.75 5.891-2.064 1.197-7.56 10.361-12.215 20.365-4.655 10.003-9.564 18.868-10.908 19.698-1.344.831-3.284 5.99-4.31 11.463-1.027 5.474-3.443 12.528-5.368 15.677-1.925 3.149-4.967 19.195-6.759 35.658-5.09 46.772 2.262 94.834 20.5 134.02 3.658 7.857 7.74 14.286 9.072 14.286 1.33 0 3.246 3.757 4.254 8.348 1.008 4.591 3.555 9.008 5.659 9.815 2.104.808 3.825 2.507 3.825 3.777 0 3.052 11.508 20.289 22.496 33.694 16.494 20.122 53.96 54.798 82.487 76.345 3.964 2.994 9.176 7.586 11.583 10.205 2.407 2.619 5.792 4.762 7.52 4.762 1.73 0 4.728 1.907 6.663 4.239 1.935 2.331 7.289 6.003 11.898 8.158 4.61 2.155 12.054 6.373 16.544 9.373 4.49 3 11.837 7.372 16.327 9.717 4.49 2.344 13.062 7.231 19.049 10.86 5.986 3.627 14.78 8.423 19.542 10.656 4.762 2.233 9.34 5.164 10.175 6.514.834 1.35 5.693 3.237 10.798 4.195 5.104.958 10.778 3.545 12.608 5.751 1.83 2.205 4.575 4.01 6.098 4.01 1.524 0 8.415 2.582 15.314 5.738a3943.19 3943.19 0 0 0 24.789 11.216c6.735 3.013 16.774 7.778 22.309 10.59 5.535 2.81 12.27 5.118 14.966 5.128 2.697.013 8.577 2.451 13.068 5.425 4.49 2.973 10.923 5.414 14.296 5.424 3.373.013 10.702 2.467 16.287 5.46 5.585 2.994 13.75 5.443 18.144 5.443 4.394 0 10.077 1.89 12.629 4.198 2.55 2.31 9.382 4.89 15.18 5.737 5.798.846 15.521 3.855 21.606 6.686 6.085 2.832 15.618 5.149 21.185 5.149 5.567 0 12.834 1.72 16.149 3.823 3.315 2.102 12.762 4.695 20.993 5.761 8.232 1.066 18.274 3.632 22.315 5.701 4.042 2.07 11.39 3.817 16.328 3.883 4.938.065 13.877 2.012 19.863 4.325 5.987 2.313 20.682 5.687 32.655 7.496 11.973 1.81 24.219 4.604 27.212 6.208 2.994 1.605 16.538 3.522 30.1 4.26 13.56.737 27.31 2.76 30.553 4.496 3.242 1.735 18.475 4.364 33.849 5.84 15.374 1.478 34.688 4.496 42.92 6.708 8.914 2.396 27.195 4.035 45.208 4.054 16.634.02 36.839 1.379 44.9 3.023 26.007 5.307 74.53 7.037 209.225 7.459 107.483.337 136.777-.366 157.83-3.786z"/></svg>