<?xml version="1.0" encoding="UTF-8" standalone="no"?>
<!-- Created with Inkscape (http://www.inkscape.org/) -->

<svg
   xmlns:dc="http://purl.org/dc/elements/1.1/"
   xmlns:cc="http://creativecommons.org/ns#"
   xmlns:rdf="http://www.w3.org/1999/02/22-rdf-syntax-ns#"
   xmlns:svg="http://www.w3.org/2000/svg"
   xmlns="http://www.w3.org/2000/svg"
   xmlns:sodipodi="http://sodipodi.sourceforge.net/DTD/sodipodi-0.dtd"
   xmlns:inkscape="http://www.inkscape.org/namespaces/inkscape"
   version="1.1"
   id="svg2"
   width="4819.3027"
   height="4819.9834"
   viewBox="0 0 4819.3027 4819.9834"
   sodipodi:docname="JDD_icon.svg"
   inkscape:version="0.92.4 (5da689c313, 2019-01-14)">
  <metadata
     id="metadata8">
    <rdf:RDF>
      <cc:Work
         rdf:about="">
        <dc:format>image/svg+xml</dc:format>
        <dc:type
           rdf:resource="http://purl.org/dc/dcmitype/StillImage" />
        <dc:title></dc:title>
      </cc:Work>
    </rdf:RDF>
  </metadata>
  <defs
     id="defs6" />
  <sodipodi:namedview
     pagecolor="#ffffff"
     bordercolor="#666666"
     borderopacity="1"
     objecttolerance="10"
     gridtolerance="10"
     guidetolerance="10"
     inkscape:pageopacity="0"
     inkscape:pageshadow="2"
     inkscape:window-width="1568"
     inkscape:window-height="1018"
     id="namedview4"
     showgrid="false"
     fit-margin-top="0"
     fit-margin-left="0"
     fit-margin-right="0"
     fit-margin-bottom="0"
     inkscape:zoom="0.13318284"
     inkscape:cx="2237.0372"
     inkscape:cy="2635.5173"
     inkscape:window-x="0"
     inkscape:window-y="0"
     inkscape:window-maximized="0"
     inkscape:current-layer="svg2" />
  <path
     style="fill:#000000;stroke-width:2.72121453"
     d="m 2292.6553,4819.0014 c -6.7351,-0.5466 -31.8383,-2.2927 -55.7851,-3.8799 C 1754.4959,4783.1521 1273.1851,4593.3501 892.59029,4285.0131 797.87923,4208.2833 674.94455,4090.4226 599.75821,4004.2673 452.40198,3835.413 337.41328,3662.6688 242.00658,3466.8273 106.15928,3187.9734 29.629775,2904.1262 3.560175,2582.4327 c -4.7469,-58.5774 -4.7469,-287.0169 0,-345.5943 26.0696,-321.6935 102.599095,-605.5407 238.446405,-884.3947 95.4067,-195.8415 210.3954,-368.58556 357.75163,-537.43991 C 647.06326,760.79746 760.82935,647.03132 815.03567,599.72637 983.89003,452.36997 1156.6341,337.38129 1352.4756,241.9747 1603.8328,119.523 1867.2452,43.1839 2144.349,12.4835 2241.6501,1.7035 2277.8543,0 2409.6675,0 c 131.8131,0 168.0175,1.7035 265.3183,12.4835 458.3557,50.7813 895.1047,232.8328 1251.7586,521.77456 125.3324,101.53747 256.7631,232.96797 358.3006,358.30034 63.893,78.86633 141.6672,190.022 193.2555,276.2033 178.0177,297.3894 290.3377,630.9305 328.5189,975.5554 10.78,97.301 12.4835,133.5052 12.4835,265.3185 0,131.8132 -1.7035,168.0174 -12.4835,265.3184 -50.7812,458.3556 -232.8329,895.1046 -521.7744,1251.7587 -76.7299,94.7111 -194.5905,217.6457 -280.7459,292.8321 -168.8544,147.3562 -341.5984,262.345 -537.4399,357.7515 -272.8999,132.9469 -552.7945,209.6514 -863.9855,236.774 -46.8495,4.0834 -275.8325,7.7231 -310.2184,4.9311 z M 2582.4646,3642.468 c 7.4833,-1.6415 33.811,-4.0337 58.5061,-5.3154 24.695,-1.282 52.2473,-4.1945 61.2272,-6.4718 8.98,-2.2775 26.5422,-4.9643 39.0269,-5.9709 12.4849,-1.0066 27.6396,-3.573 33.6772,-5.7032 6.0376,-2.1302 19.0891,-3.927 29.0032,-3.9926 9.9145,-0.065 22.9244,-1.9641 28.911,-4.2187 5.9867,-2.2548 19.3158,-5.2494 29.6202,-6.6549 10.3044,-1.4058 20.1538,-3.7334 21.8878,-5.1723 1.7339,-1.439 11.6714,-3.4309 22.0829,-4.4263 10.4117,-0.9954 21.5509,-3.4445 24.7538,-5.4425 3.2029,-1.9975 12.387,-4.4866 20.4091,-5.531 8.0222,-1.0444 18.8534,-4.166 24.0698,-6.9368 5.216,-2.7704 13.2093,-5.0374 17.7627,-5.0374 4.5533,0 10.8451,-1.7977 13.9816,-3.9945 3.1367,-2.1971 11.0626,-4.7907 17.6131,-5.7638 6.5507,-0.9732 14.3592,-3.2698 17.3525,-5.1039 2.9934,-1.8341 10.7331,-4.1668 17.1993,-5.1839 6.466,-1.017 14.4256,-3.5205 17.6878,-5.5627 3.2622,-2.0426 10.4002,-4.4958 15.8622,-5.4517 5.4623,-0.9559 11.4288,-3.5425 13.2592,-5.748 1.8303,-2.2053 6.6863,-4.0097 10.7912,-4.0097 4.105,0 10.5768,-2.4492 14.3825,-5.4424 3.8053,-2.9934 9.7871,-5.4507 13.2926,-5.4605 3.5057,0 10.0475,-2.4507 14.5375,-5.4245 4.49,-2.9736 10.2192,-5.4146 12.7314,-5.4245 2.5123,0 6.3441,-1.7943 8.5153,-3.9652 2.171,-2.1713 7.4629,-4.7848 11.7594,-5.8079 4.2966,-1.0235 9.6489,-3.4375 11.894,-5.3649 2.245,-1.9274 7.5481,-4.3695 11.785,-5.4273 4.2367,-1.0574 8.3187,-3.5272 9.0712,-5.4881 0.7523,-1.9609 4.9253,-4.3465 9.2733,-5.3015 4.3477,-0.9551 8.681,-2.9917 9.629,-4.5259 0.9483,-1.5341 5.5543,-4.5509 10.2359,-6.7042 4.6812,-2.153 13.0327,-6.6201 18.5584,-9.9267 5.5257,-3.3068 16.7091,-10 24.8523,-14.8737 8.1433,-4.8734 16.3237,-10.69 18.1791,-12.9258 1.8553,-2.2354 4.4837,-4.0643 5.8413,-4.0643 3.2946,0 46.1652,-33.5496 59.9824,-46.9409 2.7025,-2.6192 5.8451,-4.7622 6.9842,-4.7622 1.1389,0 5.1186,-3.7223 8.844,-8.2717 3.7251,-4.5496 13.1857,-15.1354 21.0233,-23.5243 16.3473,-17.4975 49.6983,-65.9416 49.6983,-72.1898 0,-2.3078 1.7582,-5.6555 3.9069,-7.4389 2.1489,-1.7833 4.718,-7.1376 5.7096,-11.8982 0.9914,-4.7608 3.4037,-11.1919 5.3605,-14.2911 1.9568,-3.0995 4.437,-12.8959 5.5114,-21.7697 1.074,-8.8742 3.3326,-17.8539 5.0186,-19.9549 2.1961,-2.7365 3.1423,-53.6853 3.3349,-179.6003 0.147,-96.679 -0.2906,-178.535 -0.9753,-181.9026 -1.7783,-8.7495 -8.0692,-7.5638 -10.1507,1.913 -0.9706,4.4198 -3.9465,10.8487 -6.6127,14.2865 -2.6665,3.4379 -5.5546,11.6628 -6.418,18.2775 -0.8831,6.7646 -3.4421,13.0749 -5.8488,14.4217 -2.3533,1.3171 -4.2788,4.6176 -4.2788,7.3347 0,2.7171 -2.1916,7.8608 -4.8704,11.4299 -2.6788,3.5695 -6.4008,9.5512 -8.2714,13.2929 -6.1636,12.3289 -10.8191,19.7593 -13.4444,21.457 -1.4232,0.9203 -4.6269,5.6531 -7.1191,10.5173 -4.5438,8.8682 -53.9025,60.4711 -57.9963,60.6336 -1.1993,0.046 -6.4071,4.3332 -11.5736,9.5241 -5.1663,5.1908 -10.3284,9.4378 -11.4714,9.4378 -1.1429,0 -5.6141,3.3675 -9.9356,7.4833 -4.3219,4.116 -10.6011,9.3203 -13.9542,11.5653 -3.3527,2.2449 -9.8932,6.837 -14.5342,10.2045 -4.6411,3.3675 -9.9765,6.1227 -11.8564,6.1227 -1.8798,0 -4.3971,1.5565 -5.594,3.459 -1.1968,1.902 -5.2375,4.988 -8.9792,6.8569 -3.7416,1.8689 -11.7012,6.3131 -17.6879,9.8761 -5.9866,3.5629 -18.2321,10.3748 -27.2121,15.1378 -8.9801,4.7632 -19.3887,10.3417 -23.1303,12.3968 -3.7417,2.0554 -12.9258,6.3546 -20.4091,9.5542 -7.4834,3.1993 -18.1348,8.1514 -23.6694,11.0046 -5.535,2.8532 -11.7987,5.1874 -13.9196,5.1874 -2.1206,0 -6.9693,2.4491 -10.7749,5.4424 -3.8053,2.9934 -8.873,5.4425 -11.2617,5.4425 -2.3884,0 -8.9123,2.4491 -14.497,5.4424 -5.5851,2.9933 -11.8205,5.4424 -13.8567,5.4424 -2.0364,0 -6.9525,1.7394 -10.9252,3.8652 -9.6494,5.1636 -31.3152,12.1971 -48.0411,15.5953 -7.4834,1.5207 -15.4429,4.334 -17.6879,6.2523 -2.245,1.9182 -9.9801,4.2527 -17.1891,5.1875 -7.209,0.935 -15.7471,3.5489 -18.9737,5.8089 -3.2265,2.26 -10.186,4.136 -15.4654,4.1689 -5.2794,0.032 -14.937,2.4818 -21.4615,5.4424 -6.5243,2.9605 -16.3207,5.3902 -21.7696,5.3995 -5.449,0 -13.4119,1.8441 -17.6947,4.078 -4.2832,2.2339 -15.3041,5.293 -24.491,6.7983 -9.1871,1.5055 -21.6019,4.5145 -27.5885,6.6873 -5.9867,2.1728 -15.783,4.0187 -21.7696,4.1021 -5.9868,0.085 -17.62,2.0042 -25.8517,4.2683 -8.2316,2.2642 -25.9876,5.2528 -39.4575,6.6411 -13.4701,1.3886 -31.1868,4.4198 -39.3703,6.7361 -8.1838,2.3163 -22.927,4.2114 -32.7632,4.2114 -9.8361,0 -24.5698,1.6852 -32.7417,3.7448 -8.1718,2.06 -33.8387,4.5309 -57.037,5.4915 -23.1984,0.9604 -55.0365,3.5223 -70.7516,5.6931 -33.1814,4.5833 -225.2004,5.5572 -257.1548,1.3043 -10.4767,-1.3944 -43.5394,-3.7477 -73.4728,-5.2297 -29.9334,-1.482 -61.1594,-4.4387 -69.391,-6.5704 -8.2317,-2.1318 -29.0489,-4.7642 -46.2606,-5.8498 -17.2117,-1.0858 -34.2655,-3.1 -37.8976,-4.4764 -3.632,-1.376 -17.7143,-3.5689 -31.2939,-4.8725 -13.5797,-1.3041 -28.3641,-4.3059 -32.8541,-6.6709 -4.4899,-2.3653 -14.0107,-4.3079 -21.1574,-4.3169 -7.1465,0 -19.9617,-2.466 -28.4784,-5.4593 -8.5165,-2.9934 -21.4045,-5.4424 -28.64,-5.4424 -7.2354,0 -16.7302,-1.8488 -21.0996,-4.1083 -4.3695,-2.2597 -15.0234,-5.2116 -23.6755,-6.5599 -8.6521,-1.3487 -20.6292,-4.3442 -26.6159,-6.6573 -5.9866,-2.313 -13.7007,-4.2592 -17.1425,-4.3248 -3.4419,-0.065 -9.5646,-1.8115 -13.6061,-3.8797 -4.0415,-2.0678 -12.8319,-4.6717 -19.5343,-5.7863 -6.7023,-1.1147 -14.6618,-3.5907 -17.6879,-5.5025 -3.0259,-1.912 -10.6358,-4.3021 -16.9104,-5.3114 -6.2746,-1.009 -12.8036,-3.5158 -14.5089,-5.5705 -1.7052,-2.0546 -8.4712,-4.5412 -15.0355,-5.5255 -6.5645,-0.9843 -13.2698,-3.3977 -14.901,-5.3629 -1.631,-1.9655 -7.7867,-4.388 -13.6794,-5.3835 -5.8929,-0.9956 -11.3845,-2.8947 -12.2039,-4.2205 -0.8194,-1.3258 -6.6422,-3.7265 -12.9399,-5.335 -6.2978,-1.6081 -15.7362,-4.8687 -20.9746,-7.2455 -5.2384,-2.3767 -15.0347,-6.7854 -21.7698,-9.7969 -6.7349,-3.0112 -14.0822,-6.5024 -16.3272,-7.7579 -2.245,-1.2552 -12.0413,-6.0122 -21.7698,-10.5709 -9.7282,-4.5588 -19.5246,-9.4323 -21.7696,-10.8301 -2.245,-1.3982 -11.3752,-6.3662 -20.2897,-11.0408 -8.9141,-4.6745 -19.1818,-10.8385 -22.8168,-13.6977 -3.635,-2.8595 -7.8489,-5.199 -9.3635,-5.199 -1.5149,0 -7.7785,-4.0059 -13.9196,-8.9016 -6.1406,-4.896 -16.6755,-12.5494 -23.4105,-17.0075 -6.735,-4.4585 -13.4701,-9.0337 -14.9667,-10.1676 -35.2757,-26.7256 -61.6959,-52.5097 -91.2975,-89.0991 -13.985,-17.286 -17.516,-22.5826 -23.0068,-34.5094 -2.1922,-4.7618 -5.135,-9.3681 -6.5391,-10.2359 -1.4042,-0.8678 -3.401,-5.5436 -4.4372,-10.3906 -1.0363,-4.8471 -3.5442,-11.874 -5.5734,-15.6157 -2.0289,-3.7417 -4.9958,-12.0074 -6.5934,-18.3682 -2.9207,-11.6286 -6.0355,-13.6703 -13.58,-8.9023 -3.5539,2.2462 -4.0819,23.6176 -4.0819,165.2722 0,165.2812 1.5729,207.1436 8.1681,217.3993 2.0249,3.1487 4.5112,10.1463 5.5248,15.55 1.0137,5.4039 3.4732,11.1781 5.4656,12.8314 1.9922,1.6535 4.3917,6.5105 5.3325,10.7937 0.9407,4.2832 3.4688,9.2467 5.6174,11.0299 2.1489,1.7835 3.9069,4.5336 3.9069,6.1113 0,4.3818 24.7104,40.2025 34.6954,50.2948 4.8642,4.9168 8.844,9.8305 8.844,10.9195 0,1.0891 3.829,5.0279 8.5087,8.7533 4.6799,3.7251 15.3966,13.5081 23.8152,21.7398 17.1461,16.7655 42.3473,38.097 45.0081,38.097 0.9589,0 7.94,4.8983 15.5136,10.8849 7.5738,5.9867 15.4366,10.8848 17.4728,10.8848 2.0362,0 4.6814,1.6521 5.8783,3.6709 2.0039,3.3807 6.9761,6.4984 25.3064,15.8675 3.7418,1.9127 7.706,4.8971 8.8095,6.6323 1.1031,1.7354 5.2924,3.9802 9.3092,4.9883 4.0168,1.0083 10.3205,4.2062 14.008,7.1068 3.6872,2.9005 8.8573,5.2736 11.4887,5.2736 2.6314,0 5.4893,1.8369 6.3508,4.0819 0.8612,2.245 4.3598,4.0899 7.7742,4.0998 3.4146,0 9.8818,2.4507 14.3718,5.4245 4.49,2.9736 9.8073,5.4146 11.8163,5.4244 2.0089,0 6.7661,2.467 10.5717,5.4604 3.8053,2.9934 9.6652,5.4424 13.0215,5.4424 3.3567,0 7.5278,1.7165 9.269,3.8149 1.7414,2.0981 6.441,4.6367 10.4435,5.6413 4.0024,1.0045 12.4569,4.1861 18.7875,7.07 6.3307,2.884 13.1419,5.2436 15.136,5.2436 1.9941,0 6.1034,1.7356 9.1321,3.8569 3.0288,2.1213 10.3423,4.7255 16.2524,5.787 5.9103,1.0616 12.5827,3.4786 14.8277,5.3712 2.245,1.8926 9.2157,4.282 15.4905,5.3104 6.2746,1.0284 12.8036,3.5507 14.5087,5.6054 1.7054,2.0546 8.8171,4.5877 15.8038,5.6289 6.9867,1.0414 15.1522,3.4774 18.1456,5.4133 2.9933,1.9359 12.0917,4.3922 20.2188,5.4584 8.127,1.0665 17.9233,3.5812 21.7698,5.5887 3.8462,2.0071 11.2791,3.6643 16.5175,3.6828 5.2383,0.027 13.0974,1.8969 17.4648,4.1744 4.3672,2.2777 15.7781,5.2508 25.3574,6.6074 9.5788,1.3565 19.067,3.8363 21.0841,5.5104 2.0173,1.6744 14.1044,4.1207 26.8603,5.437 12.756,1.316 25.583,3.672 28.5045,5.2356 2.9215,1.5633 15.8254,4.0372 28.6757,5.4974 12.8503,1.4602 26.0316,4.0824 29.2918,5.8272 3.2604,1.7449 20.7385,4.1485 38.8403,5.341 18.1018,1.1926 36.7348,3.3664 41.4062,4.8303 4.6718,1.4641 23.04,3.4863 40.8182,4.4939 17.7785,1.0076 39.0593,3.1538 47.2909,4.7695 24.307,4.7705 110.1347,6.9315 240.8276,6.0632 75.6078,-0.5024 127.6601,-1.9556 136.0607,-3.7983 z m -39.4576,-499.4464 c 21.7017,-2.1039 56.6013,-4.58 77.5546,-5.5023 20.9534,-0.9221 45.8263,-3.4333 55.2736,-5.5798 9.4469,-2.1468 24.8653,-3.9033 34.2627,-3.9033 9.3977,0 23.098,-1.8943 30.4449,-4.2095 7.3471,-2.3151 26.1134,-5.3955 41.7032,-6.8454 15.5899,-1.45 29.8438,-3.8796 31.6756,-5.4 1.8313,-1.5201 12.9547,-3.9221 24.7184,-5.338 11.7638,-1.4159 26.2866,-4.3849 32.2732,-6.5984 5.9868,-2.2135 16.7622,-4.0783 23.946,-4.1439 7.1834,-0.065 16.3676,-1.8125 20.4091,-3.8823 4.0412,-2.0695 14.0831,-4.6351 22.3147,-5.7012 8.2317,-1.0661 17.679,-3.6589 20.9936,-5.7616 3.315,-2.1025 8.8255,-3.8767 12.2455,-3.9423 3.4204,-0.065 11.1168,-2.0237 17.1034,-4.3512 5.9867,-2.3274 17.9817,-5.8435 26.6556,-7.8137 8.6739,-1.9699 17.2457,-4.7717 19.0486,-6.2259 1.8027,-1.4542 8.788,-3.5484 15.5231,-4.6535 6.735,-1.105 14.6608,-3.6927 17.613,-5.75 2.9523,-2.0574 8.4627,-3.7455 12.2455,-3.7508 3.7828,0 10.8874,-2.4548 15.7877,-5.4424 4.9004,-2.9879 10.4288,-5.4325 12.2857,-5.4325 1.8566,0 7.9454,-2.449 13.5305,-5.4424 5.5847,-2.9934 13.1325,-5.4424 16.7728,-5.4424 3.6404,0 8.3949,-1.7764 10.5661,-3.9474 2.171,-2.1712 7.4629,-4.7989 11.7594,-5.8392 4.2966,-1.0405 12.098,-4.056 17.3364,-6.7009 5.2382,-2.6451 16.8714,-8.2307 25.8515,-12.4121 8.98,-4.1814 16.9396,-8.3569 17.6879,-9.2785 0.7484,-0.9219 9.3201,-5.6884 19.0485,-10.5929 9.7283,-4.9042 22.5861,-11.8272 28.5727,-15.384 5.9867,-3.557 13.9071,-7.792 17.6005,-9.4114 3.6939,-1.6192 11.8594,-7.1588 18.1459,-12.31 6.2867,-5.1513 12.2719,-9.3662 13.3006,-9.3662 1.0288,0 5.2442,-2.7551 9.368,-6.1227 4.1238,-3.3674 10.2611,-7.9595 13.639,-10.2045 12.5824,-8.3631 39.5913,-30.5579 41.692,-34.2613 1.1968,-2.1097 3.9521,-3.8357 6.1227,-3.8357 2.1707,0 3.9466,-1.2325 3.9466,-2.739 0,-1.5064 8.7346,-11.609 19.4099,-22.45 10.6756,-10.8409 22.2264,-23.997 25.6687,-29.2353 3.4423,-5.2384 11.8441,-17.4838 18.6705,-27.2122 6.8264,-9.7283 12.4194,-18.9597 12.4283,-20.5142 0,-1.5543 2.4657,-7.6297 5.4591,-13.5009 2.9933,-5.8713 5.4424,-12.2961 5.4424,-14.2771 0,-1.9814 1.7192,-6.3144 3.8203,-9.6293 2.101,-3.3147 4.6599,-11.5374 5.6857,-18.2723 1.0259,-6.7351 3.5199,-17.2781 5.5421,-23.4289 2.9334,-8.923 3.6722,-46.2359 3.6554,-184.6169 0,-95.3885 -0.682,-175.1557 -1.4899,-177.2608 -2.4486,-6.3808 -8.3435,-4.2939 -10.3276,3.6562 -1.0272,4.1158 -3.7588,9.5821 -6.0705,12.1473 -2.3113,2.5653 -5.2803,10.4315 -6.597,17.4804 -1.3171,7.049 -4.2284,14.8431 -6.4702,17.32 -2.2415,2.477 -4.0756,6.385 -4.0756,8.6844 0,2.2995 -2.1916,7.1013 -4.8704,10.6706 -2.6788,3.5694 -6.4008,9.5511 -8.2714,13.2928 -6.9573,13.9173 -10.5774,19.1476 -22.3306,32.2659 -2.2981,2.565 -7.7756,9.5184 -12.172,15.452 -8.8657,11.9651 -23.6769,26.676 -41.9834,41.6987 -6.6403,5.4493 -15.8244,13.314 -20.4091,17.4772 -4.5847,4.1633 -13.2341,10.8947 -19.2208,14.9589 -5.9866,4.0641 -11.7742,8.7628 -12.8612,10.4417 -1.0872,1.679 -5.6792,4.5862 -10.2046,6.4608 -4.5254,1.8745 -8.2281,4.4842 -8.2281,5.7993 0,1.315 -1.5307,2.3927 -3.4015,2.3947 -1.8709,0 -10.4103,4.8687 -18.9765,10.8148 -8.5661,5.9463 -18.5801,11.5657 -22.253,12.4876 -3.673,0.9219 -7.3407,3.4024 -8.1505,5.5123 -0.8096,2.11 -3.7946,3.8363 -6.633,3.8363 -2.8382,0 -8.0812,2.1917 -11.6504,4.8704 -3.5694,2.6788 -9.5512,6.3436 -13.2928,8.1439 -3.7417,1.8004 -8.6398,4.2979 -10.8848,5.5501 -16.4977,9.2017 -27.7105,14.0901 -32.3191,14.0901 -2.964,0 -7.1655,1.7764 -9.3368,3.9475 -2.171,2.1712 -7.4629,4.8069 -11.7595,5.8573 -4.2965,1.0506 -10.7324,4.1724 -14.3018,6.9375 -3.5692,2.7651 -8.7781,5.0275 -11.575,5.0275 -2.7968,0 -9.6549,2.449 -15.2396,5.4424 -5.585,2.9933 -12.6552,5.4424 -15.7121,5.4424 -3.0567,0 -8.1239,1.7975 -11.2603,3.9945 -3.1367,2.1969 -11.0625,4.809 -17.613,5.8043 -6.5509,0.9954 -13.7471,3.334 -15.9921,5.1969 -2.245,1.8628 -9.8838,4.2219 -16.9752,5.2423 -7.0913,1.0205 -14.4519,3.4141 -16.3569,5.3193 -1.9052,1.9052 -10.0472,4.2436 -18.0936,5.1966 -8.0464,0.9529 -16.6049,3.4574 -19.0186,5.5656 -2.414,2.1081 -10.2525,4.6771 -17.419,5.7088 -7.1664,1.0317 -17.2294,3.6305 -22.3625,5.7753 -5.133,2.1447 -13.9641,3.9263 -19.6248,3.9593 -5.6604,0.033 -15.6298,2.4819 -22.1542,5.4424 -6.5245,2.9604 -15.9055,5.3827 -20.847,5.3827 -4.9415,0 -16.7471,2.4332 -26.2346,5.4073 -9.4875,2.974 -24.3307,5.423 -32.9845,5.4424 -8.654,0.027 -20.2768,1.9331 -25.8289,4.2527 -5.5519,2.3198 -19.9008,4.878 -31.8866,5.6851 -11.9859,0.8068 -27.303,3.097 -34.0381,5.089 -15.8916,4.7003 -31.6482,6.5956 -58.5061,7.0375 -11.9733,0.196 -29.1169,1.9511 -38.097,3.8979 -15.1953,3.2943 -42.3636,4.881 -138.7819,8.1052 -20.9533,0.7004 -56.5504,2.0397 -79.1043,2.9758 -23.2492,0.965 -55.6557,0.4071 -74.8335,-1.2879 -18.6044,-1.6447 -59.5415,-3.555 -90.9715,-4.2454 -31.43,-0.6903 -61.4314,-2.6006 -66.6698,-4.2451 -5.2383,-1.6441 -25.4434,-4.2001 -44.9,-5.6797 -19.4567,-1.4795 -39.0495,-3.8524 -43.5395,-5.2731 -4.49,-1.4206 -21.9289,-3.7785 -38.7534,-5.2397 -16.8244,-1.461 -32.8512,-3.8669 -35.6155,-5.3461 -2.7639,-1.4794 -14.7141,-3.9079 -26.5554,-5.3969 -11.8417,-1.4891 -26.083,-4.6133 -31.6475,-6.9433 -5.5644,-2.3295 -15.5075,-4.2357 -22.0955,-4.2357 -6.5881,0 -19.6447,-2.4492 -29.0147,-5.4424 -9.3699,-2.9934 -20.2912,-5.4426 -24.2699,-5.4426 -3.9787,0 -12.0376,-2.449 -17.9088,-5.4424 -5.8713,-2.9932 -15.3753,-5.4424 -21.1197,-5.4424 -5.7445,0 -13.7511,-1.692 -17.7927,-3.7601 -4.0415,-2.068 -12.8319,-4.6718 -19.5343,-5.7865 -6.7023,-1.1145 -14.6618,-3.613 -17.6879,-5.5521 -3.0259,-1.9391 -11.2791,-4.3665 -18.3401,-5.3942 -7.0607,-1.0276 -14.2249,-3.5398 -15.9201,-5.5825 -1.6954,-2.0426 -7.5515,-4.5433 -13.0137,-5.5571 -5.4621,-1.0137 -12.3802,-3.4046 -15.3735,-5.3131 -2.9934,-1.9085 -9.9907,-4.301 -15.5499,-5.3166 -5.5594,-1.0155 -11.5259,-3.5553 -13.2591,-5.6437 -1.7332,-2.0884 -5.7567,-3.8388 -8.9408,-3.8895 -3.1843,-0.051 -10.6879,-2.4584 -16.6745,-5.3501 -5.9867,-2.8918 -12.3574,-5.2993 -14.1572,-5.3501 -1.7994,-0.051 -12.5725,-4.9905 -23.9398,-10.9772 -11.367,-5.9866 -21.9469,-10.8848 -23.5108,-10.8848 -1.5636,0 -5.9564,-2.4491 -9.7618,-5.4425 -3.8054,-2.9933 -9.7428,-5.4424 -13.1943,-5.4424 -3.4517,0 -7.1095,-1.3495 -8.1289,-2.9988 -1.0193,-1.6494 -5.6837,-4.7605 -10.3653,-6.9137 -4.6814,-2.1531 -13.4098,-6.8781 -19.3966,-10.5002 -5.9867,-3.622 -14.2523,-7.9778 -18.3681,-9.6799 -4.116,-1.7019 -7.4834,-4.0506 -7.4834,-5.2193 0,-1.1687 -3.6736,-3.6465 -8.1636,-5.5063 -4.4901,-1.8598 -8.1637,-4.4959 -8.1637,-5.858 0,-1.3621 -2.143,-3.2987 -4.7622,-4.3035 -2.6192,-1.0048 -10.0741,-5.5583 -16.5667,-10.1191 -6.4928,-4.5606 -13.8401,-9.5546 -16.3272,-11.0977 -16.4947,-10.2324 -86.4838,-80.6018 -98.1749,-98.7084 -4.5377,-7.0273 -9.5798,-14.3341 -11.205,-16.2371 -1.625,-1.9031 -4.226,-7.1074 -5.7801,-11.5652 -1.5541,-4.4578 -3.7773,-8.1051 -4.9403,-8.1051 -1.163,0 -2.8875,-3.863 -3.8318,-8.5846 -0.9442,-4.7215 -3.2404,-10.3924 -5.1022,-12.6017 -1.8619,-2.2096 -4.6365,-10.2858 -6.1653,-17.9473 -2.4238,-12.1463 -3.6213,-13.9301 -9.3512,-13.9301 -5.1738,0 -7.0753,1.9445 -8.9405,9.1423 -3.0107,11.6185 -0.6041,327.2853 2.6897,352.7793 1.3532,10.4766 4.5047,22.7221 7.0031,27.2122 2.4983,4.4898 4.5498,10.7688 4.5591,13.9531 0,3.1841 1.7747,7.2485 3.9234,9.032 2.1489,1.7833 4.7134,6.914 5.699,11.4019 0.986,4.4875 3.4032,8.7775 5.3719,9.5329 1.9689,0.7557 4.3565,4.4693 5.3062,8.253 1.914,7.6259 11.8484,22.8162 17.1328,26.1971 1.8708,1.1968 3.4015,3.5101 3.4015,5.1406 0,3.226 25.1051,32.6135 38.9869,45.6369 23.4048,21.9578 38.749,35.4058 40.4406,35.4439 1.0303,0.027 5.9285,3.7779 10.885,8.344 4.9567,4.5663 14.5223,11.9219 21.2573,16.3463 6.735,4.4242 14.0822,9.305 16.3272,10.8458 6.844,4.6971 17.2918,10.5308 25.1713,14.055 4.1158,1.841 7.4833,4.3658 7.4833,5.6107 0,1.2447 3.9799,4.1217 8.8439,6.3931 4.8642,2.2717 13.7421,7.0783 19.7289,10.6816 5.9867,3.6033 13.9461,7.8685 17.6879,9.478 3.7417,1.61 11.7013,5.1649 17.6879,7.9006 5.9867,2.7354 12.7217,5.7257 14.9667,6.6447 2.245,0.9192 5.9186,2.6948 8.1636,3.9455 16.4619,9.1721 27.6908,14.0877 32.1803,14.0877 2.8877,0 6.7746,1.8367 8.6379,4.0817 1.8633,2.2451 4.7684,4.0931 6.4561,4.1066 1.6874,0.027 9.1909,3.0369 16.6742,6.7182 7.4834,3.681 16.1026,6.7311 19.1535,6.778 3.0511,0.046 10.351,2.5343 16.2223,5.5275 5.8713,2.9934 13.1715,5.4507 16.2225,5.4605 3.0511,0 9.2208,2.4507 13.7109,5.4245 4.49,2.9736 11.7409,5.4146 16.1131,5.4245 4.3722,0 9.9722,1.8485 12.4445,4.0858 2.4722,2.2375 10.528,4.8514 17.902,5.809 7.374,0.9573 15.244,3.2848 17.489,5.1719 2.2449,1.8873 11.0907,4.2275 19.6571,5.2002 8.5664,0.9729 18.9751,3.5425 23.1304,5.71 4.1554,2.1675 10.9175,3.9485 15.0274,3.9575 4.1101,0 14.5188,2.3641 23.1303,5.2331 8.6118,2.869 21.7646,6.0488 29.2283,7.0666 7.4635,1.0173 16.6476,3.3989 20.4091,5.2918 3.7612,1.8932 15.4106,4.1472 25.8872,5.0093 10.4767,0.8617 24.4068,3.4804 30.956,5.8187 6.5488,2.3386 18.2937,4.252 26.0991,4.252 7.8058,0 19.9917,1.7453 27.0797,3.8785 7.0882,2.1331 25.3448,4.6687 40.5706,5.6342 15.2254,0.9656 39.5514,4.1187 54.0574,7.0063 17.8977,3.5629 37.7321,5.2506 61.711,5.2506 19.4345,0 44.6017,1.2888 55.9266,2.8638 57.3778,7.9805 200.2599,8.6197 276.4153,1.2368 z m -47.6213,-500.7451 c 80.349,-2.1262 118.1578,-4.3406 137.9035,-8.0767 9.9937,-1.891 30.5514,-3.6681 45.6841,-3.9493 15.5223,-0.2883 32.3107,-2.2035 38.5201,-4.3943 6.0533,-2.1358 24.8052,-4.9861 41.671,-6.3336 16.8656,-1.3479 33.0973,-3.7525 36.0705,-5.3438 2.9735,-1.5912 15.422,-4.1491 27.6639,-5.6841 12.2416,-1.5349 24.6639,-4.0788 27.6053,-5.6529 2.9414,-1.5742 15.4326,-4.1265 27.7583,-5.6721 12.3255,-1.5454 23.6741,-3.8118 25.2184,-5.0362 1.5445,-1.2244 10.1555,-3.0883 19.1355,-4.1419 8.9801,-1.0537 18.7764,-3.4604 21.7698,-5.3485 2.9933,-1.8879 11.4857,-4.2459 18.8716,-5.2399 7.3861,-0.9942 15.958,-3.4569 19.0484,-5.473 3.0908,-2.0161 11.7421,-4.5664 19.2254,-5.6673 7.4834,-1.101 15.4429,-3.5799 17.6879,-5.5089 2.245,-1.9289 9.733,-4.3194 16.6403,-5.3122 6.907,-0.9929 14.8664,-3.5527 17.6879,-5.6888 2.821,-2.136 8.803,-3.9307 13.2931,-3.9881 4.49,-0.058 11.8373,-2.5374 16.3273,-5.5111 4.49,-2.9735 10.631,-5.4146 13.6463,-5.4245 3.0157,-0.013 10.0522,-2.4669 15.6372,-5.4603 5.5847,-2.9933 11.6895,-5.4839 13.5658,-5.5348 1.8762,-0.051 8.3095,-2.4583 14.2961,-5.35 5.9868,-2.8918 12.7939,-5.2994 15.127,-5.3502 2.3329,-0.051 6.6188,-1.9092 9.5243,-4.13 2.9051,-2.2207 9.8741,-5.3293 15.4867,-6.9079 5.6125,-1.5787 10.2045,-4.0475 10.2045,-5.4865 0,-1.439 1.7572,-2.6164 3.9048,-2.6164 4.8866,0 13.3894,-3.7288 27.3892,-12.0114 5.9867,-3.5417 19.9392,-11.1661 31.0052,-16.9429 30.2918,-15.8129 33.9478,-17.922 37.878,-21.8522 1.9898,-1.9897 5.3567,-3.6178 7.4823,-3.6178 2.1252,0 5.3937,-2.4491 7.2631,-5.4424 1.8693,-2.9933 4.2745,-5.4425 5.3445,-5.4425 4.6092,0 51.1694,-35.2517 51.1694,-38.7414 0,-1.1422 1.749,-2.0767 3.8865,-2.0767 8.6455,0 91.3561,-91.0988 91.3561,-100.6212 0,-1.5317 2.4491,-5.2341 5.4424,-8.2274 2.9934,-2.9934 5.4424,-8.3539 5.4424,-11.9123 0,-3.5584 1.7582,-7.929 3.9069,-9.7123 2.1489,-1.7833 4.7585,-7.1196 5.7994,-11.8585 1.0406,-4.7387 3.4992,-11.083 5.4635,-14.0983 1.9641,-3.0153 4.7623,-12.8296 6.2182,-21.8096 1.4559,-8.9801 3.8497,-19.4471 5.3196,-23.2602 2.8454,-7.3814 4.2311,-344.5939 1.4614,-355.6293 -2.0919,-8.334 -8.1196,-7.7996 -10.3063,0.9136 -0.977,3.8918 -4.0565,10.3207 -6.8439,14.2865 -2.787,3.9656 -5.8669,11.4962 -6.8439,16.7346 -0.9769,5.2383 -4.7204,15.0346 -8.3187,21.7696 -3.5986,6.7351 -8.3534,16.0166 -10.5665,20.6258 -2.2128,4.6091 -5.9312,9.9633 -8.2627,11.8983 -2.3316,1.9349 -4.2391,5.0152 -4.2391,6.845 0,1.8298 -2.4491,5.5433 -5.4424,8.2522 -2.9934,2.7089 -5.4425,6.5293 -5.4425,8.4896 0,1.9604 -2.449,4.8751 -5.4424,6.4771 -2.9933,1.6019 -5.4424,4.2163 -5.4424,5.8097 0,4.228 -65.4461,67.6631 -69.8079,67.6631 -1.0164,0 -3.7874,1.8304 -6.1579,4.0675 -9.2646,8.7432 -21.5609,17.7022 -24.2966,17.7022 -1.5801,0 -3.8527,1.6709 -5.0495,3.7131 -1.9663,3.3553 -6.0775,6.0228 -27.0097,17.5247 -3.553,1.9526 -6.4604,4.6105 -6.4604,5.9066 0,1.2961 -3.7563,3.1815 -8.3476,4.1899 -4.5909,1.0084 -9.008,3.5548 -9.8154,5.6587 -0.8071,2.1038 -3.6206,3.8252 -6.2519,3.8252 -2.6315,0 -7.7049,2.1917 -11.274,4.8705 -3.5695,2.6788 -9.5512,6.3876 -13.2929,8.2419 -3.7417,1.8543 -14.7627,7.5957 -24.4909,12.7586 -9.7285,5.1629 -19.0687,9.4137 -20.7564,9.446 -1.6875,0.032 -4.5926,1.8957 -6.4558,4.1407 -1.8633,2.245 -5.1956,4.0817 -7.4053,4.0817 -2.2096,0 -7.8763,1.7183 -12.5926,3.8184 -34.0579,15.166 -41.0324,17.9534 -44.9596,17.9693 -2.4386,0.013 -8.1071,2.4508 -12.5972,5.4245 -4.49,2.9736 -10.6127,5.4562 -13.606,5.5168 -2.9934,0.06 -10.3406,2.4762 -16.3273,5.368 -5.9867,2.8918 -14.7147,5.2994 -19.3957,5.3501 -4.6808,0.051 -9.9066,1.7742 -11.6125,3.83 -1.706,2.0556 -8.988,4.5183 -16.1818,5.4726 -7.1938,0.9543 -15.4382,3.5193 -18.3207,5.7001 -2.8823,2.1808 -8.9619,4.004 -13.5096,4.0517 -4.5477,0.047 -12.745,2.3688 -18.2163,5.1581 -5.4713,2.7896 -16.3302,5.9185 -24.1312,6.9533 -7.8009,1.0348 -17.3594,3.5078 -21.2413,5.4956 -3.8818,1.9877 -14.9865,4.5214 -24.6772,5.6304 -9.6905,1.109 -20.0992,3.5557 -23.1303,5.4372 -3.031,1.8814 -13.4704,4.1576 -23.1987,5.0582 -9.7284,0.9005 -22.5861,3.4411 -28.5728,5.6458 -5.9866,2.2046 -18.3436,4.0622 -27.46,4.1278 -9.1164,0.065 -22.5863,1.9743 -29.9334,4.2411 -7.347,2.2669 -25.8904,5.3511 -41.2076,6.854 -15.3172,1.5029 -31.2363,4.0459 -35.3758,5.6512 -4.1395,1.6052 -28.3436,3.9216 -53.7869,5.1475 -25.4434,1.2259 -53.608,3.8693 -62.5879,5.8743 -22.0582,4.925 -332.5818,4.9543 -354.6731,0.033 -7.9867,-1.7789 -32.4777,-4.5027 -54.4243,-6.0526 -21.9466,-1.55 -46.8147,-4.6017 -55.2624,-6.7815 -8.4478,-2.1797 -24.3668,-3.9924 -35.3758,-4.0281 -11.0089,-0.036 -24.9146,-1.3872 -30.9013,-3.0033 -5.9866,-1.6162 -19.4567,-4.1168 -29.9334,-5.5572 -10.4766,-1.4403 -27.008,-5.0047 -36.7364,-7.9209 -9.7283,-2.9163 -22.7004,-5.2846 -28.8268,-5.2628 -6.1266,0.022 -18.2578,-2.4096 -26.9581,-5.403 -8.7002,-2.9933 -20.2526,-5.4424 -25.6718,-5.4424 -5.4194,0 -12.6069,-1.9287 -15.9723,-4.2858 -3.3653,-2.3571 -13.1279,-4.9965 -21.6948,-5.8652 -8.567,-0.8687 -18.0254,-3.1095 -21.0187,-4.9795 -2.9934,-1.8701 -12.1478,-4.2818 -20.3432,-5.3595 -8.1956,-1.0776 -17.3796,-3.5256 -20.4091,-5.4398 -3.0296,-1.9143 -10.7062,-4.3169 -17.0591,-5.3394 -6.3533,-1.0224 -12.166,-2.8539 -12.9176,-4.0699 -0.7513,-1.2161 -7.7686,-3.7468 -15.5936,-5.6241 -7.8249,-1.8772 -15.8759,-5.0615 -17.8906,-7.0764 -2.0149,-2.0148 -6.3495,-3.6635 -9.6321,-3.6635 -3.2828,0 -10.5382,-2.449 -16.1232,-5.4424 -5.5848,-2.9934 -12.3017,-5.4504 -14.9264,-5.4603 -2.6244,-0.013 -8.4456,-2.451 -12.9356,-5.4245 -4.49,-2.9736 -11.0318,-5.4147 -14.5373,-5.4245 -3.5057,-0.013 -9.4875,-2.467 -13.2928,-5.4604 -3.8053,-2.9933 -9.3158,-5.4424 -12.2455,-5.4424 -2.9297,0 -8.4401,-2.4491 -12.2455,-5.4424 -3.8053,-2.9933 -9.0529,-5.4425 -11.6611,-5.4425 -2.6083,0 -6.2397,-1.8044 -8.0701,-4.0098 -1.8303,-2.2054 -7.4471,-4.7826 -12.4816,-5.727 -5.0348,-0.9446 -10.5067,-3.3474 -12.16,-5.3395 -1.6535,-1.9923 -6.5955,-4.4106 -10.9821,-5.374 -4.3866,-0.9636 -7.9756,-2.7461 -7.9756,-3.9613 0,-1.2153 -4.5921,-4.2305 -10.2045,-6.7004 -12.5345,-5.5164 -25.1682,-12.7157 -29.8523,-17.0113 -1.9332,-1.7728 -5.9568,-3.9982 -8.9411,-4.9455 -2.9844,-0.9472 -5.4263,-2.6677 -5.4263,-3.8232 0,-1.1557 -3.0038,-3.4697 -6.6752,-5.1426 -15.6846,-7.1462 -61.3089,-43.9885 -89.9814,-72.6609 -28.2183,-28.2184 -39.8167,-42.2627 -49.7571,-60.2504 -1.9527,-3.5332 -4.6106,-6.4239 -5.9066,-6.4239 -1.2961,0 -3.1446,-3.589 -4.1083,-7.9757 -0.9635,-4.3866 -3.5098,-9.4347 -5.6587,-11.218 -2.1487,-1.7834 -3.9069,-5.3765 -3.9069,-7.9847 0,-2.6083 -2.3353,-7.7114 -5.1899,-11.3401 -2.8542,-3.6289 -6.0245,-12.1632 -7.0444,-18.9653 -1.0202,-6.802 -2.9356,-14.1006 -4.2568,-16.2192 -3.6096,-5.7871 -11.3725,0.1892 -14.1451,10.8897 -2.9729,11.4732 -0.5428,327.6425 2.7103,352.6226 1.3644,10.4767 4.5246,22.7222 7.023,27.2122 2.4983,4.49 4.5498,10.769 4.5591,13.9532 0,3.1842 1.7747,7.2486 3.9234,9.0319 2.1489,1.7834 4.6952,6.8315 5.6588,11.2181 0.9635,4.3865 2.9413,7.9757 4.3955,7.9757 1.4543,0 4.4348,4.2858 6.6235,9.5241 2.1887,5.2384 5.1875,9.5243 6.664,9.5243 1.4768,0 2.6847,2.386 2.6847,5.3022 0,2.9162 2.7553,8.3572 6.1227,12.0912 3.3676,3.7338 10.4057,12.0626 15.6402,18.5083 8.4056,10.3504 24.6667,26.8091 57.4337,58.1312 5.3929,5.1553 11.2482,9.3732 13.0113,9.3732 1.763,0 3.8482,1.6754 4.6341,3.723 0.7857,2.0476 7.7884,7.8085 15.5616,12.8017 7.7731,4.9934 14.5675,10.1322 15.0987,11.4197 0.5311,1.2874 3.5924,3.5492 6.803,5.0261 3.2105,1.4769 10.7354,5.6595 16.7221,9.2944 5.9866,3.635 13.9462,8.1425 17.6879,10.0166 3.7416,1.8742 13.5381,8.0196 21.7697,13.6565 8.2317,5.637 16.9788,10.2505 19.4377,10.2526 2.4591,0 5.1498,1.7727 5.9798,3.9351 0.8298,2.1625 5.8153,4.7396 11.079,5.7271 5.2639,0.9876 10.9885,3.5041 12.7217,5.5926 1.7333,2.0885 4.9018,3.7972 7.0413,3.7972 2.1391,0 8.7242,2.4491 14.6333,5.4424 5.9092,2.9934 15.5785,7.8915 21.4872,10.8848 5.9091,2.9934 12.479,5.4425 14.6,5.4425 2.1205,0 6.9695,2.4491 10.7748,5.4424 3.8054,2.9933 9.7871,5.4505 13.293,5.4604 3.5055,0.013 10.0472,2.4508 14.5373,5.4245 4.49,2.9736 11.2249,5.4535 14.9666,5.5111 3.7417,0.058 9.0589,1.8138 11.8164,3.9029 2.757,2.0891 10.1044,4.6326 16.3272,5.6521 6.2226,1.0195 13.362,3.6609 15.865,5.8699 2.503,2.2089 9.8503,4.6857 16.3272,5.5039 6.4771,0.8184 13.7028,3.1574 16.0571,5.1979 2.3545,2.0406 10.3139,4.5221 17.6879,5.5145 7.374,0.9923 15.8563,3.3181 18.8495,5.1681 2.9934,1.8502 12.7898,4.2239 21.7698,5.2749 8.98,1.0511 17.756,3.0828 19.5021,4.5149 1.746,1.4322 11.5423,3.8719 21.7697,5.4214 10.2272,1.5494 21.044,4.3613 24.0374,6.2485 2.9934,1.8871 13.3421,4.3162 22.997,5.3983 9.6551,1.0819 20.0637,3.3104 23.1303,4.9521 3.0668,1.6418 16.8628,3.9377 30.6581,5.1021 13.7951,1.1643 27.7271,3.5326 30.9597,5.2627 3.2329,1.7301 15.8247,3.7542 27.9817,4.498 12.157,0.7437 28.2264,3.1024 35.7097,5.2413 7.4833,2.1389 27.0761,4.6119 43.5394,5.4955 16.4634,0.8834 37.2807,3.375 46.2607,5.5367 11.0321,2.6556 44.9169,4.7361 104.4775,6.4147 48.4825,1.3664 88.8926,3.253 89.8001,4.1923 0.9074,0.9393 18.1812,0.9639 38.3863,0.055 20.2049,-0.9092 60.0027,-2.2687 88.4394,-3.0212 z m -1327.8148,-150.9003 -20.3587,-20.5133 20.7381,-21.1791 20.7381,-21.1792 -7.7354,-8.0739 c -4.2543,-4.4407 -9.1103,-8.0739 -10.7912,-8.0739 -1.6806,0 -15.7635,12.9135 -31.2951,28.6968 l -28.2391,28.6967 29.6759,29.7684 29.6762,29.7683 8.9749,-8.6988 8.9748,-8.6987 z m 1408.0907,-352.6414 c 14.2183,-2.31 43.6074,-5.3151 65.3091,-6.678 21.7017,-1.3629 48.0293,-4.345 58.506,-6.6268 10.4767,-2.2818 27.8838,-4.1699 38.6824,-4.1959 10.7983,-0.027 24.8806,-1.7734 31.294,-3.883 6.413,-2.1097 21.8047,-5.1506 34.2037,-6.7575 12.3989,-1.6069 24.8314,-4.1459 27.6274,-5.6424 2.7961,-1.4964 15.019,-3.8322 27.1621,-5.1909 12.1428,-1.3584 23.5891,-3.6638 25.436,-5.123 1.8471,-1.4592 11.93,-3.4929 22.4067,-4.5194 10.4768,-1.0263 21.4977,-3.4473 24.491,-5.3799 2.9933,-1.9325 12.0262,-4.2792 20.0731,-5.2148 8.0466,-0.9355 17.2577,-3.4223 20.4684,-5.5261 3.211,-2.1039 11.3215,-4.71 18.0239,-5.7913 6.7023,-1.0815 14.8984,-3.6854 18.2131,-5.7866 3.315,-2.1011 8.3628,-3.8204 11.2179,-3.8204 6.8893,0 46.1483,-12.5767 55.2871,-17.7114 3.9729,-2.2321 9.5012,-4.0582 12.2859,-4.0582 2.7845,0 9.6322,-2.4491 15.2172,-5.4425 5.5848,-2.9933 12.0001,-5.4424 14.256,-5.4424 2.2559,0 8.6711,-2.4491 14.2558,-5.4424 5.5851,-2.9933 12.3201,-5.4425 14.9667,-5.4425 2.6469,0 9.3819,-2.4491 14.9667,-5.4424 5.5851,-2.9934 12.354,-5.4424 15.0423,-5.4424 2.6883,0 5.5464,-1.7165 6.3516,-3.8144 0.8049,-2.0979 5.5415,-4.5793 10.5259,-5.5144 4.9843,-0.935 10.56,-3.5045 12.3903,-5.7099 1.8303,-2.2054 5.6269,-4.0098 8.4368,-4.0098 2.8103,0 7.4338,-2.3244 10.2749,-5.1654 2.8408,-2.8409 8.9494,-5.9965 13.5747,-7.0123 4.6252,-1.016 9.1196,-2.996 9.9874,-4.4002 0.8678,-1.4042 5.4739,-4.3801 10.2358,-6.6132 4.7619,-2.2331 13.556,-7.0496 19.5427,-10.7036 5.9867,-3.654 13.6401,-7.9008 17.0076,-9.4374 3.3675,-1.5366 6.1228,-3.9661 6.1228,-5.3991 0,-1.4328 2.4417,-3.3801 5.4263,-4.3274 2.9844,-0.9472 6.9805,-3.1727 8.8802,-4.9454 1.8996,-1.7728 9.5604,-7.4658 17.0238,-12.6509 7.4633,-5.1852 15.0696,-10.6956 16.9031,-12.2454 1.8333,-1.55 6.5708,-5.267 10.5276,-8.2604 3.9569,-2.9934 9.4981,-7.5854 12.3137,-10.2046 2.8154,-2.6191 6.2029,-4.7621 7.5275,-4.7621 1.3244,0 4.2343,-2.7553 6.4658,-6.1227 2.232,-3.3675 11.7339,-13.8416 21.1159,-23.2759 9.3816,-9.4342 22.981,-24.741 30.2201,-34.0151 7.2393,-9.2742 15.0217,-18.8016 17.2943,-21.1722 2.2726,-2.3706 4.1321,-5.2388 4.1321,-6.3738 0,-1.1351 2.4491,-5.1773 5.4424,-8.9827 2.9934,-3.8054 5.4424,-9.6652 5.4424,-13.0217 0,-3.3567 1.7582,-7.562 3.9069,-9.3454 2.1489,-1.7833 4.7613,-7.1375 5.8051,-11.8983 1.0441,-4.7608 4.1845,-12.9238 6.9781,-18.1399 2.7939,-5.2162 5.0982,-13.788 5.1208,-19.0486 0.027,-5.2604 1.8054,-14.4626 3.9623,-20.4493 5.0255,-13.9497 5.1869,-36.9866 0.3919,-55.8935 -2.0726,-8.172 -4.6172,-20.9808 -5.6544,-28.4642 -1.0374,-7.4833 -3.6277,-16.3181 -5.756,-19.6331 -2.1285,-3.3147 -3.8877,-8.213 -3.9098,-10.8848 -0.027,-2.6718 -1.7857,-7.9192 -3.9188,-11.6609 -2.1332,-3.7417 -5.7641,-10.4766 -8.0687,-14.9666 -2.3048,-4.4901 -5.7153,-10.6128 -7.5789,-13.6062 -13.6624,-21.9431 -17.5251,-27.4745 -20.5236,-29.3882 -1.8752,-1.1969 -3.4094,-3.9905 -3.4094,-6.2081 0,-2.2177 -1.7903,-4.719 -3.9782,-5.5587 -2.1881,-0.8396 -4.6508,-3.6452 -5.4726,-6.2346 -2.5352,-7.9875 -37.0093,-40.3535 -78.4461,-73.6484 -1.7952,-1.4425 -6.8101,-5.7187 -11.1444,-9.5029 -4.3345,-3.7842 -9.5388,-6.8804 -11.5653,-6.8804 -2.0264,0 -3.6845,-1.1646 -3.6845,-2.588 0,-2.262 -14.4215,-11.3873 -44.398,-28.0928 -4.7661,-2.6561 -12.3392,-7.2352 -16.8293,-10.1757 -4.49,-2.9404 -11.225,-6.7148 -14.9667,-8.3871 -3.7416,-1.6724 -8.6398,-4.1435 -10.8848,-5.4911 -2.245,-1.3477 -7.1432,-3.9233 -10.8849,-5.7237 -3.7417,-1.8004 -9.7234,-5.4652 -13.2928,-8.1439 -3.5692,-2.6787 -9.2359,-4.8704 -12.5924,-4.8704 -3.3567,0 -7.521,-1.7089 -9.2544,-3.7973 -1.7331,-2.0884 -7.2705,-4.5699 -12.305,-5.5144 -5.0349,-0.9445 -10.5453,-3.3936 -12.2455,-5.4424 -1.7005,-2.0489 -7.2109,-4.498 -12.2454,-5.4424 -5.0348,-0.9445 -10.6247,-3.4894 -12.4221,-5.6552 -1.7974,-2.1657 -7.7065,-4.7704 -13.131,-5.788 -5.4245,-1.0177 -11.5118,-3.4992 -13.5268,-5.5144 -2.0154,-2.0153 -6.3504,-3.6642 -9.6328,-3.6642 -3.2829,0 -10.243,-2.2908 -15.4669,-5.0907 -5.2239,-2.7999 -14.7964,-5.9858 -21.2715,-7.0798 -6.4754,-1.094 -15.041,-3.6938 -19.0343,-5.7774 -3.9938,-2.0836 -10.3561,-3.7958 -14.1389,-3.8051 -3.7828,-0.01 -9.4443,-1.8143 -12.5807,-4.0112 -3.1368,-2.197 -11.0625,-4.8183 -17.613,-5.8251 -6.5509,-1.0068 -16.4536,-4.1075 -22.0065,-6.8904 -5.553,-2.7828 -14.4916,-5.0597 -19.8638,-5.0597 -5.3722,0 -13.2752,-1.8138 -17.5619,-4.0305 -4.2867,-2.2168 -14.9408,-4.8285 -23.6757,-5.8038 -8.7345,-0.9753 -17.8471,-3.477 -20.2499,-5.5594 -2.4028,-2.0824 -12.8115,-4.5396 -23.1304,-5.4605 -10.3188,-0.9209 -22.1922,-3.4046 -26.3851,-5.5191 -4.1928,-2.1147 -18.2752,-4.5602 -31.2939,-5.4346 -13.0189,-0.8744 -25.9299,-2.7525 -28.6913,-4.1736 -2.7614,-1.4211 -17.1212,-3.7224 -31.9105,-5.114 -14.7892,-1.3915 -30.2858,-3.9208 -34.4367,-5.6205 -4.151,-1.6998 -27.7523,-4.6674 -52.4472,-6.5948 -24.6951,-1.9274 -54.6964,-4.7799 -66.6698,-6.339 -32.4948,-4.2311 -225.5168,-8.2221 -268.0396,-5.542 -20.2051,1.2734 -57.5537,2.4015 -82.9971,2.5068 -30.5927,0.1265 -52.7122,1.5947 -65.3092,4.3344 -10.4766,2.2786 -35.1112,5.1888 -54.7438,6.467 -19.6324,1.2783 -38.0006,3.5155 -40.8182,4.9717 -2.8175,1.4562 -17.8821,3.4934 -33.4769,4.527 -15.595,1.0337 -32.3957,3.5681 -37.3356,5.6321 -4.9399,2.0639 -17.8958,4.5856 -28.7912,5.6037 -10.8957,1.0181 -23.4839,3.4146 -27.9739,5.3255 -4.4899,1.9111 -18.4403,4.8242 -31.0009,6.4737 -12.5606,1.6495 -24.1938,4.063 -25.8515,5.3633 -1.6578,1.3003 -10.1501,3.0637 -18.8719,3.9187 -8.7217,0.855 -18.5181,3.2825 -21.7697,5.3944 -3.2516,2.1119 -12.2621,4.6714 -20.0232,5.6878 -7.7613,1.0163 -17.5576,3.6454 -21.7698,5.8424 -4.2122,2.197 -11.3501,4.0021 -15.8624,4.0114 -4.5121,0.01 -12.7735,2.4658 -18.3585,5.4591 -5.5847,2.9934 -13.5263,5.4506 -17.6475,5.4604 -4.1211,0.012 -11.1669,2.4509 -15.6569,5.4245 -4.4899,2.9736 -10.6307,5.4146 -13.6463,5.4245 -3.0154,0.01 -10.0522,2.467 -15.6373,5.4604 -5.5846,2.9933 -11.9999,5.4424 -14.2558,5.4424 -2.2559,0 -8.6708,2.4491 -14.2559,5.4424 -5.585,2.9934 -12.6936,5.4425 -15.7972,5.4425 -3.1038,0 -8.0199,1.7979 -10.9252,3.9952 -2.9053,2.1974 -7.1662,4.0342 -9.4689,4.0819 -2.3028,0.047 -8.9907,2.5356 -14.862,5.5289 -5.8713,2.9934 -12.0876,5.4424 -13.8145,5.4424 -1.7265,0 -6.1564,2.3732 -9.8437,5.2738 -3.6875,2.9006 -9.925,6.0821 -13.8616,7.07 -3.9362,0.988 -8.5816,3.513 -10.3229,5.6112 -1.7414,2.0981 -5.9124,3.8148 -9.269,3.8148 -3.3563,0 -9.023,2.1827 -12.5924,4.8505 -3.5695,2.6679 -13.531,8.3243 -22.1369,12.5699 -8.6058,4.2457 -15.6469,8.6652 -15.6469,9.8212 0,1.1559 -3.3676,2.9461 -7.4834,3.9781 -4.1158,1.032 -9.6739,4.2262 -12.3513,7.0981 -2.6776,2.8719 -6.6574,5.2216 -8.844,5.2216 -2.1867,0 -3.9759,0.9793 -3.9759,2.176 0,1.1969 -10.1026,8.7645 -22.45,16.8172 -12.3475,8.0525 -24.2869,16.2526 -26.5319,18.2225 -2.245,1.9697 -9.4328,8.1782 -15.973,13.7966 -13.9497,11.9835 -33.8492,31.8245 -54.7786,54.6178 -22.3748,24.3678 -27.2121,30.5197 -27.2121,34.6085 0,2.0434 -1.6877,4.6946 -3.7506,5.8915 -2.063,1.1968 -7.5596,10.361 -12.2145,20.3645 -4.6552,10.0037 -9.5634,18.8682 -10.9074,19.6988 -1.344,0.8307 -3.284,5.9887 -4.311,11.4624 -1.0267,5.4738 -3.442,12.5284 -5.3676,15.6771 -1.9252,3.1487 -4.9664,19.1949 -6.7584,35.6582 -5.0903,46.7722 2.2614,94.8335 20.5006,134.0199 3.6573,7.8575 7.7388,14.2864 9.0706,14.2864 1.3314,0 3.2461,3.7563 4.2546,8.3475 1.0083,4.5911 3.5547,9.0081 5.6585,9.8154 2.104,0.8073 3.8252,2.5069 3.8252,3.777 0,3.0521 11.5084,20.2884 22.4963,33.6933 16.4938,20.1222 53.9597,54.7987 82.4873,76.3456 3.9632,2.9934 9.1752,7.5854 11.5826,10.2046 2.4072,2.6192 5.7916,4.7621 7.5207,4.7621 1.729,0 4.727,1.9076 6.662,4.2391 1.9349,2.3314 7.2891,6.0026 11.8983,8.158 4.6092,2.1553 12.0539,6.373 16.5438,9.3727 4.49,2.9995 11.8373,7.3721 16.3274,9.7169 4.49,2.3447 13.0617,7.2316 19.0484,10.8597 5.9868,3.6281 14.7811,8.4236 19.5427,10.6565 4.7619,2.2331 9.3406,5.1645 10.1746,6.5141 0.8341,1.3497 5.6931,3.2376 10.7976,4.1951 5.1044,0.9576 10.7784,3.5455 12.6087,5.751 1.8302,2.2054 4.5744,4.0097 6.0979,4.0097 1.5239,0 8.4152,2.582 15.314,5.7379 6.8988,3.1559 18.0539,8.2031 24.7889,11.2162 6.735,3.013 16.7741,7.7783 22.3087,10.5893 5.535,2.8112 12.27,5.1192 14.9667,5.1291 2.697,0.013 8.577,2.4509 13.0671,5.4245 4.49,2.9736 10.9235,5.4147 14.2962,5.4246 3.3728,0.013 10.7022,2.4669 16.287,5.4603 5.585,2.9933 13.7497,5.4424 18.1442,5.4424 4.3942,0 10.0772,1.8892 12.6286,4.1981 2.5511,2.309 9.3827,4.8904 15.1809,5.7365 5.798,0.8461 15.5206,3.8551 21.6056,6.6867 6.0852,2.8316 15.6184,5.1485 21.1851,5.1485 5.5669,0 12.8338,1.7202 16.1486,3.8227 3.3149,2.1027 12.7619,4.6954 20.9936,5.7615 8.2317,1.0664 18.2735,3.632 22.315,5.7014 4.0415,2.0696 11.3888,3.8166 16.3274,3.8823 4.9384,0.065 13.877,2.0121 19.8637,4.3253 5.9866,2.3133 20.6813,5.6865 32.6546,7.4962 11.9734,1.8097 24.2188,4.6033 27.2121,6.2081 2.9934,1.6048 16.5382,3.5212 30.0994,4.2589 13.5614,0.7376 27.3104,2.761 30.5532,4.4965 3.2426,1.7355 18.475,4.3639 33.8489,5.8411 15.3743,1.477 34.6882,4.4954 42.9198,6.7073 8.9148,2.3956 27.1957,4.035 45.2089,4.0542 16.6335,0.019 36.8385,1.3782 44.9001,3.0231 26.0064,5.3064 74.5302,7.0362 209.2247,7.4585 107.4831,0.337 136.7772,-0.3658 157.8305,-3.7861 z"
     id="path12"
     inkscape:connector-curvature="0" />
</svg>
