<?xml version="1.0" encoding="UTF-8" standalone="no"?>
<!-- Created with Inkscape (http://www.inkscape.org/) -->

<svg
   xmlns:dc="http://purl.org/dc/elements/1.1/"
   xmlns:cc="http://creativecommons.org/ns#"
   xmlns:rdf="http://www.w3.org/1999/02/22-rdf-syntax-ns#"
   xmlns:svg="http://www.w3.org/2000/svg"
   xmlns="http://www.w3.org/2000/svg"
   xmlns:sodipodi="http://sodipodi.sourceforge.net/DTD/sodipodi-0.dtd"
   xmlns:inkscape="http://www.inkscape.org/namespaces/inkscape"
   width="678.84521mm"
   height="691.18787mm"
   viewBox="0 0 678.84521 691.18787"
   version="1.1"
   id="svg5817"
   inkscape:version="0.92.4 (5da689c313, 2019-01-14)"
   sodipodi:docname="Taxon_icon_vert.svg"
   inkscape:export-filename="C:\Users\jpanijeldouard\Documents\SINP\GINCO2\Dev_GeoNature\Spécifications\Exports_PDF\Icones\New_public_domain\Taxon_icon3.png"
   inkscape:export-xdpi="96"
   inkscape:export-ydpi="96">
  <defs
     id="defs5811">
    <inkscape:path-effect
       effect="spiro"
       id="path-effect6721"
       is_visible="true" />
    <inkscape:path-effect
       effect="spiro"
       id="path-effect6717"
       is_visible="true" />
    <inkscape:path-effect
       effect="spiro"
       id="path-effect6713"
       is_visible="true" />
    <inkscape:path-effect
       effect="spiro"
       id="path-effect6709"
       is_visible="true" />
    <inkscape:path-effect
       effect="spiro"
       id="path-effect6697"
       is_visible="true" />
    <inkscape:path-effect
       effect="spiro"
       id="path-effect6693"
       is_visible="true" />
    <inkscape:path-effect
       effect="spiro"
       id="path-effect6689"
       is_visible="true" />
  </defs>
  <sodipodi:namedview
     id="base"
     pagecolor="#ffffff"
     bordercolor="#666666"
     borderopacity="1.0"
     inkscape:pageopacity="0.0"
     inkscape:pageshadow="2"
     inkscape:zoom="0.27023919"
     inkscape:cx="602.12695"
     inkscape:cy="1202.2551"
     inkscape:document-units="mm"
     inkscape:current-layer="layer1"
     showgrid="false"
     inkscape:window-width="1920"
     inkscape:window-height="1027"
     inkscape:window-x="-8"
     inkscape:window-y="-8"
     inkscape:window-maximized="1"
     fit-margin-top="0"
     fit-margin-left="0"
     fit-margin-right="0"
     fit-margin-bottom="0" />
  <metadata
     id="metadata5814">
    <rdf:RDF>
      <cc:Work
         rdf:about="">
        <dc:format>image/svg+xml</dc:format>
        <dc:type
           rdf:resource="http://purl.org/dc/dcmitype/StillImage" />
        <dc:title></dc:title>
      </cc:Work>
    </rdf:RDF>
  </metadata>
  <g
     inkscape:label="Calque 1"
     inkscape:groupmode="layer"
     id="layer1"
     transform="translate(206.44174,187.25233)">
    <g
       id="g60">
      <ellipse
         inkscape:export-ydpi="96"
         inkscape:export-xdpi="96"
         ry="345.59393"
         rx="339.42261"
         cy="158.3416"
         cx="132.98087"
         id="path6628"
         style="fill:#7ab839;fill-opacity:1;stroke-width:0.21599621" />
      <g
         id="g6823" />
      <path
         id="ellipse6746"
         style="fill:#ffffff;fill-opacity:0.01463414;stroke:#ffffff;stroke-width:10;stroke-linecap:round;stroke-linejoin:round;stroke-miterlimit:4;stroke-dasharray:none;stroke-opacity:1"
         d="m 216.80045,287.28226 c 0,45.92511 -38.92192,83.15476 -86.93453,83.15476 -48.012611,0 -86.934523,-37.22965 -86.934524,-83.15476 -5e-6,-45.92511 38.921909,-83.15477 86.934524,-83.15477 48.01262,0 86.93453,37.22966 86.93453,83.15477 z M -38.303014,256.47975 c 8.441383,5.95819 28.81236,24.55348 37.2532243,26.35445 13.3545517,3.69083 28.5888107,4.4478 43.9811857,4.44806 M 201.35976,160.88516 c -14.24278,-16.48962 -39.26195,-20.94589 -54.35773,-19.32348 -13.55667,1.45699 -29.9787,7.26783 -50.260235,9.57892 m -107.782376,22.32971 c 0.993353,10.81967 -4.157738,20.12272 -0.377976,34.53124 3.7794958,10.25078 7.6618796,12.24612 11.13736232,20.78851 M 145.83612,76.669652 C 107.435,106.39838 108.42795,150.92252 70.962083,179.71602 33.496194,208.50949 -4.1489336,228.87573 -38.303014,256.47975 -72.457103,284.0838 -62.664971,277.69746 -78.005493,294.36831 M 60.669415,91.193207 c 10e-7,45.925103 -38.921912,83.154763 -86.934525,83.154763 -48.012611,0 -86.93452,-37.22966 -86.93452,-83.154763 0,-45.925105 38.921909,-83.1547599 86.93452,-83.1547625 48.012613,0 86.934525,37.2296555 86.934525,83.1547625 z M -33.563812,336.87775 c -2e-6,23.47731 -19.89722,42.50943 -44.441681,42.50943 -24.544457,0 -44.441677,-19.03212 -44.441677,-42.50943 0,-23.47731 19.89721,-42.50944 44.441677,-42.50944 24.544465,0 44.441684,19.03213 44.441681,42.50944 z M 373.55815,177.3718 c 0,45.9251 -38.92191,83.15476 -86.93452,83.15476 -48.01261,0 -86.93453,-37.22965 -86.93453,-83.15476 0,-45.92511 38.92191,-83.15477 86.93453,-83.154767 48.01261,3e-6 86.93452,37.229657 86.93452,83.154767 z M 304.475,-27.065983 c 0,61.407918 -52.04372,111.188873 -116.24291,111.188873 -64.19919,3e-6 -116.242918,-49.780952 -116.242916,-111.188873 -4e-6,-61.407922 52.043726,-111.188877 116.242916,-111.188877 64.19919,0 116.24291,49.780957 116.24291,111.188877 z"
         inkscape:connector-curvature="0"
         sodipodi:nodetypes="sssssccccscccccsscssssssssssssssssssss" />
      <g
         style="fill:#ffffff;fill-opacity:1;stroke:none"
         transform="matrix(0.00999405,0,0,-0.00839559,68.662799,341.83686)"
         id="g6551">
        <path
           style="fill:#ffffff;fill-opacity:1"
           inkscape:connector-curvature="0"
           d="m 10767,12793 c -3,-5 -77,-42 -165,-82 l -158,-72 -117,-142 c -64,-79 -126,-152 -139,-164 -13,-11 -76,-52 -141,-91 l -119,-70 -145,-263 c -79,-145 -196,-361 -259,-480 l -114,-216 v -141 -141 l 100,-186 c 55,-102 100,-194 100,-206 0,-11 -27,-97 -61,-192 l -60,-172 -171,-245 c -94,-135 -179,-255 -190,-266 -10,-12 -70,-49 -132,-83 l -113,-61 -284,-14 -284,-13 -330,114 c -181,63 -341,121 -356,128 -14,8 -254,158 -533,335 -507,320 -509,321 -1004,572 l -497,252 -345,68 c -507,100 -495,99 -895,50 l -330,-41 -214,-87 c -203,-82 -225,-94 -415,-220 -197,-130 -204,-135 -327,-272 l -126,-139 -128,-244 -128,-244 -14,-130 c -11,-101 -22,-153 -50,-230 -41,-114 -41,-94 -12,-410 l 21,-240 105,-247 105,-248 129,-155 c 82,-99 126,-160 123,-170 -3,-8 -22,-19 -43,-24 -35,-10 -281,-38 -571,-65 -132,-13 -171,-22 -440,-101 -223,-66 -376,-119 -629,-218 L 1078,7395 868,7212 C 691,7058 634,7001 502,6846 L 345,6662 268,6493 190,6325 105,5960 C 58,5759 15,5587 9,5576 c -8,-13 -8,-25 0,-40 6,-11 38,-133 71,-271 l 60,-250 162,-290 c 89,-159 171,-306 184,-326 16,-25 129,-112 382,-292 l 359,-257 472,-165 471,-165 h 103 c 56,0 233,5 392,10 l 290,11 680,119 c 498,87 720,121 830,129 83,6 310,22 505,36 l 355,26 455,-100 c 250,-56 469,-107 485,-115 17,-8 99,-62 183,-120 117,-82 167,-125 217,-183 36,-42 67,-86 70,-97 2,-12 9,-102 15,-202 l 10,-181 -37,-99 c -33,-89 -53,-121 -194,-312 l -157,-213 -212,-159 c -118,-88 -214,-160 -215,-160 -1,0 -105,-40 -230,-90 l -227,-90 -162,-10 c -88,-6 -176,-12 -195,-15 -28,-3 -40,2 -78,38 -42,40 -46,49 -59,123 l -14,79 65,146 65,146 v 177 176 l -65,130 -65,129 -75,51 -76,51 -297,65 -297,64 -320,-51 -320,-50 -215,-96 C 3075,2746 3084,2752 2727,2519 L 2403,2308 2112,2017 1821,1725 1590,1315 1359,905 1219,521 c -89,-243 -139,-392 -135,-405 3,-12 15,-43 26,-69 20,-45 22,-47 63,-47 l 42,1 190,256 c 144,195 208,291 263,396 69,131 86,154 343,460 223,264 297,345 415,452 l 144,130 443,261 442,261 185,22 c 102,12 199,23 215,23 46,1 233,-96 240,-124 27,-125 28,-117 -45,-393 -65,-247 -69,-269 -79,-435 -8,-116 -9,-185 -2,-205 5,-16 17,-56 25,-87 13,-47 40,-87 157,-235 l 140,-178 141,-63 140,-64 379,-53 379,-54 217,28 c 213,28 226,31 553,130 463,140 573,191 920,427 l 255,174 295,281 295,280 117,227 116,227 116,387 116,388 v 192 c 0,106 -7,279 -15,385 l -14,192 -119,288 -118,288 -137,184 c -75,101 -137,191 -137,199 0,8 73,128 162,266 l 163,251 146,350 147,351 25,389 25,390 -40,170 -41,170 -129,230 -129,230 -204,220 c -113,120 -205,223 -205,228 0,4 11,19 25,32 28,29 78,32 228,14 141,-17 293,14 719,146 189,59 359,112 378,119 30,10 338,219 497,338 29,21 121,119 205,217 143,167 169,204 386,555 l 233,375 54,175 c 69,228 136,366 225,460 36,38 164,145 285,237 l 220,169 67,102 c 37,57 71,114 77,128 6,14 19,86 30,160 57,382 151,959 161,988 9,24 9,46 1,80 -6,26 -15,88 -20,137 -9,87 -12,95 -88,228 l -78,138 -80,36 c -73,33 -94,37 -230,49 -82,7 -169,15 -191,19 -23,4 -44,3 -47,-2 z m -5611,-3442 202,-49 183,-144 c 169,-132 197,-159 337,-322 96,-111 150,-182 145,-187 -6,-6 -161,4 -409,26 l -399,36 -247,121 -247,122 -37,89 c -31,76 -36,96 -31,138 3,27 12,61 19,76 17,33 232,155 262,148 12,-3 112,-27 222,-54 z m 503,-2466 c 99,-17 202,-43 330,-86 l 186,-61 55,-57 c 30,-32 86,-92 124,-135 l 69,-77 -11,-76 c -7,-41 -15,-79 -18,-84 -3,-5 -58,-9 -123,-9 h -118 l -329,293 c -180,160 -330,298 -332,305 -5,16 0,16 167,-13 z M 3078,6199 c 406,-129 453,-154 869,-459 356,-262 372,-275 358,-289 -6,-5 -158,-21 -340,-35 -238,-20 -392,-38 -551,-65 l -222,-38 -423,64 -424,65 -111,52 -110,53 -52,84 -52,84 v 116 115 l 51,75 c 28,41 60,84 71,95 10,12 83,51 161,87 141,65 144,66 262,75 222,17 200,20 513,-79 z"
           id="path6549" />
      </g>
      <g
         style="fill:#ffffff;fill-opacity:1;stroke:none"
         transform="matrix(0.01374639,0,0,-0.01374639,105.34369,60.326699)"
         id="g6858">
        <path
           style="fill:#ffffff;fill-opacity:1"
           inkscape:connector-curvature="0"
           d="m 7704,12160 c -84,-17 -256,-71 -307,-96 -186,-94 -274,-202 -399,-492 -32,-74 -72,-152 -90,-175 -80,-100 -141,-163 -211,-215 -41,-32 -145,-120 -232,-197 -228,-203 -324,-268 -491,-331 -160,-60 -436,-92 -899,-104 -428,-11 -478,-15 -585,-50 -499,-163 -1061,-520 -1543,-979 l -78,-75 -100,49 c -54,27 -99,52 -99,55 0,3 35,46 77,95 131,154 287,370 387,537 77,130 96,168 96,200 0,36 -2,38 -25,32 -15,-4 -39,0 -60,10 -29,14 -42,15 -77,5 -147,-39 -405,-230 -705,-523 -79,-76 -143,-136 -143,-132 0,3 37,49 81,102 45,54 132,165 195,248 64,86 132,166 159,186 95,72 107,84 129,129 13,25 33,91 45,146 12,55 29,120 38,144 22,59 11,76 -53,78 -27,0 -63,4 -80,8 -23,5 -44,0 -85,-20 -78,-39 -264,-232 -441,-455 -80,-102 -192,-243 -249,-315 -135,-171 -213,-258 -273,-306 -57,-46 -91,-50 -108,-14 -16,35 15,222 42,250 10,11 35,65 54,120 19,55 69,182 110,283 42,100 75,186 74,190 -1,4 4,25 11,46 14,39 12,113 -5,328 l -7,77 -72,6 c -80,8 -99,2 -153,-49 -101,-93 -192,-314 -302,-728 -110,-413 -138,-498 -195,-589 -13,-20 -79,-99 -145,-175 C 784,9229 652,9052 362,8620 174,8342 44,7964 9,7600 -7,7429 8,7141 42,6962 c 9,-50 15,-62 29,-60 11,2 31,-19 60,-62 60,-88 105,-118 205,-134 140,-22 189,-10 460,118 49,24 131,68 182,99 51,31 92,51 92,44 0,-7 -34,-185 -75,-396 l -74,-383 41,-67 c 23,-36 53,-82 67,-101 l 25,-35 -33,30 c -51,46 -34,16 56,-98 105,-132 471,-492 628,-618 130,-105 509,-381 670,-489 384,-257 905,-493 1135,-515 49,-4 137,-27 255,-65 192,-63 338,-106 475,-140 47,-11 92,-23 99,-26 23,-8 -73,-49 -282,-120 -492,-168 -840,-315 -1062,-447 -330,-197 -432,-274 -532,-403 -27,-35 -57,-53 -210,-124 -124,-57 -199,-86 -248,-95 -118,-21 -186,-60 -221,-127 -14,-28 -17,-124 -5,-168 4,-15 1,-43 -10,-70 -19,-51 -16,-70 11,-70 14,0 21,-10 25,-37 4,-21 12,-49 18,-63 21,-43 179,-193 257,-243 41,-27 134,-87 205,-133 209,-137 484,-268 770,-367 55,-19 163,-62 240,-94 77,-33 201,-81 275,-107 74,-27 191,-68 260,-93 179,-65 382,-113 721,-172 271,-47 301,-50 350,-40 36,8 116,10 239,6 276,-8 386,-41 584,-172 53,-35 153,-111 222,-169 145,-121 277,-222 384,-293 143,-96 584,-356 659,-390 42,-19 87,-40 101,-48 14,-7 41,-16 62,-20 45,-9 93,23 107,69 5,17 12,39 16,49 5,12 2,17 -8,17 -8,0 -29,21 -45,47 -30,46 -189,207 -322,326 l -65,59 63,-47 c 34,-26 110,-92 168,-147 93,-89 129,-111 129,-82 0,5 4,16 9,23 7,11 -13,36 -81,100 -108,103 -189,162 -433,316 -185,117 -268,185 -336,277 -19,25 -39,60 -45,78 -10,27 -9,34 10,54 27,28 108,40 386,57 219,13 1193,2 1213,-13 27,-22 132,15 132,46 0,8 -16,33 -35,56 -19,23 -35,50 -35,60 0,18 -46,35 -55,19 -3,-4 -31,1 -63,12 -149,52 -318,76 -737,105 -235,16 -261,16 -435,1 -102,-10 -214,-17 -250,-17 -114,0 -360,70 -360,103 0,16 32,46 80,75 45,26 325,127 407,146 34,8 75,23 90,34 60,42 161,85 358,152 235,80 316,118 406,190 81,65 86,74 65,117 -9,18 -16,44 -16,57 v 23 l -162,-3 c -129,-1 -190,-7 -295,-28 -222,-44 -459,-119 -758,-238 -238,-95 -287,-112 -425,-144 -169,-38 -325,-50 -487,-36 -76,7 -160,18 -188,26 l -50,13 28,12 c 16,6 30,11 32,11 12,0 345,143 470,202 332,157 506,266 675,420 l 73,67 -12,55 c -7,31 -20,65 -29,76 -101,125 -621,-82 -1438,-572 -133,-80 -241,-138 -256,-138 -49,0 -615,99 -802,140 -252,56 -364,92 -411,135 -20,19 -45,37 -56,40 -21,7 -24,32 -6,56 22,29 245,92 467,133 47,8 213,36 370,61 476,76 694,134 917,244 131,65 236,136 357,244 45,40 140,120 211,178 161,132 280,255 324,339 33,62 34,65 28,156 -5,80 -10,102 -38,155 -31,58 -117,153 -186,206 -18,14 -116,65 -219,114 -243,116 -360,193 -504,333 -188,183 -293,261 -565,422 -82,48 -171,105 -198,125 l -47,38 42,5 c 24,3 111,12 193,21 493,52 979,180 1545,407 263,106 500,246 735,435 126,101 364,329 502,482 101,111 328,407 426,556 40,61 57,80 53,60 -125,-518 -151,-1060 -65,-1343 25,-80 96,-214 139,-262 18,-19 27,-27 20,-17 -7,9 -10,17 -8,17 3,0 43,-25 89,-55 171,-113 412,-161 1029,-206 451,-32 470,-33 734,-14 271,19 415,17 541,-10 110,-23 118,-29 72,-51 -41,-20 -43,-23 -24,-47 10,-14 18,-14 53,-5 34,9 53,8 105,-6 90,-25 320,-118 479,-193 230,-110 431,-199 535,-238 124,-46 312,-95 385,-99 30,-2 83,-9 117,-17 61,-13 62,-13 65,-48 2,-30 7,-37 28,-39 51,-8 174,54 178,89 1,8 5,31 8,51 5,28 1,46 -16,72 -82,134 -460,330 -1014,527 -140,50 -173,65 -155,70 96,28 461,151 584,196 326,121 639,263 813,371 42,26 99,58 125,71 114,55 208,178 193,251 -9,45 -55,100 -101,121 -162,74 -676,-86 -1330,-413 -73,-37 -114,-53 -105,-42 8,11 56,66 105,124 50,58 110,130 135,160 65,82 184,203 275,280 76,64 84,74 145,194 54,107 65,136 68,190 6,87 -5,103 -73,111 -67,9 -106,-5 -219,-76 -219,-139 -550,-418 -1035,-873 l -223,-210 -114,38 c -63,20 -114,39 -114,40 0,2 14,34 31,72 18,38 61,139 96,224 36,85 80,191 98,235 19,44 41,121 50,170 9,50 25,132 36,183 10,51 19,108 19,128 0,45 -23,100 -48,113 -32,17 -92,13 -127,-9 -111,-69 -302,-428 -489,-918 -22,-56 -32,-72 -45,-68 -53,17 -275,68 -386,90 -242,47 -310,55 -500,60 -119,3 -209,10 -240,19 -107,30 -209,104 -164,119 16,5 -5,45 -43,80 -32,30 -33,46 -14,140 25,118 65,191 296,548 48,74 101,169 118,210 16,41 50,125 76,185 84,204 97,320 50,450 -40,112 -41,105 27,155 85,63 378,365 475,490 101,130 244,343 354,526 46,76 124,201 172,278 49,76 100,166 114,200 28,66 55,121 281,566 218,431 289,627 323,890 6,47 18,125 27,173 14,75 14,101 4,165 -19,128 -101,273 -210,375 -28,26 -51,50 -51,52 0,3 14,5 30,5 17,0 30,3 30,8 -1,22 -136,101 -289,167 -216,95 -278,115 -466,153 -304,63 -465,66 -712,13 -355,-76 -560,-80 -928,-16 -304,53 -410,63 -501,45 z m 2941,-1516 c -15,-49 -44,-132 -67,-184 -59,-140 -200,-441 -204,-437 -2,2 28,75 66,162 69,155 185,443 210,518 24,75 20,29 -5,-59 z M 7420,1416 c 92,-8 187,-23 215,-32 l 50,-18 -35,-7 c -87,-19 -329,-31 -406,-21 -443,60 -615,88 -588,94 48,12 586,0 764,-16 z"
           id="path6856" />
      </g>
      <g
         style="fill:#ffffff;fill-opacity:1;stroke:none"
         transform="matrix(8.0411583e-4,0.01039406,0.01039406,-8.0411583e-4,213.02652,126.66518)"
         id="g8891">
        <path
           style="fill:#ffffff;fill-opacity:1"
           inkscape:connector-curvature="0"
           d="m 1380,12773 c 1,-16 14,-53 30,-83 42,-77 40,-93 -7,-87 -21,2 -58,12 -83,22 -37,14 -62,16 -140,10 -52,-4 -117,-13 -145,-20 -28,-8 -91,-19 -140,-25 -151,-19 -162,-32 -95,-114 22,-26 40,-52 40,-56 0,-17 -29,-28 -98,-39 -41,-6 -105,-23 -144,-36 -96,-33 -215,-55 -304,-55 -60,0 -75,-3 -83,-18 -6,-11 -5,-24 2,-38 18,-31 95,-132 107,-139 13,-8 139,-187 174,-246 24,-42 25,-48 10,-59 -12,-11 -22,-11 -50,-1 -48,17 -64,3 -64,-58 0,-51 29,-122 64,-161 12,-14 35,-46 49,-72 15,-26 50,-75 77,-109 51,-64 61,-89 35,-89 -43,0 -4,-118 67,-202 24,-28 59,-79 78,-114 78,-140 97,-169 142,-222 27,-30 48,-59 48,-63 0,-5 -13,-15 -30,-24 -20,-10 -30,-23 -30,-38 1,-61 88,-182 226,-314 75,-71 104,-90 220,-147 78,-38 134,-72 134,-80 0,-8 -19,-21 -42,-28 -29,-10 -44,-21 -46,-35 -4,-29 73,-95 169,-143 77,-39 331,-130 362,-130 28,0 107,-41 107,-55 0,-8 -18,-24 -40,-35 -22,-11 -40,-26 -40,-33 0,-63 315,-191 545,-221 66,-9 131,-17 144,-18 36,-4 36,-24 1,-36 -37,-14 -41,-49 -7,-80 27,-25 137,-66 240,-88 83,-18 247,-12 325,12 61,18 96,18 112,-1 16,-19 -3,-45 -32,-45 -31,0 -58,-19 -58,-40 0,-37 81,-62 254,-80 60,-6 113,-13 117,-15 10,-7 325,30 471,55 67,11 154,30 192,42 107,32 186,14 226,-55 8,-14 27,-43 41,-64 14,-21 48,-72 75,-113 27,-41 70,-104 95,-140 26,-36 63,-94 82,-130 19,-36 61,-110 92,-165 79,-136 95,-167 95,-182 0,-8 17,-50 39,-96 37,-79 125,-325 141,-397 5,-19 20,-80 35,-134 14,-55 30,-144 35,-198 11,-109 32,-209 56,-265 9,-21 22,-74 29,-118 19,-123 35,-205 51,-261 8,-28 14,-58 14,-68 0,-9 13,-42 29,-74 16,-32 41,-97 56,-145 14,-48 53,-152 85,-230 31,-78 61,-153 65,-167 4,-14 32,-76 62,-139 74,-153 93,-198 86,-205 -15,-15 -53,-2 -134,44 -48,27 -100,52 -116,56 -39,10 -113,48 -144,76 -45,40 -116,132 -127,165 -11,33 -72,116 -157,213 -27,31 -78,89 -113,128 -37,43 -74,75 -90,78 -47,12 -186,83 -225,115 -21,17 -49,48 -61,68 -33,52 -279,179 -372,192 -36,5 -91,20 -124,34 -96,41 -114,32 -54,-26 59,-57 78,-109 39,-109 -8,0 -39,11 -68,24 -67,29 -341,96 -396,96 -22,0 -42,4 -45,9 -3,4 -40,11 -83,15 -67,5 -132,17 -240,43 -28,6 -30,-14 -8,-56 28,-56 53,-54 -545,-36 -213,7 -238,2 -205,-36 11,-12 53,-46 93,-76 78,-59 89,-85 39,-91 -16,-2 -40,4 -55,14 -23,15 -44,16 -171,11 -149,-7 -249,-21 -401,-56 -114,-27 -282,-79 -295,-92 -16,-16 24,-43 103,-68 101,-32 136,-81 58,-81 -19,0 -85,-15 -147,-34 -154,-45 -155,-46 -227,-56 -34,-4 -80,-18 -102,-29 -23,-12 -47,-21 -54,-21 -16,0 -182,-62 -244,-92 -59,-28 -54,-53 17,-93 30,-16 56,-35 58,-42 4,-12 -65,-53 -90,-53 -13,0 -67,-24 -182,-82 -33,-17 -82,-49 -110,-72 -27,-23 -71,-56 -96,-74 -53,-36 -79,-71 -79,-106 0,-32 5,-35 108,-55 90,-19 108,-32 71,-52 -12,-6 -73,-50 -135,-96 -79,-60 -118,-96 -130,-121 -9,-21 -31,-53 -48,-73 -17,-20 -53,-64 -81,-99 -27,-34 -84,-98 -125,-142 -72,-77 -74,-80 -55,-94 16,-12 36,-14 92,-8 91,8 100,-4 56,-75 -18,-28 -35,-74 -41,-111 -7,-35 -21,-80 -32,-102 -11,-21 -20,-44 -20,-51 0,-7 -23,-48 -50,-92 -28,-44 -50,-85 -50,-92 0,-19 -69,-92 -102,-109 -38,-20 -35,-38 9,-59 43,-21 154,-37 395,-60 92,-8 179,-19 193,-25 32,-12 32,-33 0,-54 -49,-32 -27,-62 58,-81 16,-3 47,-18 70,-33 l 41,-27 h 245 c 271,-1 277,-2 221,-60 -37,-38 -37,-66 0,-77 107,-30 151,-38 269,-49 74,-6 211,-10 307,-7 95,3 178,2 185,-2 8,-6 4,-19 -15,-46 -14,-21 -26,-45 -26,-53 0,-17 21,-13 180,29 63,16 125,30 138,30 13,0 56,13 95,29 198,79 271,76 222,-9 -8,-14 -14,-40 -15,-57 0,-47 32,-44 79,7 40,44 88,61 266,94 50,9 140,33 201,52 61,18 119,34 130,34 10,0 68,25 127,55 117,60 162,68 192,35 10,-11 28,-20 39,-20 23,0 129,76 152,108 17,25 93,77 141,97 43,18 120,77 212,161 89,82 109,94 141,87 19,-3 38,2 56,15 81,55 130,82 192,103 63,21 75,30 213,171 86,87 154,148 166,148 21,0 183,158 183,179 0,7 18,47 40,89 100,193 143,297 150,362 8,78 47,197 67,204 8,3 35,-5 61,-18 26,-13 70,-30 97,-39 94,-28 211,-122 423,-337 109,-112 128,-136 177,-232 65,-127 168,-284 195,-298 11,-6 24,-29 30,-52 14,-49 66,-144 83,-151 7,-3 35,-38 62,-78 27,-41 72,-99 99,-130 56,-63 118,-152 190,-274 57,-96 169,-258 213,-308 49,-55 108,-147 146,-224 46,-94 87,-152 146,-205 30,-27 64,-72 87,-118 24,-45 60,-93 93,-124 29,-28 77,-87 106,-131 30,-44 91,-126 137,-182 46,-57 101,-133 123,-170 22,-37 64,-91 93,-119 55,-54 69,-98 35,-111 -19,-7 -127,19 -177,42 -26,12 -45,14 -89,7 -94,-15 -153,-1 -238,56 -90,60 -210,206 -234,283 -12,36 -58,99 -110,149 -26,25 -71,77 -100,115 -101,131 -243,252 -405,345 -34,18 -78,49 -100,67 -49,42 -74,44 -67,5 3,-15 8,-37 12,-49 10,-31 -17,-30 -73,2 -44,25 -226,105 -239,105 -13,0 -205,61 -258,82 -27,11 -59,28 -70,38 -31,28 -70,35 -97,16 -12,-9 -32,-16 -43,-16 -19,-1 -19,-2 3,-20 13,-11 42,-25 64,-32 38,-11 128,-81 128,-99 0,-16 -26,-10 -45,10 -19,22 -115,55 -189,66 -27,4 -58,11 -70,15 -11,5 -77,14 -146,19 -69,5 -153,18 -187,29 -33,11 -66,16 -73,12 -7,-5 1,-26 26,-69 48,-80 41,-88 -58,-73 -112,18 -684,36 -693,23 -2,-4 24,-23 58,-42 35,-20 63,-42 65,-53 4,-21 -11,-20 -86,8 -36,14 -57,14 -140,6 -131,-15 -189,-32 -307,-94 -99,-51 -163,-78 -218,-90 -20,-5 -32,-16 -39,-36 -6,-19 -19,-32 -34,-35 -13,-3 -34,-7 -46,-10 -32,-6 -198,-115 -252,-166 l -46,-42 43,-22 c 23,-13 43,-30 45,-38 4,-20 -61,-62 -109,-71 -42,-8 -87,-38 -182,-124 -55,-51 -74,-62 -102,-62 -60,0 -50,-27 23,-64 34,-18 43,-50 16,-60 -29,-11 -228,-138 -279,-178 -91,-71 -109,-107 -90,-180 7,-26 5,-28 -50,-43 -43,-13 -78,-35 -147,-92 -49,-42 -92,-82 -95,-89 -5,-13 17,-37 188,-214 36,-37 85,-78 109,-91 77,-43 85,-48 85,-59 0,-6 -31,-28 -70,-49 -69,-37 -88,-62 -52,-69 11,-2 35,-15 54,-28 20,-13 41,-24 47,-24 6,0 50,-35 97,-77 47,-43 123,-109 167,-148 106,-90 106,-99 6,-113 -39,-6 -49,-11 -49,-27 0,-14 13,-24 50,-37 29,-10 62,-32 80,-52 45,-52 181,-147 263,-184 40,-19 97,-49 127,-67 41,-24 72,-34 122,-39 38,-4 76,-10 85,-12 24,-7 23,-35 -2,-41 -11,-3 -20,-9 -20,-14 0,-15 49,-41 69,-36 27,7 51,-11 51,-38 0,-19 13,-33 53,-59 41,-28 86,-44 217,-76 91,-22 179,-40 197,-40 79,0 86,-11 102,-167 3,-27 69,-36 300,-41 192,-3 250,-1 325,13 124,23 151,36 176,84 11,22 29,45 40,51 35,19 36,-16 1,-72 -50,-81 -50,-114 3,-181 15,-19 26,-13 172,84 138,92 317,176 353,164 10,-3 23,-17 30,-31 11,-25 12,-25 37,-10 29,20 44,14 44,-20 0,-38 42,-32 77,11 16,19 55,53 88,76 73,52 204,173 227,211 18,28 60,39 73,18 3,-5 31,-10 62,-10 62,0 51,-7 216,133 112,95 153,149 227,296 30,61 33,63 62,57 45,-9 115,27 132,68 7,17 31,51 53,76 75,87 100,126 122,190 13,36 35,90 51,120 16,30 35,78 43,105 32,106 91,261 110,289 16,22 23,54 28,125 14,190 23,201 168,201 56,0 119,-6 151,-15 30,-9 78,-22 105,-29 28,-8 82,-26 120,-41 39,-15 108,-40 155,-57 123,-44 260,-158 321,-269 8,-14 64,-70 124,-126 61,-55 134,-127 164,-159 30,-33 164,-172 297,-309 133,-138 257,-268 274,-290 17,-22 51,-53 74,-70 24,-17 79,-74 122,-126 76,-92 93,-108 196,-185 33,-25 60,-59 93,-117 100,-179 134,-193 189,-78 l 31,66 -2,160 c -3,219 -15,388 -29,392 -18,6 -24,-73 -24,-293 0,-199 -7,-254 -34,-254 -13,0 -62,60 -75,92 -57,136 -70,181 -72,253 -3,77 -3,77 32,109 20,17 50,39 67,48 19,10 32,25 32,36 0,25 -87,85 -192,132 -34,16 -65,43 -110,97 -35,42 -80,96 -101,121 -21,24 -58,84 -83,133 -24,49 -61,111 -81,137 -19,26 -44,66 -54,90 -11,24 -41,69 -69,101 -65,75 -145,230 -164,317 -16,74 -29,401 -17,409 5,2 8,18 9,35 1,43 42,93 94,114 23,10 63,27 88,37 25,11 84,28 132,38 47,10 91,21 96,25 6,3 56,11 111,16 140,15 266,43 357,81 60,25 92,47 147,100 39,38 76,69 82,69 7,0 25,20 41,45 15,25 30,45 34,45 9,0 164,93 196,118 16,12 67,52 113,87 46,36 89,76 97,90 7,14 16,31 21,37 4,7 13,31 18,53 8,32 15,41 35,43 72,8 84,20 58,61 -16,26 0,45 64,77 27,14 70,46 96,72 26,26 89,83 141,127 157,134 173,148 215,203 59,77 76,112 76,155 v 37 h -44 c -25,0 -47,4 -50,9 -7,10 42,80 88,126 17,17 51,67 75,111 25,43 62,102 83,130 43,57 47,78 18,96 -25,16 -25,29 0,75 11,21 20,48 20,61 0,13 9,35 20,49 11,14 20,31 20,38 0,7 21,31 48,53 26,22 44,44 40,48 -11,10 -55,9 -121,-5 -31,-7 -62,-9 -67,-6 -20,12 -9,49 34,114 24,36 49,77 56,91 7,14 33,56 57,93 34,52 44,74 39,93 -5,17 4,49 28,103 19,44 40,97 46,119 5,22 28,67 49,99 22,31 37,61 35,65 -11,18 -78,6 -136,-23 -60,-30 -63,-31 -95,-15 -39,19 -41,32 -9,94 44,88 56,142 54,237 -1,50 3,151 8,224 12,158 6,217 -25,240 -17,13 -20,23 -15,48 4,18 13,38 20,44 18,15 18,39 0,39 -8,0 -47,-18 -88,-40 -44,-23 -78,-36 -86,-31 -8,5 -16,50 -22,122 -19,217 -32,303 -58,373 -29,82 -30,102 -2,156 11,21 20,42 20,45 0,14 -36,1 -83,-30 -55,-37 -78,-43 -95,-22 -5,6 -28,98 -51,202 -43,192 -72,292 -97,332 -19,30 -18,47 6,68 33,30 8,37 -56,16 -204,-68 -331,-116 -354,-136 -8,-7 -34,-22 -58,-34 -72,-37 -161,-108 -241,-192 -55,-59 -81,-79 -92,-74 -10,3 -29,34 -44,68 -30,69 -60,107 -86,107 -9,0 -57,-43 -106,-96 -163,-178 -179,-194 -203,-194 -17,0 -21,4 -15,18 3,9 13,57 22,105 13,79 13,92 -1,134 -9,26 -16,55 -16,65 0,29 -25,21 -76,-23 -67,-58 -79,-51 -79,41 1,41 9,125 19,185 10,61 18,137 19,170 2,67 -17,183 -33,199 -7,7 -29,1 -69,-19 -97,-46 -111,-21 -65,115 13,41 29,102 34,135 5,33 14,76 20,95 29,92 48,248 34,284 -8,22 -18,20 -80,-10 -88,-43 -99,-31 -74,81 7,28 16,174 20,325 5,151 12,286 15,300 8,31 -15,66 -38,57 -9,-3 -21,-25 -27,-49 -13,-47 -40,-82 -82,-104 -33,-17 -33,-17 -50,0 -12,11 -13,29 -5,91 10,84 8,94 -74,334 -16,45 -29,92 -29,102 0,35 -69,222 -89,243 -20,19 -20,19 -38,-14 -21,-40 -102,-130 -116,-130 -5,0 -33,-15 -61,-34 -64,-42 -169,-95 -263,-131 -39,-15 -86,-41 -103,-57 -41,-37 -69,-31 -44,9 10,16 25,37 35,48 10,11 32,49 51,85 18,36 44,80 57,98 13,18 21,35 19,37 -2,3 -22,8 -43,13 -50,10 -54,25 -13,51 39,25 106,97 153,166 49,72 175,311 178,337 2,21 -3,23 -50,26 -28,2 -53,8 -56,15 -9,24 30,143 71,215 42,74 99,259 88,287 -3,9 -18,15 -35,15 -17,0 -31,6 -35,16 -5,13 28,110 55,157 12,23 33,174 34,247 v 55 h -35 c -32,0 -35,3 -33,27 1,14 13,55 28,90 38,90 65,187 65,230 0,44 -37,148 -53,148 -6,0 -26,-5 -44,-12 -29,-10 -36,-10 -44,2 -5,8 -8,96 -7,195 2,168 -1,217 -17,320 -10,69 -15,85 -25,85 -11,0 -103,-63 -168,-116 -39,-32 -62,-43 -103,-48 -29,-4 -68,-14 -87,-22 -19,-8 -47,-14 -63,-14 -26,0 -29,4 -29,30 0,48 -23,47 -113,-7 -45,-27 -109,-59 -142,-72 -33,-12 -81,-31 -107,-42 -30,-12 -71,-19 -114,-19 -72,0 -69,-3 -53,60 5,21 -46,17 -136,-8 -62,-18 -254,-110 -387,-186 -70,-40 -84,-34 -80,37 l 4,57 h -30 c -17,0 -50,-14 -78,-33 -27,-19 -71,-46 -99,-62 -81,-47 -175,-126 -271,-229 -50,-53 -98,-96 -107,-96 -34,0 -38,34 -12,99 28,67 32,101 12,101 -26,0 -139,-102 -357,-323 -124,-125 -237,-241 -251,-257 -35,-39 -52,-38 -78,5 -44,75 -73,43 -212,-235 -42,-85 -96,-204 -119,-263 l -43,-108 -37,6 c -36,6 -38,5 -62,-37 -14,-24 -31,-60 -39,-80 -14,-40 -37,-49 -59,-23 -7,8 -19,15 -26,15 -19,0 -100,-126 -109,-170 -10,-52 -64,-245 -91,-327 -19,-56 -26,-110 -35,-249 -6,-98 -15,-188 -20,-201 -11,-30 -49,-38 -105,-23 -24,7 -48,10 -52,6 -4,-4 -7,-87 -7,-184 -1,-98 -5,-249 -9,-337 -11,-198 8,-377 63,-617 47,-205 209,-576 297,-681 26,-31 30,-47 15,-62 -6,-6 -15,-66 -21,-135 -23,-264 -29,-292 -55,-270 -8,6 -19,37 -25,68 -5,31 -15,80 -20,107 -13,61 -115,377 -134,414 -8,14 -24,55 -36,91 -21,61 -131,292 -151,316 -5,6 -16,34 -24,61 -8,27 -28,68 -45,91 -16,22 -32,54 -36,69 -10,40 -40,97 -59,113 -9,8 -30,41 -46,75 -15,33 -47,85 -69,115 -72,96 -73,100 -44,167 14,32 33,71 41,88 9,16 27,63 39,105 12,41 46,140 74,220 52,145 52,145 57,295 3,83 1,182 -5,221 -11,75 1,163 28,213 18,34 6,166 -25,288 -25,95 -49,146 -89,191 -18,21 -36,51 -83,140 -21,41 -50,42 -88,2 -16,-16 -32,-30 -37,-30 -15,0 -57,97 -104,241 -58,178 -63,189 -133,268 -31,35 -67,86 -81,114 -34,68 -46,70 -57,5 -11,-72 -35,-72 -79,1 -31,52 -103,133 -174,198 -19,17 -49,47 -67,67 -18,19 -63,51 -100,72 -37,20 -99,64 -136,97 -81,71 -97,68 -73,-16 18,-63 20,-93 6,-102 -17,-11 -46,13 -104,84 -31,39 -99,109 -152,155 -83,75 -101,86 -150,96 -43,9 -67,22 -100,52 -64,59 -88,47 -68,-34 12,-52 -22,-30 -107,69 -129,148 -149,168 -235,225 -103,69 -179,101 -195,82 -11,-13 -7,-81 8,-141 8,-36 -18,-27 -48,15 -23,32 -45,45 -180,100 -132,55 -165,64 -236,69 -99,7 -113,-1 -113,-63 0,-36 -5,-47 -26,-60 -25,-17 -28,-16 -92,16 -37,19 -76,41 -87,50 -36,30 -176,70 -245,70 -26,0 -30,-4 -30,-27 z m 4469,-1447 c -13,-29 -32,-36 -22,-8 8,22 25,44 30,39 2,-3 -2,-16 -8,-31 z M 7085,8371 c 10,-17 -18,-61 -41,-67 -34,-9 -79,9 -79,32 0,27 105,58 120,35 z m -107,-173 c -6,-18 -28,-21 -28,-4 0,9 7,16 16,16 9,0 14,-5 12,-12 z m -104,-36 c 3,-5 -2,-22 -10,-38 -9,-16 -23,-47 -32,-69 -8,-22 -24,-52 -34,-67 -25,-37 -79,-207 -112,-353 -37,-164 -49,-182 -82,-126 -10,17 -23,31 -29,31 -41,0 -123,-268 -161,-525 -11,-82 -14,-142 -9,-234 l 7,-124 -31,5 c -18,3 -36,-1 -41,-7 -6,-7 -18,-67 -27,-135 -14,-106 -15,-141 -4,-249 20,-210 33,-294 52,-344 10,-27 27,-92 39,-145 12,-54 35,-124 52,-157 39,-80 98,-222 98,-238 0,-28 85,-166 155,-251 19,-24 74,-74 121,-111 47,-37 92,-82 101,-99 9,-17 35,-51 58,-76 l 42,-46 -18,-89 c -10,-50 -19,-110 -19,-135 0,-25 -7,-75 -15,-113 -8,-37 -17,-94 -21,-127 -4,-36 -12,-61 -20,-64 -17,-7 -42,29 -50,75 -8,39 -32,82 -123,212 -70,101 -158,242 -203,325 -16,30 -48,73 -71,97 -24,23 -58,69 -76,101 -18,33 -41,73 -53,89 -82,123 -178,281 -178,296 0,10 -15,37 -34,62 -19,24 -37,55 -41,68 -4,13 -25,58 -46,99 -21,41 -81,165 -134,275 -54,110 -105,211 -115,225 -9,14 -20,36 -23,50 -3,14 -23,68 -45,121 -22,52 -45,122 -52,155 -6,32 -15,75 -20,94 -11,43 -56,342 -65,430 -3,36 -20,166 -36,290 -18,135 -28,243 -25,270 4,25 10,92 16,148 9,98 23,164 40,187 4,6 11,24 15,42 3,18 15,43 26,57 18,23 25,25 67,19 26,-3 81,-19 122,-36 67,-27 82,-29 150,-24 41,4 138,1 215,-5 l 140,-11 155,53 c 256,87 288,98 317,114 31,17 59,20 67,8 z M 3310,6875 c 0,-16 -9,-19 -34,-9 -25,9 -19,24 9,24 16,0 25,-6 25,-15 z M 8566,4959 c 20,-40 5,-62 -26,-34 -20,18 -26,45 -13,58 12,13 23,7 39,-24 z m -134,-169 c -2,-74 2,-169 8,-210 14,-96 39,-327 40,-363 0,-41 -25,-44 -65,-8 -64,56 -77,42 -93,-94 -13,-102 -26,-335 -23,-380 1,-16 9,-55 18,-85 9,-30 21,-80 28,-110 7,-30 20,-84 30,-119 9,-36 14,-77 11,-94 -5,-25 0,-38 24,-69 17,-21 48,-75 69,-120 21,-46 55,-103 75,-127 21,-25 46,-61 56,-80 10,-20 46,-67 80,-106 83,-94 95,-120 114,-255 9,-63 23,-135 31,-160 8,-25 17,-63 20,-85 12,-80 27,-142 55,-230 79,-251 103,-319 126,-352 23,-34 34,-103 16,-103 -47,0 -341,300 -485,493 -21,29 -75,92 -121,142 -45,49 -99,116 -119,148 -39,60 -106,131 -198,208 -36,31 -67,69 -89,110 -49,94 -85,143 -180,249 -47,52 -97,113 -111,135 -15,22 -53,69 -86,105 -84,91 -186,244 -262,392 -16,31 -38,69 -50,84 -12,15 -21,32 -21,38 0,6 -15,43 -33,81 -18,39 -39,97 -46,129 -7,33 -22,80 -33,105 -18,44 -55,211 -66,301 -7,64 -4,134 9,214 9,55 18,76 46,107 19,21 43,41 53,44 11,3 60,-1 109,-9 165,-29 219,-30 306,-8 119,30 221,51 303,62 41,6 86,17 100,24 15,8 47,19 72,26 25,6 65,23 90,37 62,37 151,72 175,70 19,-2 20,-8 17,-137 z"
           id="path8889" />
      </g>
      <g
         style="fill:#ffffff;fill-opacity:1;stroke:none"
         transform="matrix(0.01048716,0,0,-0.01247955,-94.459446,146.43995)"
         id="g8943">
        <path
           style="fill:#ffffff;fill-opacity:1"
           inkscape:connector-curvature="0"
           d="m 11849,8045 c -4,-3 -67,-15 -140,-25 -342,-49 -666,-135 -994,-265 -156,-62 -625,-278 -785,-362 C 9335,7082 8766,6664 8040,6006 7582,5590 7258,5202 7015,4775 c -70,-122 -82,-137 -114,-133 -36,4 -63,65 -69,154 -4,67 -2,78 22,114 17,26 26,53 26,80 0,35 -6,47 -45,85 -25,24 -59,46 -76,50 -17,4 -33,13 -35,20 -6,16 55,126 134,240 79,114 187,246 358,435 259,286 372,425 443,542 12,20 75,87 139,148 120,115 192,196 192,218 0,25 -43,10 -86,-30 -25,-24 -75,-82 -112,-130 -224,-290 -292,-377 -397,-503 -162,-196 -640,-740 -670,-763 -17,-14 -48,-21 -109,-25 -76,-6 -92,-4 -157,19 -71,26 -78,31 -218,178 -80,83 -283,291 -451,461 -303,308 -423,439 -615,672 -87,106 -170,182 -183,169 -2,-3 9,-29 25,-58 18,-34 92,-119 203,-233 96,-100 204,-217 239,-260 35,-44 157,-170 270,-280 437,-423 549,-544 662,-711 30,-44 37,-60 28,-70 -6,-8 -17,-14 -23,-14 -14,0 -59,-46 -75,-77 -17,-34 -13,-100 10,-154 46,-106 -9,-287 -80,-264 -10,3 -53,51 -96,108 -613,800 -1442,1495 -2565,2152 -130,76 -431,221 -690,332 -540,232 -1031,384 -1516,469 -125,22 -189,27 -394,31 -216,5 -259,3 -365,-15 C 434,7699 238,7628 172,7566 93,7494 -41,7130 11,7130 c 5,0 20,-21 31,-47 18,-40 23,-76 28,-213 6,-150 9,-170 33,-221 15,-31 38,-106 52,-168 38,-175 55,-202 183,-311 82,-69 101,-101 130,-216 11,-45 33,-106 48,-135 34,-69 126,-208 180,-274 65,-80 67,-87 75,-251 l 7,-150 55,-131 c 68,-160 121,-331 137,-438 36,-240 187,-542 383,-766 72,-83 77,-86 148,-107 219,-63 403,-65 869,-7 269,33 380,41 380,26 0,-6 -30,-32 -67,-59 -202,-144 -320,-238 -420,-337 l -112,-110 -144,-285 c -178,-353 -227,-497 -227,-658 0,-59 5,-73 35,-121 94,-148 146,-343 161,-612 l 7,-114 50,-45 c 167,-148 232,-235 347,-461 l 69,-136 93,-45 c 103,-49 257,-142 393,-237 67,-46 96,-74 117,-110 62,-106 190,-190 343,-224 39,-9 126,-25 195,-37 69,-11 159,-30 200,-41 85,-23 190,-67 190,-80 0,-12 187,-11 209,1 10,5 73,14 139,19 67,5 131,15 143,22 13,7 78,12 163,13 171,2 189,8 466,141 107,52 232,106 277,121 l 83,27 59,91 c 196,305 318,589 505,1179 174,549 201,631 248,757 52,141 77,180 114,180 32,0 43,-19 59,-101 25,-135 28,-281 10,-574 -19,-303 -16,-462 10,-590 33,-156 115,-326 161,-333 51,-7 128,154 176,368 34,154 32,454 -6,775 -29,249 -48,508 -39,531 7,18 28,18 46,0 7,-8 62,-157 122,-333 326,-964 609,-1663 738,-1824 52,-64 118,-111 191,-135 28,-9 81,-36 118,-61 184,-121 355,-158 788,-173 157,-5 313,-12 347,-14 54,-5 72,-1 156,34 160,65 397,132 620,176 l 88,17 63,81 c 135,171 291,293 558,435 64,34 119,69 123,79 4,9 25,64 46,121 42,111 66,156 114,211 17,19 43,56 58,82 18,30 61,75 120,123 138,113 141,118 148,299 5,139 9,160 42,257 19,59 70,174 111,257 l 75,151 -20,78 c -48,182 -134,374 -317,708 l -109,200 -84,68 c -86,70 -193,139 -449,289 -157,93 -199,122 -188,133 4,4 103,-2 220,-14 414,-41 737,-38 1017,10 170,29 179,36 290,223 182,307 261,524 261,715 0,59 10,99 70,278 84,252 108,354 117,496 6,105 7,108 45,160 58,76 109,189 178,391 76,224 117,305 201,404 37,41 56,110 69,247 11,111 42,239 60,250 13,8 13,98 0,111 -17,17 -41,153 -34,192 3,20 14,49 25,64 56,79 -11,259 -144,384 -115,110 -268,179 -487,219 -99,19 -290,31 -301,20 z"
           id="path8941" />
      </g>
    </g>
  </g>
</svg>
