<?xml version="1.0" encoding="UTF-8" standalone="no"?>
<!DOCTYPE svg PUBLIC "-//W3C//DTD SVG 1.1//EN"
 "http://www.w3.org/Graphics/SVG/1.1/DTD/svg11.dtd">
<!-- Generated by graphviz version 2.40.1 (20161225.0304)
 -->
<!-- Title: dependencies Pages: 1 -->
<svg width="3397pt" height="284pt"
 viewBox="0.00 0.00 3397.00 284.00" xmlns="http://www.w3.org/2000/svg" xmlns:xlink="http://www.w3.org/1999/xlink">
<g id="graph0" class="graph" transform="scale(1 1) rotate(0) translate(4 280)">
<title>dependencies</title>
<polygon fill="#ffffff" stroke="transparent" points="-4,4 -4,-280 3393,-280 3393,4 -4,4"/>
<text text-anchor="start" x="1673.5091" y="-42.4" font-family="sans-serif" font-weight="bold" font-size="14.00" fill="#000000">Legend</text>
<polygon fill="#ffffb3" stroke="transparent" points="1460.5,-10 1460.5,-30 1480.5,-30 1480.5,-10 1460.5,-10"/>
<text text-anchor="start" x="1484.129" y="-15.4" font-family="sans-serif" font-size="14.00" fill="#000000"> &#160;Declarations</text>
<polygon fill="#8dd3c7" stroke="transparent" points="1573.5,-10 1573.5,-30 1593.5,-30 1593.5,-10 1573.5,-10"/>
<text text-anchor="start" x="1597.2251" y="-15.4" font-family="sans-serif" font-size="14.00" fill="#000000"> &#160;Module</text>
<polygon fill="#80b1d3" stroke="transparent" points="1659.5,-10 1659.5,-30 1679.5,-30 1679.5,-10 1659.5,-10"/>
<text text-anchor="start" x="1683.2812" y="-15.4" font-family="sans-serif" font-size="14.00" fill="#000000"> &#160;Bootstrap</text>
<polygon fill="#fdb462" stroke="transparent" points="1756.5,-10 1756.5,-30 1776.5,-30 1776.5,-10 1756.5,-10"/>
<text text-anchor="start" x="1780.1732" y="-15.4" font-family="sans-serif" font-size="14.00" fill="#000000"> &#160;Providers</text>
<polygon fill="#fb8072" stroke="transparent" points="1852.5,-10 1852.5,-30 1872.5,-30 1872.5,-10 1852.5,-10"/>
<text text-anchor="start" x="1876.2258" y="-15.4" font-family="sans-serif" font-size="14.00" fill="#000000"> &#160;Exports</text>
<g id="clust1" class="cluster">
<title>cluster_AppModule</title>
<polygon fill="none" stroke="#000000" stroke-dasharray="1,5" points="8,-70 8,-268 3381,-268 3381,-70 8,-70"/>
</g>
<g id="clust2" class="cluster">
<title>cluster_AppModule_declarations</title>
<polygon fill="none" stroke="#000000" points="1800,-78 1800,-130 3373,-130 3373,-78 1800,-78"/>
</g>
<g id="clust13" class="cluster">
<title>cluster_AppModule_imports</title>
<polygon fill="none" stroke="#000000" points="1563,-78 1563,-130 1792,-130 1792,-78 1563,-78"/>
</g>
<g id="clust15" class="cluster">
<title>cluster_AppModule_bootstrap</title>
<polygon fill="none" stroke="#000000" points="1694,-208 1694,-260 1818,-260 1818,-208 1694,-208"/>
</g>
<g id="clust16" class="cluster">
<title>cluster_AppModule_providers</title>
<polygon fill="none" stroke="#000000" points="16,-78 16,-130 1555,-130 1555,-78 16,-78"/>
</g>
<!-- AppComponent -->
<g id="node1" class="node">
<title>AppComponent</title>
<polygon fill="#ffffb3" stroke="#000000" points="3364.9399,-122 3259.0601,-122 3259.0601,-86 3364.9399,-86 3364.9399,-122"/>
<text text-anchor="middle" x="3312" y="-99.8" font-family="Times,serif" font-size="14.00" fill="#000000">AppComponent</text>
</g>
<!-- AppModule -->
<g id="node11" class="node">
<title>AppModule</title>
<polygon fill="#8dd3c7" stroke="#000000" points="1797.6571,-187 1794.6571,-191 1773.6571,-191 1770.6571,-187 1714.3429,-187 1714.3429,-151 1797.6571,-151 1797.6571,-187"/>
<text text-anchor="middle" x="1756" y="-164.8" font-family="Times,serif" font-size="14.00" fill="#000000">AppModule</text>
</g>
<!-- AppComponent&#45;&gt;AppModule -->
<g id="edge1" class="edge">
<title>AppComponent&#45;&gt;AppModule</title>
<path fill="none" stroke="#000000" d="M3312,-122.1532C3312,-145.7566 3312,-184 3312,-184 3312,-184 1808.0218,-184 1808.0218,-184"/>
<polygon fill="#000000" stroke="#000000" points="1808.0219,-180.5001 1798.0218,-184 1808.0218,-187.5001 1808.0219,-180.5001"/>
</g>
<!-- HomeContentComponent -->
<g id="node2" class="node">
<title>HomeContentComponent</title>
<polygon fill="#ffffb3" stroke="#000000" points="3240.8766,-122 3081.1234,-122 3081.1234,-86 3240.8766,-86 3240.8766,-122"/>
<text text-anchor="middle" x="3161" y="-99.8" font-family="Times,serif" font-size="14.00" fill="#000000">HomeContentComponent</text>
</g>
<!-- HomeContentComponent&#45;&gt;AppModule -->
<g id="edge2" class="edge">
<title>HomeContentComponent&#45;&gt;AppModule</title>
<path fill="none" stroke="#000000" d="M3161,-122.0109C3161,-144.4852 3161,-180 3161,-180 3161,-180 1807.6677,-180 1807.6677,-180"/>
<polygon fill="#000000" stroke="#000000" points="1807.6677,-176.5001 1797.6677,-180 1807.6676,-183.5001 1807.6677,-176.5001"/>
</g>
<!-- SidenavItemsComponent -->
<g id="node3" class="node">
<title>SidenavItemsComponent</title>
<polygon fill="#ffffb3" stroke="#000000" points="3062.5365,-122 2905.4635,-122 2905.4635,-86 3062.5365,-86 3062.5365,-122"/>
<text text-anchor="middle" x="2984" y="-99.8" font-family="Times,serif" font-size="14.00" fill="#000000">SidenavItemsComponent</text>
</g>
<!-- SidenavItemsComponent&#45;&gt;AppModule -->
<g id="edge3" class="edge">
<title>SidenavItemsComponent&#45;&gt;AppModule</title>
<path fill="none" stroke="#000000" d="M2984,-122.0449C2984,-143.6623 2984,-177 2984,-177 2984,-177 1807.9153,-177 1807.9153,-177"/>
<polygon fill="#000000" stroke="#000000" points="1807.9153,-173.5001 1797.9153,-177 1807.9153,-180.5001 1807.9153,-173.5001"/>
</g>
<!-- PageNotFoundComponent -->
<g id="node4" class="node">
<title>PageNotFoundComponent</title>
<polygon fill="#ffffb3" stroke="#000000" points="2887.8243,-122 2722.1757,-122 2722.1757,-86 2887.8243,-86 2887.8243,-122"/>
<text text-anchor="middle" x="2805" y="-99.8" font-family="Times,serif" font-size="14.00" fill="#000000">PageNotFoundComponent</text>
</g>
<!-- PageNotFoundComponent&#45;&gt;AppModule -->
<g id="edge4" class="edge">
<title>PageNotFoundComponent&#45;&gt;AppModule</title>
<path fill="none" stroke="#000000" d="M2805,-122.1289C2805,-142.5724 2805,-173 2805,-173 2805,-173 1807.7694,-173 1807.7694,-173"/>
<polygon fill="#000000" stroke="#000000" points="1807.7694,-169.5001 1797.7694,-173 1807.7693,-176.5001 1807.7694,-169.5001"/>
</g>
<!-- LoginComponent -->
<g id="node5" class="node">
<title>LoginComponent</title>
<polygon fill="#ffffb3" stroke="#000000" points="2704.2758,-122 2589.7242,-122 2589.7242,-86 2704.2758,-86 2704.2758,-122"/>
<text text-anchor="middle" x="2647" y="-99.8" font-family="Times,serif" font-size="14.00" fill="#000000">LoginComponent</text>
</g>
<!-- LoginComponent&#45;&gt;AppModule -->
<g id="edge5" class="edge">
<title>LoginComponent&#45;&gt;AppModule</title>
<path fill="none" stroke="#000000" d="M2647,-122.1061C2647,-141.3391 2647,-169 2647,-169 2647,-169 1807.7797,-169 1807.7797,-169"/>
<polygon fill="#000000" stroke="#000000" points="1807.7797,-165.5001 1797.7797,-169 1807.7797,-172.5001 1807.7797,-165.5001"/>
</g>
<!-- SignUpComponent -->
<g id="node6" class="node">
<title>SignUpComponent</title>
<polygon fill="#ffffb3" stroke="#000000" points="2572.1123,-122 2447.8877,-122 2447.8877,-86 2572.1123,-86 2572.1123,-122"/>
<text text-anchor="middle" x="2510" y="-99.8" font-family="Times,serif" font-size="14.00" fill="#000000">SignUpComponent</text>
</g>
<!-- SignUpComponent&#45;&gt;AppModule -->
<g id="edge6" class="edge">
<title>SignUpComponent&#45;&gt;AppModule</title>
<path fill="none" stroke="#000000" d="M2510,-122.2667C2510,-140.5552 2510,-166 2510,-166 2510,-166 1807.8828,-166 1807.8828,-166"/>
<polygon fill="#000000" stroke="#000000" points="1807.8828,-162.5001 1797.8828,-166 1807.8827,-169.5001 1807.8828,-162.5001"/>
</g>
<!-- NewPasswordComponent -->
<g id="node7" class="node">
<title>NewPasswordComponent</title>
<polygon fill="#ffffb3" stroke="#000000" points="2429.9143,-122 2268.0857,-122 2268.0857,-86 2429.9143,-86 2429.9143,-122"/>
<text text-anchor="middle" x="2349" y="-99.8" font-family="Times,serif" font-size="14.00" fill="#000000">NewPasswordComponent</text>
</g>
<!-- NewPasswordComponent&#45;&gt;AppModule -->
<g id="edge7" class="edge">
<title>NewPasswordComponent&#45;&gt;AppModule</title>
<path fill="none" stroke="#000000" d="M2349,-122.0336C2349,-139.0597 2349,-162 2349,-162 2349,-162 1807.6986,-162 1807.6986,-162"/>
<polygon fill="#000000" stroke="#000000" points="1807.6986,-158.5001 1797.6986,-162 1807.6986,-165.5001 1807.6986,-158.5001"/>
</g>
<!-- NavHomeComponent -->
<g id="node8" class="node">
<title>NavHomeComponent</title>
<polygon fill="#ffffb3" stroke="#000000" points="2250.3655,-122 2111.6345,-122 2111.6345,-86 2250.3655,-86 2250.3655,-122"/>
<text text-anchor="middle" x="2181" y="-99.8" font-family="Times,serif" font-size="14.00" fill="#000000">NavHomeComponent</text>
</g>
<!-- NavHomeComponent&#45;&gt;AppModule -->
<g id="edge8" class="edge">
<title>NavHomeComponent&#45;&gt;AppModule</title>
<path fill="none" stroke="#000000" d="M2181,-122.0091C2181,-138.0494 2181,-159 2181,-159 2181,-159 1807.9138,-159 1807.9138,-159"/>
<polygon fill="#000000" stroke="#000000" points="1807.9138,-155.5001 1797.9138,-159 1807.9137,-162.5001 1807.9138,-155.5001"/>
</g>
<!-- FooterComponent -->
<g id="node9" class="node">
<title>FooterComponent</title>
<polygon fill="#ffffb3" stroke="#000000" points="2093.8809,-122 1976.1191,-122 1976.1191,-86 2093.8809,-86 2093.8809,-122"/>
<text text-anchor="middle" x="2035" y="-99.8" font-family="Times,serif" font-size="14.00" fill="#000000">FooterComponent</text>
</g>
<!-- FooterComponent&#45;&gt;AppModule -->
<g id="edge9" class="edge">
<title>FooterComponent&#45;&gt;AppModule</title>
<path fill="none" stroke="#000000" d="M2035,-122.1243C2035,-136.7832 2035,-155 2035,-155 2035,-155 1807.7691,-155 1807.7691,-155"/>
<polygon fill="#000000" stroke="#000000" points="1807.7692,-151.5001 1797.7691,-155 1807.7691,-158.5001 1807.7692,-151.5001"/>
</g>
<!-- IntroductionComponent -->
<g id="node10" class="node">
<title>IntroductionComponent</title>
<polygon fill="#ffffb3" stroke="#000000" points="1958.0407,-122 1807.9593,-122 1807.9593,-86 1958.0407,-86 1958.0407,-122"/>
<text text-anchor="middle" x="1883" y="-99.8" font-family="Times,serif" font-size="14.00" fill="#000000">IntroductionComponent</text>
</g>
<!-- IntroductionComponent&#45;&gt;AppModule -->
<g id="edge10" class="edge">
<title>IntroductionComponent&#45;&gt;AppModule</title>
<path fill="none" stroke="#000000" d="M1807.8943,-104C1797.9014,-104 1791.0246,-104 1791.0246,-104 1791.0246,-104 1791.0246,-140.8939 1791.0246,-140.8939"/>
<polygon fill="#000000" stroke="#000000" points="1787.5246,-140.8938 1791.0246,-150.8939 1794.5246,-140.8939 1787.5246,-140.8938"/>
</g>
<!-- AppComponent  -->
<g id="node14" class="node">
<title>AppComponent </title>
<polygon fill="#80b1d3" stroke="#000000" points="1810.439,-252 1701.561,-252 1701.561,-216 1810.439,-216 1810.439,-252"/>
<text text-anchor="middle" x="1756" y="-229.8" font-family="Times,serif" font-size="14.00" fill="#000000">AppComponent </text>
</g>
<!-- AppModule&#45;&gt;AppComponent  -->
<g id="edge13" class="edge">
<title>AppModule&#45;&gt;AppComponent </title>
<path fill="none" stroke="#000000" stroke-dasharray="1,5" d="M1756,-187.1061C1756,-187.1061 1756,-205.991 1756,-205.991"/>
<polygon fill="#000000" stroke="#000000" points="1752.5001,-205.9909 1756,-215.991 1759.5001,-205.991 1752.5001,-205.9909"/>
</g>
<!-- routing -->
<g id="node12" class="node">
<title>routing</title>
<polygon fill="#8dd3c7" stroke="#000000" points="1784.4435,-122 1781.4435,-126 1760.4435,-126 1757.4435,-122 1727.5565,-122 1727.5565,-86 1784.4435,-86 1784.4435,-122"/>
<text text-anchor="middle" x="1756" y="-99.8" font-family="Times,serif" font-size="14.00" fill="#000000">routing</text>
</g>
<!-- routing&#45;&gt;AppModule -->
<g id="edge11" class="edge">
<title>routing&#45;&gt;AppModule</title>
<path fill="none" stroke="#000000" d="M1756,-122.1061C1756,-122.1061 1756,-140.991 1756,-140.991"/>
<polygon fill="#000000" stroke="#000000" points="1752.5001,-140.9909 1756,-150.991 1759.5001,-140.991 1752.5001,-140.9909"/>
</g>
<!-- GN2CommonModule -->
<g id="node13" class="node">
<title>GN2CommonModule</title>
<polygon fill="#8dd3c7" stroke="#000000" points="1709.3809,-122 1706.3809,-126 1685.3809,-126 1682.3809,-122 1570.6191,-122 1570.6191,-86 1709.3809,-86 1709.3809,-122"/>
<text text-anchor="middle" x="1640" y="-99.8" font-family="Times,serif" font-size="14.00" fill="#000000">GN2CommonModule</text>
</g>
<!-- GN2CommonModule&#45;&gt;AppModule -->
<g id="edge12" class="edge">
<title>GN2CommonModule&#45;&gt;AppModule</title>
<path fill="none" stroke="#000000" d="M1705.4855,-122.1243C1705.4855,-136.7832 1705.4855,-155 1705.4855,-155 1705.4855,-155 1706.3653,-155 1706.3653,-155"/>
<polygon fill="#000000" stroke="#000000" points="1704.2845,-158.5001 1714.2844,-155 1704.2844,-151.5001 1704.2845,-158.5001"/>
</g>
<!-- AuthService -->
<g id="node15" class="node">
<title>AuthService</title>
<ellipse fill="#fdb462" stroke="#000000" cx="1488" cy="-104" rx="59.1083" ry="18"/>
<text text-anchor="middle" x="1488" y="-99.8" font-family="Times,serif" font-size="14.00" fill="#000000">AuthService</text>
</g>
<!-- AuthService&#45;&gt;AppModule -->
<g id="edge14" class="edge">
<title>AuthService&#45;&gt;AppModule</title>
<path fill="none" stroke="#000000" d="M1488,-122.2819C1488,-137.9478 1488,-158 1488,-158 1488,-158 1704.125,-158 1704.125,-158"/>
<polygon fill="#000000" stroke="#000000" points="1704.125,-161.5001 1714.125,-158 1704.125,-154.5001 1704.125,-161.5001"/>
</g>
<!-- AuthGuard -->
<g id="node16" class="node">
<title>AuthGuard</title>
<ellipse fill="#fdb462" stroke="#000000" cx="1356" cy="-104" rx="54.4566" ry="18"/>
<text text-anchor="middle" x="1356" y="-99.8" font-family="Times,serif" font-size="14.00" fill="#000000">AuthGuard</text>
</g>
<!-- AuthGuard&#45;&gt;AppModule -->
<g id="edge15" class="edge">
<title>AuthGuard&#45;&gt;AppModule</title>
<path fill="none" stroke="#000000" d="M1356,-122.0352C1356,-138.7344 1356,-161 1356,-161 1356,-161 1704.325,-161 1704.325,-161"/>
<polygon fill="#000000" stroke="#000000" points="1704.325,-164.5001 1714.325,-161 1704.3249,-157.5001 1704.325,-164.5001"/>
</g>
<!-- ModuleService -->
<g id="node17" class="node">
<title>ModuleService</title>
<ellipse fill="#fdb462" stroke="#000000" cx="1213" cy="-104" rx="70.0635" ry="18"/>
<text text-anchor="middle" x="1213" y="-99.8" font-family="Times,serif" font-size="14.00" fill="#000000">ModuleService</text>
</g>
<!-- ModuleService&#45;&gt;AppModule -->
<g id="edge16" class="edge">
<title>ModuleService&#45;&gt;AppModule</title>
<path fill="none" stroke="#000000" d="M1213,-122.302C1213,-140.2699 1213,-165 1213,-165 1213,-165 1704.2933,-165 1704.2933,-165"/>
<polygon fill="#000000" stroke="#000000" points="1704.2934,-168.5001 1714.2933,-165 1704.2933,-161.5001 1704.2934,-168.5001"/>
</g>
<!-- GlobalSubService -->
<g id="node18" class="node">
<title>GlobalSubService</title>
<ellipse fill="#fdb462" stroke="#000000" cx="1044" cy="-104" rx="81.0994" ry="18"/>
<text text-anchor="middle" x="1044" y="-99.8" font-family="Times,serif" font-size="14.00" fill="#000000">GlobalSubService</text>
</g>
<!-- GlobalSubService&#45;&gt;AppModule -->
<g id="edge17" class="edge">
<title>GlobalSubService&#45;&gt;AppModule</title>
<path fill="none" stroke="#000000" d="M1044,-122.1686C1044,-141.0898 1044,-168 1044,-168 1044,-168 1704.1193,-168 1704.1193,-168"/>
<polygon fill="#000000" stroke="#000000" points="1704.1193,-171.5001 1714.1193,-168 1704.1193,-164.5001 1704.1193,-171.5001"/>
</g>
<!-- ModuleGuardService -->
<g id="node19" class="node">
<title>ModuleGuardService</title>
<ellipse fill="#fdb462" stroke="#000000" cx="851" cy="-104" rx="94.3234" ry="18"/>
<text text-anchor="middle" x="851" y="-99.8" font-family="Times,serif" font-size="14.00" fill="#000000">ModuleGuardService</text>
</g>
<!-- ModuleGuardService&#45;&gt;AppModule -->
<g id="edge18" class="edge">
<title>ModuleGuardService&#45;&gt;AppModule</title>
<path fill="none" stroke="#000000" d="M851,-122.308C851,-142.1455 851,-171 851,-171 851,-171 1704.165,-171 1704.165,-171"/>
<polygon fill="#000000" stroke="#000000" points="1704.165,-174.5001 1714.165,-171 1704.165,-167.5001 1704.165,-174.5001"/>
</g>
<!-- SignUpGuard -->
<g id="node20" class="node">
<title>SignUpGuard</title>
<ellipse fill="#fdb462" stroke="#000000" cx="674" cy="-104" rx="64.8506" ry="18"/>
<text text-anchor="middle" x="674" y="-99.8" font-family="Times,serif" font-size="14.00" fill="#000000">SignUpGuard</text>
</g>
<!-- SignUpGuard&#45;&gt;AppModule -->
<g id="edge19" class="edge">
<title>SignUpGuard&#45;&gt;AppModule</title>
<path fill="none" stroke="#000000" d="M674,-122.0267C674,-142.7672 674,-174 674,-174 674,-174 1704.2473,-174 1704.2473,-174"/>
<polygon fill="#000000" stroke="#000000" points="1704.2473,-177.5001 1714.2473,-174 1704.2473,-170.5001 1704.2473,-177.5001"/>
</g>
<!-- UserManagementGuard -->
<g id="node21" class="node">
<title>UserManagementGuard</title>
<ellipse fill="#fdb462" stroke="#000000" cx="488" cy="-104" rx="103.6142" ry="18"/>
<text text-anchor="middle" x="488" y="-99.8" font-family="Times,serif" font-size="14.00" fill="#000000">UserManagementGuard</text>
</g>
<!-- UserManagementGuard&#45;&gt;AppModule -->
<g id="edge20" class="edge">
<title>UserManagementGuard&#45;&gt;AppModule</title>
<path fill="none" stroke="#000000" d="M488,-122.2921C488,-144.2057 488,-178 488,-178 488,-178 1704.1725,-178 1704.1725,-178"/>
<polygon fill="#000000" stroke="#000000" points="1704.1726,-181.5001 1714.1725,-178 1704.1725,-174.5001 1704.1726,-181.5001"/>
</g>
<!-- SideNavService -->
<g id="node22" class="node">
<title>SideNavService</title>
<ellipse fill="#fdb462" stroke="#000000" cx="293" cy="-104" rx="73.492" ry="18"/>
<text text-anchor="middle" x="293" y="-99.8" font-family="Times,serif" font-size="14.00" fill="#000000">SideNavService</text>
</g>
<!-- SideNavService&#45;&gt;AppModule -->
<g id="edge21" class="edge">
<title>SideNavService&#45;&gt;AppModule</title>
<path fill="none" stroke="#000000" d="M293,-122.2479C293,-145.0179 293,-181 293,-181 293,-181 1704.1833,-181 1704.1833,-181"/>
<polygon fill="#000000" stroke="#000000" points="1704.1833,-184.5001 1714.1833,-181 1704.1833,-177.5001 1704.1833,-184.5001"/>
</g>
<!-- CruvedStoreService -->
<g id="node23" class="node">
<title>CruvedStoreService</title>
<ellipse fill="#fdb462" stroke="#000000" cx="113" cy="-104" rx="88.6024" ry="18"/>
<text text-anchor="middle" x="113" y="-99.8" font-family="Times,serif" font-size="14.00" fill="#000000">CruvedStoreService</text>
</g>
<!-- CruvedStoreService&#45;&gt;AppModule -->
<g id="edge22" class="edge">
<title>CruvedStoreService&#45;&gt;AppModule</title>
<path fill="none" stroke="#000000" d="M113,-122.1532C113,-145.7566 113,-184 113,-184 113,-184 1704.1508,-184 1704.1508,-184"/>
<polygon fill="#000000" stroke="#000000" points="1704.1509,-187.5001 1714.1508,-184 1704.1508,-180.5001 1704.1509,-187.5001"/>
</g>
</g>
</svg>
