<?xml version="1.0" encoding="UTF-8" standalone="no"?>
<!DOCTYPE svg PUBLIC "-//W3C//DTD SVG 1.1//EN"
 "http://www.w3.org/Graphics/SVG/1.1/DTD/svg11.dtd">
<!-- Generated by graphviz version 2.47.0 (20210316.0004)
 -->
<!-- Title: dependencies Pages: 1 -->
<svg width="7092pt" height="284pt"
 viewBox="0.00 0.00 7092.00 284.00" xmlns="http://www.w3.org/2000/svg" xmlns:xlink="http://www.w3.org/1999/xlink">
<g id="graph0" class="graph" transform="scale(1 1) rotate(0) translate(4 280)">
<title>dependencies</title>
<polygon fill="white" stroke="transparent" points="-4,4 -4,-280 7088,-280 7088,4 -4,4"/>
<text text-anchor="start" x="3521.01" y="-42.4" font-family="Times-12" font-weight="bold" font-size="14.00">Legend</text>
<polygon fill="#ffffb3" stroke="transparent" points="3308,-10 3308,-30 3328,-30 3328,-10 3308,-10"/>
<text text-anchor="start" x="3331.63" y="-15.4" font-family="Times-12" font-size="14.00"> &#160;Declarations</text>
<polygon fill="#8dd3c7" stroke="transparent" points="3421,-10 3421,-30 3441,-30 3441,-10 3421,-10"/>
<text text-anchor="start" x="3444.73" y="-15.4" font-family="Times-12" font-size="14.00"> &#160;Module</text>
<polygon fill="#80b1d3" stroke="transparent" points="3507,-10 3507,-30 3527,-30 3527,-10 3507,-10"/>
<text text-anchor="start" x="3530.78" y="-15.4" font-family="Times-12" font-size="14.00"> &#160;Bootstrap</text>
<polygon fill="#fdb462" stroke="transparent" points="3604,-10 3604,-30 3624,-30 3624,-10 3604,-10"/>
<text text-anchor="start" x="3627.67" y="-15.4" font-family="Times-12" font-size="14.00"> &#160;Providers</text>
<polygon fill="#fb8072" stroke="transparent" points="3700,-10 3700,-30 3720,-30 3720,-10 3700,-10"/>
<text text-anchor="start" x="3723.73" y="-15.4" font-family="Times-12" font-size="14.00"> &#160;Exports</text>
<g id="clust1" class="cluster">
<title>cluster_AppModule</title>
<polygon fill="none" stroke="black" stroke-dasharray="1,5" points="8,-70 8,-268 7076,-268 7076,-70 8,-70"/>
</g>
<g id="clust15" class="cluster">
<title>cluster_AppModule_providers</title>
<polygon fill="none" stroke="black" points="2774,-78 2774,-130 7068,-130 7068,-78 2774,-78"/>
</g>
<g id="clust14" class="cluster">
<title>cluster_AppModule_bootstrap</title>
<polygon fill="none" stroke="black" points="2643,-208 2643,-260 2767,-260 2767,-208 2643,-208"/>
</g>
<g id="clust12" class="cluster">
<title>cluster_AppModule_imports</title>
<polygon fill="none" stroke="black" points="1442,-78 1442,-130 2766,-130 2766,-78 1442,-78"/>
</g>
<g id="clust2" class="cluster">
<title>cluster_AppModule_declarations</title>
<polygon fill="none" stroke="black" points="16,-78 16,-130 1434,-130 1434,-78 16,-78"/>
</g>
<!-- AppComponent -->
<g id="node1" class="node">
<title>AppComponent</title>
<polygon fill="#ffffb3" stroke="black" points="1425.94,-122 1320.06,-122 1320.06,-86 1425.94,-86 1425.94,-122"/>
<text text-anchor="middle" x="1373" y="-99.8" font-family="Times,serif" font-size="14.00">AppComponent</text>
</g>
<!-- AppModule -->
<g id="node10" class="node">
<title>AppModule</title>
<polygon fill="#8dd3c7" stroke="black" points="2746.66,-187 2743.66,-191 2722.66,-191 2719.66,-187 2663.34,-187 2663.34,-151 2746.66,-151 2746.66,-187"/>
<text text-anchor="middle" x="2705" y="-164.8" font-family="Times,serif" font-size="14.00">AppModule</text>
</g>
<!-- AppComponent&#45;&gt;AppModule -->
<g id="edge1" class="edge">
<title>AppComponent&#45;&gt;AppModule</title>
<path fill="none" stroke="black" d="M1373,-122.11C1373,-141.34 1373,-169 1373,-169 1373,-169 2653.31,-169 2653.31,-169"/>
<polygon fill="black" stroke="black" points="2653.31,-172.5 2663.31,-169 2653.31,-165.5 2653.31,-172.5"/>
</g>
<!-- HomeContentComponent -->
<g id="node2" class="node">
<title>HomeContentComponent</title>
<polygon fill="#ffffb3" stroke="black" points="1301.88,-122 1142.12,-122 1142.12,-86 1301.88,-86 1301.88,-122"/>
<text text-anchor="middle" x="1222" y="-99.8" font-family="Times,serif" font-size="14.00">HomeContentComponent</text>
</g>
<!-- HomeContentComponent&#45;&gt;AppModule -->
<g id="edge2" class="edge">
<title>HomeContentComponent&#45;&gt;AppModule</title>
<path fill="none" stroke="black" d="M1222,-122.31C1222,-142.15 1222,-171 1222,-171 1222,-171 2653.01,-171 2653.01,-171"/>
<polygon fill="black" stroke="black" points="2653.01,-174.5 2663.01,-171 2653.01,-167.5 2653.01,-174.5"/>
</g>
<!-- SidenavItemsComponent -->
<g id="node3" class="node">
<title>SidenavItemsComponent</title>
<polygon fill="#ffffb3" stroke="black" points="1123.54,-122 966.46,-122 966.46,-86 1123.54,-86 1123.54,-122"/>
<text text-anchor="middle" x="1045" y="-99.8" font-family="Times,serif" font-size="14.00">SidenavItemsComponent</text>
</g>
<!-- SidenavItemsComponent&#45;&gt;AppModule -->
<g id="edge3" class="edge">
<title>SidenavItemsComponent&#45;&gt;AppModule</title>
<path fill="none" stroke="black" d="M1045,-122.13C1045,-142.57 1045,-173 1045,-173 1045,-173 2653.14,-173 2653.14,-173"/>
<polygon fill="black" stroke="black" points="2653.14,-176.5 2663.14,-173 2653.14,-169.5 2653.14,-176.5"/>
</g>
<!-- PageNotFoundComponent -->
<g id="node4" class="node">
<title>PageNotFoundComponent</title>
<polygon fill="#ffffb3" stroke="black" points="948.82,-122 783.18,-122 783.18,-86 948.82,-86 948.82,-122"/>
<text text-anchor="middle" x="866" y="-99.8" font-family="Times,serif" font-size="14.00">PageNotFoundComponent</text>
</g>
<!-- PageNotFoundComponent&#45;&gt;AppModule -->
<g id="edge4" class="edge">
<title>PageNotFoundComponent&#45;&gt;AppModule</title>
<path fill="none" stroke="black" d="M866,-122.28C866,-143.32 866,-175 866,-175 866,-175 2653.13,-175 2653.13,-175"/>
<polygon fill="black" stroke="black" points="2653.13,-178.5 2663.13,-175 2653.13,-171.5 2653.13,-178.5"/>
</g>
<!-- NavHomeComponent -->
<g id="node5" class="node">
<title>NavHomeComponent</title>
<polygon fill="#ffffb3" stroke="black" points="765.37,-122 626.63,-122 626.63,-86 765.37,-86 765.37,-122"/>
<text text-anchor="middle" x="696" y="-99.8" font-family="Times,serif" font-size="14.00">NavHomeComponent</text>
</g>
<!-- NavHomeComponent&#45;&gt;AppModule -->
<g id="edge5" class="edge">
<title>NavHomeComponent&#45;&gt;AppModule</title>
<path fill="none" stroke="black" d="M696,-122.04C696,-143.66 696,-177 696,-177 696,-177 2653.04,-177 2653.04,-177"/>
<polygon fill="black" stroke="black" points="2653.04,-180.5 2663.04,-177 2653.04,-173.5 2653.04,-180.5"/>
</g>
<!-- FooterComponent -->
<g id="node6" class="node">
<title>FooterComponent</title>
<polygon fill="#ffffb3" stroke="black" points="608.88,-122 491.12,-122 491.12,-86 608.88,-86 608.88,-122"/>
<text text-anchor="middle" x="550" y="-99.8" font-family="Times,serif" font-size="14.00">FooterComponent</text>
</g>
<!-- FooterComponent&#45;&gt;AppModule -->
<g id="edge6" class="edge">
<title>FooterComponent&#45;&gt;AppModule</title>
<path fill="none" stroke="black" d="M550,-122.16C550,-144.35 550,-179 550,-179 550,-179 2652.92,-179 2652.92,-179"/>
<polygon fill="black" stroke="black" points="2652.92,-182.5 2662.92,-179 2652.92,-175.5 2652.92,-182.5"/>
</g>
<!-- IntroductionComponent -->
<g id="node7" class="node">
<title>IntroductionComponent</title>
<polygon fill="#ffffb3" stroke="black" points="473.04,-122 322.96,-122 322.96,-86 473.04,-86 473.04,-122"/>
<text text-anchor="middle" x="398" y="-99.8" font-family="Times,serif" font-size="14.00">IntroductionComponent</text>
</g>
<!-- IntroductionComponent&#45;&gt;AppModule -->
<g id="edge7" class="edge">
<title>IntroductionComponent&#45;&gt;AppModule</title>
<path fill="none" stroke="black" d="M398,-122.25C398,-145.02 398,-181 398,-181 398,-181 2652.99,-181 2652.99,-181"/>
<polygon fill="black" stroke="black" points="2652.99,-184.5 2662.99,-181 2652.99,-177.5 2652.99,-184.5"/>
</g>
<!-- NotificationComponent -->
<g id="node8" class="node">
<title>NotificationComponent</title>
<polygon fill="#ffffb3" stroke="black" points="304.48,-122 155.52,-122 155.52,-86 304.48,-86 304.48,-122"/>
<text text-anchor="middle" x="230" y="-99.8" font-family="Times,serif" font-size="14.00">NotificationComponent</text>
</g>
<!-- NotificationComponent&#45;&gt;AppModule -->
<g id="edge8" class="edge">
<title>NotificationComponent&#45;&gt;AppModule</title>
<path fill="none" stroke="black" d="M230,-122.32C230,-145.66 230,-183 230,-183 230,-183 2653.34,-183 2653.34,-183"/>
<polygon fill="black" stroke="black" points="2653.34,-186.5 2663.34,-183 2653.34,-179.5 2653.34,-186.5"/>
</g>
<!-- RulesComponent -->
<g id="node9" class="node">
<title>RulesComponent</title>
<polygon fill="#ffffb3" stroke="black" points="137.72,-122 24.28,-122 24.28,-86 137.72,-86 137.72,-122"/>
<text text-anchor="middle" x="81" y="-99.8" font-family="Times,serif" font-size="14.00">RulesComponent</text>
</g>
<!-- RulesComponent&#45;&gt;AppModule -->
<g id="edge9" class="edge">
<title>RulesComponent&#45;&gt;AppModule</title>
<path fill="none" stroke="black" d="M81,-122.38C81,-146.28 81,-185 81,-185 81,-185 2653.25,-185 2653.25,-185"/>
<polygon fill="black" stroke="black" points="2653.25,-188.5 2663.25,-185 2653.25,-181.5 2653.25,-188.5"/>
</g>
<!-- AppComponent  -->
<g id="node20" class="node">
<title>AppComponent </title>
<polygon fill="#80b1d3" stroke="black" points="2759.44,-252 2650.56,-252 2650.56,-216 2759.44,-216 2759.44,-252"/>
<text text-anchor="middle" x="2705" y="-229.8" font-family="Times,serif" font-size="14.00">AppComponent </text>
</g>
<!-- AppModule&#45;&gt;AppComponent  -->
<g id="edge19" class="edge">
<title>AppModule&#45;&gt;AppComponent </title>
<path fill="none" stroke="black" stroke-dasharray="1,5" d="M2705,-187.11C2705,-187.11 2705,-205.99 2705,-205.99"/>
<polygon fill="black" stroke="black" points="2701.5,-205.99 2705,-215.99 2708.5,-205.99 2701.5,-205.99"/>
</g>
<!-- BrowserModule -->
<g id="node11" class="node">
<title>BrowserModule</title>
<polygon fill="#8dd3c7" stroke="black" points="2758.47,-122 2755.47,-126 2734.47,-126 2731.47,-122 2651.53,-122 2651.53,-86 2758.47,-86 2758.47,-122"/>
<text text-anchor="middle" x="2705" y="-99.8" font-family="Times,serif" font-size="14.00">BrowserModule</text>
</g>
<!-- BrowserModule&#45;&gt;AppModule -->
<g id="edge10" class="edge">
<title>BrowserModule&#45;&gt;AppModule</title>
<path fill="none" stroke="black" d="M2705,-122.11C2705,-122.11 2705,-140.99 2705,-140.99"/>
<polygon fill="black" stroke="black" points="2701.5,-140.99 2705,-150.99 2708.5,-140.99 2701.5,-140.99"/>
</g>
<!-- HttpClientModule -->
<g id="node12" class="node">
<title>HttpClientModule</title>
<polygon fill="#8dd3c7" stroke="black" points="2633.16,-122 2630.16,-126 2609.16,-126 2606.16,-122 2514.84,-122 2514.84,-86 2633.16,-86 2633.16,-122"/>
<text text-anchor="middle" x="2574" y="-99.8" font-family="Times,serif" font-size="14.00">HttpClientModule</text>
</g>
<!-- HttpClientModule&#45;&gt;AppModule -->
<g id="edge11" class="edge">
<title>HttpClientModule&#45;&gt;AppModule</title>
<path fill="none" stroke="black" d="M2574,-122.25C2574,-136.18 2574,-153 2574,-153 2574,-153 2653.19,-153 2653.19,-153"/>
<polygon fill="black" stroke="black" points="2653.19,-156.5 2663.19,-153 2653.19,-149.5 2653.19,-156.5"/>
</g>
<!-- BrowserAnimationsModule -->
<g id="node13" class="node">
<title>BrowserAnimationsModule</title>
<polygon fill="#8dd3c7" stroke="black" points="2497.3,-122 2494.3,-126 2473.3,-126 2470.3,-122 2324.7,-122 2324.7,-86 2497.3,-86 2497.3,-122"/>
<text text-anchor="middle" x="2411" y="-99.8" font-family="Times,serif" font-size="14.00">BrowserAnimationsModule</text>
</g>
<!-- BrowserAnimationsModule&#45;&gt;AppModule -->
<g id="edge12" class="edge">
<title>BrowserAnimationsModule&#45;&gt;AppModule</title>
<path fill="none" stroke="black" d="M2411,-122.12C2411,-136.78 2411,-155 2411,-155 2411,-155 2653.19,-155 2653.19,-155"/>
<polygon fill="black" stroke="black" points="2653.19,-158.5 2663.19,-155 2653.19,-151.5 2653.19,-158.5"/>
</g>
<!-- routing -->
<g id="node14" class="node">
<title>routing</title>
<polygon fill="#8dd3c7" stroke="black" points="2307.44,-122 2304.44,-126 2283.44,-126 2280.44,-122 2250.56,-122 2250.56,-86 2307.44,-86 2307.44,-122"/>
<text text-anchor="middle" x="2279" y="-99.8" font-family="Times,serif" font-size="14.00">routing</text>
</g>
<!-- routing&#45;&gt;AppModule -->
<g id="edge13" class="edge">
<title>routing&#45;&gt;AppModule</title>
<path fill="none" stroke="black" d="M2279,-122.24C2279,-137.57 2279,-157 2279,-157 2279,-157 2652.99,-157 2652.99,-157"/>
<polygon fill="black" stroke="black" points="2652.99,-160.5 2662.99,-157 2652.99,-153.5 2652.99,-160.5"/>
</g>
<!-- NgChartsModule -->
<g id="node15" class="node">
<title>NgChartsModule</title>
<polygon fill="#8dd3c7" stroke="black" points="2232.7,-122 2229.7,-126 2208.7,-126 2205.7,-122 2119.3,-122 2119.3,-86 2232.7,-86 2232.7,-122"/>
<text text-anchor="middle" x="2176" y="-99.8" font-family="Times,serif" font-size="14.00">NgChartsModule</text>
</g>
<!-- NgChartsModule&#45;&gt;AppModule -->
<g id="edge14" class="edge">
<title>NgChartsModule&#45;&gt;AppModule</title>
<path fill="none" stroke="black" d="M2176,-122.01C2176,-138.05 2176,-159 2176,-159 2176,-159 2653.05,-159 2653.05,-159"/>
<polygon fill="black" stroke="black" points="2653.05,-162.5 2663.05,-159 2653.05,-155.5 2653.05,-162.5"/>
</g>
<!-- ToastrModule.forRoot(args) -->
<g id="node16" class="node">
<title>ToastrModule.forRoot(args)</title>
<polygon fill="#8dd3c7" stroke="black" points="2101.5,-122 2098.5,-126 2077.5,-126 2074.5,-122 1926.5,-122 1926.5,-86 2101.5,-86 2101.5,-122"/>
<text text-anchor="middle" x="2014" y="-99.8" font-family="Times,serif" font-size="14.00">ToastrModule.forRoot(args)</text>
</g>
<!-- ToastrModule.forRoot(args)&#45;&gt;AppModule -->
<g id="edge15" class="edge">
<title>ToastrModule.forRoot(args)&#45;&gt;AppModule</title>
<path fill="none" stroke="black" d="M2014,-122.04C2014,-138.73 2014,-161 2014,-161 2014,-161 2653.33,-161 2653.33,-161"/>
<polygon fill="black" stroke="black" points="2653.33,-164.5 2663.33,-161 2653.33,-157.5 2653.33,-164.5"/>
</g>
<!-- GN2CommonModule -->
<g id="node17" class="node">
<title>GN2CommonModule</title>
<polygon fill="#8dd3c7" stroke="black" points="1908.38,-122 1905.38,-126 1884.38,-126 1881.38,-122 1769.62,-122 1769.62,-86 1908.38,-86 1908.38,-122"/>
<text text-anchor="middle" x="1839" y="-99.8" font-family="Times,serif" font-size="14.00">GN2CommonModule</text>
</g>
<!-- GN2CommonModule&#45;&gt;AppModule -->
<g id="edge16" class="edge">
<title>GN2CommonModule&#45;&gt;AppModule</title>
<path fill="none" stroke="black" d="M1839,-122.02C1839,-139.37 1839,-163 1839,-163 1839,-163 2653.23,-163 2653.23,-163"/>
<polygon fill="black" stroke="black" points="2653.23,-166.5 2663.23,-163 2653.23,-159.5 2653.23,-166.5"/>
</g>
<!-- TranslateModule.forRoot(args) -->
<g id="node18" class="node">
<title>TranslateModule.forRoot(args)</title>
<polygon fill="#8dd3c7" stroke="black" points="1751.82,-122 1748.82,-126 1727.82,-126 1724.82,-122 1560.18,-122 1560.18,-86 1751.82,-86 1751.82,-122"/>
<text text-anchor="middle" x="1656" y="-99.8" font-family="Times,serif" font-size="14.00">TranslateModule.forRoot(args)</text>
</g>
<!-- TranslateModule.forRoot(args)&#45;&gt;AppModule -->
<g id="edge17" class="edge">
<title>TranslateModule.forRoot(args)&#45;&gt;AppModule</title>
<path fill="none" stroke="black" d="M1656,-122.3C1656,-140.27 1656,-165 1656,-165 1656,-165 2653.23,-165 2653.23,-165"/>
<polygon fill="black" stroke="black" points="2653.23,-168.5 2663.23,-165 2653.23,-161.5 2653.23,-168.5"/>
</g>
<!-- LoginModule -->
<g id="node19" class="node">
<title>LoginModule</title>
<polygon fill="#8dd3c7" stroke="black" points="1542.49,-122 1539.49,-126 1518.49,-126 1515.49,-122 1449.51,-122 1449.51,-86 1542.49,-86 1542.49,-122"/>
<text text-anchor="middle" x="1496" y="-99.8" font-family="Times,serif" font-size="14.00">LoginModule</text>
</g>
<!-- LoginModule&#45;&gt;AppModule -->
<g id="edge18" class="edge">
<title>LoginModule&#45;&gt;AppModule</title>
<path fill="none" stroke="black" d="M1496,-122.22C1496,-140.83 1496,-167 1496,-167 1496,-167 2653.03,-167 2653.03,-167"/>
<polygon fill="black" stroke="black" points="2653.03,-170.5 2663.03,-167 2653.03,-163.5 2653.03,-170.5"/>
</g>
<!-- AuthService -->
<g id="node21" class="node">
<title>AuthService</title>
<ellipse fill="#fdb462" stroke="black" cx="7001" cy="-104" rx="59.11" ry="18"/>
<text text-anchor="middle" x="7001" y="-99.8" font-family="Times,serif" font-size="14.00">AuthService</text>
</g>
<!-- AuthService&#45;&gt;AppModule -->
<g id="edge20" class="edge">
<title>AuthService&#45;&gt;AppModule</title>
<path fill="none" stroke="black" d="M7001,-122.38C7001,-146.28 7001,-185 7001,-185 7001,-185 2756.83,-185 2756.83,-185"/>
<polygon fill="black" stroke="black" points="2756.83,-181.5 2746.83,-185 2756.83,-188.5 2756.83,-181.5"/>
</g>
<!-- AuthGuard -->
<g id="node22" class="node">
<title>AuthGuard</title>
<ellipse fill="#fdb462" stroke="black" cx="6869" cy="-104" rx="54.46" ry="18"/>
<text text-anchor="middle" x="6869" y="-99.8" font-family="Times,serif" font-size="14.00">AuthGuard</text>
</g>
<!-- AuthGuard&#45;&gt;AppModule -->
<g id="edge21" class="edge">
<title>AuthGuard&#45;&gt;AppModule</title>
<path fill="none" stroke="black" d="M6869,-122.32C6869,-145.66 6869,-183 6869,-183 6869,-183 2756.89,-183 2756.89,-183"/>
<polygon fill="black" stroke="black" points="2756.89,-179.5 2746.89,-183 2756.89,-186.5 2756.89,-179.5"/>
</g>
<!-- ModuleService -->
<g id="node23" class="node">
<title>ModuleService</title>
<ellipse fill="#fdb462" stroke="black" cx="6726" cy="-104" rx="70.06" ry="18"/>
<text text-anchor="middle" x="6726" y="-99.8" font-family="Times,serif" font-size="14.00">ModuleService</text>
</g>
<!-- ModuleService&#45;&gt;AppModule -->
<g id="edge22" class="edge">
<title>ModuleService&#45;&gt;AppModule</title>
<path fill="none" stroke="black" d="M6726,-122.25C6726,-145.02 6726,-181 6726,-181 6726,-181 2756.77,-181 2756.77,-181"/>
<polygon fill="black" stroke="black" points="2756.77,-177.5 2746.77,-181 2756.77,-184.5 2756.77,-177.5"/>
</g>
<!-- ToastrService -->
<g id="node24" class="node">
<title>ToastrService</title>
<ellipse fill="#fdb462" stroke="black" cx="6573" cy="-104" rx="64.82" ry="18"/>
<text text-anchor="middle" x="6573" y="-99.8" font-family="Times,serif" font-size="14.00">ToastrService</text>
</g>
<!-- ToastrService&#45;&gt;AppModule -->
<g id="edge23" class="edge">
<title>ToastrService&#45;&gt;AppModule</title>
<path fill="none" stroke="black" d="M6573,-122.16C6573,-144.35 6573,-179 6573,-179 6573,-179 2756.79,-179 2756.79,-179"/>
<polygon fill="black" stroke="black" points="2756.79,-175.5 2746.79,-179 2756.79,-182.5 2756.79,-175.5"/>
</g>
<!-- GlobalSubService -->
<g id="node25" class="node">
<title>GlobalSubService</title>
<ellipse fill="#fdb462" stroke="black" cx="6409" cy="-104" rx="81.1" ry="18"/>
<text text-anchor="middle" x="6409" y="-99.8" font-family="Times,serif" font-size="14.00">GlobalSubService</text>
</g>
<!-- GlobalSubService&#45;&gt;AppModule -->
<g id="edge24" class="edge">
<title>GlobalSubService&#45;&gt;AppModule</title>
<path fill="none" stroke="black" d="M6409,-122.04C6409,-143.66 6409,-177 6409,-177 6409,-177 2756.92,-177 2756.92,-177"/>
<polygon fill="black" stroke="black" points="2756.92,-173.5 2746.92,-177 2756.92,-180.5 2756.92,-173.5"/>
</g>
<!-- CookieService -->
<g id="node26" class="node">
<title>CookieService</title>
<ellipse fill="#fdb462" stroke="black" cx="6242" cy="-104" rx="67.78" ry="18"/>
<text text-anchor="middle" x="6242" y="-99.8" font-family="Times,serif" font-size="14.00">CookieService</text>
</g>
<!-- CookieService&#45;&gt;AppModule -->
<g id="edge25" class="edge">
<title>CookieService&#45;&gt;AppModule</title>
<path fill="none" stroke="black" d="M6242,-122.28C6242,-143.32 6242,-175 6242,-175 6242,-175 2756.87,-175 2756.87,-175"/>
<polygon fill="black" stroke="black" points="2756.87,-171.5 2746.87,-175 2756.87,-178.5 2756.87,-171.5"/>
</g>
<!-- HttpClient -->
<g id="node27" class="node">
<title>HttpClient</title>
<ellipse fill="#fdb462" stroke="black" cx="6104" cy="-104" rx="51.62" ry="18"/>
<text text-anchor="middle" x="6104" y="-99.8" font-family="Times,serif" font-size="14.00">HttpClient</text>
</g>
<!-- HttpClient&#45;&gt;AppModule -->
<g id="edge26" class="edge">
<title>HttpClient&#45;&gt;AppModule</title>
<path fill="none" stroke="black" d="M6104,-122.13C6104,-142.57 6104,-173 6104,-173 6104,-173 2756.75,-173 2756.75,-173"/>
<polygon fill="black" stroke="black" points="2756.75,-169.5 2746.75,-173 2756.75,-176.5 2756.75,-169.5"/>
</g>
<!-- ModuleGuardService -->
<g id="node28" class="node">
<title>ModuleGuardService</title>
<ellipse fill="#fdb462" stroke="black" cx="5940" cy="-104" rx="94.32" ry="18"/>
<text text-anchor="middle" x="5940" y="-99.8" font-family="Times,serif" font-size="14.00">ModuleGuardService</text>
</g>
<!-- ModuleGuardService&#45;&gt;AppModule -->
<g id="edge27" class="edge">
<title>ModuleGuardService&#45;&gt;AppModule</title>
<path fill="none" stroke="black" d="M5940,-122.31C5940,-142.15 5940,-171 5940,-171 5940,-171 2756.79,-171 2756.79,-171"/>
<polygon fill="black" stroke="black" points="2756.79,-167.5 2746.79,-171 2756.79,-174.5 2756.79,-167.5"/>
</g>
<!-- UserPublicGuard -->
<g id="node29" class="node">
<title>UserPublicGuard</title>
<ellipse fill="#fdb462" stroke="black" cx="5750" cy="-104" rx="78.15" ry="18"/>
<text text-anchor="middle" x="5750" y="-99.8" font-family="Times,serif" font-size="14.00">UserPublicGuard</text>
</g>
<!-- UserPublicGuard&#45;&gt;AppModule -->
<g id="edge28" class="edge">
<title>UserPublicGuard&#45;&gt;AppModule</title>
<path fill="none" stroke="black" d="M5750,-122.11C5750,-141.34 5750,-169 5750,-169 5750,-169 2756.89,-169 2756.89,-169"/>
<polygon fill="black" stroke="black" points="2756.89,-165.5 2746.89,-169 2756.89,-172.5 2756.89,-165.5"/>
</g>
<!-- SideNavService -->
<g id="node30" class="node">
<title>SideNavService</title>
<ellipse fill="#fdb462" stroke="black" cx="5581" cy="-104" rx="73.49" ry="18"/>
<text text-anchor="middle" x="5581" y="-99.8" font-family="Times,serif" font-size="14.00">SideNavService</text>
</g>
<!-- SideNavService&#45;&gt;AppModule -->
<g id="edge29" class="edge">
<title>SideNavService&#45;&gt;AppModule</title>
<path fill="none" stroke="black" d="M5581,-122.22C5581,-140.83 5581,-167 5581,-167 5581,-167 2756.76,-167 2756.76,-167"/>
<polygon fill="black" stroke="black" points="2756.76,-163.5 2746.76,-167 2756.76,-170.5 2756.76,-163.5"/>
</g>
<!-- CruvedStoreService -->
<g id="node31" class="node">
<title>CruvedStoreService</title>
<ellipse fill="#fdb462" stroke="black" cx="5401" cy="-104" rx="88.6" ry="18"/>
<text text-anchor="middle" x="5401" y="-99.8" font-family="Times,serif" font-size="14.00">CruvedStoreService</text>
</g>
<!-- CruvedStoreService&#45;&gt;AppModule -->
<g id="edge30" class="edge">
<title>CruvedStoreService&#45;&gt;AppModule</title>
<path fill="none" stroke="black" d="M5401,-122.3C5401,-140.27 5401,-165 5401,-165 5401,-165 2756.81,-165 2756.81,-165"/>
<polygon fill="black" stroke="black" points="2756.81,-161.5 2746.81,-165 2756.81,-168.5 2756.81,-161.5"/>
</g>
<!-- UserDataService -->
<g id="node32" class="node">
<title>UserDataService</title>
<ellipse fill="#fdb462" stroke="black" cx="5218" cy="-104" rx="76.4" ry="18"/>
<text text-anchor="middle" x="5218" y="-99.8" font-family="Times,serif" font-size="14.00">UserDataService</text>
</g>
<!-- UserDataService&#45;&gt;AppModule -->
<g id="edge31" class="edge">
<title>UserDataService&#45;&gt;AppModule</title>
<path fill="none" stroke="black" d="M5218,-122.02C5218,-139.37 5218,-163 5218,-163 5218,-163 2756.78,-163 2756.78,-163"/>
<polygon fill="black" stroke="black" points="2756.78,-159.5 2746.78,-163 2756.78,-166.5 2756.78,-159.5"/>
</g>
<!-- NotificationDataService -->
<g id="node33" class="node">
<title>NotificationDataService</title>
<ellipse fill="#fdb462" stroke="black" cx="5019" cy="-104" rx="104.77" ry="18"/>
<text text-anchor="middle" x="5019" y="-99.8" font-family="Times,serif" font-size="14.00">NotificationDataService</text>
</g>
<!-- NotificationDataService&#45;&gt;AppModule -->
<g id="edge32" class="edge">
<title>NotificationDataService&#45;&gt;AppModule</title>
<path fill="none" stroke="black" d="M5019,-122.04C5019,-138.73 5019,-161 5019,-161 5019,-161 2757.14,-161 2757.14,-161"/>
<polygon fill="black" stroke="black" points="2757.14,-157.5 2747.14,-161 2757.14,-164.5 2757.14,-157.5"/>
</g>
<!-- ConfigService -->
<g id="node34" class="node">
<title>ConfigService</title>
<ellipse fill="#fdb462" stroke="black" cx="4829" cy="-104" rx="66.63" ry="18"/>
<text text-anchor="middle" x="4829" y="-99.8" font-family="Times,serif" font-size="14.00">ConfigService</text>
</g>
<!-- ConfigService&#45;&gt;AppModule -->
<g id="edge33" class="edge">
<title>ConfigService&#45;&gt;AppModule</title>
<path fill="none" stroke="black" d="M4829,-122.01C4829,-138.05 4829,-159 4829,-159 4829,-159 2756.95,-159 2756.95,-159"/>
<polygon fill="black" stroke="black" points="2756.95,-155.5 2746.95,-159 2756.95,-162.5 2756.95,-155.5"/>
</g>
<!-- { provide: HTTP_INTERCEPTORS, useClass: MyCustomInterceptor, multi: &#160;} -->
<g id="node35" class="node">
<title>{ provide: HTTP_INTERCEPTORS, useClass: MyCustomInterceptor, multi: &#160;}</title>
<ellipse fill="#fdb462" stroke="black" cx="4425" cy="-104" rx="319.23" ry="18"/>
<text text-anchor="middle" x="4425" y="-99.8" font-family="Times,serif" font-size="14.00">{ provide: HTTP_INTERCEPTORS, useClass: MyCustomInterceptor, multi: &#160;}</text>
</g>
<!-- { provide: HTTP_INTERCEPTORS, useClass: MyCustomInterceptor, multi: &#160;}&#45;&gt;AppModule -->
<g id="edge34" class="edge">
<title>{ provide: HTTP_INTERCEPTORS, useClass: MyCustomInterceptor, multi: &#160;}&#45;&gt;AppModule</title>
<path fill="none" stroke="black" d="M4425,-122.24C4425,-137.57 4425,-157 4425,-157 4425,-157 2756.66,-157 2756.66,-157"/>
<polygon fill="black" stroke="black" points="2756.66,-153.5 2746.66,-157 2756.66,-160.5 2756.66,-153.5"/>
</g>
<!-- { provide: HTTP_INTERCEPTORS, useClass: UnauthorizedInterceptor, multi: &#160;} -->
<g id="node36" class="node">
<title>{ provide: HTTP_INTERCEPTORS, useClass: UnauthorizedInterceptor, multi: &#160;}</title>
<ellipse fill="#fdb462" stroke="black" cx="3759" cy="-104" rx="328.42" ry="18"/>
<text text-anchor="middle" x="3759" y="-99.8" font-family="Times,serif" font-size="14.00">{ provide: HTTP_INTERCEPTORS, useClass: UnauthorizedInterceptor, multi: &#160;}</text>
</g>
<!-- { provide: HTTP_INTERCEPTORS, useClass: UnauthorizedInterceptor, multi: &#160;}&#45;&gt;AppModule -->
<g id="edge35" class="edge">
<title>{ provide: HTTP_INTERCEPTORS, useClass: UnauthorizedInterceptor, multi: &#160;}&#45;&gt;AppModule</title>
<path fill="none" stroke="black" d="M3759,-122.12C3759,-136.78 3759,-155 3759,-155 3759,-155 2756.97,-155 2756.97,-155"/>
<polygon fill="black" stroke="black" points="2756.97,-151.5 2746.97,-155 2756.97,-158.5 2756.97,-151.5"/>
</g>
<!-- { provide: APP_INITIALIZER, useFactory: initApp, deps: [Injector], multi: &#160;} -->
<g id="node37" class="node">
<title>{ provide: APP_INITIALIZER, useFactory: initApp, deps: [Injector], multi: &#160;}</title>
<ellipse fill="#fdb462" stroke="black" cx="3097" cy="-104" rx="315.12" ry="18"/>
<text text-anchor="middle" x="3097" y="-99.8" font-family="Times,serif" font-size="14.00">{ provide: APP_INITIALIZER, useFactory: initApp, deps: [Injector], multi: &#160;}</text>
</g>
<!-- { provide: APP_INITIALIZER, useFactory: initApp, deps: [Injector], multi: &#160;}&#45;&gt;AppModule -->
<g id="edge36" class="edge">
<title>{ provide: APP_INITIALIZER, useFactory: initApp, deps: [Injector], multi: &#160;}&#45;&gt;AppModule</title>
<path fill="none" stroke="black" d="M3097,-122.25C3097,-136.18 3097,-153 3097,-153 3097,-153 2756.95,-153 2756.95,-153"/>
<polygon fill="black" stroke="black" points="2756.95,-149.5 2746.95,-153 2756.95,-156.5 2756.95,-149.5"/>
</g>
</g>
</svg>
