<?xml version="1.0" encoding="UTF-8" standalone="no"?>
<!DOCTYPE svg PUBLIC "-//W3C//DTD SVG 1.1//EN"
 "http://www.w3.org/Graphics/SVG/1.1/DTD/svg11.dtd">
<!-- Generated by graphviz version 2.47.0 (20210316.0004)
 -->
<!-- Title: dependencies Pages: 1 -->
<svg width="3563pt" height="284pt"
 viewBox="0.00 0.00 3563.00 284.00" xmlns="http://www.w3.org/2000/svg" xmlns:xlink="http://www.w3.org/1999/xlink">
<g id="graph0" class="graph" transform="scale(1 1) rotate(0) translate(4 280)">
<title>dependencies</title>
<polygon fill="white" stroke="transparent" points="-4,4 -4,-280 3559,-280 3559,4 -4,4"/>
<text text-anchor="start" x="1756.51" y="-42.4" font-family="Times-12" font-weight="bold" font-size="14.00">Legend</text>
<polygon fill="#ffffb3" stroke="transparent" points="1543.5,-10 1543.5,-30 1563.5,-30 1563.5,-10 1543.5,-10"/>
<text text-anchor="start" x="1567.13" y="-15.4" font-family="Times-12" font-size="14.00"> &#160;Declarations</text>
<polygon fill="#8dd3c7" stroke="transparent" points="1656.5,-10 1656.5,-30 1676.5,-30 1676.5,-10 1656.5,-10"/>
<text text-anchor="start" x="1680.23" y="-15.4" font-family="Times-12" font-size="14.00"> &#160;Module</text>
<polygon fill="#80b1d3" stroke="transparent" points="1742.5,-10 1742.5,-30 1762.5,-30 1762.5,-10 1742.5,-10"/>
<text text-anchor="start" x="1766.28" y="-15.4" font-family="Times-12" font-size="14.00"> &#160;Bootstrap</text>
<polygon fill="#fdb462" stroke="transparent" points="1839.5,-10 1839.5,-30 1859.5,-30 1859.5,-10 1839.5,-10"/>
<text text-anchor="start" x="1863.17" y="-15.4" font-family="Times-12" font-size="14.00"> &#160;Providers</text>
<polygon fill="#fb8072" stroke="transparent" points="1935.5,-10 1935.5,-30 1955.5,-30 1955.5,-10 1935.5,-10"/>
<text text-anchor="start" x="1959.23" y="-15.4" font-family="Times-12" font-size="14.00"> &#160;Exports</text>
<g id="clust1" class="cluster">
<title>cluster_AppModule</title>
<polygon fill="none" stroke="black" stroke-dasharray="1,5" points="8,-70 8,-268 3547,-268 3547,-70 8,-70"/>
</g>
<g id="clust2" class="cluster">
<title>cluster_AppModule_declarations</title>
<polygon fill="none" stroke="black" points="2121,-78 2121,-130 3539,-130 3539,-78 2121,-78"/>
</g>
<g id="clust15" class="cluster">
<title>cluster_AppModule_providers</title>
<polygon fill="none" stroke="black" points="289,-78 289,-130 2113,-130 2113,-78 289,-78"/>
</g>
<g id="clust12" class="cluster">
<title>cluster_AppModule_imports</title>
<polygon fill="none" stroke="black" points="16,-78 16,-130 281,-130 281,-78 16,-78"/>
</g>
<g id="clust14" class="cluster">
<title>cluster_AppModule_bootstrap</title>
<polygon fill="none" stroke="black" points="1840,-208 1840,-260 1964,-260 1964,-208 1840,-208"/>
</g>
<!-- AppComponent -->
<g id="node1" class="node">
<title>AppComponent</title>
<polygon fill="#ffffb3" stroke="black" points="3530.94,-122 3425.06,-122 3425.06,-86 3530.94,-86 3530.94,-122"/>
<text text-anchor="middle" x="3478" y="-99.8" font-family="Times,serif" font-size="14.00">AppComponent</text>
</g>
<!-- AppModule -->
<g id="node10" class="node">
<title>AppModule</title>
<polygon fill="#8dd3c7" stroke="black" points="1943.66,-187 1940.66,-191 1919.66,-191 1916.66,-187 1860.34,-187 1860.34,-151 1943.66,-151 1943.66,-187"/>
<text text-anchor="middle" x="1902" y="-164.8" font-family="Times,serif" font-size="14.00">AppModule</text>
</g>
<!-- AppComponent&#45;&gt;AppModule -->
<g id="edge1" class="edge">
<title>AppComponent&#45;&gt;AppModule</title>
<path fill="none" stroke="black" d="M3478,-122.15C3478,-145.76 3478,-184 3478,-184 3478,-184 1953.75,-184 1953.75,-184"/>
<polygon fill="black" stroke="black" points="1953.75,-180.5 1943.75,-184 1953.75,-187.5 1953.75,-180.5"/>
</g>
<!-- FooterComponent -->
<g id="node2" class="node">
<title>FooterComponent</title>
<polygon fill="#ffffb3" stroke="black" points="3406.88,-122 3289.12,-122 3289.12,-86 3406.88,-86 3406.88,-122"/>
<text text-anchor="middle" x="3348" y="-99.8" font-family="Times,serif" font-size="14.00">FooterComponent</text>
</g>
<!-- FooterComponent&#45;&gt;AppModule -->
<g id="edge2" class="edge">
<title>FooterComponent&#45;&gt;AppModule</title>
<path fill="none" stroke="black" d="M3348,-122.25C3348,-145.02 3348,-181 3348,-181 3348,-181 1953.72,-181 1953.72,-181"/>
<polygon fill="black" stroke="black" points="1953.72,-177.5 1943.72,-181 1953.72,-184.5 1953.72,-177.5"/>
</g>
<!-- HomeContentComponent -->
<g id="node3" class="node">
<title>HomeContentComponent</title>
<polygon fill="#ffffb3" stroke="black" points="3270.88,-122 3111.12,-122 3111.12,-86 3270.88,-86 3270.88,-122"/>
<text text-anchor="middle" x="3191" y="-99.8" font-family="Times,serif" font-size="14.00">HomeContentComponent</text>
</g>
<!-- HomeContentComponent&#45;&gt;AppModule -->
<g id="edge3" class="edge">
<title>HomeContentComponent&#45;&gt;AppModule</title>
<path fill="none" stroke="black" d="M3191,-122.29C3191,-144.21 3191,-178 3191,-178 3191,-178 1953.79,-178 1953.79,-178"/>
<polygon fill="black" stroke="black" points="1953.79,-174.5 1943.79,-178 1953.79,-181.5 1953.79,-174.5"/>
</g>
<!-- IntroductionComponent -->
<g id="node4" class="node">
<title>IntroductionComponent</title>
<polygon fill="#ffffb3" stroke="black" points="3093.04,-122 2942.96,-122 2942.96,-86 3093.04,-86 3093.04,-122"/>
<text text-anchor="middle" x="3018" y="-99.8" font-family="Times,serif" font-size="14.00">IntroductionComponent</text>
</g>
<!-- IntroductionComponent&#45;&gt;AppModule -->
<g id="edge4" class="edge">
<title>IntroductionComponent&#45;&gt;AppModule</title>
<path fill="none" stroke="black" d="M3018,-122.03C3018,-142.77 3018,-174 3018,-174 3018,-174 1953.71,-174 1953.71,-174"/>
<polygon fill="black" stroke="black" points="1953.71,-170.5 1943.71,-174 1953.71,-177.5 1953.71,-170.5"/>
</g>
<!-- NavHomeComponent -->
<g id="node5" class="node">
<title>NavHomeComponent</title>
<polygon fill="#ffffb3" stroke="black" points="2924.37,-122 2785.63,-122 2785.63,-86 2924.37,-86 2924.37,-122"/>
<text text-anchor="middle" x="2855" y="-99.8" font-family="Times,serif" font-size="14.00">NavHomeComponent</text>
</g>
<!-- NavHomeComponent&#45;&gt;AppModule -->
<g id="edge5" class="edge">
<title>NavHomeComponent&#45;&gt;AppModule</title>
<path fill="none" stroke="black" d="M2855,-122.31C2855,-142.15 2855,-171 2855,-171 2855,-171 1953.87,-171 1953.87,-171"/>
<polygon fill="black" stroke="black" points="1953.87,-167.5 1943.87,-171 1953.87,-174.5 1953.87,-167.5"/>
</g>
<!-- NotificationComponent -->
<g id="node6" class="node">
<title>NotificationComponent</title>
<polygon fill="#ffffb3" stroke="black" points="2767.48,-122 2618.52,-122 2618.52,-86 2767.48,-86 2767.48,-122"/>
<text text-anchor="middle" x="2693" y="-99.8" font-family="Times,serif" font-size="14.00">NotificationComponent</text>
</g>
<!-- NotificationComponent&#45;&gt;AppModule -->
<g id="edge6" class="edge">
<title>NotificationComponent&#45;&gt;AppModule</title>
<path fill="none" stroke="black" d="M2693,-122.17C2693,-141.09 2693,-168 2693,-168 2693,-168 1953.69,-168 1953.69,-168"/>
<polygon fill="black" stroke="black" points="1953.69,-164.5 1943.69,-168 1953.69,-171.5 1953.69,-164.5"/>
</g>
<!-- PageNotFoundComponent -->
<g id="node7" class="node">
<title>PageNotFoundComponent</title>
<polygon fill="#ffffb3" stroke="black" points="2600.82,-122 2435.18,-122 2435.18,-86 2600.82,-86 2600.82,-122"/>
<text text-anchor="middle" x="2518" y="-99.8" font-family="Times,serif" font-size="14.00">PageNotFoundComponent</text>
</g>
<!-- PageNotFoundComponent&#45;&gt;AppModule -->
<g id="edge7" class="edge">
<title>PageNotFoundComponent&#45;&gt;AppModule</title>
<path fill="none" stroke="black" d="M2518,-122.3C2518,-140.27 2518,-165 2518,-165 2518,-165 1953.86,-165 1953.86,-165"/>
<polygon fill="black" stroke="black" points="1953.86,-161.5 1943.86,-165 1953.86,-168.5 1953.86,-161.5"/>
</g>
<!-- RulesComponent -->
<g id="node8" class="node">
<title>RulesComponent</title>
<polygon fill="#ffffb3" stroke="black" points="2417.72,-122 2304.28,-122 2304.28,-86 2417.72,-86 2417.72,-122"/>
<text text-anchor="middle" x="2361" y="-99.8" font-family="Times,serif" font-size="14.00">RulesComponent</text>
</g>
<!-- RulesComponent&#45;&gt;AppModule -->
<g id="edge8" class="edge">
<title>RulesComponent&#45;&gt;AppModule</title>
<path fill="none" stroke="black" d="M2361,-122.04C2361,-138.73 2361,-161 2361,-161 2361,-161 1953.95,-161 1953.95,-161"/>
<polygon fill="black" stroke="black" points="1953.95,-157.5 1943.95,-161 1953.95,-164.5 1953.95,-157.5"/>
</g>
<!-- SidenavItemsComponent -->
<g id="node9" class="node">
<title>SidenavItemsComponent</title>
<polygon fill="#ffffb3" stroke="black" points="2286.54,-122 2129.46,-122 2129.46,-86 2286.54,-86 2286.54,-122"/>
<text text-anchor="middle" x="2208" y="-99.8" font-family="Times,serif" font-size="14.00">SidenavItemsComponent</text>
</g>
<!-- SidenavItemsComponent&#45;&gt;AppModule -->
<g id="edge9" class="edge">
<title>SidenavItemsComponent&#45;&gt;AppModule</title>
<path fill="none" stroke="black" d="M2208,-122.28C2208,-137.95 2208,-158 2208,-158 2208,-158 1953.91,-158 1953.91,-158"/>
<polygon fill="black" stroke="black" points="1953.91,-154.5 1943.91,-158 1953.91,-161.5 1953.91,-154.5"/>
</g>
<!-- AppComponent  -->
<g id="node13" class="node">
<title>AppComponent </title>
<polygon fill="#80b1d3" stroke="black" points="1956.44,-252 1847.56,-252 1847.56,-216 1956.44,-216 1956.44,-252"/>
<text text-anchor="middle" x="1902" y="-229.8" font-family="Times,serif" font-size="14.00">AppComponent </text>
</g>
<!-- AppModule&#45;&gt;AppComponent  -->
<g id="edge12" class="edge">
<title>AppModule&#45;&gt;AppComponent </title>
<path fill="none" stroke="black" stroke-dasharray="1,5" d="M1902,-187.11C1902,-187.11 1902,-205.99 1902,-205.99"/>
<polygon fill="black" stroke="black" points="1898.5,-205.99 1902,-215.99 1905.5,-205.99 1898.5,-205.99"/>
</g>
<!-- GN2CommonModule -->
<g id="node11" class="node">
<title>GN2CommonModule</title>
<polygon fill="#8dd3c7" stroke="black" points="273.38,-122 270.38,-126 249.38,-126 246.38,-122 134.62,-122 134.62,-86 273.38,-86 273.38,-122"/>
<text text-anchor="middle" x="204" y="-99.8" font-family="Times,serif" font-size="14.00">GN2CommonModule</text>
</g>
<!-- GN2CommonModule&#45;&gt;AppModule -->
<g id="edge10" class="edge">
<title>GN2CommonModule&#45;&gt;AppModule</title>
<path fill="none" stroke="black" d="M204,-122.25C204,-145.02 204,-181 204,-181 204,-181 1850.03,-181 1850.03,-181"/>
<polygon fill="black" stroke="black" points="1850.03,-184.5 1860.03,-181 1850.03,-177.5 1850.03,-184.5"/>
</g>
<!-- LoginModule -->
<g id="node12" class="node">
<title>LoginModule</title>
<polygon fill="#8dd3c7" stroke="black" points="116.49,-122 113.49,-126 92.49,-126 89.49,-122 23.51,-122 23.51,-86 116.49,-86 116.49,-122"/>
<text text-anchor="middle" x="70" y="-99.8" font-family="Times,serif" font-size="14.00">LoginModule</text>
</g>
<!-- LoginModule&#45;&gt;AppModule -->
<g id="edge11" class="edge">
<title>LoginModule&#45;&gt;AppModule</title>
<path fill="none" stroke="black" d="M70,-122.15C70,-145.76 70,-184 70,-184 70,-184 1850.29,-184 1850.29,-184"/>
<polygon fill="black" stroke="black" points="1850.29,-187.5 1860.29,-184 1850.29,-180.5 1850.29,-187.5"/>
</g>
<!-- AuthService -->
<g id="node14" class="node">
<title>AuthService</title>
<ellipse fill="#fdb462" stroke="black" cx="2046" cy="-104" rx="59.11" ry="18"/>
<text text-anchor="middle" x="2046" y="-99.8" font-family="Times,serif" font-size="14.00">AuthService</text>
</g>
<!-- AuthService&#45;&gt;AppModule -->
<g id="edge13" class="edge">
<title>AuthService&#45;&gt;AppModule</title>
<path fill="none" stroke="black" d="M2046,-122.12C2046,-136.78 2046,-155 2046,-155 2046,-155 1954.04,-155 1954.04,-155"/>
<polygon fill="black" stroke="black" points="1954.04,-151.5 1944.04,-155 1954.04,-158.5 1954.04,-151.5"/>
</g>
<!-- ConfigService -->
<g id="node15" class="node">
<title>ConfigService</title>
<ellipse fill="#fdb462" stroke="black" cx="1902" cy="-104" rx="66.63" ry="18"/>
<text text-anchor="middle" x="1902" y="-99.8" font-family="Times,serif" font-size="14.00">ConfigService</text>
</g>
<!-- ConfigService&#45;&gt;AppModule -->
<g id="edge14" class="edge">
<title>ConfigService&#45;&gt;AppModule</title>
<path fill="none" stroke="black" d="M1902,-122.11C1902,-122.11 1902,-140.99 1902,-140.99"/>
<polygon fill="black" stroke="black" points="1898.5,-140.99 1902,-150.99 1905.5,-140.99 1898.5,-140.99"/>
</g>
<!-- CruvedStoreService -->
<g id="node16" class="node">
<title>CruvedStoreService</title>
<ellipse fill="#fdb462" stroke="black" cx="1728" cy="-104" rx="88.6" ry="18"/>
<text text-anchor="middle" x="1728" y="-99.8" font-family="Times,serif" font-size="14.00">CruvedStoreService</text>
</g>
<!-- CruvedStoreService&#45;&gt;AppModule -->
<g id="edge15" class="edge">
<title>CruvedStoreService&#45;&gt;AppModule</title>
<path fill="none" stroke="black" d="M1728,-122.12C1728,-136.78 1728,-155 1728,-155 1728,-155 1850.32,-155 1850.32,-155"/>
<polygon fill="black" stroke="black" points="1850.32,-158.5 1860.32,-155 1850.32,-151.5 1850.32,-158.5"/>
</g>
<!-- GlobalSubService -->
<g id="node17" class="node">
<title>GlobalSubService</title>
<ellipse fill="#fdb462" stroke="black" cx="1540" cy="-104" rx="81.1" ry="18"/>
<text text-anchor="middle" x="1540" y="-99.8" font-family="Times,serif" font-size="14.00">GlobalSubService</text>
</g>
<!-- GlobalSubService&#45;&gt;AppModule -->
<g id="edge16" class="edge">
<title>GlobalSubService&#45;&gt;AppModule</title>
<path fill="none" stroke="black" d="M1540,-122.28C1540,-137.95 1540,-158 1540,-158 1540,-158 1850.12,-158 1850.12,-158"/>
<polygon fill="black" stroke="black" points="1850.12,-161.5 1860.12,-158 1850.12,-154.5 1850.12,-161.5"/>
</g>
<!-- ModuleService -->
<g id="node18" class="node">
<title>ModuleService</title>
<ellipse fill="#fdb462" stroke="black" cx="1371" cy="-104" rx="70.06" ry="18"/>
<text text-anchor="middle" x="1371" y="-99.8" font-family="Times,serif" font-size="14.00">ModuleService</text>
</g>
<!-- ModuleService&#45;&gt;AppModule -->
<g id="edge17" class="edge">
<title>ModuleService&#45;&gt;AppModule</title>
<path fill="none" stroke="black" d="M1371,-122.04C1371,-138.73 1371,-161 1371,-161 1371,-161 1850.33,-161 1850.33,-161"/>
<polygon fill="black" stroke="black" points="1850.33,-164.5 1860.33,-161 1850.33,-157.5 1850.33,-164.5"/>
</g>
<!-- MyCustomInterceptor -->
<g id="node19" class="node">
<title>MyCustomInterceptor</title>
<ellipse fill="#fdb462" stroke="black" cx="1186" cy="-104" rx="96.71" ry="18"/>
<text text-anchor="middle" x="1186" y="-99.8" font-family="Times,serif" font-size="14.00">MyCustomInterceptor</text>
</g>
<!-- MyCustomInterceptor&#45;&gt;AppModule -->
<g id="edge18" class="edge">
<title>MyCustomInterceptor&#45;&gt;AppModule</title>
<path fill="none" stroke="black" d="M1186,-122.3C1186,-140.27 1186,-165 1186,-165 1186,-165 1850.15,-165 1850.15,-165"/>
<polygon fill="black" stroke="black" points="1850.15,-168.5 1860.15,-165 1850.15,-161.5 1850.15,-168.5"/>
</g>
<!-- NotificationDataService -->
<g id="node20" class="node">
<title>NotificationDataService</title>
<ellipse fill="#fdb462" stroke="black" cx="966" cy="-104" rx="104.77" ry="18"/>
<text text-anchor="middle" x="966" y="-99.8" font-family="Times,serif" font-size="14.00">NotificationDataService</text>
</g>
<!-- NotificationDataService&#45;&gt;AppModule -->
<g id="edge19" class="edge">
<title>NotificationDataService&#45;&gt;AppModule</title>
<path fill="none" stroke="black" d="M966,-122.17C966,-141.09 966,-168 966,-168 966,-168 1850.27,-168 1850.27,-168"/>
<polygon fill="black" stroke="black" points="1850.27,-171.5 1860.27,-168 1850.27,-164.5 1850.27,-171.5"/>
</g>
<!-- SideNavService -->
<g id="node21" class="node">
<title>SideNavService</title>
<ellipse fill="#fdb462" stroke="black" cx="770" cy="-104" rx="73.49" ry="18"/>
<text text-anchor="middle" x="770" y="-99.8" font-family="Times,serif" font-size="14.00">SideNavService</text>
</g>
<!-- SideNavService&#45;&gt;AppModule -->
<g id="edge20" class="edge">
<title>SideNavService&#45;&gt;AppModule</title>
<path fill="none" stroke="black" d="M770,-122.31C770,-142.15 770,-171 770,-171 770,-171 1850.03,-171 1850.03,-171"/>
<polygon fill="black" stroke="black" points="1850.03,-174.5 1860.03,-171 1850.03,-167.5 1850.03,-174.5"/>
</g>
<!-- UnauthorizedInterceptor -->
<g id="node22" class="node">
<title>UnauthorizedInterceptor</title>
<ellipse fill="#fdb462" stroke="black" cx="573" cy="-104" rx="105.9" ry="18"/>
<text text-anchor="middle" x="573" y="-99.8" font-family="Times,serif" font-size="14.00">UnauthorizedInterceptor</text>
</g>
<!-- UnauthorizedInterceptor&#45;&gt;AppModule -->
<g id="edge21" class="edge">
<title>UnauthorizedInterceptor&#45;&gt;AppModule</title>
<path fill="none" stroke="black" d="M573,-122.03C573,-142.77 573,-174 573,-174 573,-174 1850.03,-174 1850.03,-174"/>
<polygon fill="black" stroke="black" points="1850.03,-177.5 1860.03,-174 1850.03,-170.5 1850.03,-177.5"/>
</g>
<!-- UserDataService -->
<g id="node23" class="node">
<title>UserDataService</title>
<ellipse fill="#fdb462" stroke="black" cx="373" cy="-104" rx="76.4" ry="18"/>
<text text-anchor="middle" x="373" y="-99.8" font-family="Times,serif" font-size="14.00">UserDataService</text>
</g>
<!-- UserDataService&#45;&gt;AppModule -->
<g id="edge22" class="edge">
<title>UserDataService&#45;&gt;AppModule</title>
<path fill="none" stroke="black" d="M373,-122.29C373,-144.21 373,-178 373,-178 373,-178 1850.31,-178 1850.31,-178"/>
<polygon fill="black" stroke="black" points="1850.31,-181.5 1860.31,-178 1850.31,-174.5 1850.31,-181.5"/>
</g>
</g>
</svg>
