<?xml version="1.0" encoding="UTF-8" standalone="no"?>
<!DOCTYPE svg PUBLIC "-//W3C//DTD SVG 1.1//EN"
 "http://www.w3.org/Graphics/SVG/1.1/DTD/svg11.dtd">
<!-- Generated by graphviz version 2.46.0 (20210119.1425)
 -->
<!-- Title: dependencies Pages: 1 -->
<svg width="2999pt" height="284pt"
 viewBox="0.00 0.00 2999.00 284.00" xmlns="http://www.w3.org/2000/svg" xmlns:xlink="http://www.w3.org/1999/xlink">
<g id="graph0" class="graph" transform="scale(1 1) rotate(0) translate(4 280)">
<title>dependencies</title>
<polygon fill="white" stroke="transparent" points="-4,4 -4,-280 2995,-280 2995,4 -4,4"/>
<text text-anchor="start" x="1474.51" y="-42.4" font-family="sans-serif" font-weight="bold" font-size="14.00">Legend</text>
<polygon fill="#ffffb3" stroke="transparent" points="1261.5,-10 1261.5,-30 1281.5,-30 1281.5,-10 1261.5,-10"/>
<text text-anchor="start" x="1285.13" y="-15.4" font-family="sans-serif" font-size="14.00"> &#160;Declarations</text>
<polygon fill="#8dd3c7" stroke="transparent" points="1374.5,-10 1374.5,-30 1394.5,-30 1394.5,-10 1374.5,-10"/>
<text text-anchor="start" x="1398.23" y="-15.4" font-family="sans-serif" font-size="14.00"> &#160;Module</text>
<polygon fill="#80b1d3" stroke="transparent" points="1460.5,-10 1460.5,-30 1480.5,-30 1480.5,-10 1460.5,-10"/>
<text text-anchor="start" x="1484.28" y="-15.4" font-family="sans-serif" font-size="14.00"> &#160;Bootstrap</text>
<polygon fill="#fdb462" stroke="transparent" points="1557.5,-10 1557.5,-30 1577.5,-30 1577.5,-10 1557.5,-10"/>
<text text-anchor="start" x="1581.17" y="-15.4" font-family="sans-serif" font-size="14.00"> &#160;Providers</text>
<polygon fill="#fb8072" stroke="transparent" points="1653.5,-10 1653.5,-30 1673.5,-30 1673.5,-10 1653.5,-10"/>
<text text-anchor="start" x="1677.23" y="-15.4" font-family="sans-serif" font-size="14.00"> &#160;Exports</text>
<g id="clust1" class="cluster">
<title>cluster_AppModule</title>
<polygon fill="none" stroke="black" stroke-dasharray="1,5" points="8,-70 8,-268 2983,-268 2983,-70 8,-70"/>
</g>
<g id="clust2" class="cluster">
<title>cluster_AppModule_declarations</title>
<polygon fill="none" stroke="black" points="1401,-78 1401,-130 2975,-130 2975,-78 1401,-78"/>
</g>
<g id="clust16" class="cluster">
<title>cluster_AppModule_providers</title>
<polygon fill="none" stroke="black" points="178,-78 178,-130 1393,-130 1393,-78 178,-78"/>
</g>
<g id="clust13" class="cluster">
<title>cluster_AppModule_imports</title>
<polygon fill="none" stroke="black" points="16,-78 16,-130 170,-130 170,-78 16,-78"/>
</g>
<g id="clust15" class="cluster">
<title>cluster_AppModule_bootstrap</title>
<polygon fill="none" stroke="black" points="1488,-208 1488,-260 1612,-260 1612,-208 1488,-208"/>
</g>
<!-- AppComponent -->
<g id="node1" class="node">
<title>AppComponent</title>
<polygon fill="#ffffb3" stroke="black" points="2966.94,-122 2861.06,-122 2861.06,-86 2966.94,-86 2966.94,-122"/>
<text text-anchor="middle" x="2914" y="-99.8" font-family="Times,serif" font-size="14.00">AppComponent</text>
</g>
<!-- AppModule -->
<g id="node11" class="node">
<title>AppModule</title>
<polygon fill="#8dd3c7" stroke="black" points="1591.66,-187 1588.66,-191 1567.66,-191 1564.66,-187 1508.34,-187 1508.34,-151 1591.66,-151 1591.66,-187"/>
<text text-anchor="middle" x="1550" y="-164.8" font-family="Times,serif" font-size="14.00">AppModule</text>
</g>
<!-- AppComponent&#45;&gt;AppModule -->
<g id="edge1" class="edge">
<title>AppComponent&#45;&gt;AppModule</title>
<path fill="none" stroke="black" d="M2914,-122.32C2914,-145.66 2914,-183 2914,-183 2914,-183 1601.94,-183 1601.94,-183"/>
<polygon fill="black" stroke="black" points="1601.94,-179.5 1591.94,-183 1601.94,-186.5 1601.94,-179.5"/>
</g>
<!-- FooterComponent -->
<g id="node2" class="node">
<title>FooterComponent</title>
<polygon fill="#ffffb3" stroke="black" points="2842.88,-122 2725.12,-122 2725.12,-86 2842.88,-86 2842.88,-122"/>
<text text-anchor="middle" x="2784" y="-99.8" font-family="Times,serif" font-size="14.00">FooterComponent</text>
</g>
<!-- FooterComponent&#45;&gt;AppModule -->
<g id="edge2" class="edge">
<title>FooterComponent&#45;&gt;AppModule</title>
<path fill="none" stroke="black" d="M2784,-122.16C2784,-144.35 2784,-179 2784,-179 2784,-179 1601.76,-179 1601.76,-179"/>
<polygon fill="black" stroke="black" points="1601.76,-175.5 1591.76,-179 1601.76,-182.5 1601.76,-175.5"/>
</g>
<!-- HomeContentComponent -->
<g id="node3" class="node">
<title>HomeContentComponent</title>
<polygon fill="#ffffb3" stroke="black" points="2706.88,-122 2547.12,-122 2547.12,-86 2706.88,-86 2706.88,-122"/>
<text text-anchor="middle" x="2627" y="-99.8" font-family="Times,serif" font-size="14.00">HomeContentComponent</text>
</g>
<!-- HomeContentComponent&#45;&gt;AppModule -->
<g id="edge3" class="edge">
<title>HomeContentComponent&#45;&gt;AppModule</title>
<path fill="none" stroke="black" d="M2627,-122.28C2627,-143.32 2627,-175 2627,-175 2627,-175 1601.89,-175 1601.89,-175"/>
<polygon fill="black" stroke="black" points="1601.89,-171.5 1591.89,-175 1601.89,-178.5 1601.89,-171.5"/>
</g>
<!-- IntroductionComponent -->
<g id="node4" class="node">
<title>IntroductionComponent</title>
<polygon fill="#ffffb3" stroke="black" points="2529.04,-122 2378.96,-122 2378.96,-86 2529.04,-86 2529.04,-122"/>
<text text-anchor="middle" x="2454" y="-99.8" font-family="Times,serif" font-size="14.00">IntroductionComponent</text>
</g>
<!-- IntroductionComponent&#45;&gt;AppModule -->
<g id="edge4" class="edge">
<title>IntroductionComponent&#45;&gt;AppModule</title>
<path fill="none" stroke="black" d="M2454,-122.31C2454,-142.15 2454,-171 2454,-171 2454,-171 1601.79,-171 1601.79,-171"/>
<polygon fill="black" stroke="black" points="1601.79,-167.5 1591.79,-171 1601.79,-174.5 1601.79,-167.5"/>
</g>
<!-- LoginComponent -->
<g id="node5" class="node">
<title>LoginComponent</title>
<polygon fill="#ffffb3" stroke="black" points="2360.28,-122 2245.72,-122 2245.72,-86 2360.28,-86 2360.28,-122"/>
<text text-anchor="middle" x="2303" y="-99.8" font-family="Times,serif" font-size="14.00">LoginComponent</text>
</g>
<!-- LoginComponent&#45;&gt;AppModule -->
<g id="edge5" class="edge">
<title>LoginComponent&#45;&gt;AppModule</title>
<path fill="none" stroke="black" d="M2303,-122.22C2303,-140.83 2303,-167 2303,-167 2303,-167 1601.83,-167 1601.83,-167"/>
<polygon fill="black" stroke="black" points="1601.83,-163.5 1591.83,-167 1601.83,-170.5 1601.83,-163.5"/>
</g>
<!-- NavHomeComponent -->
<g id="node6" class="node">
<title>NavHomeComponent</title>
<polygon fill="#ffffb3" stroke="black" points="2227.37,-122 2088.63,-122 2088.63,-86 2227.37,-86 2227.37,-122"/>
<text text-anchor="middle" x="2158" y="-99.8" font-family="Times,serif" font-size="14.00">NavHomeComponent</text>
</g>
<!-- NavHomeComponent&#45;&gt;AppModule -->
<g id="edge6" class="edge">
<title>NavHomeComponent&#45;&gt;AppModule</title>
<path fill="none" stroke="black" d="M2158,-122.02C2158,-139.37 2158,-163 2158,-163 2158,-163 1601.79,-163 1601.79,-163"/>
<polygon fill="black" stroke="black" points="1601.79,-159.5 1591.79,-163 1601.79,-166.5 1601.79,-159.5"/>
</g>
<!-- NewPasswordComponent -->
<g id="node7" class="node">
<title>NewPasswordComponent</title>
<polygon fill="#ffffb3" stroke="black" points="2070.91,-122 1909.09,-122 1909.09,-86 2070.91,-86 2070.91,-122"/>
<text text-anchor="middle" x="1990" y="-99.8" font-family="Times,serif" font-size="14.00">NewPasswordComponent</text>
</g>
<!-- NewPasswordComponent&#45;&gt;AppModule -->
<g id="edge7" class="edge">
<title>NewPasswordComponent&#45;&gt;AppModule</title>
<path fill="none" stroke="black" d="M1990,-122.01C1990,-138.05 1990,-159 1990,-159 1990,-159 1601.79,-159 1601.79,-159"/>
<polygon fill="black" stroke="black" points="1601.79,-155.5 1591.79,-159 1601.79,-162.5 1601.79,-155.5"/>
</g>
<!-- PageNotFoundComponent -->
<g id="node8" class="node">
<title>PageNotFoundComponent</title>
<polygon fill="#ffffb3" stroke="black" points="1891.82,-122 1726.18,-122 1726.18,-86 1891.82,-86 1891.82,-122"/>
<text text-anchor="middle" x="1809" y="-99.8" font-family="Times,serif" font-size="14.00">PageNotFoundComponent</text>
</g>
<!-- PageNotFoundComponent&#45;&gt;AppModule -->
<g id="edge8" class="edge">
<title>PageNotFoundComponent&#45;&gt;AppModule</title>
<path fill="none" stroke="black" d="M1809,-122.12C1809,-136.78 1809,-155 1809,-155 1809,-155 1601.9,-155 1601.9,-155"/>
<polygon fill="black" stroke="black" points="1601.9,-151.5 1591.9,-155 1601.9,-158.5 1601.9,-151.5"/>
</g>
<!-- SidenavItemsComponent -->
<g id="node9" class="node">
<title>SidenavItemsComponent</title>
<polygon fill="#ffffb3" stroke="black" points="1708.54,-122 1551.46,-122 1551.46,-86 1708.54,-86 1708.54,-122"/>
<text text-anchor="middle" x="1630" y="-99.8" font-family="Times,serif" font-size="14.00">SidenavItemsComponent</text>
</g>
<!-- SidenavItemsComponent&#45;&gt;AppModule -->
<g id="edge9" class="edge">
<title>SidenavItemsComponent&#45;&gt;AppModule</title>
<path fill="none" stroke="black" d="M1571.53,-122.11C1571.53,-122.11 1571.53,-140.99 1571.53,-140.99"/>
<polygon fill="black" stroke="black" points="1568.03,-140.99 1571.53,-150.99 1575.03,-140.99 1568.03,-140.99"/>
</g>
<!-- SignUpComponent -->
<g id="node10" class="node">
<title>SignUpComponent</title>
<polygon fill="#ffffb3" stroke="black" points="1533.11,-122 1408.89,-122 1408.89,-86 1533.11,-86 1533.11,-122"/>
<text text-anchor="middle" x="1471" y="-99.8" font-family="Times,serif" font-size="14.00">SignUpComponent</text>
</g>
<!-- SignUpComponent&#45;&gt;AppModule -->
<g id="edge10" class="edge">
<title>SignUpComponent&#45;&gt;AppModule</title>
<path fill="none" stroke="black" d="M1520.61,-122.11C1520.61,-122.11 1520.61,-140.99 1520.61,-140.99"/>
<polygon fill="black" stroke="black" points="1517.11,-140.99 1520.61,-150.99 1524.11,-140.99 1517.11,-140.99"/>
</g>
<!-- AppComponent  -->
<g id="node13" class="node">
<title>AppComponent </title>
<polygon fill="#80b1d3" stroke="black" points="1604.44,-252 1495.56,-252 1495.56,-216 1604.44,-216 1604.44,-252"/>
<text text-anchor="middle" x="1550" y="-229.8" font-family="Times,serif" font-size="14.00">AppComponent </text>
</g>
<!-- AppModule&#45;&gt;AppComponent  -->
<g id="edge12" class="edge">
<title>AppModule&#45;&gt;AppComponent </title>
<path fill="none" stroke="black" stroke-dasharray="1,5" d="M1550,-187.11C1550,-187.11 1550,-205.99 1550,-205.99"/>
<polygon fill="black" stroke="black" points="1546.5,-205.99 1550,-215.99 1553.5,-205.99 1546.5,-205.99"/>
</g>
<!-- GN2CommonModule -->
<g id="node12" class="node">
<title>GN2CommonModule</title>
<polygon fill="#8dd3c7" stroke="black" points="162.38,-122 159.38,-126 138.38,-126 135.38,-122 23.62,-122 23.62,-86 162.38,-86 162.38,-122"/>
<text text-anchor="middle" x="93" y="-99.8" font-family="Times,serif" font-size="14.00">GN2CommonModule</text>
</g>
<!-- GN2CommonModule&#45;&gt;AppModule -->
<g id="edge11" class="edge">
<title>GN2CommonModule&#45;&gt;AppModule</title>
<path fill="none" stroke="black" d="M93,-122.32C93,-145.66 93,-183 93,-183 93,-183 1497.97,-183 1497.97,-183"/>
<polygon fill="black" stroke="black" points="1497.97,-186.5 1507.97,-183 1497.97,-179.5 1497.97,-186.5"/>
</g>
<!-- AuthService -->
<g id="node14" class="node">
<title>AuthService</title>
<ellipse fill="#fdb462" stroke="black" cx="1326" cy="-104" rx="59.11" ry="18"/>
<text text-anchor="middle" x="1326" y="-99.8" font-family="Times,serif" font-size="14.00">AuthService</text>
</g>
<!-- AuthService&#45;&gt;AppModule -->
<g id="edge13" class="edge">
<title>AuthService&#45;&gt;AppModule</title>
<path fill="none" stroke="black" d="M1326,-122.12C1326,-136.78 1326,-155 1326,-155 1326,-155 1498.13,-155 1498.13,-155"/>
<polygon fill="black" stroke="black" points="1498.13,-158.5 1508.13,-155 1498.13,-151.5 1498.13,-158.5"/>
</g>
<!-- CruvedStoreService -->
<g id="node15" class="node">
<title>CruvedStoreService</title>
<ellipse fill="#fdb462" stroke="black" cx="1160" cy="-104" rx="88.6" ry="18"/>
<text text-anchor="middle" x="1160" y="-99.8" font-family="Times,serif" font-size="14.00">CruvedStoreService</text>
</g>
<!-- CruvedStoreService&#45;&gt;AppModule -->
<g id="edge14" class="edge">
<title>CruvedStoreService&#45;&gt;AppModule</title>
<path fill="none" stroke="black" d="M1160,-122.01C1160,-138.05 1160,-159 1160,-159 1160,-159 1498.26,-159 1498.26,-159"/>
<polygon fill="black" stroke="black" points="1498.26,-162.5 1508.26,-159 1498.26,-155.5 1498.26,-162.5"/>
</g>
<!-- GlobalSubService -->
<g id="node16" class="node">
<title>GlobalSubService</title>
<ellipse fill="#fdb462" stroke="black" cx="972" cy="-104" rx="81.1" ry="18"/>
<text text-anchor="middle" x="972" y="-99.8" font-family="Times,serif" font-size="14.00">GlobalSubService</text>
</g>
<!-- GlobalSubService&#45;&gt;AppModule -->
<g id="edge15" class="edge">
<title>GlobalSubService&#45;&gt;AppModule</title>
<path fill="none" stroke="black" d="M972,-122.02C972,-139.37 972,-163 972,-163 972,-163 1497.97,-163 1497.97,-163"/>
<polygon fill="black" stroke="black" points="1497.97,-166.5 1507.97,-163 1497.97,-159.5 1497.97,-166.5"/>
</g>
<!-- ModuleService -->
<g id="node17" class="node">
<title>ModuleService</title>
<ellipse fill="#fdb462" stroke="black" cx="803" cy="-104" rx="70.06" ry="18"/>
<text text-anchor="middle" x="803" y="-99.8" font-family="Times,serif" font-size="14.00">ModuleService</text>
</g>
<!-- ModuleService&#45;&gt;AppModule -->
<g id="edge16" class="edge">
<title>ModuleService&#45;&gt;AppModule</title>
<path fill="none" stroke="black" d="M803,-122.22C803,-140.83 803,-167 803,-167 803,-167 1498.24,-167 1498.24,-167"/>
<polygon fill="black" stroke="black" points="1498.24,-170.5 1508.24,-167 1498.24,-163.5 1498.24,-170.5"/>
</g>
<!-- MyCustomInterceptor -->
<g id="node18" class="node">
<title>MyCustomInterceptor</title>
<ellipse fill="#fdb462" stroke="black" cx="618" cy="-104" rx="96.71" ry="18"/>
<text text-anchor="middle" x="618" y="-99.8" font-family="Times,serif" font-size="14.00">MyCustomInterceptor</text>
</g>
<!-- MyCustomInterceptor&#45;&gt;AppModule -->
<g id="edge17" class="edge">
<title>MyCustomInterceptor&#45;&gt;AppModule</title>
<path fill="none" stroke="black" d="M618,-122.31C618,-142.15 618,-171 618,-171 618,-171 1498.14,-171 1498.14,-171"/>
<polygon fill="black" stroke="black" points="1498.14,-174.5 1508.14,-171 1498.14,-167.5 1498.14,-174.5"/>
</g>
<!-- SideNavService -->
<g id="node19" class="node">
<title>SideNavService</title>
<ellipse fill="#fdb462" stroke="black" cx="430" cy="-104" rx="73.49" ry="18"/>
<text text-anchor="middle" x="430" y="-99.8" font-family="Times,serif" font-size="14.00">SideNavService</text>
</g>
<!-- SideNavService&#45;&gt;AppModule -->
<g id="edge18" class="edge">
<title>SideNavService&#45;&gt;AppModule</title>
<path fill="none" stroke="black" d="M430,-122.28C430,-143.32 430,-175 430,-175 430,-175 1498.14,-175 1498.14,-175"/>
<polygon fill="black" stroke="black" points="1498.14,-178.5 1508.14,-175 1498.14,-171.5 1498.14,-178.5"/>
</g>
<!-- UserDataService -->
<g id="node20" class="node">
<title>UserDataService</title>
<ellipse fill="#fdb462" stroke="black" cx="262" cy="-104" rx="76.4" ry="18"/>
<text text-anchor="middle" x="262" y="-99.8" font-family="Times,serif" font-size="14.00">UserDataService</text>
</g>
<!-- UserDataService&#45;&gt;AppModule -->
<g id="edge19" class="edge">
<title>UserDataService&#45;&gt;AppModule</title>
<path fill="none" stroke="black" d="M262,-122.16C262,-144.35 262,-179 262,-179 262,-179 1498.24,-179 1498.24,-179"/>
<polygon fill="black" stroke="black" points="1498.24,-182.5 1508.24,-179 1498.24,-175.5 1498.24,-182.5"/>
</g>
</g>
</svg>
