<?xml version="1.0" encoding="UTF-8" standalone="no"?>
<!DOCTYPE svg PUBLIC "-//W3C//DTD SVG 1.1//EN"
 "http://www.w3.org/Graphics/SVG/1.1/DTD/svg11.dtd">
<!-- Generated by graphviz version 2.44.1 (20200629.0846)
 -->
<!-- Title: dependencies Pages: 1 -->
<svg width="5696pt" height="284pt"
 viewBox="0.00 0.00 5696.00 284.00" xmlns="http://www.w3.org/2000/svg" xmlns:xlink="http://www.w3.org/1999/xlink">
<g id="graph0" class="graph" transform="scale(1 1) rotate(0) translate(4 280)">
<title>dependencies</title>
<polygon fill="white" stroke="transparent" points="-4,4 -4,-280 5692,-280 5692,4 -4,4"/>
<text text-anchor="start" x="2823.01" y="-42.4" font-family="sans-serif" font-weight="bold" font-size="14.00">Legend</text>
<polygon fill="#ffffb3" stroke="transparent" points="2610,-10 2610,-30 2630,-30 2630,-10 2610,-10"/>
<text text-anchor="start" x="2633.63" y="-15.4" font-family="sans-serif" font-size="14.00"> &#160;Declarations</text>
<polygon fill="#8dd3c7" stroke="transparent" points="2723,-10 2723,-30 2743,-30 2743,-10 2723,-10"/>
<text text-anchor="start" x="2746.73" y="-15.4" font-family="sans-serif" font-size="14.00"> &#160;Module</text>
<polygon fill="#80b1d3" stroke="transparent" points="2809,-10 2809,-30 2829,-30 2829,-10 2809,-10"/>
<text text-anchor="start" x="2832.78" y="-15.4" font-family="sans-serif" font-size="14.00"> &#160;Bootstrap</text>
<polygon fill="#fdb462" stroke="transparent" points="2906,-10 2906,-30 2926,-30 2926,-10 2906,-10"/>
<text text-anchor="start" x="2929.67" y="-15.4" font-family="sans-serif" font-size="14.00"> &#160;Providers</text>
<polygon fill="#fb8072" stroke="transparent" points="3002,-10 3002,-30 3022,-30 3022,-10 3002,-10"/>
<text text-anchor="start" x="3025.73" y="-15.4" font-family="sans-serif" font-size="14.00"> &#160;Exports</text>
<g id="clust1" class="cluster">
<title>cluster_AppModule</title>
<polygon fill="none" stroke="black" stroke-dasharray="1,5" points="8,-70 8,-268 5680,-268 5680,-70 8,-70"/>
</g>
<g id="clust2" class="cluster">
<title>cluster_AppModule_declarations</title>
<polygon fill="none" stroke="black" points="4099,-78 4099,-130 5672,-130 5672,-78 4099,-78"/>
</g>
<g id="clust15" class="cluster">
<title>cluster_AppModule_bootstrap</title>
<polygon fill="none" stroke="black" points="3065,-208 3065,-260 3189,-260 3189,-208 3065,-208"/>
</g>
<g id="clust16" class="cluster">
<title>cluster_AppModule_providers</title>
<polygon fill="none" stroke="black" points="1472,-78 1472,-130 4091,-130 4091,-78 1472,-78"/>
</g>
<g id="clust13" class="cluster">
<title>cluster_AppModule_imports</title>
<polygon fill="none" stroke="black" points="16,-78 16,-130 1464,-130 1464,-78 16,-78"/>
</g>
<!-- AppComponent -->
<g id="node1" class="node">
<title>AppComponent</title>
<polygon fill="#ffffb3" stroke="black" points="5663.94,-122 5558.06,-122 5558.06,-86 5663.94,-86 5663.94,-122"/>
<text text-anchor="middle" x="5611" y="-99.8" font-family="Times,serif" font-size="14.00">AppComponent</text>
</g>
<!-- AppModule -->
<g id="node11" class="node">
<title>AppModule</title>
<polygon fill="#8dd3c7" stroke="black" points="3168.66,-187 3165.66,-191 3144.66,-191 3141.66,-187 3085.34,-187 3085.34,-151 3168.66,-151 3168.66,-187"/>
<text text-anchor="middle" x="3127" y="-164.8" font-family="Times,serif" font-size="14.00">AppModule</text>
</g>
<!-- AppComponent&#45;&gt;AppModule -->
<g id="edge1" class="edge">
<title>AppComponent&#45;&gt;AppModule</title>
<path fill="none" stroke="black" d="M5611,-122.38C5611,-146.28 5611,-185 5611,-185 5611,-185 3178.81,-185 3178.81,-185"/>
<polygon fill="black" stroke="black" points="3178.81,-181.5 3168.81,-185 3178.81,-188.5 3178.81,-181.5"/>
</g>
<!-- HomeContentComponent -->
<g id="node2" class="node">
<title>HomeContentComponent</title>
<polygon fill="#ffffb3" stroke="black" points="5539.88,-122 5380.12,-122 5380.12,-86 5539.88,-86 5539.88,-122"/>
<text text-anchor="middle" x="5460" y="-99.8" font-family="Times,serif" font-size="14.00">HomeContentComponent</text>
</g>
<!-- HomeContentComponent&#45;&gt;AppModule -->
<g id="edge2" class="edge">
<title>HomeContentComponent&#45;&gt;AppModule</title>
<path fill="none" stroke="black" d="M5460,-122.32C5460,-145.66 5460,-183 5460,-183 5460,-183 3178.98,-183 3178.98,-183"/>
<polygon fill="black" stroke="black" points="3178.98,-179.5 3168.98,-183 3178.98,-186.5 3178.98,-179.5"/>
</g>
<!-- SidenavItemsComponent -->
<g id="node3" class="node">
<title>SidenavItemsComponent</title>
<polygon fill="#ffffb3" stroke="black" points="5361.54,-122 5204.46,-122 5204.46,-86 5361.54,-86 5361.54,-122"/>
<text text-anchor="middle" x="5283" y="-99.8" font-family="Times,serif" font-size="14.00">SidenavItemsComponent</text>
</g>
<!-- SidenavItemsComponent&#45;&gt;AppModule -->
<g id="edge3" class="edge">
<title>SidenavItemsComponent&#45;&gt;AppModule</title>
<path fill="none" stroke="black" d="M5283,-122.25C5283,-145.02 5283,-181 5283,-181 5283,-181 3179.1,-181 3179.1,-181"/>
<polygon fill="black" stroke="black" points="3179.1,-177.5 3169.1,-181 3179.1,-184.5 3179.1,-177.5"/>
</g>
<!-- PageNotFoundComponent -->
<g id="node4" class="node">
<title>PageNotFoundComponent</title>
<polygon fill="#ffffb3" stroke="black" points="5186.82,-122 5021.18,-122 5021.18,-86 5186.82,-86 5186.82,-122"/>
<text text-anchor="middle" x="5104" y="-99.8" font-family="Times,serif" font-size="14.00">PageNotFoundComponent</text>
</g>
<!-- PageNotFoundComponent&#45;&gt;AppModule -->
<g id="edge4" class="edge">
<title>PageNotFoundComponent&#45;&gt;AppModule</title>
<path fill="none" stroke="black" d="M5104,-122.16C5104,-144.35 5104,-179 5104,-179 5104,-179 3178.75,-179 3178.75,-179"/>
<polygon fill="black" stroke="black" points="3178.75,-175.5 3168.75,-179 3178.75,-182.5 3178.75,-175.5"/>
</g>
<!-- LoginComponent -->
<g id="node5" class="node">
<title>LoginComponent</title>
<polygon fill="#ffffb3" stroke="black" points="5003.28,-122 4888.72,-122 4888.72,-86 5003.28,-86 5003.28,-122"/>
<text text-anchor="middle" x="4946" y="-99.8" font-family="Times,serif" font-size="14.00">LoginComponent</text>
</g>
<!-- LoginComponent&#45;&gt;AppModule -->
<g id="edge5" class="edge">
<title>LoginComponent&#45;&gt;AppModule</title>
<path fill="none" stroke="black" d="M4946,-122.04C4946,-143.66 4946,-177 4946,-177 4946,-177 3178.85,-177 3178.85,-177"/>
<polygon fill="black" stroke="black" points="3178.85,-173.5 3168.85,-177 3178.85,-180.5 3178.85,-173.5"/>
</g>
<!-- SignUpComponent -->
<g id="node6" class="node">
<title>SignUpComponent</title>
<polygon fill="#ffffb3" stroke="black" points="4871.11,-122 4746.89,-122 4746.89,-86 4871.11,-86 4871.11,-122"/>
<text text-anchor="middle" x="4809" y="-99.8" font-family="Times,serif" font-size="14.00">SignUpComponent</text>
</g>
<!-- SignUpComponent&#45;&gt;AppModule -->
<g id="edge6" class="edge">
<title>SignUpComponent&#45;&gt;AppModule</title>
<path fill="none" stroke="black" d="M4809,-122.28C4809,-143.32 4809,-175 4809,-175 4809,-175 3179,-175 3179,-175"/>
<polygon fill="black" stroke="black" points="3179,-171.5 3169,-175 3179,-178.5 3179,-171.5"/>
</g>
<!-- NewPasswordComponent -->
<g id="node7" class="node">
<title>NewPasswordComponent</title>
<polygon fill="#ffffb3" stroke="black" points="4728.91,-122 4567.09,-122 4567.09,-86 4728.91,-86 4728.91,-122"/>
<text text-anchor="middle" x="4648" y="-99.8" font-family="Times,serif" font-size="14.00">NewPasswordComponent</text>
</g>
<!-- NewPasswordComponent&#45;&gt;AppModule -->
<g id="edge7" class="edge">
<title>NewPasswordComponent&#45;&gt;AppModule</title>
<path fill="none" stroke="black" d="M4648,-122.13C4648,-142.57 4648,-173 4648,-173 4648,-173 3178.87,-173 3178.87,-173"/>
<polygon fill="black" stroke="black" points="3178.87,-169.5 3168.87,-173 3178.87,-176.5 3178.87,-169.5"/>
</g>
<!-- NavHomeComponent -->
<g id="node8" class="node">
<title>NavHomeComponent</title>
<polygon fill="#ffffb3" stroke="black" points="4549.37,-122 4410.63,-122 4410.63,-86 4549.37,-86 4549.37,-122"/>
<text text-anchor="middle" x="4480" y="-99.8" font-family="Times,serif" font-size="14.00">NavHomeComponent</text>
</g>
<!-- NavHomeComponent&#45;&gt;AppModule -->
<g id="edge8" class="edge">
<title>NavHomeComponent&#45;&gt;AppModule</title>
<path fill="none" stroke="black" d="M4480,-122.31C4480,-142.15 4480,-171 4480,-171 4480,-171 3178.98,-171 3178.98,-171"/>
<polygon fill="black" stroke="black" points="3178.98,-167.5 3168.98,-171 3178.98,-174.5 3178.98,-167.5"/>
</g>
<!-- FooterComponent -->
<g id="node9" class="node">
<title>FooterComponent</title>
<polygon fill="#ffffb3" stroke="black" points="4392.88,-122 4275.12,-122 4275.12,-86 4392.88,-86 4392.88,-122"/>
<text text-anchor="middle" x="4334" y="-99.8" font-family="Times,serif" font-size="14.00">FooterComponent</text>
</g>
<!-- FooterComponent&#45;&gt;AppModule -->
<g id="edge9" class="edge">
<title>FooterComponent&#45;&gt;AppModule</title>
<path fill="none" stroke="black" d="M4334,-122.17C4334,-141.09 4334,-168 4334,-168 4334,-168 3178.9,-168 3178.9,-168"/>
<polygon fill="black" stroke="black" points="3178.9,-164.5 3168.9,-168 3178.9,-171.5 3178.9,-164.5"/>
</g>
<!-- IntroductionComponent -->
<g id="node10" class="node">
<title>IntroductionComponent</title>
<polygon fill="#ffffb3" stroke="black" points="4257.04,-122 4106.96,-122 4106.96,-86 4257.04,-86 4257.04,-122"/>
<text text-anchor="middle" x="4182" y="-99.8" font-family="Times,serif" font-size="14.00">IntroductionComponent</text>
</g>
<!-- IntroductionComponent&#45;&gt;AppModule -->
<g id="edge10" class="edge">
<title>IntroductionComponent&#45;&gt;AppModule</title>
<path fill="none" stroke="black" d="M4182,-122.27C4182,-140.56 4182,-166 4182,-166 4182,-166 3178.68,-166 3178.68,-166"/>
<polygon fill="black" stroke="black" points="3178.68,-162.5 3168.68,-166 3178.68,-169.5 3178.68,-162.5"/>
</g>
<!-- AppComponent  -->
<g id="node22" class="node">
<title>AppComponent </title>
<polygon fill="#80b1d3" stroke="black" points="3181.44,-252 3072.56,-252 3072.56,-216 3181.44,-216 3181.44,-252"/>
<text text-anchor="middle" x="3127" y="-229.8" font-family="Times,serif" font-size="14.00">AppComponent </text>
</g>
<!-- AppModule&#45;&gt;AppComponent  -->
<g id="edge21" class="edge">
<title>AppModule&#45;&gt;AppComponent </title>
<path fill="none" stroke="black" stroke-dasharray="1,5" d="M3127,-187.11C3127,-187.11 3127,-205.99 3127,-205.99"/>
<polygon fill="black" stroke="black" points="3123.5,-205.99 3127,-215.99 3130.5,-205.99 3123.5,-205.99"/>
</g>
<!-- BrowserModule -->
<g id="node12" class="node">
<title>BrowserModule</title>
<polygon fill="#8dd3c7" stroke="black" points="1456.47,-122 1453.47,-126 1432.47,-126 1429.47,-122 1349.53,-122 1349.53,-86 1456.47,-86 1456.47,-122"/>
<text text-anchor="middle" x="1403" y="-99.8" font-family="Times,serif" font-size="14.00">BrowserModule</text>
</g>
<!-- BrowserModule&#45;&gt;AppModule -->
<g id="edge11" class="edge">
<title>BrowserModule&#45;&gt;AppModule</title>
<path fill="none" stroke="black" d="M1403,-122.27C1403,-140.56 1403,-166 1403,-166 1403,-166 3075.24,-166 3075.24,-166"/>
<polygon fill="black" stroke="black" points="3075.24,-169.5 3085.24,-166 3075.24,-162.5 3075.24,-169.5"/>
</g>
<!-- HttpClientModule -->
<g id="node13" class="node">
<title>HttpClientModule</title>
<polygon fill="#8dd3c7" stroke="black" points="1331.16,-122 1328.16,-126 1307.16,-126 1304.16,-122 1212.84,-122 1212.84,-86 1331.16,-86 1331.16,-122"/>
<text text-anchor="middle" x="1272" y="-99.8" font-family="Times,serif" font-size="14.00">HttpClientModule</text>
</g>
<!-- HttpClientModule&#45;&gt;AppModule -->
<g id="edge12" class="edge">
<title>HttpClientModule&#45;&gt;AppModule</title>
<path fill="none" stroke="black" d="M1272,-122.17C1272,-141.09 1272,-168 1272,-168 1272,-168 3075.21,-168 3075.21,-168"/>
<polygon fill="black" stroke="black" points="3075.21,-171.5 3085.21,-168 3075.21,-164.5 3075.21,-171.5"/>
</g>
<!-- BrowserAnimationsModule -->
<g id="node14" class="node">
<title>BrowserAnimationsModule</title>
<polygon fill="#8dd3c7" stroke="black" points="1195.3,-122 1192.3,-126 1171.3,-126 1168.3,-122 1022.7,-122 1022.7,-86 1195.3,-86 1195.3,-122"/>
<text text-anchor="middle" x="1109" y="-99.8" font-family="Times,serif" font-size="14.00">BrowserAnimationsModule</text>
</g>
<!-- BrowserAnimationsModule&#45;&gt;AppModule -->
<g id="edge13" class="edge">
<title>BrowserAnimationsModule&#45;&gt;AppModule</title>
<path fill="none" stroke="black" d="M1109,-122.31C1109,-142.15 1109,-171 1109,-171 1109,-171 3075.31,-171 3075.31,-171"/>
<polygon fill="black" stroke="black" points="3075.31,-174.5 3085.31,-171 3075.31,-167.5 3075.31,-174.5"/>
</g>
<!-- FlexLayoutModule -->
<g id="node15" class="node">
<title>FlexLayoutModule</title>
<polygon fill="#8dd3c7" stroke="black" points="1005.1,-122 1002.1,-126 981.1,-126 978.1,-122 880.9,-122 880.9,-86 1005.1,-86 1005.1,-122"/>
<text text-anchor="middle" x="943" y="-99.8" font-family="Times,serif" font-size="14.00">FlexLayoutModule</text>
</g>
<!-- FlexLayoutModule&#45;&gt;AppModule -->
<g id="edge14" class="edge">
<title>FlexLayoutModule&#45;&gt;AppModule</title>
<path fill="none" stroke="black" d="M943,-122.13C943,-142.57 943,-173 943,-173 943,-173 3075.32,-173 3075.32,-173"/>
<polygon fill="black" stroke="black" points="3075.32,-176.5 3085.32,-173 3075.32,-169.5 3075.32,-176.5"/>
</g>
<!-- routing -->
<g id="node16" class="node">
<title>routing</title>
<polygon fill="#8dd3c7" stroke="black" points="863.44,-122 860.44,-126 839.44,-126 836.44,-122 806.56,-122 806.56,-86 863.44,-86 863.44,-122"/>
<text text-anchor="middle" x="835" y="-99.8" font-family="Times,serif" font-size="14.00">routing</text>
</g>
<!-- routing&#45;&gt;AppModule -->
<g id="edge15" class="edge">
<title>routing&#45;&gt;AppModule</title>
<path fill="none" stroke="black" d="M835,-122.28C835,-143.32 835,-175 835,-175 835,-175 3075.26,-175 3075.26,-175"/>
<polygon fill="black" stroke="black" points="3075.26,-178.5 3085.26,-175 3075.26,-171.5 3075.26,-178.5"/>
</g>
<!-- ChartModule -->
<g id="node17" class="node">
<title>ChartModule</title>
<polygon fill="#8dd3c7" stroke="black" points="788.15,-122 785.15,-126 764.15,-126 761.15,-122 697.85,-122 697.85,-86 788.15,-86 788.15,-122"/>
<text text-anchor="middle" x="743" y="-99.8" font-family="Times,serif" font-size="14.00">ChartModule</text>
</g>
<!-- ChartModule&#45;&gt;AppModule -->
<g id="edge16" class="edge">
<title>ChartModule&#45;&gt;AppModule</title>
<path fill="none" stroke="black" d="M743,-122.04C743,-143.66 743,-177 743,-177 743,-177 3075.12,-177 3075.12,-177"/>
<polygon fill="black" stroke="black" points="3075.12,-180.5 3085.12,-177 3075.12,-173.5 3075.12,-180.5"/>
</g>
<!-- ChartsModule -->
<g id="node18" class="node">
<title>ChartsModule</title>
<polygon fill="#8dd3c7" stroke="black" points="680.1,-122 677.1,-126 656.1,-126 653.1,-122 583.9,-122 583.9,-86 680.1,-86 680.1,-122"/>
<text text-anchor="middle" x="632" y="-99.8" font-family="Times,serif" font-size="14.00">ChartsModule</text>
</g>
<!-- ChartsModule&#45;&gt;AppModule -->
<g id="edge17" class="edge">
<title>ChartsModule&#45;&gt;AppModule</title>
<path fill="none" stroke="black" d="M632,-122.16C632,-144.35 632,-179 632,-179 632,-179 3075.26,-179 3075.26,-179"/>
<polygon fill="black" stroke="black" points="3075.26,-182.5 3085.26,-179 3075.26,-175.5 3075.26,-182.5"/>
</g>
<!-- ToastrModule.forRoot(args) -->
<g id="node19" class="node">
<title>ToastrModule.forRoot(args)</title>
<polygon fill="#8dd3c7" stroke="black" points="565.5,-122 562.5,-126 541.5,-126 538.5,-122 390.5,-122 390.5,-86 565.5,-86 565.5,-122"/>
<text text-anchor="middle" x="478" y="-99.8" font-family="Times,serif" font-size="14.00">ToastrModule.forRoot(args)</text>
</g>
<!-- ToastrModule.forRoot(args)&#45;&gt;AppModule -->
<g id="edge18" class="edge">
<title>ToastrModule.forRoot(args)&#45;&gt;AppModule</title>
<path fill="none" stroke="black" d="M478,-122.25C478,-145.02 478,-181 478,-181 478,-181 3075.12,-181 3075.12,-181"/>
<polygon fill="black" stroke="black" points="3075.12,-184.5 3085.12,-181 3075.12,-177.5 3075.12,-184.5"/>
</g>
<!-- GN2CommonModule -->
<g id="node20" class="node">
<title>GN2CommonModule</title>
<polygon fill="#8dd3c7" stroke="black" points="372.38,-122 369.38,-126 348.38,-126 345.38,-122 233.62,-122 233.62,-86 372.38,-86 372.38,-122"/>
<text text-anchor="middle" x="303" y="-99.8" font-family="Times,serif" font-size="14.00">GN2CommonModule</text>
</g>
<!-- GN2CommonModule&#45;&gt;AppModule -->
<g id="edge19" class="edge">
<title>GN2CommonModule&#45;&gt;AppModule</title>
<path fill="none" stroke="black" d="M303,-122.32C303,-145.66 303,-183 303,-183 303,-183 3075.16,-183 3075.16,-183"/>
<polygon fill="black" stroke="black" points="3075.16,-186.5 3085.16,-183 3075.16,-179.5 3075.16,-186.5"/>
</g>
<!-- TranslateModule.forRoot(args) -->
<g id="node21" class="node">
<title>TranslateModule.forRoot(args)</title>
<polygon fill="#8dd3c7" stroke="black" points="215.82,-122 212.82,-126 191.82,-126 188.82,-122 24.18,-122 24.18,-86 215.82,-86 215.82,-122"/>
<text text-anchor="middle" x="120" y="-99.8" font-family="Times,serif" font-size="14.00">TranslateModule.forRoot(args)</text>
</g>
<!-- TranslateModule.forRoot(args)&#45;&gt;AppModule -->
<g id="edge20" class="edge">
<title>TranslateModule.forRoot(args)&#45;&gt;AppModule</title>
<path fill="none" stroke="black" d="M120,-122.38C120,-146.28 120,-185 120,-185 120,-185 3075.07,-185 3075.07,-185"/>
<polygon fill="black" stroke="black" points="3075.07,-188.5 3085.07,-185 3075.07,-181.5 3075.07,-188.5"/>
</g>
<!-- AuthService -->
<g id="node23" class="node">
<title>AuthService</title>
<ellipse fill="#fdb462" stroke="black" cx="4024" cy="-104" rx="59.11" ry="18"/>
<text text-anchor="middle" x="4024" y="-99.8" font-family="Times,serif" font-size="14.00">AuthService</text>
</g>
<!-- AuthService&#45;&gt;AppModule -->
<g id="edge22" class="edge">
<title>AuthService&#45;&gt;AppModule</title>
<path fill="none" stroke="black" d="M4024,-122C4024,-139.68 4024,-164 4024,-164 4024,-164 3178.76,-164 3178.76,-164"/>
<polygon fill="black" stroke="black" points="3178.76,-160.5 3168.76,-164 3178.76,-167.5 3178.76,-160.5"/>
</g>
<!-- AuthGuard -->
<g id="node24" class="node">
<title>AuthGuard</title>
<ellipse fill="#fdb462" stroke="black" cx="3892" cy="-104" rx="54.46" ry="18"/>
<text text-anchor="middle" x="3892" y="-99.8" font-family="Times,serif" font-size="14.00">AuthGuard</text>
</g>
<!-- AuthGuard&#45;&gt;AppModule -->
<g id="edge23" class="edge">
<title>AuthGuard&#45;&gt;AppModule</title>
<path fill="none" stroke="black" d="M3892,-122.03C3892,-139.06 3892,-162 3892,-162 3892,-162 3178.67,-162 3178.67,-162"/>
<polygon fill="black" stroke="black" points="3178.67,-158.5 3168.67,-162 3178.67,-165.5 3178.67,-158.5"/>
</g>
<!-- ModuleService -->
<g id="node25" class="node">
<title>ModuleService</title>
<ellipse fill="#fdb462" stroke="black" cx="3749" cy="-104" rx="70.06" ry="18"/>
<text text-anchor="middle" x="3749" y="-99.8" font-family="Times,serif" font-size="14.00">ModuleService</text>
</g>
<!-- ModuleService&#45;&gt;AppModule -->
<g id="edge24" class="edge">
<title>ModuleService&#45;&gt;AppModule</title>
<path fill="none" stroke="black" d="M3749,-122.03C3749,-138.4 3749,-160 3749,-160 3749,-160 3178.78,-160 3178.78,-160"/>
<polygon fill="black" stroke="black" points="3178.78,-156.5 3168.78,-160 3178.78,-163.5 3178.78,-156.5"/>
</g>
<!-- ToastrService -->
<g id="node26" class="node">
<title>ToastrService</title>
<ellipse fill="#fdb462" stroke="black" cx="3596" cy="-104" rx="64.82" ry="18"/>
<text text-anchor="middle" x="3596" y="-99.8" font-family="Times,serif" font-size="14.00">ToastrService</text>
</g>
<!-- ToastrService&#45;&gt;AppModule -->
<g id="edge25" class="edge">
<title>ToastrService&#45;&gt;AppModule</title>
<path fill="none" stroke="black" d="M3596,-122.28C3596,-137.95 3596,-158 3596,-158 3596,-158 3179.03,-158 3179.03,-158"/>
<polygon fill="black" stroke="black" points="3179.03,-154.5 3169.03,-158 3179.03,-161.5 3179.03,-154.5"/>
</g>
<!-- GlobalSubService -->
<g id="node27" class="node">
<title>GlobalSubService</title>
<ellipse fill="#fdb462" stroke="black" cx="3432" cy="-104" rx="81.1" ry="18"/>
<text text-anchor="middle" x="3432" y="-99.8" font-family="Times,serif" font-size="14.00">GlobalSubService</text>
</g>
<!-- GlobalSubService&#45;&gt;AppModule -->
<g id="edge26" class="edge">
<title>GlobalSubService&#45;&gt;AppModule</title>
<path fill="none" stroke="black" d="M3432,-122.19C3432,-137.18 3432,-156 3432,-156 3432,-156 3178.77,-156 3178.77,-156"/>
<polygon fill="black" stroke="black" points="3178.77,-152.5 3168.77,-156 3178.77,-159.5 3178.77,-152.5"/>
</g>
<!-- CookieService -->
<g id="node28" class="node">
<title>CookieService</title>
<ellipse fill="#fdb462" stroke="black" cx="3265" cy="-104" rx="67.78" ry="18"/>
<text text-anchor="middle" x="3265" y="-99.8" font-family="Times,serif" font-size="14.00">CookieService</text>
</g>
<!-- CookieService&#45;&gt;AppModule -->
<g id="edge27" class="edge">
<title>CookieService&#45;&gt;AppModule</title>
<path fill="none" stroke="black" d="M3265,-122.05C3265,-136.37 3265,-154 3265,-154 3265,-154 3178.78,-154 3178.78,-154"/>
<polygon fill="black" stroke="black" points="3178.78,-150.5 3168.78,-154 3178.78,-157.5 3178.78,-150.5"/>
</g>
<!-- HttpClient -->
<g id="node29" class="node">
<title>HttpClient</title>
<ellipse fill="#fdb462" stroke="black" cx="3127" cy="-104" rx="51.62" ry="18"/>
<text text-anchor="middle" x="3127" y="-99.8" font-family="Times,serif" font-size="14.00">HttpClient</text>
</g>
<!-- HttpClient&#45;&gt;AppModule -->
<g id="edge28" class="edge">
<title>HttpClient&#45;&gt;AppModule</title>
<path fill="none" stroke="black" d="M3127,-122.11C3127,-122.11 3127,-140.99 3127,-140.99"/>
<polygon fill="black" stroke="black" points="3123.5,-140.99 3127,-150.99 3130.5,-140.99 3123.5,-140.99"/>
</g>
<!-- ModuleGuardService -->
<g id="node30" class="node">
<title>ModuleGuardService</title>
<ellipse fill="#fdb462" stroke="black" cx="2963" cy="-104" rx="94.32" ry="18"/>
<text text-anchor="middle" x="2963" y="-99.8" font-family="Times,serif" font-size="14.00">ModuleGuardService</text>
</g>
<!-- ModuleGuardService&#45;&gt;AppModule -->
<g id="edge29" class="edge">
<title>ModuleGuardService&#45;&gt;AppModule</title>
<path fill="none" stroke="black" d="M2963,-122.05C2963,-136.37 2963,-154 2963,-154 2963,-154 3075.19,-154 3075.19,-154"/>
<polygon fill="black" stroke="black" points="3075.19,-157.5 3085.19,-154 3075.19,-150.5 3075.19,-157.5"/>
</g>
<!-- SignUpGuard -->
<g id="node31" class="node">
<title>SignUpGuard</title>
<ellipse fill="#fdb462" stroke="black" cx="2786" cy="-104" rx="64.85" ry="18"/>
<text text-anchor="middle" x="2786" y="-99.8" font-family="Times,serif" font-size="14.00">SignUpGuard</text>
</g>
<!-- SignUpGuard&#45;&gt;AppModule -->
<g id="edge30" class="edge">
<title>SignUpGuard&#45;&gt;AppModule</title>
<path fill="none" stroke="black" d="M2786,-122.19C2786,-137.18 2786,-156 2786,-156 2786,-156 3075.19,-156 3075.19,-156"/>
<polygon fill="black" stroke="black" points="3075.19,-159.5 3085.19,-156 3075.19,-152.5 3075.19,-159.5"/>
</g>
<!-- UserManagementGuard -->
<g id="node32" class="node">
<title>UserManagementGuard</title>
<ellipse fill="#fdb462" stroke="black" cx="2600" cy="-104" rx="103.61" ry="18"/>
<text text-anchor="middle" x="2600" y="-99.8" font-family="Times,serif" font-size="14.00">UserManagementGuard</text>
</g>
<!-- UserManagementGuard&#45;&gt;AppModule -->
<g id="edge31" class="edge">
<title>UserManagementGuard&#45;&gt;AppModule</title>
<path fill="none" stroke="black" d="M2600,-122.28C2600,-137.95 2600,-158 2600,-158 2600,-158 3075.21,-158 3075.21,-158"/>
<polygon fill="black" stroke="black" points="3075.21,-161.5 3085.21,-158 3075.21,-154.5 3075.21,-161.5"/>
</g>
<!-- SideNavService -->
<g id="node33" class="node">
<title>SideNavService</title>
<ellipse fill="#fdb462" stroke="black" cx="2405" cy="-104" rx="73.49" ry="18"/>
<text text-anchor="middle" x="2405" y="-99.8" font-family="Times,serif" font-size="14.00">SideNavService</text>
</g>
<!-- SideNavService&#45;&gt;AppModule -->
<g id="edge32" class="edge">
<title>SideNavService&#45;&gt;AppModule</title>
<path fill="none" stroke="black" d="M2405,-122.03C2405,-138.4 2405,-160 2405,-160 2405,-160 3075.33,-160 3075.33,-160"/>
<polygon fill="black" stroke="black" points="3075.33,-163.5 3085.33,-160 3075.33,-156.5 3075.33,-163.5"/>
</g>
<!-- CruvedStoreService -->
<g id="node34" class="node">
<title>CruvedStoreService</title>
<ellipse fill="#fdb462" stroke="black" cx="2225" cy="-104" rx="88.6" ry="18"/>
<text text-anchor="middle" x="2225" y="-99.8" font-family="Times,serif" font-size="14.00">CruvedStoreService</text>
</g>
<!-- CruvedStoreService&#45;&gt;AppModule -->
<g id="edge33" class="edge">
<title>CruvedStoreService&#45;&gt;AppModule</title>
<path fill="none" stroke="black" d="M2225,-122.03C2225,-139.06 2225,-162 2225,-162 2225,-162 3075.3,-162 3075.3,-162"/>
<polygon fill="black" stroke="black" points="3075.3,-165.5 3085.3,-162 3075.3,-158.5 3075.3,-165.5"/>
</g>
<!-- { provide: HTTP_INTERCEPTORS, useClass: MyCustomInterceptor, multi: &#160;} -->
<g id="node35" class="node">
<title>{ provide: HTTP_INTERCEPTORS, useClass: MyCustomInterceptor, multi: &#160;}</title>
<ellipse fill="#fdb462" stroke="black" cx="1799" cy="-104" rx="319.23" ry="18"/>
<text text-anchor="middle" x="1799" y="-99.8" font-family="Times,serif" font-size="14.00">{ provide: HTTP_INTERCEPTORS, useClass: MyCustomInterceptor, multi: &#160;}</text>
</g>
<!-- { provide: HTTP_INTERCEPTORS, useClass: MyCustomInterceptor, multi: &#160;}&#45;&gt;AppModule -->
<g id="edge34" class="edge">
<title>{ provide: HTTP_INTERCEPTORS, useClass: MyCustomInterceptor, multi: &#160;}&#45;&gt;AppModule</title>
<path fill="none" stroke="black" d="M1799,-122C1799,-139.68 1799,-164 1799,-164 1799,-164 3075.06,-164 3075.06,-164"/>
<polygon fill="black" stroke="black" points="3075.06,-167.5 3085.06,-164 3075.06,-160.5 3075.06,-167.5"/>
</g>
</g>
</svg>
