<svg version="1.1" xmlns="http://www.w3.org/2000/svg" viewBox="0 0 1697.6085061148701 1382.5285490228782" width="1697.6085061148701" height="1382.5285490228782">
  <!-- svg-source:excalidraw -->
  
  <defs>
    <style class="style-fonts">
      @font-face {
        font-family: "Virgil";
        src: url("https://excalidraw.com/Virgil.woff2");
      }
      @font-face {
        font-family: "Cascadia";
        src: url("https://excalidraw.com/Cascadia.woff2");
      }
      @font-face {
        font-family: "Assistant";
        src: url("https://excalidraw.com/Assistant-Regular.woff2");
      }
    </style>
    
  </defs>
  <rect x="0" y="0" width="1697.6085061148701" height="1382.5285490228782" fill="#ffffff"></rect><g stroke-linecap="round" transform="translate(376.5162185647548 10) rotate(0 338.566812244345 44.70075271685721)"><path d="M22.35 0 C155.21 2.98, 290.23 2.46, 654.78 0 M22.35 0 C214.59 -0.14, 407.53 -0.28, 654.78 0 M654.78 0 C669.2 1, 676.93 9.36, 677.13 22.35 M654.78 0 C669.69 -1.18, 676.16 8.38, 677.13 22.35 M677.13 22.35 C679.48 38.36, 676.68 57.82, 677.13 67.05 M677.13 22.35 C677.82 39.88, 677.18 56.97, 677.13 67.05 M677.13 67.05 C679.1 80.2, 669.56 89.06, 654.78 89.4 M677.13 67.05 C674.91 80.39, 670.77 90.34, 654.78 89.4 M654.78 89.4 C434.09 89.54, 213.87 89.72, 22.35 89.4 M654.78 89.4 C476.08 87.12, 296.7 87.12, 22.35 89.4 M22.35 89.4 C8.54 88.59, 1.31 82.26, 0 67.05 M22.35 89.4 C8.25 89.39, -0.83 83.94, 0 67.05 M0 67.05 C0.15 49.82, -0.65 32.11, 0 22.35 M0 67.05 C-0.25 48.52, -0.59 31.13, 0 22.35 M0 22.35 C1.85 6.47, 6.92 1.33, 22.35 0 M0 22.35 C-0.23 9.44, 5.87 0.45, 22.35 0" stroke="#000000" stroke-width="1" fill="none"></path></g><g transform="translate(568.8478747795539 39.80050181123784) rotate(0 139.80833435058594 17.5)"><text x="0" y="0" font-family="Virgil, Segoe UI Emoji" font-size="28px" fill="#1971c2" text-anchor="start" style="white-space: pre;" direction="ltr" dominant-baseline="text-before-edge">liste des permissions</text></g><g stroke-linecap="round" transform="translate(10 199.97819904664289) rotate(0 338.566812244345 60.42879533945518)"><path d="M30.21 0 C265.72 1.59, 501.81 0.67, 646.92 0 M30.21 0 C258.16 1.37, 486.13 1.42, 646.92 0 M646.92 0 C668.71 -1.74, 675.99 11.95, 677.13 30.21 M646.92 0 C668.57 1.4, 676.14 12.36, 677.13 30.21 M677.13 30.21 C679.16 48.18, 676.96 64.85, 677.13 90.64 M677.13 30.21 C676.7 50.64, 675.95 71.96, 677.13 90.64 M677.13 90.64 C676.62 111.94, 666.01 120.81, 646.92 120.86 M677.13 90.64 C676.04 110.29, 669.16 121.16, 646.92 120.86 M646.92 120.86 C433.56 120.03, 221.39 119.53, 30.21 120.86 M646.92 120.86 C413.91 121.4, 180.77 121.14, 30.21 120.86 M30.21 120.86 C11.01 121.09, -1.66 111.43, 0 90.64 M30.21 120.86 C12.17 119.78, -0.52 109.77, 0 90.64 M0 90.64 C-0.26 74.96, -2.36 55.68, 0 30.21 M0 90.64 C-0.14 73.39, 0.7 53.74, 0 30.21 M0 30.21 C0.63 11.85, 10.67 -1.99, 30.21 0 M0 30.21 C0.25 10.64, 12.29 -1.14, 30.21 0" stroke="#000000" stroke-width="1" fill="none"></path></g><g transform="translate(197.05848094551686 225.40699438609818) rotate(0 151.50833129882812 35)"><text x="151.50833129882812" y="0" font-family="Virgil, Segoe UI Emoji" font-size="28px" fill="#1971c2" text-anchor="middle" style="white-space: pre;" direction="ltr" dominant-baseline="text-before-edge">Liste des permissions </text><text x="151.50833129882812" y="35" font-family="Virgil, Segoe UI Emoji" font-size="28px" fill="#1971c2" text-anchor="middle" style="white-space: pre;" direction="ltr" dominant-baseline="text-before-edge">sans filtre floutage</text></g><g stroke-linecap="round" transform="translate(793.0909642619816 199.97819904664289) rotate(0 338.566812244345 60.42879533945518)"><path d="M30.21 0 C249.71 -2.66, 469.87 -2.24, 646.92 0 M30.21 0 C157.67 1.21, 284.27 1.36, 646.92 0 M646.92 0 C665.55 -1.85, 677.11 8.16, 677.13 30.21 M646.92 0 C667.91 -0.27, 678.8 10.62, 677.13 30.21 M677.13 30.21 C678.92 51.55, 676.1 76.82, 677.13 90.64 M677.13 30.21 C676.31 42.56, 677.49 53.68, 677.13 90.64 M677.13 90.64 C677.52 112.35, 666.63 121, 646.92 120.86 M677.13 90.64 C677.53 111.07, 664.81 119.24, 646.92 120.86 M646.92 120.86 C493.48 121.02, 339.89 121.24, 30.21 120.86 M646.92 120.86 C500.51 122.05, 354.33 121.43, 30.21 120.86 M30.21 120.86 C11.05 120.75, -0.57 112.4, 0 90.64 M30.21 120.86 C10.79 122.22, 1.48 111.87, 0 90.64 M0 90.64 C-1.37 72.86, -0.31 58.63, 0 30.21 M0 90.64 C-0.41 71.6, 0.27 53.48, 0 30.21 M0 30.21 C-0.84 8.13, 11.91 -0.17, 30.21 0 M0 30.21 C0.13 8.25, 11.16 2.23, 30.21 0" stroke="#000000" stroke-width="1" fill="none"></path></g><g transform="translate(980.1494452074985 225.40699438609818) rotate(0 151.50833129882812 35)"><text x="151.50833129882812" y="0" font-family="Virgil, Segoe UI Emoji" font-size="28px" fill="#1971c2" text-anchor="middle" style="white-space: pre;" direction="ltr" dominant-baseline="text-before-edge">Liste des permissions </text><text x="151.50833129882812" y="35" font-family="Virgil, Segoe UI Emoji" font-size="28px" fill="#1971c2" text-anchor="middle" style="white-space: pre;" direction="ltr" dominant-baseline="text-before-edge">avec filtre floutage</text></g><g stroke-linecap="round"><g transform="translate(886.6314282805904 99.40150543371442) rotate(0 111.11471680603529 46.52717204946862)"><path d="M-0.34 0.97 C36.66 16.61, 185.38 78.32, 222.6 93.77 M1.68 0.43 C38.51 15.73, 185.03 76.83, 221.85 92.02" stroke="#1971c2" stroke-width="1" fill="none"></path></g><g transform="translate(886.6314282805904 99.40150543371442) rotate(0 111.11471680603529 46.52717204946862)"><path d="M191.88 90.69 C203.95 91.86, 213.97 92.99, 221.85 92.02 M191.88 90.69 C202.57 90.47, 212.28 91.46, 221.85 92.02" stroke="#1971c2" stroke-width="1" fill="none"></path></g><g transform="translate(886.6314282805904 99.40150543371442) rotate(0 111.11471680603529 46.52717204946862)"><path d="M199.75 71.73 C209.06 79.5, 216.34 87.23, 221.85 92.02 M199.75 71.73 C207.67 78.17, 214.65 85.74, 221.85 92.02" stroke="#1971c2" stroke-width="1" fill="none"></path></g></g><mask></mask><g transform="translate(1053.4804473261145 126.24654926380458) rotate(0 104.66666412353516 17.5)"><text x="104.66666412353516" y="0" font-family="Virgil, Segoe UI Emoji" font-size="28px" fill="#1e1e1e" text-anchor="middle" style="white-space: pre;" direction="ltr" dominant-baseline="text-before-edge">Filtrage Python</text></g><g stroke-linecap="round"><g transform="translate(573.7261592625892 101.05708886767206) rotate(0 -112.5928673972669 46.69141100404988)"><path d="M0.21 0.31 C-37.32 15.6, -187.37 77.34, -225.13 92.73 M-1.14 -0.58 C-38.82 14.78, -188.9 78.24, -226.05 93.92" stroke="#1971c2" stroke-width="1" fill="none"></path></g><g transform="translate(573.7261592625892 101.05708886767206) rotate(0 -112.5928673972669 46.69141100404988)"><path d="M-204.07 73.5 C-210.04 79.79, -218.28 83.92, -226.05 93.92 M-204.07 73.5 C-210.09 79.07, -213.31 83.22, -226.05 93.92" stroke="#1971c2" stroke-width="1" fill="none"></path></g><g transform="translate(573.7261592625892 101.05708886767206) rotate(0 -112.5928673972669 46.69141100404988)"><path d="M-196.09 92.4 C-204.62 93, -215.27 91.42, -226.05 93.92 M-196.09 92.4 C-204.09 93.61, -209.18 93.33, -226.05 93.92" stroke="#1971c2" stroke-width="1" fill="none"></path></g></g><mask></mask><g transform="translate(176.02122732854514 126.24654926380458) rotate(0 104.66666412353516 17.5)"><text x="104.66666412353516" y="0" font-family="Virgil, Segoe UI Emoji" font-size="28px" fill="#1e1e1e" text-anchor="middle" style="white-space: pre;" direction="ltr" dominant-baseline="text-before-edge">Filtrage Python</text></g><g stroke-linecap="round" transform="translate(170.59159309389474 427.2070253573345) rotate(0 177.97521915045027 60.42879533945518)"><path d="M30.21 0 C121.2 1.77, 212.53 0.31, 325.74 0 M30.21 0 C96.22 -1.73, 163.05 -1.84, 325.74 0 M325.74 0 C345.85 -1.06, 355.46 9.89, 355.95 30.21 M325.74 0 C346.56 -2.23, 354.7 11.35, 355.95 30.21 M355.95 30.21 C356.41 52.84, 356.35 71.1, 355.95 90.64 M355.95 30.21 C356.55 52.71, 356.81 76.03, 355.95 90.64 M355.95 90.64 C357.88 111.28, 345.79 119.63, 325.74 120.86 M355.95 90.64 C354.82 109.25, 347.76 120.83, 325.74 120.86 M325.74 120.86 C247.15 117.53, 166.73 117.65, 30.21 120.86 M325.74 120.86 C232.96 118.7, 139.89 119.15, 30.21 120.86 M30.21 120.86 C11.9 120.7, -1 109.54, 0 90.64 M30.21 120.86 C8.21 121.31, 2.09 112.07, 0 90.64 M0 90.64 C-1.39 71.62, -0.29 47.84, 0 30.21 M0 90.64 C-0.36 78.47, -0.68 64.77, 0 30.21 M0 30.21 C-0.78 9.3, 9.33 -0.13, 30.21 0 M0 30.21 C-1.17 11.55, 8.4 -1.64, 30.21 0" stroke="#000000" stroke-width="1" fill="none"></path></g><g transform="translate(268.53347941963796 452.6358206967898) rotate(0 80.03333282470703 35)"><text x="80.03333282470703" y="0" font-family="Virgil, Segoe UI Emoji" font-size="28px" fill="#1971c2" text-anchor="middle" style="white-space: pre;" direction="ltr" dominant-baseline="text-before-edge">whereclause</text><text x="80.03333282470703" y="35" font-family="Virgil, Segoe UI Emoji" font-size="28px" fill="#1971c2" text-anchor="middle" style="white-space: pre;" direction="ltr" dominant-baseline="text-before-edge">(PP)</text></g><g stroke-linecap="round" transform="translate(955.338140789834 427.20702535733426) rotate(0 177.97521915045024 60.42879533945518)"><path d="M30.21 0 C114.83 0.63, 201.07 -0.36, 325.74 0 M30.21 0 C104.04 1.75, 177.05 1.42, 325.74 0 M325.74 0 C345.64 -1.35, 356.55 9.91, 355.95 30.21 M325.74 0 C347.66 1.5, 355.09 11.26, 355.95 30.21 M355.95 30.21 C355.07 45.89, 354.36 58.48, 355.95 90.64 M355.95 30.21 C355.17 54.43, 356.23 77.54, 355.95 90.64 M355.95 90.64 C356.59 110.25, 344.59 119.93, 325.74 120.86 M355.95 90.64 C357.81 110.38, 344.8 119.26, 325.74 120.86 M325.74 120.86 C241.73 121.58, 159.08 122.15, 30.21 120.86 M325.74 120.86 C217.4 118.91, 108.72 118.67, 30.21 120.86 M30.21 120.86 C11.3 119.2, 0.84 109.28, 0 90.64 M30.21 120.86 C10.59 118.6, 1.13 109.2, 0 90.64 M0 90.64 C-0.22 74.07, -1.05 62.32, 0 30.21 M0 90.64 C-0.26 71.79, -0.07 51.88, 0 30.21 M0 30.21 C-0.45 9.7, 8.13 0.12, 30.21 0 M0 30.21 C0.26 9.01, 8.22 1.38, 30.21 0" stroke="#000000" stroke-width="1" fill="none"></path></g><g transform="translate(1053.2800271155772 452.63582069678955) rotate(0 80.03333282470703 35)"><text x="80.03333282470703" y="0" font-family="Virgil, Segoe UI Emoji" font-size="28px" fill="#1971c2" text-anchor="middle" style="white-space: pre;" direction="ltr" dominant-baseline="text-before-edge">whereclause</text><text x="80.03333282470703" y="35" font-family="Virgil, Segoe UI Emoji" font-size="28px" fill="#1971c2" text-anchor="middle" style="white-space: pre;" direction="ltr" dominant-baseline="text-before-edge">(PF)</text></g><g stroke-linecap="round"><g transform="translate(349.9360506084287 319.59410215008575) rotate(0 -0.6635527623975577 49.83833891738391)"><path d="M0.12 -0.24 C-0.08 16.43, -0.09 83.5, -0.41 100.31 M-1.27 -1.41 C-1.62 14.89, -0.62 81.82, -0.88 98.52" stroke="#1971c2" stroke-width="1" fill="none"></path></g><g transform="translate(349.9360506084287 319.59410215008575) rotate(0 -0.6635527623975577 49.83833891738391)"><path d="M-11.18 70.34 C-7.73 82.19, -2.5 90.19, -0.88 98.52 M-11.18 70.34 C-6.97 80.65, -3.88 90.78, -0.88 98.52" stroke="#1971c2" stroke-width="1" fill="none"></path></g><g transform="translate(349.9360506084287 319.59410215008575) rotate(0 -0.6635527623975577 49.83833891738391)"><path d="M9.34 70.32 C5.26 82.19, 2.97 90.2, -0.88 98.52 M9.34 70.32 C5.79 80.52, 1.11 90.66, -0.88 98.52" stroke="#1971c2" stroke-width="1" fill="none"></path></g></g><mask></mask><g stroke-linecap="round"><g transform="translate(1133.6959365126686 325.77643823994504) rotate(0 1.7053025658242404e-13 46.36293309488747)"><path d="M-0.11 -1.13 C-0.14 14.45, 0.93 76.92, 0.87 92.39 M-1.62 0.89 C-1.84 16.75, 0.36 78.49, 0.38 93.75" stroke="#1971c2" stroke-width="1" fill="none"></path></g><g transform="translate(1133.6959365126686 325.77643823994504) rotate(0 1.7053025658242404e-13 46.36293309488747)"><path d="M-10.45 65.77 C-8.38 78.15, -2.83 86.83, 0.38 93.75 M-10.45 65.77 C-9 72.2, -5.92 78.41, 0.38 93.75" stroke="#1971c2" stroke-width="1" fill="none"></path></g><g transform="translate(1133.6959365126686 325.77643823994504) rotate(0 1.7053025658242404e-13 46.36293309488747)"><path d="M10.07 65.35 C4.13 77.88, 1.68 86.72, 0.38 93.75 M10.07 65.35 C7.19 71.83, 5.95 78.13, 0.38 93.75" stroke="#1971c2" stroke-width="1" fill="none"></path></g></g><mask></mask><g stroke-linecap="round" transform="translate(515.4515765176786 711.7503614908946) rotate(0 284.00512530853814 60.42879533945518)"><path d="M30.21 0 C157.88 -1.57, 284.55 -1.04, 537.8 0 M30.21 0 C218.64 0.04, 406.73 -0.17, 537.8 0 M537.8 0 C559.21 1.38, 566.22 11.29, 568.01 30.21 M537.8 0 C559.96 -1.14, 566.23 9.85, 568.01 30.21 M568.01 30.21 C568.56 47.25, 569.44 62.3, 568.01 90.64 M568.01 30.21 C567.3 50.7, 568.75 71.28, 568.01 90.64 M568.01 90.64 C568.14 109.84, 558.89 119.46, 537.8 120.86 M568.01 90.64 C570.14 110.75, 558.59 122.01, 537.8 120.86 M537.8 120.86 C391.34 119.24, 247.04 118.88, 30.21 120.86 M537.8 120.86 C362.18 122.87, 186.92 122.75, 30.21 120.86 M30.21 120.86 C9.95 119.63, -1.27 109.84, 0 90.64 M30.21 120.86 C10.94 121.66, 2.03 111.39, 0 90.64 M0 90.64 C0.09 70.37, -0.53 50.84, 0 30.21 M0 90.64 C0.48 77.84, -0.7 64.4, 0 30.21 M0 30.21 C-0.54 9.21, 11.5 -0.03, 30.21 0 M0 30.21 C0.34 9.44, 8.59 1.81, 30.21 0" stroke="#000000" stroke-width="1" fill="none"></path></g><g transform="translate(547.9400392285605 737.1791568303499) rotate(0 251.51666259765625 35)"><text x="251.51666259765625" y="0" font-family="Virgil, Segoe UI Emoji" font-size="28px" fill="#1971c2" text-anchor="middle" style="white-space: pre;" direction="ltr" dominant-baseline="text-before-edge">sa.and_(PF, nomenc == Non sensible)</text><text x="251.51666259765625" y="35" font-family="Virgil, Segoe UI Emoji" font-size="28px" fill="#1971c2" text-anchor="middle" style="white-space: pre;" direction="ltr" dominant-baseline="text-before-edge">(PFDNS)</text></g><g stroke-linecap="round" transform="translate(214.18045037964862 970.0793803904858) rotate(0 272.1007572498167 60.42879533945518)"><path d="M30.21 0 C128.3 1.28, 224.71 2.58, 513.99 0 M30.21 0 C141.91 -1.58, 253.73 -0.85, 513.99 0 M513.99 0 C534.65 -0.86, 546.19 9.82, 544.2 30.21 M513.99 0 C535.04 0.51, 541.93 10.03, 544.2 30.21 M544.2 30.21 C544.2 50.56, 542.84 69.93, 544.2 90.64 M544.2 30.21 C543.2 49.88, 545.07 68.36, 544.2 90.64 M544.2 90.64 C543.09 109.29, 534.09 119.33, 513.99 120.86 M544.2 90.64 C544.95 108.54, 535.08 121.69, 513.99 120.86 M513.99 120.86 C409.02 121.15, 304.83 121.18, 30.21 120.86 M513.99 120.86 C358.09 122.16, 202.51 122.28, 30.21 120.86 M30.21 120.86 C9.94 119.55, 0.94 112.29, 0 90.64 M30.21 120.86 C8.85 122.72, 0.72 108.57, 0 90.64 M0 90.64 C0.05 68.67, -1.41 47.36, 0 30.21 M0 90.64 C0.03 74.79, 0.89 57.49, 0 30.21 M0 30.21 C-0.43 11.15, 8.38 -1.29, 30.21 0 M0 30.21 C-1.93 8.26, 9.48 -0.44, 30.21 0" stroke="#000000" stroke-width="1" fill="none"></path></g><g transform="translate(328.7312045777075 978.0081757299411) rotate(0 157.5500030517578 52.5)"><text x="157.5500030517578" y="0" font-family="Virgil, Segoe UI Emoji" font-size="28px" fill="#1971c2" text-anchor="middle" style="white-space: pre;" direction="ltr" dominant-baseline="text-before-edge">sa.or_(PP, PFDNS)</text><text x="157.5500030517578" y="35" font-family="Virgil, Segoe UI Emoji" font-size="28px" fill="#1971c2" text-anchor="middle" style="white-space: pre;" direction="ltr" dominant-baseline="text-before-edge">Filtre données précises</text><text x="157.5500030517578" y="70" font-family="Virgil, Segoe UI Emoji" font-size="28px" fill="#1971c2" text-anchor="middle" style="white-space: pre;" direction="ltr" dominant-baseline="text-before-edge">(DP)</text></g><g stroke-linecap="round" transform="translate(1117.6141941546734 711.7503614908944) rotate(0 284.9971559800984 60.42879533945518)"><path d="M30.21 0 C192.18 -0.13, 353.94 0.74, 539.78 0 M30.21 0 C167.06 -1.3, 303.72 -1.51, 539.78 0 M539.78 0 C558.01 0.55, 569.65 9.72, 569.99 30.21 M539.78 0 C559.3 1.05, 567.95 9.14, 569.99 30.21 M569.99 30.21 C568.63 52.44, 571.37 77.23, 569.99 90.64 M569.99 30.21 C570.56 52.13, 569.19 75.81, 569.99 90.64 M569.99 90.64 C569.63 110.04, 559.87 122.72, 539.78 120.86 M569.99 90.64 C568.37 112.14, 558.06 119.74, 539.78 120.86 M539.78 120.86 C350.16 119.52, 161.07 118.99, 30.21 120.86 M539.78 120.86 C380.3 123.02, 220.91 122.84, 30.21 120.86 M30.21 120.86 C9.98 119.04, -0.94 111.91, 0 90.64 M30.21 120.86 C9.22 122.08, -2.1 109.63, 0 90.64 M0 90.64 C0.72 67.01, -1.76 48.64, 0 30.21 M0 90.64 C-1.27 77.58, -0.01 64.58, 0 30.21 M0 30.21 C1.07 11.34, 8.53 0.87, 30.21 0 M0 30.21 C1.31 9.57, 10.59 -0.35, 30.21 0" stroke="#000000" stroke-width="1" fill="none"></path></g><g transform="translate(1155.5946875371155 737.1791568303497) rotate(0 247.0166625976563 35)"><text x="247.01666259765625" y="0" font-family="Virgil, Segoe UI Emoji" font-size="28px" fill="#1971c2" text-anchor="middle" style="white-space: pre;" direction="ltr" dominant-baseline="text-before-edge">sa.and_(PF, nomenc != Non sensible)</text><text x="247.01666259765625" y="35" font-family="Virgil, Segoe UI Emoji" font-size="28px" fill="#1971c2" text-anchor="middle" style="white-space: pre;" direction="ltr" dominant-baseline="text-before-edge">(PFDS)</text></g><g stroke-linecap="round"><g transform="translate(1140.1467958864323 550.2201979252482) rotate(0 -155.74881543493944 74.40230036700916)"><path d="M-0.56 0.31 C-52.52 25.02, -260.38 124.31, -312.01 148.89 M1.34 -0.57 C-50.79 24.3, -261.25 125.62, -313.23 150.48" stroke="#1971c2" stroke-width="1" fill="none"></path></g><g transform="translate(1140.1467958864323 550.2201979252482) rotate(0 -155.74881543493944 74.40230036700916)"><path d="M-292.26 129.03 C-297.42 133.99, -303.57 142.62, -313.23 150.48 M-292.26 129.03 C-296.5 132.9, -301.21 138.38, -313.23 150.48" stroke="#1971c2" stroke-width="1" fill="none"></path></g><g transform="translate(1140.1467958864323 550.2201979252482) rotate(0 -155.74881543493944 74.40230036700916)"><path d="M-283.38 147.53 C-291.08 147.34, -299.69 150.87, -313.23 150.48 M-283.38 147.53 C-289.43 147.5, -296.06 148.97, -313.23 150.48" stroke="#1971c2" stroke-width="1" fill="none"></path></g></g><mask></mask><g stroke-linecap="round"><g transform="translate(1142.1308572295525 548.236136582128) rotate(0 125.98789528813586 75.39433103856936)"><path d="M1.03 -1.08 C42.98 24.18, 209.59 126.22, 251.34 151.72 M0.12 0.96 C42.49 25.9, 211.98 125.22, 253.72 150.08" stroke="#1971c2" stroke-width="1" fill="none"></path></g><g transform="translate(1142.1308572295525 548.236136582128) rotate(0 125.98789528813586 75.39433103856936)"><path d="M224.22 144.59 C230.44 144.76, 241.8 146.56, 253.72 150.08 M224.22 144.59 C235.1 147.34, 246.84 148.97, 253.72 150.08" stroke="#1971c2" stroke-width="1" fill="none"></path></g><g transform="translate(1142.1308572295525 548.236136582128) rotate(0 125.98789528813586 75.39433103856936)"><path d="M234.65 126.92 C238.05 131.98, 246.58 138.58, 253.72 150.08 M234.65 126.92 C241.29 136.61, 248.94 145.17, 253.72 150.08" stroke="#1971c2" stroke-width="1" fill="none"></path></g></g><mask></mask><g stroke-linecap="round" transform="translate(376.5162185647548 1251.6709583439679) rotate(0 338.566812244345 60.42879533945518)"><path d="M30.21 0 C243.85 -0.02, 456.77 -0.31, 646.92 0 M30.21 0 C210.59 -1.18, 390.75 -0.78, 646.92 0 M646.92 0 C668.75 -1.44, 676.69 9.93, 677.13 30.21 M646.92 0 C664.94 0.15, 678.3 10.01, 677.13 30.21 M677.13 30.21 C675.02 46.84, 676.36 65.97, 677.13 90.64 M677.13 30.21 C677.94 44.33, 677.24 59.44, 677.13 90.64 M677.13 90.64 C676.2 110.47, 666.6 120.58, 646.92 120.86 M677.13 90.64 C677.06 109.39, 664.97 122.58, 646.92 120.86 M646.92 120.86 C483.59 122.84, 319.83 122.77, 30.21 120.86 M646.92 120.86 C424.4 123.59, 202.12 123.34, 30.21 120.86 M30.21 120.86 C11.3 118.98, -0.74 109.11, 0 90.64 M30.21 120.86 C12.32 118.78, -0.17 109.89, 0 90.64 M0 90.64 C-1.41 76.01, 0.18 60.67, 0 30.21 M0 90.64 C0.06 67.24, 0.86 43.8, 0 30.21 M0 30.21 C-0.76 10.55, 11.29 -0.47, 30.21 0 M0 30.21 C0.26 8.28, 9.6 -1.87, 30.21 0" stroke="#000000" stroke-width="1" fill="none"></path></g><g transform="translate(598.374694932635 1294.599753683423) rotate(0 116.70833587646484 17.5)"><text x="116.70833587646484" y="0" font-family="Virgil, Segoe UI Emoji" font-size="28px" fill="#1971c2" text-anchor="middle" style="white-space: pre;" direction="ltr" dominant-baseline="text-before-edge">DP UNION PFDS</text></g><g stroke-linecap="round"><g transform="translate(348.5063199814533 548.2361365821275) rotate(0 32.73701216148402 204.3583183413856)"><path d="M-0.05 0.8 C10.72 68.78, 54.37 340.34, 65.27 408.16 M-1.53 0.17 C9.01 68.29, 53.21 341.34, 64.21 409.4" stroke="#1971c2" stroke-width="1" fill="none"></path></g><g transform="translate(348.5063199814533 548.2361365821275) rotate(0 32.73701216148402 204.3583183413856)"><path d="M49.58 383.21 C56.11 392.08, 59 401.38, 64.21 409.4 M49.58 383.21 C51.98 388.13, 56.5 394.44, 64.21 409.4" stroke="#1971c2" stroke-width="1" fill="none"></path></g><g transform="translate(348.5063199814533 548.2361365821275) rotate(0 32.73701216148402 204.3583183413856)"><path d="M69.84 379.93 C69.25 389.95, 65.01 400.4, 64.21 409.4 M69.84 379.93 C67.87 385.43, 68 392.45, 64.21 409.4" stroke="#1971c2" stroke-width="1" fill="none"></path></g></g><mask></mask><g stroke-linecap="round"><g transform="translate(792.9360608403888 831.956908648323) rotate(0 -133.92414066061673 66.46605499452846)"><path d="M0.24 -1.07 C-44.61 21.35, -224.02 111.08, -268.7 133.41 M-1.09 0.99 C-45.6 23.13, -221.84 109.33, -266.43 131.53" stroke="#1971c2" stroke-width="1" fill="none"></path></g><g transform="translate(792.9360608403888 831.956908648323) rotate(0 -133.92414066061673 66.46605499452846)"><path d="M-245.68 109.86 C-254.55 115.69, -258.87 124.32, -266.43 131.53 M-245.68 109.86 C-252.15 116.61, -257.87 122.25, -266.43 131.53" stroke="#1971c2" stroke-width="1" fill="none"></path></g><g transform="translate(792.9360608403888 831.956908648323) rotate(0 -133.92414066061673 66.46605499452846)"><path d="M-236.61 128.27 C-248.32 128, -255.66 130.52, -266.43 131.53 M-236.61 128.27 C-245.82 129.57, -254.24 129.73, -266.43 131.53" stroke="#1971c2" stroke-width="1" fill="none"></path></g></g><mask></mask><g stroke-linecap="round"><g transform="translate(1425.851629295748 831.956908648323) rotate(0 -322.40996825704025 206.3423796845059)"><path d="M1.16 -0.96 C-106.37 67.8, -536.39 343.39, -644.24 412.37 M0.31 1.14 C-107.41 70.1, -537.56 344.87, -644.88 413.74" stroke="#1971c2" stroke-width="1" fill="none"></path></g><g transform="translate(1425.851629295748 831.956908648323) rotate(0 -322.40996825704025 206.3423796845059)"><path d="M-626.67 389.9 C-635.24 400.11, -641.09 406.31, -644.88 413.74 M-626.67 389.9 C-632.33 398.23, -637.36 404.83, -644.88 413.74" stroke="#1971c2" stroke-width="1" fill="none"></path></g><g transform="translate(1425.851629295748 831.956908648323) rotate(0 -322.40996825704025 206.3423796845059)"><path d="M-615.61 407.18 C-628.36 410.93, -638.41 410.56, -644.88 413.74 M-615.61 407.18 C-624.85 409.93, -633.43 411, -644.88 413.74" stroke="#1971c2" stroke-width="1" fill="none"></path></g></g><mask></mask><g stroke-linecap="round"><g transform="translate(491.3587366861111 1093.8530059401958) rotate(0 100.19509782757257 75.39433103856936)"><path d="M0.44 -0.33 C33.72 25.02, 166.62 126.37, 199.88 151.47 M-0.79 -1.55 C32.27 23.51, 165.36 124.23, 198.67 149.71" stroke="#1971c2" stroke-width="1" fill="none"></path></g><g transform="translate(491.3587366861111 1093.8530059401958) rotate(0 100.19509782757257 75.39433103856936)"><path d="M170.02 140.82 C178.53 142.69, 189.34 145.77, 198.67 149.71 M170.02 140.82 C177.28 143.09, 184.54 145.06, 198.67 149.71" stroke="#1971c2" stroke-width="1" fill="none"></path></g><g transform="translate(491.3587366861111 1093.8530059401958) rotate(0 100.19509782757257 75.39433103856936)"><path d="M182.44 124.48 C186.92 131.6, 193.77 139.88, 198.67 149.71 M182.44 124.48 C186.6 130.84, 190.66 137.01, 198.67 149.71" stroke="#1971c2" stroke-width="1" fill="none"></path></g></g><mask></mask><g transform="translate(1027.8229246458236 1093.853005940196) rotate(0 138.11666870117188 17.5)"><text x="138.11666870117188" y="0" font-family="Virgil, Segoe UI Emoji" font-size="28px" fill="#1e1e1e" text-anchor="middle" style="white-space: pre;" direction="ltr" dominant-baseline="text-before-edge">Select geom floutée</text></g><g transform="translate(304.07242087596603 1147.4226622044425) rotate(0 133.71665954589844 17.5)"><text x="133.71665954589844" y="0" font-family="Virgil, Segoe UI Emoji" font-size="28px" fill="#1e1e1e" text-anchor="middle" style="white-space: pre;" direction="ltr" dominant-baseline="text-before-edge">select geom précise</text></g></svg>