<?xml version="1.0" encoding="UTF-8" standalone="no"?>
<!DOCTYPE svg PUBLIC "-//W3C//DTD SVG 1.1//EN"
 "http://www.w3.org/Graphics/SVG/1.1/DTD/svg11.dtd">
<!-- Generated by graphviz version 2.44.1 (20200629.0846)
 -->
<!-- Title: dependencies Pages: 1 -->
<svg width="1161pt" height="211pt"
 viewBox="0.00 0.00 1161.00 211.00" xmlns="http://www.w3.org/2000/svg" xmlns:xlink="http://www.w3.org/1999/xlink">
<g id="graph0" class="graph" transform="scale(1 1) rotate(0) translate(4 207)">
<title>dependencies</title>
<polygon fill="white" stroke="transparent" points="-4,4 -4,-207 1157,-207 1157,4 -4,4"/>
<text text-anchor="start" x="555.51" y="-42.4" font-family="sans-serif" font-weight="bold" font-size="14.00">Legend</text>
<polygon fill="#ffffb3" stroke="transparent" points="342.5,-10 342.5,-30 362.5,-30 362.5,-10 342.5,-10"/>
<text text-anchor="start" x="366.13" y="-15.4" font-family="sans-serif" font-size="14.00"> &#160;Declarations</text>
<polygon fill="#8dd3c7" stroke="transparent" points="455.5,-10 455.5,-30 475.5,-30 475.5,-10 455.5,-10"/>
<text text-anchor="start" x="479.23" y="-15.4" font-family="sans-serif" font-size="14.00"> &#160;Module</text>
<polygon fill="#80b1d3" stroke="transparent" points="541.5,-10 541.5,-30 561.5,-30 561.5,-10 541.5,-10"/>
<text text-anchor="start" x="565.28" y="-15.4" font-family="sans-serif" font-size="14.00"> &#160;Bootstrap</text>
<polygon fill="#fdb462" stroke="transparent" points="638.5,-10 638.5,-30 658.5,-30 658.5,-10 638.5,-10"/>
<text text-anchor="start" x="662.17" y="-15.4" font-family="sans-serif" font-size="14.00"> &#160;Providers</text>
<polygon fill="#fb8072" stroke="transparent" points="734.5,-10 734.5,-30 754.5,-30 754.5,-10 734.5,-10"/>
<text text-anchor="start" x="758.23" y="-15.4" font-family="sans-serif" font-size="14.00"> &#160;Exports</text>
<g id="clust1" class="cluster">
<title>cluster_UserModule</title>
<polygon fill="none" stroke="black" stroke-dasharray="1,5" points="8,-70 8,-195 1145,-195 1145,-70 8,-70"/>
</g>
<g id="clust8" class="cluster">
<title>cluster_UserModule_providers</title>
<polygon fill="none" stroke="black" points="792,-78 792,-130 1137,-130 1137,-78 792,-78"/>
</g>
<g id="clust2" class="cluster">
<title>cluster_UserModule_declarations</title>
<polygon fill="none" stroke="black" points="508,-78 508,-130 784,-130 784,-78 508,-78"/>
</g>
<g id="clust5" class="cluster">
<title>cluster_UserModule_imports</title>
<polygon fill="none" stroke="black" points="16,-78 16,-130 500,-130 500,-78 16,-78"/>
</g>
<!-- UserComponent -->
<g id="node1" class="node">
<title>UserComponent</title>
<polygon fill="#ffffb3" stroke="black" points="775.76,-122 668.24,-122 668.24,-86 775.76,-86 775.76,-122"/>
<text text-anchor="middle" x="722" y="-99.8" font-family="Times,serif" font-size="14.00">UserComponent</text>
</g>
<!-- UserModule -->
<g id="node3" class="node">
<title>UserModule</title>
<polygon fill="#8dd3c7" stroke="black" points="625.98,-187 622.98,-191 601.98,-191 598.98,-187 540.02,-187 540.02,-151 625.98,-151 625.98,-187"/>
<text text-anchor="middle" x="583" y="-164.8" font-family="Times,serif" font-size="14.00">UserModule</text>
</g>
<!-- UserComponent&#45;&gt;UserModule -->
<g id="edge1" class="edge">
<title>UserComponent&#45;&gt;UserModule</title>
<path fill="none" stroke="black" d="M722,-122.03C722,-138.4 722,-160 722,-160 722,-160 636.22,-160 636.22,-160"/>
<polygon fill="black" stroke="black" points="636.22,-156.5 626.22,-160 636.22,-163.5 636.22,-156.5"/>
</g>
<!-- PasswordComponent -->
<g id="node2" class="node">
<title>PasswordComponent</title>
<polygon fill="#ffffb3" stroke="black" points="650.49,-122 515.51,-122 515.51,-86 650.49,-86 650.49,-122"/>
<text text-anchor="middle" x="583" y="-99.8" font-family="Times,serif" font-size="14.00">PasswordComponent</text>
</g>
<!-- PasswordComponent&#45;&gt;UserModule -->
<g id="edge2" class="edge">
<title>PasswordComponent&#45;&gt;UserModule</title>
<path fill="none" stroke="black" d="M583,-122.11C583,-122.11 583,-140.99 583,-140.99"/>
<polygon fill="black" stroke="black" points="579.5,-140.99 583,-150.99 586.5,-140.99 579.5,-140.99"/>
</g>
<!-- RouterModule.forChild(args) -->
<g id="node4" class="node">
<title>RouterModule.forChild(args)</title>
<polygon fill="#8dd3c7" stroke="black" points="491.73,-122 488.73,-126 467.73,-126 464.73,-122 310.27,-122 310.27,-86 491.73,-86 491.73,-122"/>
<text text-anchor="middle" x="401" y="-99.8" font-family="Times,serif" font-size="14.00">RouterModule.forChild(args)</text>
</g>
<!-- RouterModule.forChild(args)&#45;&gt;UserModule -->
<g id="edge3" class="edge">
<title>RouterModule.forChild(args)&#45;&gt;UserModule</title>
<path fill="none" stroke="black" d="M401,-122.03C401,-138.4 401,-160 401,-160 401,-160 529.87,-160 529.87,-160"/>
<polygon fill="black" stroke="black" points="529.87,-163.5 539.87,-160 529.87,-156.5 529.87,-163.5"/>
</g>
<!-- GN2CommonModule -->
<g id="node5" class="node">
<title>GN2CommonModule</title>
<polygon fill="#8dd3c7" stroke="black" points="292.38,-122 289.38,-126 268.38,-126 265.38,-122 153.62,-122 153.62,-86 292.38,-86 292.38,-122"/>
<text text-anchor="middle" x="223" y="-99.8" font-family="Times,serif" font-size="14.00">GN2CommonModule</text>
</g>
<!-- GN2CommonModule&#45;&gt;UserModule -->
<g id="edge4" class="edge">
<title>GN2CommonModule&#45;&gt;UserModule</title>
<path fill="none" stroke="black" d="M223,-122.11C223,-141.34 223,-169 223,-169 223,-169 529.93,-169 529.93,-169"/>
<polygon fill="black" stroke="black" points="529.93,-172.5 539.93,-169 529.93,-165.5 529.93,-172.5"/>
</g>
<!-- CommonModule -->
<g id="node6" class="node">
<title>CommonModule</title>
<polygon fill="#8dd3c7" stroke="black" points="135.67,-122 132.67,-126 111.67,-126 108.67,-122 24.33,-122 24.33,-86 135.67,-86 135.67,-122"/>
<text text-anchor="middle" x="80" y="-99.8" font-family="Times,serif" font-size="14.00">CommonModule</text>
</g>
<!-- CommonModule&#45;&gt;UserModule -->
<g id="edge5" class="edge">
<title>CommonModule&#45;&gt;UserModule</title>
<path fill="none" stroke="black" d="M80,-122.29C80,-144.21 80,-178 80,-178 80,-178 529.68,-178 529.68,-178"/>
<polygon fill="black" stroke="black" points="529.68,-181.5 539.68,-178 529.68,-174.5 529.68,-181.5"/>
</g>
<!-- UserDataService -->
<g id="node7" class="node">
<title>UserDataService</title>
<ellipse fill="#fdb462" stroke="black" cx="1053" cy="-104" rx="76.4" ry="18"/>
<text text-anchor="middle" x="1053" y="-99.8" font-family="Times,serif" font-size="14.00">UserDataService</text>
</g>
<!-- UserDataService&#45;&gt;UserModule -->
<g id="edge6" class="edge">
<title>UserDataService&#45;&gt;UserModule</title>
<path fill="none" stroke="black" d="M1053,-122.29C1053,-144.21 1053,-178 1053,-178 1053,-178 636.37,-178 636.37,-178"/>
<polygon fill="black" stroke="black" points="636.37,-174.5 626.37,-178 636.37,-181.5 636.37,-174.5"/>
</g>
<!-- RoleFormService -->
<g id="node8" class="node">
<title>RoleFormService</title>
<ellipse fill="#fdb462" stroke="black" cx="879" cy="-104" rx="79.31" ry="18"/>
<text text-anchor="middle" x="879" y="-99.8" font-family="Times,serif" font-size="14.00">RoleFormService</text>
</g>
<!-- RoleFormService&#45;&gt;UserModule -->
<g id="edge7" class="edge">
<title>RoleFormService&#45;&gt;UserModule</title>
<path fill="none" stroke="black" d="M879,-122.11C879,-141.34 879,-169 879,-169 879,-169 636.04,-169 636.04,-169"/>
<polygon fill="black" stroke="black" points="636.04,-165.5 626.04,-169 636.04,-172.5 636.04,-165.5"/>
</g>
</g>
</svg>
