<?xml version="1.0" encoding="UTF-8" standalone="no"?>
<!DOCTYPE svg PUBLIC "-//W3C//DTD SVG 1.1//EN"
 "http://www.w3.org/Graphics/SVG/1.1/DTD/svg11.dtd">
<!-- Generated by graphviz version 2.46.0 (20210119.1425)
 -->
<!-- Title: dependencies Pages: 1 -->
<svg width="831pt" height="211pt"
 viewBox="0.00 0.00 831.00 211.00" xmlns="http://www.w3.org/2000/svg" xmlns:xlink="http://www.w3.org/1999/xlink">
<g id="graph0" class="graph" transform="scale(1 1) rotate(0) translate(4 207)">
<title>dependencies</title>
<polygon fill="white" stroke="transparent" points="-4,4 -4,-207 827,-207 827,4 -4,4"/>
<text text-anchor="start" x="390.51" y="-42.4" font-family="sans-serif" font-weight="bold" font-size="14.00">Legend</text>
<polygon fill="#ffffb3" stroke="transparent" points="177.5,-10 177.5,-30 197.5,-30 197.5,-10 177.5,-10"/>
<text text-anchor="start" x="201.13" y="-15.4" font-family="sans-serif" font-size="14.00"> &#160;Declarations</text>
<polygon fill="#8dd3c7" stroke="transparent" points="290.5,-10 290.5,-30 310.5,-30 310.5,-10 290.5,-10"/>
<text text-anchor="start" x="314.23" y="-15.4" font-family="sans-serif" font-size="14.00"> &#160;Module</text>
<polygon fill="#80b1d3" stroke="transparent" points="376.5,-10 376.5,-30 396.5,-30 396.5,-10 376.5,-10"/>
<text text-anchor="start" x="400.28" y="-15.4" font-family="sans-serif" font-size="14.00"> &#160;Bootstrap</text>
<polygon fill="#fdb462" stroke="transparent" points="473.5,-10 473.5,-30 493.5,-30 493.5,-10 473.5,-10"/>
<text text-anchor="start" x="497.17" y="-15.4" font-family="sans-serif" font-size="14.00"> &#160;Providers</text>
<polygon fill="#fb8072" stroke="transparent" points="569.5,-10 569.5,-30 589.5,-30 589.5,-10 569.5,-10"/>
<text text-anchor="start" x="593.23" y="-15.4" font-family="sans-serif" font-size="14.00"> &#160;Exports</text>
<g id="clust1" class="cluster">
<title>cluster_UserModule</title>
<polygon fill="none" stroke="black" stroke-dasharray="1,5" points="8,-70 8,-195 815,-195 815,-70 8,-70"/>
</g>
<g id="clust2" class="cluster">
<title>cluster_UserModule_declarations</title>
<polygon fill="none" stroke="black" points="531,-78 531,-130 807,-130 807,-78 531,-78"/>
</g>
<g id="clust5" class="cluster">
<title>cluster_UserModule_imports</title>
<polygon fill="none" stroke="black" points="369,-78 369,-130 523,-130 523,-78 369,-78"/>
</g>
<g id="clust8" class="cluster">
<title>cluster_UserModule_providers</title>
<polygon fill="none" stroke="black" points="16,-78 16,-130 361,-130 361,-78 16,-78"/>
</g>
<!-- PasswordComponent -->
<g id="node1" class="node">
<title>PasswordComponent</title>
<polygon fill="#ffffb3" stroke="black" points="799.49,-122 664.51,-122 664.51,-86 799.49,-86 799.49,-122"/>
<text text-anchor="middle" x="732" y="-99.8" font-family="Times,serif" font-size="14.00">PasswordComponent</text>
</g>
<!-- UserModule -->
<g id="node3" class="node">
<title>UserModule</title>
<polygon fill="#8dd3c7" stroke="black" points="488.98,-187 485.98,-191 464.98,-191 461.98,-187 403.02,-187 403.02,-151 488.98,-151 488.98,-187"/>
<text text-anchor="middle" x="446" y="-164.8" font-family="Times,serif" font-size="14.00">UserModule</text>
</g>
<!-- PasswordComponent&#45;&gt;UserModule -->
<g id="edge1" class="edge">
<title>PasswordComponent&#45;&gt;UserModule</title>
<path fill="none" stroke="black" d="M732,-122.28C732,-143.32 732,-175 732,-175 732,-175 499.13,-175 499.13,-175"/>
<polygon fill="black" stroke="black" points="499.13,-171.5 489.13,-175 499.13,-178.5 499.13,-171.5"/>
</g>
<!-- UserComponent -->
<g id="node2" class="node">
<title>UserComponent</title>
<polygon fill="#ffffb3" stroke="black" points="646.76,-122 539.24,-122 539.24,-86 646.76,-86 646.76,-122"/>
<text text-anchor="middle" x="593" y="-99.8" font-family="Times,serif" font-size="14.00">UserComponent</text>
</g>
<!-- UserComponent&#45;&gt;UserModule -->
<g id="edge2" class="edge">
<title>UserComponent&#45;&gt;UserModule</title>
<path fill="none" stroke="black" d="M593,-122.02C593,-139.37 593,-163 593,-163 593,-163 499.31,-163 499.31,-163"/>
<polygon fill="black" stroke="black" points="499.31,-159.5 489.31,-163 499.31,-166.5 499.31,-159.5"/>
</g>
<!-- GN2CommonModule -->
<g id="node4" class="node">
<title>GN2CommonModule</title>
<polygon fill="#8dd3c7" stroke="black" points="515.38,-122 512.38,-126 491.38,-126 488.38,-122 376.62,-122 376.62,-86 515.38,-86 515.38,-122"/>
<text text-anchor="middle" x="446" y="-99.8" font-family="Times,serif" font-size="14.00">GN2CommonModule</text>
</g>
<!-- GN2CommonModule&#45;&gt;UserModule -->
<g id="edge3" class="edge">
<title>GN2CommonModule&#45;&gt;UserModule</title>
<path fill="none" stroke="black" d="M446,-122.11C446,-122.11 446,-140.99 446,-140.99"/>
<polygon fill="black" stroke="black" points="442.5,-140.99 446,-150.99 449.5,-140.99 442.5,-140.99"/>
</g>
<!-- RoleFormService -->
<g id="node5" class="node">
<title>RoleFormService</title>
<ellipse fill="#fdb462" stroke="black" cx="274" cy="-104" rx="79.31" ry="18"/>
<text text-anchor="middle" x="274" y="-99.8" font-family="Times,serif" font-size="14.00">RoleFormService</text>
</g>
<!-- RoleFormService&#45;&gt;UserModule -->
<g id="edge4" class="edge">
<title>RoleFormService&#45;&gt;UserModule</title>
<path fill="none" stroke="black" d="M274,-122.02C274,-139.37 274,-163 274,-163 274,-163 392.6,-163 392.6,-163"/>
<polygon fill="black" stroke="black" points="392.6,-166.5 402.6,-163 392.6,-159.5 392.6,-166.5"/>
</g>
<!-- UserDataService -->
<g id="node6" class="node">
<title>UserDataService</title>
<ellipse fill="#fdb462" stroke="black" cx="100" cy="-104" rx="76.4" ry="18"/>
<text text-anchor="middle" x="100" y="-99.8" font-family="Times,serif" font-size="14.00">UserDataService</text>
</g>
<!-- UserDataService&#45;&gt;UserModule -->
<g id="edge5" class="edge">
<title>UserDataService&#45;&gt;UserModule</title>
<path fill="none" stroke="black" d="M100,-122.28C100,-143.32 100,-175 100,-175 100,-175 392.88,-175 392.88,-175"/>
<polygon fill="black" stroke="black" points="392.88,-178.5 402.88,-175 392.88,-171.5 392.88,-178.5"/>
</g>
</g>
</svg>
