<?xml version="1.0" encoding="UTF-8" standalone="no"?>
<!DOCTYPE svg PUBLIC "-//W3C//DTD SVG 1.1//EN"
 "http://www.w3.org/Graphics/SVG/1.1/DTD/svg11.dtd">
<!-- Generated by graphviz version 2.44.1 (20200629.0846)
 -->
<!-- Title: dependencies Pages: 1 -->
<svg width="1161pt" height="211pt"
 viewBox="0.00 0.00 1161.00 211.00" xmlns="http://www.w3.org/2000/svg" xmlns:xlink="http://www.w3.org/1999/xlink">
<g id="graph0" class="graph" transform="scale(1 1) rotate(0) translate(4 207)">
<title>dependencies</title>
<polygon fill="white" stroke="transparent" points="-4,4 -4,-207 1157,-207 1157,4 -4,4"/>
<text text-anchor="start" x="555.51" y="-42.4" font-family="sans-serif" font-weight="bold" font-size="14.00">Legend</text>
<polygon fill="#ffffb3" stroke="transparent" points="342.5,-10 342.5,-30 362.5,-30 362.5,-10 342.5,-10"/>
<text text-anchor="start" x="366.13" y="-15.4" font-family="sans-serif" font-size="14.00"> &#160;Declarations</text>
<polygon fill="#8dd3c7" stroke="transparent" points="455.5,-10 455.5,-30 475.5,-30 475.5,-10 455.5,-10"/>
<text text-anchor="start" x="479.23" y="-15.4" font-family="sans-serif" font-size="14.00"> &#160;Module</text>
<polygon fill="#80b1d3" stroke="transparent" points="541.5,-10 541.5,-30 561.5,-30 561.5,-10 541.5,-10"/>
<text text-anchor="start" x="565.28" y="-15.4" font-family="sans-serif" font-size="14.00"> &#160;Bootstrap</text>
<polygon fill="#fdb462" stroke="transparent" points="638.5,-10 638.5,-30 658.5,-30 658.5,-10 638.5,-10"/>
<text text-anchor="start" x="662.17" y="-15.4" font-family="sans-serif" font-size="14.00"> &#160;Providers</text>
<polygon fill="#fb8072" stroke="transparent" points="734.5,-10 734.5,-30 754.5,-30 754.5,-10 734.5,-10"/>
<text text-anchor="start" x="758.23" y="-15.4" font-family="sans-serif" font-size="14.00"> &#160;Exports</text>
<g id="clust1" class="cluster">
<title>cluster_UserModule</title>
<polygon fill="none" stroke="black" stroke-dasharray="1,5" points="8,-70 8,-195 1145,-195 1145,-70 8,-70"/>
</g>
<g id="clust5" class="cluster">
<title>cluster_UserModule_imports</title>
<polygon fill="none" stroke="black" points="653,-78 653,-130 1137,-130 1137,-78 653,-78"/>
</g>
<g id="clust8" class="cluster">
<title>cluster_UserModule_providers</title>
<polygon fill="none" stroke="black" points="300,-78 300,-130 645,-130 645,-78 300,-78"/>
</g>
<g id="clust2" class="cluster">
<title>cluster_UserModule_declarations</title>
<polygon fill="none" stroke="black" points="16,-78 16,-130 292,-130 292,-78 16,-78"/>
</g>
<!-- UserComponent -->
<g id="node1" class="node">
<title>UserComponent</title>
<polygon fill="#ffffb3" stroke="black" points="283.76,-122 176.24,-122 176.24,-86 283.76,-86 283.76,-122"/>
<text text-anchor="middle" x="230" y="-99.8" font-family="Times,serif" font-size="14.00">UserComponent</text>
</g>
<!-- UserModule -->
<g id="node3" class="node">
<title>UserModule</title>
<polygon fill="#8dd3c7" stroke="black" points="603.98,-187 600.98,-191 579.98,-191 576.98,-187 518.02,-187 518.02,-151 603.98,-151 603.98,-187"/>
<text text-anchor="middle" x="561" y="-164.8" font-family="Times,serif" font-size="14.00">UserModule</text>
</g>
<!-- UserComponent&#45;&gt;UserModule -->
<g id="edge1" class="edge">
<title>UserComponent&#45;&gt;UserModule</title>
<path fill="none" stroke="black" d="M230,-122.11C230,-141.34 230,-169 230,-169 230,-169 507.73,-169 507.73,-169"/>
<polygon fill="black" stroke="black" points="507.73,-172.5 517.73,-169 507.73,-165.5 507.73,-172.5"/>
</g>
<!-- PasswordComponent -->
<g id="node2" class="node">
<title>PasswordComponent</title>
<polygon fill="#ffffb3" stroke="black" points="158.49,-122 23.51,-122 23.51,-86 158.49,-86 158.49,-122"/>
<text text-anchor="middle" x="91" y="-99.8" font-family="Times,serif" font-size="14.00">PasswordComponent</text>
</g>
<!-- PasswordComponent&#45;&gt;UserModule -->
<g id="edge2" class="edge">
<title>PasswordComponent&#45;&gt;UserModule</title>
<path fill="none" stroke="black" d="M91,-122.29C91,-144.21 91,-178 91,-178 91,-178 507.63,-178 507.63,-178"/>
<polygon fill="black" stroke="black" points="507.63,-181.5 517.63,-178 507.63,-174.5 507.63,-181.5"/>
</g>
<!-- RouterModule.forChild(args) -->
<g id="node4" class="node">
<title>RouterModule.forChild(args)</title>
<polygon fill="#8dd3c7" stroke="black" points="1128.73,-122 1125.73,-126 1104.73,-126 1101.73,-122 947.27,-122 947.27,-86 1128.73,-86 1128.73,-122"/>
<text text-anchor="middle" x="1038" y="-99.8" font-family="Times,serif" font-size="14.00">RouterModule.forChild(args)</text>
</g>
<!-- RouterModule.forChild(args)&#45;&gt;UserModule -->
<g id="edge3" class="edge">
<title>RouterModule.forChild(args)&#45;&gt;UserModule</title>
<path fill="none" stroke="black" d="M1038,-122.29C1038,-144.21 1038,-178 1038,-178 1038,-178 614.17,-178 614.17,-178"/>
<polygon fill="black" stroke="black" points="614.17,-174.5 604.17,-178 614.17,-181.5 614.17,-174.5"/>
</g>
<!-- GN2CommonModule -->
<g id="node5" class="node">
<title>GN2CommonModule</title>
<polygon fill="#8dd3c7" stroke="black" points="929.38,-122 926.38,-126 905.38,-126 902.38,-122 790.62,-122 790.62,-86 929.38,-86 929.38,-122"/>
<text text-anchor="middle" x="860" y="-99.8" font-family="Times,serif" font-size="14.00">GN2CommonModule</text>
</g>
<!-- GN2CommonModule&#45;&gt;UserModule -->
<g id="edge4" class="edge">
<title>GN2CommonModule&#45;&gt;UserModule</title>
<path fill="none" stroke="black" d="M860,-122.11C860,-141.34 860,-169 860,-169 860,-169 614.16,-169 614.16,-169"/>
<polygon fill="black" stroke="black" points="614.16,-165.5 604.16,-169 614.16,-172.5 614.16,-165.5"/>
</g>
<!-- CommonModule -->
<g id="node6" class="node">
<title>CommonModule</title>
<polygon fill="#8dd3c7" stroke="black" points="772.67,-122 769.67,-126 748.67,-126 745.67,-122 661.33,-122 661.33,-86 772.67,-86 772.67,-122"/>
<text text-anchor="middle" x="717" y="-99.8" font-family="Times,serif" font-size="14.00">CommonModule</text>
</g>
<!-- CommonModule&#45;&gt;UserModule -->
<g id="edge5" class="edge">
<title>CommonModule&#45;&gt;UserModule</title>
<path fill="none" stroke="black" d="M717,-122.03C717,-138.4 717,-160 717,-160 717,-160 614.04,-160 614.04,-160"/>
<polygon fill="black" stroke="black" points="614.04,-156.5 604.04,-160 614.04,-163.5 614.04,-156.5"/>
</g>
<!-- UserDataService -->
<g id="node7" class="node">
<title>UserDataService</title>
<ellipse fill="#fdb462" stroke="black" cx="561" cy="-104" rx="76.4" ry="18"/>
<text text-anchor="middle" x="561" y="-99.8" font-family="Times,serif" font-size="14.00">UserDataService</text>
</g>
<!-- UserDataService&#45;&gt;UserModule -->
<g id="edge6" class="edge">
<title>UserDataService&#45;&gt;UserModule</title>
<path fill="none" stroke="black" d="M561,-122.11C561,-122.11 561,-140.99 561,-140.99"/>
<polygon fill="black" stroke="black" points="557.5,-140.99 561,-150.99 564.5,-140.99 557.5,-140.99"/>
</g>
<!-- RoleFormService -->
<g id="node8" class="node">
<title>RoleFormService</title>
<ellipse fill="#fdb462" stroke="black" cx="387" cy="-104" rx="79.31" ry="18"/>
<text text-anchor="middle" x="387" y="-99.8" font-family="Times,serif" font-size="14.00">RoleFormService</text>
</g>
<!-- RoleFormService&#45;&gt;UserModule -->
<g id="edge7" class="edge">
<title>RoleFormService&#45;&gt;UserModule</title>
<path fill="none" stroke="black" d="M387,-122.03C387,-138.4 387,-160 387,-160 387,-160 507.99,-160 507.99,-160"/>
<polygon fill="black" stroke="black" points="507.99,-163.5 517.99,-160 507.99,-156.5 507.99,-163.5"/>
</g>
</g>
</svg>
