<?xml version="1.0" encoding="UTF-8" standalone="no"?>
<!DOCTYPE svg PUBLIC "-//W3C//DTD SVG 1.1//EN"
 "http://www.w3.org/Graphics/SVG/1.1/DTD/svg11.dtd">
<!-- Generated by graphviz version 2.40.1 (20161225.0304)
 -->
<!-- Title: dependencies Pages: 1 -->
<svg width="504pt" height="284pt"
 viewBox="0.00 0.00 504.00 284.00" xmlns="http://www.w3.org/2000/svg" xmlns:xlink="http://www.w3.org/1999/xlink">
<g id="graph0" class="graph" transform="scale(1 1) rotate(0) translate(4 280)">
<title>dependencies</title>
<polygon fill="#ffffff" stroke="transparent" points="-4,4 -4,-280 500,-280 500,4 -4,4"/>
<text text-anchor="start" x="227.0091" y="-42.4" font-family="sans-serif" font-weight="bold" font-size="14.00" fill="#000000">Legend</text>
<polygon fill="#ffffb3" stroke="transparent" points="14,-10 14,-30 34,-30 34,-10 14,-10"/>
<text text-anchor="start" x="37.629" y="-15.4" font-family="sans-serif" font-size="14.00" fill="#000000"> &#160;Declarations</text>
<polygon fill="#8dd3c7" stroke="transparent" points="127,-10 127,-30 147,-30 147,-10 127,-10"/>
<text text-anchor="start" x="150.7251" y="-15.4" font-family="sans-serif" font-size="14.00" fill="#000000"> &#160;Module</text>
<polygon fill="#80b1d3" stroke="transparent" points="213,-10 213,-30 233,-30 233,-10 213,-10"/>
<text text-anchor="start" x="236.7812" y="-15.4" font-family="sans-serif" font-size="14.00" fill="#000000"> &#160;Bootstrap</text>
<polygon fill="#fdb462" stroke="transparent" points="310,-10 310,-30 330,-30 330,-10 310,-10"/>
<text text-anchor="start" x="333.6732" y="-15.4" font-family="sans-serif" font-size="14.00" fill="#000000"> &#160;Providers</text>
<polygon fill="#fb8072" stroke="transparent" points="406,-10 406,-30 426,-30 426,-10 406,-10"/>
<text text-anchor="start" x="429.7258" y="-15.4" font-family="sans-serif" font-size="14.00" fill="#000000"> &#160;Exports</text>
<g id="clust1" class="cluster">
<title>cluster_SharedSyntheseModule</title>
<polygon fill="none" stroke="#000000" stroke-dasharray="1,5" points="62,-70 62,-268 434,-268 434,-70 62,-70"/>
</g>
<g id="clust2" class="cluster">
<title>cluster_SharedSyntheseModule_declarations</title>
<polygon fill="none" stroke="#000000" points="232,-78 232,-130 426,-130 426,-78 232,-78"/>
</g>
<g id="clust4" class="cluster">
<title>cluster_SharedSyntheseModule_imports</title>
<polygon fill="none" stroke="#000000" points="70,-78 70,-130 224,-130 224,-78 70,-78"/>
</g>
<g id="clust5" class="cluster">
<title>cluster_SharedSyntheseModule_exports</title>
<polygon fill="none" stroke="#000000" points="149,-208 149,-260 347,-260 347,-208 149,-208"/>
</g>
<!-- SyntheseInfoObsComponent -->
<g id="node1" class="node">
<title>SyntheseInfoObsComponent</title>
<polygon fill="#ffffb3" stroke="#000000" points="417.752,-122 240.248,-122 240.248,-86 417.752,-86 417.752,-122"/>
<text text-anchor="middle" x="329" y="-99.8" font-family="Times,serif" font-size="14.00" fill="#000000">SyntheseInfoObsComponent</text>
</g>
<!-- SharedSyntheseModule -->
<g id="node2" class="node">
<title>SharedSyntheseModule</title>
<polygon fill="#8dd3c7" stroke="#000000" points="322.4692,-187 319.4692,-191 298.4692,-191 295.4692,-187 173.5308,-187 173.5308,-151 322.4692,-151 322.4692,-187"/>
<text text-anchor="middle" x="248" y="-164.8" font-family="Times,serif" font-size="14.00" fill="#000000">SharedSyntheseModule</text>
</g>
<!-- SyntheseInfoObsComponent&#45;&gt;SharedSyntheseModule -->
<g id="edge1" class="edge">
<title>SyntheseInfoObsComponent&#45;&gt;SharedSyntheseModule</title>
<path fill="none" stroke="#000000" d="M281.3044,-122.1061C281.3044,-122.1061 281.3044,-140.991 281.3044,-140.991"/>
<polygon fill="#000000" stroke="#000000" points="277.8044,-140.9909 281.3044,-150.991 284.8044,-140.991 277.8044,-140.9909"/>
</g>
<!-- SyntheseInfoObsComponent  -->
<g id="node4" class="node">
<title>SyntheseInfoObsComponent </title>
<polygon fill="#fb8072" stroke="#000000" points="338.752,-252 157.248,-252 157.248,-216 338.752,-216 338.752,-252"/>
<text text-anchor="middle" x="248" y="-229.8" font-family="Times,serif" font-size="14.00" fill="#000000">SyntheseInfoObsComponent </text>
</g>
<!-- SharedSyntheseModule&#45;&gt;SyntheseInfoObsComponent  -->
<g id="edge3" class="edge">
<title>SharedSyntheseModule&#45;&gt;SyntheseInfoObsComponent </title>
<path fill="none" stroke="#000000" stroke-dasharray="5,2" d="M248,-187.1061C248,-187.1061 248,-205.991 248,-205.991"/>
<polygon fill="#000000" stroke="#000000" points="244.5001,-205.9909 248,-215.991 251.5001,-205.991 244.5001,-205.9909"/>
</g>
<!-- GN2CommonModule -->
<g id="node3" class="node">
<title>GN2CommonModule</title>
<polygon fill="#8dd3c7" stroke="#000000" points="216.3809,-122 213.3809,-126 192.3809,-126 189.3809,-122 77.6191,-122 77.6191,-86 216.3809,-86 216.3809,-122"/>
<text text-anchor="middle" x="147" y="-99.8" font-family="Times,serif" font-size="14.00" fill="#000000">GN2CommonModule</text>
</g>
<!-- GN2CommonModule&#45;&gt;SharedSyntheseModule -->
<g id="edge2" class="edge">
<title>GN2CommonModule&#45;&gt;SharedSyntheseModule</title>
<path fill="none" stroke="#000000" d="M194.9779,-122.1061C194.9779,-122.1061 194.9779,-140.991 194.9779,-140.991"/>
<polygon fill="#000000" stroke="#000000" points="191.478,-140.9909 194.9779,-150.991 198.478,-140.991 191.478,-140.9909"/>
</g>
</g>
</svg>
