<?xml version="1.0" encoding="UTF-8" standalone="no"?>
<!DOCTYPE svg PUBLIC "-//W3C//DTD SVG 1.1//EN"
 "http://www.w3.org/Graphics/SVG/1.1/DTD/svg11.dtd">
<!-- Generated by graphviz version 2.44.1 (20200629.0846)
 -->
<!-- Title: dependencies Pages: 1 -->
<svg width="526pt" height="284pt"
 viewBox="0.00 0.00 526.00 284.00" xmlns="http://www.w3.org/2000/svg" xmlns:xlink="http://www.w3.org/1999/xlink">
<g id="graph0" class="graph" transform="scale(1 1) rotate(0) translate(4 280)">
<title>dependencies</title>
<polygon fill="white" stroke="transparent" points="-4,4 -4,-280 522,-280 522,4 -4,4"/>
<text text-anchor="start" x="238.01" y="-42.4" font-family="sans-serif" font-weight="bold" font-size="14.00">Legend</text>
<polygon fill="#ffffb3" stroke="transparent" points="25,-10 25,-30 45,-30 45,-10 25,-10"/>
<text text-anchor="start" x="48.63" y="-15.4" font-family="sans-serif" font-size="14.00"> &#160;Declarations</text>
<polygon fill="#8dd3c7" stroke="transparent" points="138,-10 138,-30 158,-30 158,-10 138,-10"/>
<text text-anchor="start" x="161.73" y="-15.4" font-family="sans-serif" font-size="14.00"> &#160;Module</text>
<polygon fill="#80b1d3" stroke="transparent" points="224,-10 224,-30 244,-30 244,-10 224,-10"/>
<text text-anchor="start" x="247.78" y="-15.4" font-family="sans-serif" font-size="14.00"> &#160;Bootstrap</text>
<polygon fill="#fdb462" stroke="transparent" points="321,-10 321,-30 341,-30 341,-10 321,-10"/>
<text text-anchor="start" x="344.67" y="-15.4" font-family="sans-serif" font-size="14.00"> &#160;Providers</text>
<polygon fill="#fb8072" stroke="transparent" points="417,-10 417,-30 437,-30 437,-10 417,-10"/>
<text text-anchor="start" x="440.73" y="-15.4" font-family="sans-serif" font-size="14.00"> &#160;Exports</text>
<g id="clust1" class="cluster">
<title>cluster_SharedSyntheseModule</title>
<polygon fill="none" stroke="black" stroke-dasharray="1,5" points="8,-70 8,-268 510,-268 510,-70 8,-70"/>
</g>
<g id="clust4" class="cluster">
<title>cluster_SharedSyntheseModule_imports</title>
<polygon fill="none" stroke="black" points="218,-78 218,-130 502,-130 502,-78 218,-78"/>
</g>
<g id="clust5" class="cluster">
<title>cluster_SharedSyntheseModule_exports</title>
<polygon fill="none" stroke="black" points="196,-208 196,-260 394,-260 394,-208 196,-208"/>
</g>
<g id="clust2" class="cluster">
<title>cluster_SharedSyntheseModule_declarations</title>
<polygon fill="none" stroke="black" points="16,-78 16,-130 210,-130 210,-78 16,-78"/>
</g>
<!-- SyntheseInfoObsComponent -->
<g id="node1" class="node">
<title>SyntheseInfoObsComponent</title>
<polygon fill="#ffffb3" stroke="black" points="201.75,-122 24.25,-122 24.25,-86 201.75,-86 201.75,-122"/>
<text text-anchor="middle" x="113" y="-99.8" font-family="Times,serif" font-size="14.00">SyntheseInfoObsComponent</text>
</g>
<!-- SharedSyntheseModule -->
<g id="node2" class="node">
<title>SharedSyntheseModule</title>
<polygon fill="#8dd3c7" stroke="black" points="369.47,-187 366.47,-191 345.47,-191 342.47,-187 220.53,-187 220.53,-151 369.47,-151 369.47,-187"/>
<text text-anchor="middle" x="295" y="-164.8" font-family="Times,serif" font-size="14.00">SharedSyntheseModule</text>
</g>
<!-- SyntheseInfoObsComponent&#45;&gt;SharedSyntheseModule -->
<g id="edge1" class="edge">
<title>SyntheseInfoObsComponent&#45;&gt;SharedSyntheseModule</title>
<path fill="none" stroke="black" d="M113,-122.11C113,-141.34 113,-169 113,-169 113,-169 210.45,-169 210.45,-169"/>
<polygon fill="black" stroke="black" points="210.45,-172.5 220.45,-169 210.45,-165.5 210.45,-172.5"/>
</g>
<!-- SyntheseInfoObsComponent  -->
<g id="node5" class="node">
<title>SyntheseInfoObsComponent </title>
<polygon fill="#fb8072" stroke="black" points="385.75,-252 204.25,-252 204.25,-216 385.75,-216 385.75,-252"/>
<text text-anchor="middle" x="295" y="-229.8" font-family="Times,serif" font-size="14.00">SyntheseInfoObsComponent </text>
</g>
<!-- SharedSyntheseModule&#45;&gt;SyntheseInfoObsComponent  -->
<g id="edge4" class="edge">
<title>SharedSyntheseModule&#45;&gt;SyntheseInfoObsComponent </title>
<path fill="none" stroke="black" stroke-dasharray="5,2" d="M295,-187.11C295,-187.11 295,-205.99 295,-205.99"/>
<polygon fill="black" stroke="black" points="291.5,-205.99 295,-215.99 298.5,-205.99 291.5,-205.99"/>
</g>
<!-- CommonModule -->
<g id="node3" class="node">
<title>CommonModule</title>
<polygon fill="#8dd3c7" stroke="black" points="493.67,-122 490.67,-126 469.67,-126 466.67,-122 382.33,-122 382.33,-86 493.67,-86 493.67,-122"/>
<text text-anchor="middle" x="438" y="-99.8" font-family="Times,serif" font-size="14.00">CommonModule</text>
</g>
<!-- CommonModule&#45;&gt;SharedSyntheseModule -->
<g id="edge2" class="edge">
<title>CommonModule&#45;&gt;SharedSyntheseModule</title>
<path fill="none" stroke="black" d="M439.73,-122.11C439.73,-141.34 439.73,-169 439.73,-169 439.73,-169 379.48,-169 379.48,-169"/>
<polygon fill="black" stroke="black" points="379.48,-165.5 369.48,-169 379.48,-172.5 379.48,-165.5"/>
</g>
<!-- GN2CommonModule -->
<g id="node4" class="node">
<title>GN2CommonModule</title>
<polygon fill="#8dd3c7" stroke="black" points="364.38,-122 361.38,-126 340.38,-126 337.38,-122 225.62,-122 225.62,-86 364.38,-86 364.38,-122"/>
<text text-anchor="middle" x="295" y="-99.8" font-family="Times,serif" font-size="14.00">GN2CommonModule</text>
</g>
<!-- GN2CommonModule&#45;&gt;SharedSyntheseModule -->
<g id="edge3" class="edge">
<title>GN2CommonModule&#45;&gt;SharedSyntheseModule</title>
<path fill="none" stroke="black" d="M295,-122.11C295,-122.11 295,-140.99 295,-140.99"/>
<polygon fill="black" stroke="black" points="291.5,-140.99 295,-150.99 298.5,-140.99 291.5,-140.99"/>
</g>
</g>
</svg>
