<?xml version="1.0" encoding="UTF-8" standalone="no"?>
<!DOCTYPE svg PUBLIC "-//W3C//DTD SVG 1.1//EN"
 "http://www.w3.org/Graphics/SVG/1.1/DTD/svg11.dtd">
<!-- Generated by graphviz version 2.46.0 (20210119.1425)
 -->
<!-- Title: dependencies Pages: 1 -->
<svg width="504pt" height="284pt"
 viewBox="0.00 0.00 504.00 284.00" xmlns="http://www.w3.org/2000/svg" xmlns:xlink="http://www.w3.org/1999/xlink">
<g id="graph0" class="graph" transform="scale(1 1) rotate(0) translate(4 280)">
<title>dependencies</title>
<polygon fill="white" stroke="transparent" points="-4,4 -4,-280 500,-280 500,4 -4,4"/>
<text text-anchor="start" x="227.01" y="-42.4" font-family="sans-serif" font-weight="bold" font-size="14.00">Legend</text>
<polygon fill="#ffffb3" stroke="transparent" points="14,-10 14,-30 34,-30 34,-10 14,-10"/>
<text text-anchor="start" x="37.63" y="-15.4" font-family="sans-serif" font-size="14.00"> &#160;Declarations</text>
<polygon fill="#8dd3c7" stroke="transparent" points="127,-10 127,-30 147,-30 147,-10 127,-10"/>
<text text-anchor="start" x="150.73" y="-15.4" font-family="sans-serif" font-size="14.00"> &#160;Module</text>
<polygon fill="#80b1d3" stroke="transparent" points="213,-10 213,-30 233,-30 233,-10 213,-10"/>
<text text-anchor="start" x="236.78" y="-15.4" font-family="sans-serif" font-size="14.00"> &#160;Bootstrap</text>
<polygon fill="#fdb462" stroke="transparent" points="310,-10 310,-30 330,-30 330,-10 310,-10"/>
<text text-anchor="start" x="333.67" y="-15.4" font-family="sans-serif" font-size="14.00"> &#160;Providers</text>
<polygon fill="#fb8072" stroke="transparent" points="406,-10 406,-30 426,-30 426,-10 406,-10"/>
<text text-anchor="start" x="429.73" y="-15.4" font-family="sans-serif" font-size="14.00"> &#160;Exports</text>
<g id="clust1" class="cluster">
<title>cluster_SharedSyntheseModule</title>
<polygon fill="none" stroke="black" stroke-dasharray="1,5" points="62,-70 62,-268 434,-268 434,-70 62,-70"/>
</g>
<g id="clust5" class="cluster">
<title>cluster_SharedSyntheseModule_exports</title>
<polygon fill="none" stroke="black" points="149,-208 149,-260 347,-260 347,-208 149,-208"/>
</g>
<g id="clust2" class="cluster">
<title>cluster_SharedSyntheseModule_declarations</title>
<polygon fill="none" stroke="black" points="232,-78 232,-130 426,-130 426,-78 232,-78"/>
</g>
<g id="clust4" class="cluster">
<title>cluster_SharedSyntheseModule_imports</title>
<polygon fill="none" stroke="black" points="70,-78 70,-130 224,-130 224,-78 70,-78"/>
</g>
<!-- SyntheseInfoObsComponent -->
<g id="node1" class="node">
<title>SyntheseInfoObsComponent</title>
<polygon fill="#ffffb3" stroke="black" points="417.75,-122 240.25,-122 240.25,-86 417.75,-86 417.75,-122"/>
<text text-anchor="middle" x="329" y="-99.8" font-family="Times,serif" font-size="14.00">SyntheseInfoObsComponent</text>
</g>
<!-- SharedSyntheseModule -->
<g id="node2" class="node">
<title>SharedSyntheseModule</title>
<polygon fill="#8dd3c7" stroke="black" points="322.47,-187 319.47,-191 298.47,-191 295.47,-187 173.53,-187 173.53,-151 322.47,-151 322.47,-187"/>
<text text-anchor="middle" x="248" y="-164.8" font-family="Times,serif" font-size="14.00">SharedSyntheseModule</text>
</g>
<!-- SyntheseInfoObsComponent&#45;&gt;SharedSyntheseModule -->
<g id="edge1" class="edge">
<title>SyntheseInfoObsComponent&#45;&gt;SharedSyntheseModule</title>
<path fill="none" stroke="black" d="M281.3,-122.11C281.3,-122.11 281.3,-140.99 281.3,-140.99"/>
<polygon fill="black" stroke="black" points="277.8,-140.99 281.3,-150.99 284.8,-140.99 277.8,-140.99"/>
</g>
<!-- SyntheseInfoObsComponent  -->
<g id="node4" class="node">
<title>SyntheseInfoObsComponent </title>
<polygon fill="#fb8072" stroke="black" points="338.75,-252 157.25,-252 157.25,-216 338.75,-216 338.75,-252"/>
<text text-anchor="middle" x="248" y="-229.8" font-family="Times,serif" font-size="14.00">SyntheseInfoObsComponent </text>
</g>
<!-- SharedSyntheseModule&#45;&gt;SyntheseInfoObsComponent  -->
<g id="edge3" class="edge">
<title>SharedSyntheseModule&#45;&gt;SyntheseInfoObsComponent </title>
<path fill="none" stroke="black" stroke-dasharray="5,2" d="M248,-187.11C248,-187.11 248,-205.99 248,-205.99"/>
<polygon fill="black" stroke="black" points="244.5,-205.99 248,-215.99 251.5,-205.99 244.5,-205.99"/>
</g>
<!-- GN2CommonModule -->
<g id="node3" class="node">
<title>GN2CommonModule</title>
<polygon fill="#8dd3c7" stroke="black" points="216.38,-122 213.38,-126 192.38,-126 189.38,-122 77.62,-122 77.62,-86 216.38,-86 216.38,-122"/>
<text text-anchor="middle" x="147" y="-99.8" font-family="Times,serif" font-size="14.00">GN2CommonModule</text>
</g>
<!-- GN2CommonModule&#45;&gt;SharedSyntheseModule -->
<g id="edge2" class="edge">
<title>GN2CommonModule&#45;&gt;SharedSyntheseModule</title>
<path fill="none" stroke="black" d="M194.98,-122.11C194.98,-122.11 194.98,-140.99 194.98,-140.99"/>
<polygon fill="black" stroke="black" points="191.48,-140.99 194.98,-150.99 198.48,-140.99 191.48,-140.99"/>
</g>
</g>
</svg>
